M48
; DRILL file {KiCad 8.0.5} date 2024-11-29T22:55:42+0100
; FORMAT={-:-/ absolute / inch / decimal}
; #@! TF.CreationDate,2024-11-29T22:55:42+01:00
; #@! TF.GenerationSoftware,Kicad,Pcbnew,8.0.5
; #@! TF.FileFunction,Plated,1,2,PTH
FMAT,2
INCH
; #@! TA.AperFunction,Plated,PTH,ViaDrill
T1C0.0118
; #@! TA.AperFunction,Plated,PTH,ComponentDrill
T2C0.0394
; #@! TA.AperFunction,Plated,PTH,ComponentDrill
T3C0.0433
%
G90
G05
T1
X4.7756Y-2.8898
X5.0709Y-3.1929
T2
X4.38Y-3.295
X4.38Y-3.895
X4.48Y-3.295
X4.48Y-3.895
X4.58Y-3.295
X4.58Y-3.895
X4.68Y-3.295
X4.68Y-3.895
X4.7293Y-4.0945
X4.78Y-3.295
X4.78Y-3.895
X4.8293Y-4.0945
X4.88Y-3.295
X4.88Y-3.895
X4.9293Y-4.0945
X4.98Y-3.295
X4.98Y-3.895
X5.0138Y-2.8248
X5.0293Y-4.0945
X5.08Y-3.295
X5.08Y-3.895
X5.1122Y-2.8248
X5.1293Y-4.0945
X5.18Y-3.295
X5.18Y-3.895
X5.2293Y-4.0945
X5.28Y-3.295
X5.28Y-3.895
X5.3268Y-2.7819
X5.3268Y-2.8819
X5.3268Y-2.9886
X5.3268Y-3.0886
X5.3293Y-4.0945
X5.38Y-3.295
X5.38Y-3.895
X5.4293Y-4.0945
X5.48Y-3.295
X5.48Y-3.895
X5.58Y-3.295
X5.58Y-3.895
X5.68Y-3.295
X5.68Y-3.895
X5.78Y-3.295
X5.78Y-3.895
T3
X4.863Y-3.0472
X4.963Y-3.0472
X5.063Y-3.0472
M30
