%TF.GenerationSoftware,KiCad,Pcbnew,8.0.5*%
%TF.CreationDate,2024-11-29T22:55:39+01:00*%
%TF.ProjectId,hotendheater,686f7465-6e64-4686-9561-7465722e6b69,rev?*%
%TF.SameCoordinates,Original*%
%TF.FileFunction,Soldermask,Bot*%
%TF.FilePolarity,Negative*%
%FSLAX46Y46*%
G04 Gerber Fmt 4.6, Leading zero omitted, Abs format (unit mm)*
G04 Created by KiCad (PCBNEW 8.0.5) date 2024-11-29 22:55:39*
%MOMM*%
%LPD*%
G01*
G04 APERTURE LIST*
G04 Aperture macros list*
%AMRoundRect*
0 Rectangle with rounded corners*
0 $1 Rounding radius*
0 $2 $3 $4 $5 $6 $7 $8 $9 X,Y pos of 4 corners*
0 Add a 4 corners polygon primitive as box body*
4,1,4,$2,$3,$4,$5,$6,$7,$8,$9,$2,$3,0*
0 Add four circle primitives for the rounded corners*
1,1,$1+$1,$2,$3*
1,1,$1+$1,$4,$5*
1,1,$1+$1,$6,$7*
1,1,$1+$1,$8,$9*
0 Add four rect primitives between the rounded corners*
20,1,$1+$1,$2,$3,$4,$5,0*
20,1,$1+$1,$4,$5,$6,$7,0*
20,1,$1+$1,$6,$7,$8,$9,0*
20,1,$1+$1,$8,$9,$2,$3,0*%
G04 Aperture macros list end*
%ADD10C,3.200000*%
%ADD11R,1.905000X2.000000*%
%ADD12O,1.905000X2.000000*%
%ADD13R,1.600000X1.600000*%
%ADD14O,1.600000X1.600000*%
%ADD15R,1.700000X1.700000*%
%ADD16O,1.700000X1.700000*%
%ADD17RoundRect,0.250000X0.600000X0.750000X-0.600000X0.750000X-0.600000X-0.750000X0.600000X-0.750000X0*%
%ADD18O,1.700000X2.000000*%
G04 APERTURE END LIST*
D10*
%TO.C,H3*%
X147600000Y-65000000D03*
%TD*%
%TO.C,H6*%
X147600000Y-105700000D03*
%TD*%
D11*
%TO.C,Q1*%
X128600000Y-77400000D03*
D12*
X126060000Y-77400000D03*
X123520000Y-77400000D03*
%TD*%
D10*
%TO.C,H5*%
X110300000Y-105700000D03*
%TD*%
%TO.C,H4*%
X147800000Y-127900000D03*
%TD*%
D13*
%TO.C,A1*%
X111252000Y-98933000D03*
D14*
X113792000Y-98933000D03*
X116332000Y-98933000D03*
X118872000Y-98933000D03*
X121412000Y-98933000D03*
X123952000Y-98933000D03*
X126492000Y-98933000D03*
X129032000Y-98933000D03*
X131572000Y-98933000D03*
X134112000Y-98933000D03*
X136652000Y-98933000D03*
X139192000Y-98933000D03*
X141732000Y-98933000D03*
X144272000Y-98933000D03*
X146812000Y-98933000D03*
X146812000Y-83693000D03*
X144272000Y-83693000D03*
X141732000Y-83693000D03*
X139192000Y-83693000D03*
X136652000Y-83693000D03*
X134112000Y-83693000D03*
X131572000Y-83693000D03*
X129032000Y-83693000D03*
X126492000Y-83693000D03*
X123952000Y-83693000D03*
X121412000Y-83693000D03*
X118872000Y-83693000D03*
X116332000Y-83693000D03*
X113792000Y-83693000D03*
X111252000Y-83693000D03*
%TD*%
D15*
%TO.C,J3*%
X120125000Y-104000000D03*
D16*
X122665000Y-104000000D03*
X125205000Y-104000000D03*
X127745000Y-104000000D03*
X130285000Y-104000000D03*
X132825000Y-104000000D03*
X135365000Y-104000000D03*
X137905000Y-104000000D03*
%TD*%
D10*
%TO.C,H2*%
X110200000Y-128000000D03*
%TD*%
%TO.C,H1*%
X110400000Y-65000000D03*
%TD*%
D15*
%TO.C,J4*%
X135300000Y-78450000D03*
D16*
X135300000Y-75910000D03*
%TD*%
D17*
%TO.C,J1*%
X129850000Y-71750000D03*
D18*
X127350000Y-71750000D03*
%TD*%
D15*
%TO.C,J5*%
X135300000Y-73200000D03*
D16*
X135300000Y-70660000D03*
%TD*%
M02*
