%TF.GenerationSoftware,KiCad,Pcbnew,8.0.5*%
%TF.CreationDate,2024-11-29T22:55:39+01:00*%
%TF.ProjectId,hotendheater,686f7465-6e64-4686-9561-7465722e6b69,rev?*%
%TF.SameCoordinates,Original*%
%TF.FileFunction,Copper,L1,Top*%
%TF.FilePolarity,Positive*%
%FSLAX46Y46*%
G04 Gerber Fmt 4.6, Leading zero omitted, Abs format (unit mm)*
G04 Created by KiCad (PCBNEW 8.0.5) date 2024-11-29 22:55:39*
%MOMM*%
%LPD*%
G01*
G04 APERTURE LIST*
G04 Aperture macros list*
%AMRoundRect*
0 Rectangle with rounded corners*
0 $1 Rounding radius*
0 $2 $3 $4 $5 $6 $7 $8 $9 X,Y pos of 4 corners*
0 Add a 4 corners polygon primitive as box body*
4,1,4,$2,$3,$4,$5,$6,$7,$8,$9,$2,$3,0*
0 Add four circle primitives for the rounded corners*
1,1,$1+$1,$2,$3*
1,1,$1+$1,$4,$5*
1,1,$1+$1,$6,$7*
1,1,$1+$1,$8,$9*
0 Add four rect primitives between the rounded corners*
20,1,$1+$1,$2,$3,$4,$5,0*
20,1,$1+$1,$4,$5,$6,$7,0*
20,1,$1+$1,$6,$7,$8,$9,0*
20,1,$1+$1,$8,$9,$2,$3,0*%
G04 Aperture macros list end*
%TA.AperFunction,SMDPad,CuDef*%
%ADD10RoundRect,0.250000X0.450000X-0.262500X0.450000X0.262500X-0.450000X0.262500X-0.450000X-0.262500X0*%
%TD*%
%TA.AperFunction,SMDPad,CuDef*%
%ADD11RoundRect,0.150000X0.150000X0.700000X-0.150000X0.700000X-0.150000X-0.700000X0.150000X-0.700000X0*%
%TD*%
%TA.AperFunction,SMDPad,CuDef*%
%ADD12RoundRect,0.250000X0.250000X1.100000X-0.250000X1.100000X-0.250000X-1.100000X0.250000X-1.100000X0*%
%TD*%
%TA.AperFunction,ComponentPad*%
%ADD13R,1.905000X2.000000*%
%TD*%
%TA.AperFunction,ComponentPad*%
%ADD14O,1.905000X2.000000*%
%TD*%
%TA.AperFunction,ComponentPad*%
%ADD15R,1.600000X1.600000*%
%TD*%
%TA.AperFunction,ComponentPad*%
%ADD16O,1.600000X1.600000*%
%TD*%
%TA.AperFunction,ComponentPad*%
%ADD17R,1.700000X1.700000*%
%TD*%
%TA.AperFunction,ComponentPad*%
%ADD18O,1.700000X1.700000*%
%TD*%
%TA.AperFunction,ComponentPad*%
%ADD19RoundRect,0.250000X0.600000X0.750000X-0.600000X0.750000X-0.600000X-0.750000X0.600000X-0.750000X0*%
%TD*%
%TA.AperFunction,ComponentPad*%
%ADD20O,1.700000X2.000000*%
%TD*%
%TA.AperFunction,ViaPad*%
%ADD21C,0.600000*%
%TD*%
%TA.AperFunction,Conductor*%
%ADD22C,0.500000*%
%TD*%
%TA.AperFunction,Conductor*%
%ADD23C,1.750000*%
%TD*%
G04 APERTURE END LIST*
D10*
%TO.P,R2,1*%
%TO.N,+5V*%
X113900000Y-78725000D03*
%TO.P,R2,2*%
%TO.N,/Thermistor*%
X113900000Y-76900000D03*
%TD*%
D11*
%TO.P,J6,1,Pin_1*%
%TO.N,/Thermistor*%
X119125000Y-67350000D03*
%TO.P,J6,2,Pin_2*%
%TO.N,GND*%
X117875000Y-67350000D03*
D12*
%TO.P,J6,SH,Shield*%
X120975000Y-64150000D03*
X116025000Y-64150000D03*
%TD*%
D10*
%TO.P,R3,1*%
%TO.N,GND*%
X116700000Y-78700000D03*
%TO.P,R3,2*%
%TO.N,Net-(Q1-G)*%
X116700000Y-76875000D03*
%TD*%
D13*
%TO.P,Q1,1,G*%
%TO.N,Net-(Q1-G)*%
X128600000Y-77400000D03*
D14*
%TO.P,Q1,2,D*%
%TO.N,Net-(J1-Pin_2)*%
X126060000Y-77400000D03*
%TO.P,Q1,3,S*%
%TO.N,GND*%
X123520000Y-77400000D03*
%TD*%
D10*
%TO.P,R1,1*%
%TO.N,/Heater*%
X119300000Y-78725000D03*
%TO.P,R1,2*%
%TO.N,Net-(Q1-G)*%
X119300000Y-76900000D03*
%TD*%
D15*
%TO.P,A1,1,D1/TX*%
%TO.N,unconnected-(A1-D1{slash}TX-Pad1)*%
X111252000Y-98933000D03*
D16*
%TO.P,A1,2,D0/RX*%
%TO.N,unconnected-(A1-D0{slash}RX-Pad2)*%
X113792000Y-98933000D03*
%TO.P,A1,3,~{RESET}*%
%TO.N,unconnected-(A1-~{RESET}-Pad3)*%
X116332000Y-98933000D03*
%TO.P,A1,4,GND*%
%TO.N,GND*%
X118872000Y-98933000D03*
%TO.P,A1,5,D2*%
%TO.N,unconnected-(A1-D2-Pad5)*%
X121412000Y-98933000D03*
%TO.P,A1,6,D3*%
%TO.N,/Heater*%
X123952000Y-98933000D03*
%TO.P,A1,7,D4*%
%TO.N,unconnected-(A1-D4-Pad7)*%
X126492000Y-98933000D03*
%TO.P,A1,8,D5*%
%TO.N,unconnected-(A1-D5-Pad8)*%
X129032000Y-98933000D03*
%TO.P,A1,9,D6*%
%TO.N,unconnected-(A1-D6-Pad9)*%
X131572000Y-98933000D03*
%TO.P,A1,10,D7*%
%TO.N,unconnected-(A1-D7-Pad10)*%
X134112000Y-98933000D03*
%TO.P,A1,11,D8*%
%TO.N,unconnected-(A1-D8-Pad11)*%
X136652000Y-98933000D03*
%TO.P,A1,12,D9*%
%TO.N,unconnected-(A1-D9-Pad12)*%
X139192000Y-98933000D03*
%TO.P,A1,13,D10*%
%TO.N,/Button4*%
X141732000Y-98933000D03*
%TO.P,A1,14,D11*%
%TO.N,/Button3*%
X144272000Y-98933000D03*
%TO.P,A1,15,D12*%
%TO.N,/Button2*%
X146812000Y-98933000D03*
%TO.P,A1,16,D13*%
%TO.N,/Button1*%
X146812000Y-83693000D03*
%TO.P,A1,17,3V3*%
%TO.N,unconnected-(A1-3V3-Pad17)*%
X144272000Y-83693000D03*
%TO.P,A1,18,AREF*%
%TO.N,unconnected-(A1-AREF-Pad18)*%
X141732000Y-83693000D03*
%TO.P,A1,19,A0*%
%TO.N,/Thermistor*%
X139192000Y-83693000D03*
%TO.P,A1,20,A1*%
%TO.N,unconnected-(A1-A1-Pad20)*%
X136652000Y-83693000D03*
%TO.P,A1,21,A2*%
%TO.N,unconnected-(A1-A2-Pad21)*%
X134112000Y-83693000D03*
%TO.P,A1,22,A3*%
%TO.N,unconnected-(A1-A3-Pad22)*%
X131572000Y-83693000D03*
%TO.P,A1,23,A4*%
%TO.N,/SDA*%
X129032000Y-83693000D03*
%TO.P,A1,24,A5*%
%TO.N,/SCL*%
X126492000Y-83693000D03*
%TO.P,A1,25,A6*%
%TO.N,unconnected-(A1-A6-Pad25)*%
X123952000Y-83693000D03*
%TO.P,A1,26,A7*%
%TO.N,unconnected-(A1-A7-Pad26)*%
X121412000Y-83693000D03*
%TO.P,A1,27,+5V*%
%TO.N,+5V*%
X118872000Y-83693000D03*
%TO.P,A1,28,~{RESET}*%
%TO.N,unconnected-(A1-~{RESET}-Pad28)*%
X116332000Y-83693000D03*
%TO.P,A1,29,GND*%
%TO.N,GND*%
X113792000Y-83693000D03*
%TO.P,A1,30,VIN*%
%TO.N,+12V*%
X111252000Y-83693000D03*
%TD*%
D17*
%TO.P,J3,1,Pin_1*%
%TO.N,GND*%
X120125000Y-104000000D03*
D18*
%TO.P,J3,2,Pin_2*%
%TO.N,+5V*%
X122665000Y-104000000D03*
%TO.P,J3,3,Pin_3*%
%TO.N,/SCL*%
X125205000Y-104000000D03*
%TO.P,J3,4,Pin_4*%
%TO.N,/SDA*%
X127745000Y-104000000D03*
%TO.P,J3,5,Pin_5*%
%TO.N,/Button4*%
X130285000Y-104000000D03*
%TO.P,J3,6,Pin_6*%
%TO.N,/Button3*%
X132825000Y-104000000D03*
%TO.P,J3,7,Pin_7*%
%TO.N,/Button2*%
X135365000Y-104000000D03*
%TO.P,J3,8,Pin_8*%
%TO.N,/Button1*%
X137905000Y-104000000D03*
%TD*%
D17*
%TO.P,J4,1,Pin_1*%
%TO.N,+12V*%
X135300000Y-78450000D03*
D18*
%TO.P,J4,2,Pin_2*%
X135300000Y-75910000D03*
%TD*%
D19*
%TO.P,J1,1,Pin_1*%
%TO.N,+12V*%
X129850000Y-71750000D03*
D20*
%TO.P,J1,2,Pin_2*%
%TO.N,Net-(J1-Pin_2)*%
X127350000Y-71750000D03*
%TD*%
D17*
%TO.P,J5,1,Pin_1*%
%TO.N,GND*%
X135300000Y-73200000D03*
D18*
%TO.P,J5,2,Pin_2*%
X135300000Y-70660000D03*
%TD*%
D21*
%TO.N,+12V*%
X128800000Y-81100000D03*
%TO.N,/Thermistor*%
X121300000Y-73400000D03*
%TD*%
D22*
%TO.N,+5V*%
X118872000Y-83693000D02*
X118872000Y-81772000D01*
X118100000Y-81000000D02*
X114800000Y-81000000D01*
X118872000Y-81772000D02*
X118100000Y-81000000D01*
X122665000Y-87560000D02*
X122665000Y-104000000D01*
X118872000Y-83693000D02*
X122702000Y-87523000D01*
X113900000Y-80100000D02*
X113900000Y-78725000D01*
X122702000Y-87523000D02*
X122665000Y-87560000D01*
X114800000Y-81000000D02*
X113900000Y-80100000D01*
D23*
%TO.N,+12V*%
X129850000Y-72250000D02*
X129850000Y-71750000D01*
D22*
X128800000Y-81100000D02*
X131450000Y-78450000D01*
D23*
X135300000Y-75910000D02*
X133510000Y-75910000D01*
X133510000Y-75910000D02*
X129850000Y-72250000D01*
D22*
X131450000Y-78450000D02*
X135300000Y-78450000D01*
D23*
X135300000Y-78450000D02*
X135300000Y-75910000D01*
D22*
%TO.N,/Thermistor*%
X119125000Y-73375000D02*
X117900000Y-74600000D01*
X113900000Y-76200000D02*
X113900000Y-76900000D01*
X121275000Y-73375000D02*
X121300000Y-73400000D01*
X119125000Y-73375000D02*
X121275000Y-73375000D01*
X115500000Y-74600000D02*
X113900000Y-76200000D01*
X119125000Y-67350000D02*
X119125000Y-73375000D01*
X117900000Y-74600000D02*
X115500000Y-74600000D01*
%TO.N,/SCL*%
X125205000Y-104000000D02*
X125205000Y-84980000D01*
X125205000Y-84980000D02*
X126492000Y-83693000D01*
%TO.N,/SDA*%
X127745000Y-84980000D02*
X129032000Y-83693000D01*
X127745000Y-104000000D02*
X127745000Y-84980000D01*
%TO.N,/Heater*%
X123952000Y-98933000D02*
X123952000Y-85460767D01*
X119300000Y-80100000D02*
X119300000Y-78725000D01*
X121929767Y-82443000D02*
X121643000Y-82443000D01*
X122700000Y-84208767D02*
X122700000Y-83213233D01*
X122700000Y-83213233D02*
X121929767Y-82443000D01*
X123952000Y-85460767D02*
X122700000Y-84208767D01*
X121643000Y-82443000D02*
X119300000Y-80100000D01*
%TO.N,/Button2*%
X146812000Y-98933000D02*
X143045000Y-102700000D01*
X136665000Y-102700000D02*
X135365000Y-104000000D01*
X143045000Y-102700000D02*
X136665000Y-102700000D01*
%TO.N,/Button4*%
X132985000Y-101300000D02*
X130285000Y-104000000D01*
X139365000Y-101300000D02*
X132985000Y-101300000D01*
X141732000Y-98933000D02*
X139365000Y-101300000D01*
%TO.N,/Button3*%
X134825000Y-102000000D02*
X132825000Y-104000000D01*
X144272000Y-98933000D02*
X141205000Y-102000000D01*
X141205000Y-102000000D02*
X134825000Y-102000000D01*
%TO.N,Net-(Q1-G)*%
X119600000Y-76900000D02*
X122500000Y-79800000D01*
X127700000Y-79800000D02*
X128600000Y-78900000D01*
X119300000Y-76900000D02*
X119600000Y-76900000D01*
X122500000Y-79800000D02*
X127700000Y-79800000D01*
X119275000Y-76875000D02*
X119300000Y-76900000D01*
X128600000Y-78900000D02*
X128600000Y-77400000D01*
X116700000Y-76875000D02*
X119275000Y-76875000D01*
D23*
%TO.N,Net-(J1-Pin_2)*%
X126060000Y-73040000D02*
X127350000Y-71750000D01*
X126060000Y-77400000D02*
X126060000Y-73040000D01*
%TD*%
%TA.AperFunction,Conductor*%
%TO.N,GND*%
G36*
X135550000Y-72766988D02*
G01*
X135492993Y-72734075D01*
X135365826Y-72700000D01*
X135234174Y-72700000D01*
X135107007Y-72734075D01*
X135050000Y-72766988D01*
X135050000Y-71093012D01*
X135107007Y-71125925D01*
X135234174Y-71160000D01*
X135365826Y-71160000D01*
X135492993Y-71125925D01*
X135550000Y-71093012D01*
X135550000Y-72766988D01*
G37*
%TD.AperFunction*%
%TA.AperFunction,Conductor*%
G36*
X115318852Y-62241505D02*
G01*
X115364607Y-62294309D01*
X115374551Y-62363467D01*
X115345526Y-62427023D01*
X115316909Y-62451359D01*
X115306656Y-62457682D01*
X115182684Y-62581654D01*
X115090643Y-62730875D01*
X115090641Y-62730880D01*
X115035494Y-62897302D01*
X115035493Y-62897309D01*
X115025000Y-63000013D01*
X115025000Y-63900000D01*
X117024999Y-63900000D01*
X117024999Y-63000028D01*
X117024998Y-63000013D01*
X117014505Y-62897302D01*
X116959358Y-62730880D01*
X116959356Y-62730875D01*
X116867315Y-62581654D01*
X116743343Y-62457682D01*
X116733091Y-62451359D01*
X116686366Y-62399412D01*
X116675143Y-62330449D01*
X116702986Y-62266367D01*
X116761054Y-62227510D01*
X116798187Y-62221820D01*
X120201813Y-62221820D01*
X120268852Y-62241505D01*
X120314607Y-62294309D01*
X120324551Y-62363467D01*
X120295526Y-62427023D01*
X120266909Y-62451359D01*
X120256656Y-62457682D01*
X120132684Y-62581654D01*
X120040643Y-62730875D01*
X120040641Y-62730880D01*
X119985494Y-62897302D01*
X119985493Y-62897309D01*
X119975000Y-63000013D01*
X119975000Y-63900000D01*
X121974999Y-63900000D01*
X121974999Y-63000028D01*
X121974998Y-63000013D01*
X121964505Y-62897302D01*
X121909358Y-62730880D01*
X121909356Y-62730875D01*
X121817315Y-62581654D01*
X121693343Y-62457682D01*
X121683091Y-62451359D01*
X121636366Y-62399412D01*
X121625143Y-62330449D01*
X121652986Y-62266367D01*
X121711054Y-62227510D01*
X121748187Y-62221820D01*
X147812787Y-62221820D01*
X147812791Y-62221821D01*
X147874933Y-62221820D01*
X147882419Y-62222045D01*
X148172482Y-62239589D01*
X148187340Y-62241393D01*
X148469475Y-62293095D01*
X148484008Y-62296677D01*
X148592388Y-62330449D01*
X148757859Y-62382011D01*
X148771860Y-62387321D01*
X149033422Y-62505039D01*
X149046680Y-62511997D01*
X149292150Y-62660389D01*
X149304461Y-62668887D01*
X149383590Y-62730880D01*
X149530259Y-62845788D01*
X149541467Y-62855718D01*
X149744281Y-63058532D01*
X149754211Y-63069740D01*
X149890693Y-63243947D01*
X149931108Y-63295532D01*
X149939614Y-63307855D01*
X150088001Y-63553318D01*
X150094960Y-63566577D01*
X150212678Y-63828139D01*
X150217988Y-63842140D01*
X150303321Y-64115988D01*
X150306904Y-64130527D01*
X150358605Y-64412655D01*
X150360410Y-64427520D01*
X150377953Y-64717579D01*
X150378179Y-64725065D01*
X150378179Y-64794991D01*
X150378204Y-64795386D01*
X150399498Y-127996228D01*
X150399272Y-128003757D01*
X150381728Y-128293794D01*
X150379923Y-128308659D01*
X150328219Y-128590798D01*
X150324635Y-128605336D01*
X150239306Y-128879167D01*
X150233997Y-128893168D01*
X150116275Y-129154736D01*
X150109316Y-129167995D01*
X149960928Y-129413459D01*
X149952422Y-129425782D01*
X149775526Y-129651573D01*
X149765596Y-129662781D01*
X149562781Y-129865596D01*
X149551573Y-129875526D01*
X149325782Y-130052422D01*
X149313459Y-130060928D01*
X149067995Y-130209316D01*
X149054736Y-130216275D01*
X148793168Y-130333997D01*
X148779167Y-130339306D01*
X148505336Y-130424635D01*
X148490798Y-130428219D01*
X148208659Y-130479923D01*
X148193794Y-130481728D01*
X147903736Y-130499274D01*
X147896249Y-130499500D01*
X110103751Y-130499500D01*
X110096264Y-130499274D01*
X109806205Y-130481728D01*
X109791340Y-130479923D01*
X109509201Y-130428219D01*
X109494663Y-130424635D01*
X109220832Y-130339306D01*
X109206831Y-130333997D01*
X108945263Y-130216275D01*
X108932004Y-130209316D01*
X108686540Y-130060928D01*
X108674217Y-130052422D01*
X108448426Y-129875526D01*
X108437218Y-129865596D01*
X108234403Y-129662781D01*
X108224473Y-129651573D01*
X108155256Y-129563224D01*
X108047573Y-129425776D01*
X108039075Y-129413465D01*
X107890680Y-129167989D01*
X107883727Y-129154743D01*
X107766000Y-128893163D01*
X107760693Y-128879167D01*
X107711161Y-128720214D01*
X107675363Y-128605335D01*
X107671780Y-128590798D01*
X107654426Y-128496100D01*
X107620075Y-128308657D01*
X107618271Y-128293794D01*
X107610902Y-128171969D01*
X107600726Y-128003748D01*
X107600501Y-127996228D01*
X107600541Y-127878711D01*
X108349500Y-127878711D01*
X108349500Y-128121288D01*
X108381161Y-128361785D01*
X108443947Y-128596104D01*
X108536773Y-128820205D01*
X108536776Y-128820212D01*
X108658064Y-129030289D01*
X108658066Y-129030292D01*
X108658067Y-129030293D01*
X108805733Y-129222736D01*
X108805739Y-129222743D01*
X108977256Y-129394260D01*
X108977263Y-129394266D01*
X109018336Y-129425782D01*
X109169711Y-129541936D01*
X109379788Y-129663224D01*
X109603900Y-129756054D01*
X109838211Y-129818838D01*
X110018586Y-129842584D01*
X110078711Y-129850500D01*
X110078712Y-129850500D01*
X110321289Y-129850500D01*
X110369388Y-129844167D01*
X110561789Y-129818838D01*
X110796100Y-129756054D01*
X111020212Y-129663224D01*
X111230289Y-129541936D01*
X111422738Y-129394265D01*
X111594265Y-129222738D01*
X111741936Y-129030289D01*
X111863224Y-128820212D01*
X111956054Y-128596100D01*
X112018838Y-128361789D01*
X112050500Y-128121288D01*
X112050500Y-127878712D01*
X112037335Y-127778711D01*
X145949500Y-127778711D01*
X145949500Y-128021288D01*
X145981161Y-128261785D01*
X146043947Y-128496104D01*
X146089193Y-128605336D01*
X146136776Y-128720212D01*
X146258064Y-128930289D01*
X146258066Y-128930292D01*
X146258067Y-128930293D01*
X146405733Y-129122736D01*
X146405739Y-129122743D01*
X146577256Y-129294260D01*
X146577262Y-129294265D01*
X146769711Y-129441936D01*
X146979788Y-129563224D01*
X147203900Y-129656054D01*
X147438211Y-129718838D01*
X147618586Y-129742584D01*
X147678711Y-129750500D01*
X147678712Y-129750500D01*
X147921289Y-129750500D01*
X147969388Y-129744167D01*
X148161789Y-129718838D01*
X148396100Y-129656054D01*
X148620212Y-129563224D01*
X148830289Y-129441936D01*
X149022738Y-129294265D01*
X149194265Y-129122738D01*
X149341936Y-128930289D01*
X149463224Y-128720212D01*
X149556054Y-128496100D01*
X149618838Y-128261789D01*
X149650500Y-128021288D01*
X149650500Y-127778712D01*
X149618838Y-127538211D01*
X149556054Y-127303900D01*
X149463224Y-127079788D01*
X149341936Y-126869711D01*
X149194265Y-126677262D01*
X149194260Y-126677256D01*
X149022743Y-126505739D01*
X149022736Y-126505733D01*
X148830293Y-126358067D01*
X148830292Y-126358066D01*
X148830289Y-126358064D01*
X148620212Y-126236776D01*
X148620205Y-126236773D01*
X148396104Y-126143947D01*
X148161785Y-126081161D01*
X147921289Y-126049500D01*
X147921288Y-126049500D01*
X147678712Y-126049500D01*
X147678711Y-126049500D01*
X147438214Y-126081161D01*
X147203895Y-126143947D01*
X146979794Y-126236773D01*
X146979785Y-126236777D01*
X146769706Y-126358067D01*
X146577263Y-126505733D01*
X146577256Y-126505739D01*
X146405739Y-126677256D01*
X146405733Y-126677263D01*
X146258067Y-126869706D01*
X146136777Y-127079785D01*
X146136773Y-127079794D01*
X146043947Y-127303895D01*
X145981161Y-127538214D01*
X145949500Y-127778711D01*
X112037335Y-127778711D01*
X112018838Y-127638211D01*
X111956054Y-127403900D01*
X111863224Y-127179788D01*
X111741936Y-126969711D01*
X111681018Y-126890321D01*
X111594266Y-126777263D01*
X111594260Y-126777256D01*
X111422743Y-126605739D01*
X111422736Y-126605733D01*
X111230293Y-126458067D01*
X111230292Y-126458066D01*
X111230289Y-126458064D01*
X111020212Y-126336776D01*
X111020205Y-126336773D01*
X110796104Y-126243947D01*
X110561785Y-126181161D01*
X110321289Y-126149500D01*
X110321288Y-126149500D01*
X110078712Y-126149500D01*
X110078711Y-126149500D01*
X109838214Y-126181161D01*
X109603895Y-126243947D01*
X109379794Y-126336773D01*
X109379785Y-126336777D01*
X109169706Y-126458067D01*
X108977263Y-126605733D01*
X108977256Y-126605739D01*
X108805739Y-126777256D01*
X108805733Y-126777263D01*
X108658067Y-126969706D01*
X108536777Y-127179785D01*
X108536773Y-127179794D01*
X108443947Y-127403895D01*
X108381161Y-127638214D01*
X108349500Y-127878711D01*
X107600541Y-127878711D01*
X107600575Y-127778712D01*
X107608054Y-105578711D01*
X108449500Y-105578711D01*
X108449500Y-105821288D01*
X108481161Y-106061785D01*
X108543947Y-106296104D01*
X108636773Y-106520205D01*
X108636776Y-106520212D01*
X108758064Y-106730289D01*
X108758066Y-106730292D01*
X108758067Y-106730293D01*
X108905733Y-106922736D01*
X108905739Y-106922743D01*
X109077256Y-107094260D01*
X109077262Y-107094265D01*
X109269711Y-107241936D01*
X109479788Y-107363224D01*
X109703900Y-107456054D01*
X109938211Y-107518838D01*
X110118586Y-107542584D01*
X110178711Y-107550500D01*
X110178712Y-107550500D01*
X110421289Y-107550500D01*
X110469388Y-107544167D01*
X110661789Y-107518838D01*
X110896100Y-107456054D01*
X111120212Y-107363224D01*
X111330289Y-107241936D01*
X111522738Y-107094265D01*
X111694265Y-106922738D01*
X111841936Y-106730289D01*
X111963224Y-106520212D01*
X112056054Y-106296100D01*
X112118838Y-106061789D01*
X112150500Y-105821288D01*
X112150500Y-105578712D01*
X112150500Y-105578711D01*
X145749500Y-105578711D01*
X145749500Y-105821288D01*
X145781161Y-106061785D01*
X145843947Y-106296104D01*
X145936773Y-106520205D01*
X145936776Y-106520212D01*
X146058064Y-106730289D01*
X146058066Y-106730292D01*
X146058067Y-106730293D01*
X146205733Y-106922736D01*
X146205739Y-106922743D01*
X146377256Y-107094260D01*
X146377262Y-107094265D01*
X146569711Y-107241936D01*
X146779788Y-107363224D01*
X147003900Y-107456054D01*
X147238211Y-107518838D01*
X147418586Y-107542584D01*
X147478711Y-107550500D01*
X147478712Y-107550500D01*
X147721289Y-107550500D01*
X147769388Y-107544167D01*
X147961789Y-107518838D01*
X148196100Y-107456054D01*
X148420212Y-107363224D01*
X148630289Y-107241936D01*
X148822738Y-107094265D01*
X148994265Y-106922738D01*
X149141936Y-106730289D01*
X149263224Y-106520212D01*
X149356054Y-106296100D01*
X149418838Y-106061789D01*
X149450500Y-105821288D01*
X149450500Y-105578712D01*
X149418838Y-105338211D01*
X149356054Y-105103900D01*
X149351160Y-105092086D01*
X149269537Y-104895030D01*
X149263224Y-104879788D01*
X149141936Y-104669711D01*
X149081018Y-104590321D01*
X148994266Y-104477263D01*
X148994260Y-104477256D01*
X148822743Y-104305739D01*
X148822736Y-104305733D01*
X148630293Y-104158067D01*
X148630292Y-104158066D01*
X148630289Y-104158064D01*
X148420212Y-104036776D01*
X148331427Y-104000000D01*
X148196104Y-103943947D01*
X147961785Y-103881161D01*
X147721289Y-103849500D01*
X147721288Y-103849500D01*
X147478712Y-103849500D01*
X147478711Y-103849500D01*
X147238214Y-103881161D01*
X147003895Y-103943947D01*
X146779794Y-104036773D01*
X146779785Y-104036777D01*
X146569706Y-104158067D01*
X146377263Y-104305733D01*
X146377256Y-104305739D01*
X146205739Y-104477256D01*
X146205733Y-104477263D01*
X146058067Y-104669706D01*
X146058064Y-104669710D01*
X146058064Y-104669711D01*
X146053374Y-104677834D01*
X145936777Y-104879785D01*
X145936773Y-104879794D01*
X145843947Y-105103895D01*
X145781161Y-105338214D01*
X145749500Y-105578711D01*
X112150500Y-105578711D01*
X112118838Y-105338211D01*
X112056054Y-105103900D01*
X112051160Y-105092086D01*
X111969537Y-104895030D01*
X111963224Y-104879788D01*
X111841936Y-104669711D01*
X111781018Y-104590321D01*
X111694266Y-104477263D01*
X111694260Y-104477256D01*
X111522743Y-104305739D01*
X111522736Y-104305733D01*
X111330293Y-104158067D01*
X111330292Y-104158066D01*
X111330289Y-104158064D01*
X111120212Y-104036776D01*
X111031427Y-104000000D01*
X110896104Y-103943947D01*
X110661785Y-103881161D01*
X110421289Y-103849500D01*
X110421288Y-103849500D01*
X110178712Y-103849500D01*
X110178711Y-103849500D01*
X109938214Y-103881161D01*
X109703895Y-103943947D01*
X109479794Y-104036773D01*
X109479785Y-104036777D01*
X109269706Y-104158067D01*
X109077263Y-104305733D01*
X109077256Y-104305739D01*
X108905739Y-104477256D01*
X108905733Y-104477263D01*
X108758067Y-104669706D01*
X108758064Y-104669710D01*
X108758064Y-104669711D01*
X108753374Y-104677834D01*
X108636777Y-104879785D01*
X108636773Y-104879794D01*
X108543947Y-105103895D01*
X108481161Y-105338214D01*
X108449500Y-105578711D01*
X107608054Y-105578711D01*
X107615427Y-83692998D01*
X109946532Y-83692998D01*
X109946532Y-83693001D01*
X109966364Y-83919686D01*
X109966366Y-83919697D01*
X110025258Y-84139488D01*
X110025261Y-84139497D01*
X110121431Y-84345732D01*
X110121432Y-84345734D01*
X110251954Y-84532141D01*
X110412858Y-84693045D01*
X110412861Y-84693047D01*
X110599266Y-84823568D01*
X110805504Y-84919739D01*
X111025308Y-84978635D01*
X111187230Y-84992801D01*
X111251998Y-84998468D01*
X111252000Y-84998468D01*
X111252002Y-84998468D01*
X111308673Y-84993509D01*
X111478692Y-84978635D01*
X111698496Y-84919739D01*
X111904734Y-84823568D01*
X112091139Y-84693047D01*
X112252047Y-84532139D01*
X112382568Y-84345734D01*
X112409895Y-84287129D01*
X112456064Y-84234695D01*
X112523257Y-84215542D01*
X112590139Y-84235757D01*
X112634657Y-84287133D01*
X112661865Y-84345482D01*
X112792342Y-84531820D01*
X112953179Y-84692657D01*
X113139517Y-84823134D01*
X113345673Y-84919265D01*
X113345682Y-84919269D01*
X113541999Y-84971872D01*
X113542000Y-84971871D01*
X113542000Y-84126012D01*
X113599007Y-84158925D01*
X113726174Y-84193000D01*
X113857826Y-84193000D01*
X113984993Y-84158925D01*
X114042000Y-84126012D01*
X114042000Y-84971872D01*
X114238317Y-84919269D01*
X114238326Y-84919265D01*
X114444482Y-84823134D01*
X114630820Y-84692657D01*
X114791657Y-84531820D01*
X114922132Y-84345484D01*
X114949341Y-84287134D01*
X114995513Y-84234695D01*
X115062707Y-84215542D01*
X115129588Y-84235757D01*
X115174106Y-84287133D01*
X115201431Y-84345732D01*
X115201432Y-84345734D01*
X115331954Y-84532141D01*
X115492858Y-84693045D01*
X115492861Y-84693047D01*
X115679266Y-84823568D01*
X115885504Y-84919739D01*
X116105308Y-84978635D01*
X116267230Y-84992801D01*
X116331998Y-84998468D01*
X116332000Y-84998468D01*
X116332002Y-84998468D01*
X116388673Y-84993509D01*
X116558692Y-84978635D01*
X116778496Y-84919739D01*
X116984734Y-84823568D01*
X117171139Y-84693047D01*
X117332047Y-84532139D01*
X117462568Y-84345734D01*
X117489618Y-84287724D01*
X117535790Y-84235285D01*
X117602983Y-84216133D01*
X117669865Y-84236348D01*
X117714382Y-84287725D01*
X117741429Y-84345728D01*
X117741432Y-84345734D01*
X117871954Y-84532141D01*
X118032858Y-84693045D01*
X118032861Y-84693047D01*
X118219266Y-84823568D01*
X118425504Y-84919739D01*
X118645308Y-84978635D01*
X118807230Y-84992801D01*
X118871998Y-84998468D01*
X118872000Y-84998468D01*
X118872001Y-84998468D01*
X118892062Y-84996712D01*
X119038861Y-84983869D01*
X119107359Y-84997635D01*
X119137348Y-85019716D01*
X121878181Y-87760549D01*
X121911666Y-87821872D01*
X121914500Y-87848230D01*
X121914500Y-97559667D01*
X121894815Y-97626706D01*
X121842011Y-97672461D01*
X121772853Y-97682405D01*
X121758407Y-97679442D01*
X121638697Y-97647366D01*
X121638693Y-97647365D01*
X121638692Y-97647365D01*
X121638691Y-97647364D01*
X121638686Y-97647364D01*
X121412002Y-97627532D01*
X121411998Y-97627532D01*
X121185313Y-97647364D01*
X121185302Y-97647366D01*
X120965511Y-97706258D01*
X120965502Y-97706261D01*
X120759267Y-97802431D01*
X120759265Y-97802432D01*
X120572858Y-97932954D01*
X120411954Y-98093858D01*
X120281433Y-98280264D01*
X120281432Y-98280266D01*
X120281315Y-98280518D01*
X120254106Y-98338867D01*
X120207933Y-98391306D01*
X120140739Y-98410457D01*
X120073858Y-98390241D01*
X120029342Y-98338865D01*
X120002135Y-98280520D01*
X120002134Y-98280518D01*
X119871657Y-98094179D01*
X119710820Y-97933342D01*
X119524482Y-97802865D01*
X119318328Y-97706734D01*
X119122000Y-97654127D01*
X119122000Y-98499988D01*
X119064993Y-98467075D01*
X118937826Y-98433000D01*
X118806174Y-98433000D01*
X118679007Y-98467075D01*
X118622000Y-98499988D01*
X118622000Y-97654127D01*
X118425671Y-97706734D01*
X118219517Y-97802865D01*
X118033179Y-97933342D01*
X117872342Y-98094179D01*
X117741867Y-98280515D01*
X117714657Y-98338867D01*
X117668484Y-98391306D01*
X117601290Y-98410457D01*
X117534409Y-98390241D01*
X117489893Y-98338865D01*
X117462685Y-98280518D01*
X117462568Y-98280266D01*
X117332047Y-98093861D01*
X117332045Y-98093858D01*
X117171141Y-97932954D01*
X116984734Y-97802432D01*
X116984732Y-97802431D01*
X116778497Y-97706261D01*
X116778488Y-97706258D01*
X116558697Y-97647366D01*
X116558693Y-97647365D01*
X116558692Y-97647365D01*
X116558691Y-97647364D01*
X116558686Y-97647364D01*
X116332002Y-97627532D01*
X116331998Y-97627532D01*
X116105313Y-97647364D01*
X116105302Y-97647366D01*
X115885511Y-97706258D01*
X115885502Y-97706261D01*
X115679267Y-97802431D01*
X115679265Y-97802432D01*
X115492858Y-97932954D01*
X115331954Y-98093858D01*
X115201432Y-98280265D01*
X115201431Y-98280267D01*
X115174382Y-98338275D01*
X115128209Y-98390714D01*
X115061016Y-98409866D01*
X114994135Y-98389650D01*
X114949618Y-98338275D01*
X114922686Y-98280520D01*
X114922568Y-98280266D01*
X114792047Y-98093861D01*
X114792045Y-98093858D01*
X114631141Y-97932954D01*
X114444734Y-97802432D01*
X114444732Y-97802431D01*
X114238497Y-97706261D01*
X114238488Y-97706258D01*
X114018697Y-97647366D01*
X114018693Y-97647365D01*
X114018692Y-97647365D01*
X114018691Y-97647364D01*
X114018686Y-97647364D01*
X113792002Y-97627532D01*
X113791998Y-97627532D01*
X113565313Y-97647364D01*
X113565302Y-97647366D01*
X113345511Y-97706258D01*
X113345502Y-97706261D01*
X113139267Y-97802431D01*
X113139265Y-97802432D01*
X112952858Y-97932954D01*
X112791954Y-98093858D01*
X112774725Y-98118464D01*
X112720147Y-98162088D01*
X112650648Y-98169280D01*
X112588294Y-98137757D01*
X112552882Y-98077526D01*
X112549861Y-98060591D01*
X112546091Y-98025516D01*
X112495797Y-97890671D01*
X112495793Y-97890664D01*
X112409547Y-97775455D01*
X112409544Y-97775452D01*
X112294335Y-97689206D01*
X112294328Y-97689202D01*
X112159482Y-97638908D01*
X112159483Y-97638908D01*
X112099883Y-97632501D01*
X112099881Y-97632500D01*
X112099873Y-97632500D01*
X112099864Y-97632500D01*
X110404129Y-97632500D01*
X110404123Y-97632501D01*
X110344516Y-97638908D01*
X110209671Y-97689202D01*
X110209664Y-97689206D01*
X110094455Y-97775452D01*
X110094452Y-97775455D01*
X110008206Y-97890664D01*
X110008202Y-97890671D01*
X109957908Y-98025517D01*
X109951501Y-98085116D01*
X109951500Y-98085135D01*
X109951500Y-99780870D01*
X109951501Y-99780876D01*
X109957908Y-99840483D01*
X110008202Y-99975328D01*
X110008206Y-99975335D01*
X110094452Y-100090544D01*
X110094455Y-100090547D01*
X110209664Y-100176793D01*
X110209671Y-100176797D01*
X110344517Y-100227091D01*
X110344516Y-100227091D01*
X110351444Y-100227835D01*
X110404127Y-100233500D01*
X112099872Y-100233499D01*
X112159483Y-100227091D01*
X112294331Y-100176796D01*
X112409546Y-100090546D01*
X112495796Y-99975331D01*
X112546091Y-99840483D01*
X112549862Y-99805401D01*
X112576599Y-99740855D01*
X112633990Y-99701006D01*
X112703816Y-99698511D01*
X112763905Y-99734163D01*
X112774726Y-99747536D01*
X112791956Y-99772143D01*
X112952858Y-99933045D01*
X112952861Y-99933047D01*
X113139266Y-100063568D01*
X113345504Y-100159739D01*
X113565308Y-100218635D01*
X113727230Y-100232801D01*
X113791998Y-100238468D01*
X113792000Y-100238468D01*
X113792002Y-100238468D01*
X113848807Y-100233498D01*
X114018692Y-100218635D01*
X114238496Y-100159739D01*
X114444734Y-100063568D01*
X114631139Y-99933047D01*
X114792047Y-99772139D01*
X114922568Y-99585734D01*
X114949618Y-99527724D01*
X114995790Y-99475285D01*
X115062983Y-99456133D01*
X115129865Y-99476348D01*
X115174382Y-99527725D01*
X115201429Y-99585728D01*
X115201432Y-99585734D01*
X115331954Y-99772141D01*
X115492858Y-99933045D01*
X115492861Y-99933047D01*
X115679266Y-100063568D01*
X115885504Y-100159739D01*
X116105308Y-100218635D01*
X116267230Y-100232801D01*
X116331998Y-100238468D01*
X116332000Y-100238468D01*
X116332002Y-100238468D01*
X116388807Y-100233498D01*
X116558692Y-100218635D01*
X116778496Y-100159739D01*
X116984734Y-100063568D01*
X117171139Y-99933047D01*
X117332047Y-99772139D01*
X117462568Y-99585734D01*
X117489895Y-99527129D01*
X117536064Y-99474695D01*
X117603257Y-99455542D01*
X117670139Y-99475757D01*
X117714657Y-99527133D01*
X117741865Y-99585482D01*
X117872342Y-99771820D01*
X118033179Y-99932657D01*
X118219517Y-100063134D01*
X118425673Y-100159265D01*
X118425682Y-100159269D01*
X118621999Y-100211872D01*
X118622000Y-100211871D01*
X118622000Y-99366012D01*
X118679007Y-99398925D01*
X118806174Y-99433000D01*
X118937826Y-99433000D01*
X119064993Y-99398925D01*
X119122000Y-99366012D01*
X119122000Y-100211872D01*
X119318317Y-100159269D01*
X119318326Y-100159265D01*
X119524482Y-100063134D01*
X119710820Y-99932657D01*
X119871657Y-99771820D01*
X120002132Y-99585484D01*
X120029341Y-99527134D01*
X120075513Y-99474695D01*
X120142707Y-99455542D01*
X120209588Y-99475757D01*
X120254106Y-99527133D01*
X120281431Y-99585732D01*
X120281432Y-99585734D01*
X120411954Y-99772141D01*
X120572858Y-99933045D01*
X120572861Y-99933047D01*
X120759266Y-100063568D01*
X120965504Y-100159739D01*
X121185308Y-100218635D01*
X121347230Y-100232801D01*
X121411998Y-100238468D01*
X121412000Y-100238468D01*
X121412002Y-100238468D01*
X121468807Y-100233498D01*
X121638692Y-100218635D01*
X121758409Y-100186557D01*
X121828256Y-100188220D01*
X121886119Y-100227382D01*
X121913623Y-100291611D01*
X121914500Y-100306332D01*
X121914500Y-102812298D01*
X121894815Y-102879337D01*
X121861625Y-102913872D01*
X121793599Y-102961505D01*
X121671284Y-103083819D01*
X121609960Y-103117303D01*
X121540269Y-103112318D01*
X121484335Y-103070447D01*
X121467421Y-103039470D01*
X121418354Y-102907913D01*
X121418350Y-102907906D01*
X121332190Y-102792812D01*
X121332187Y-102792809D01*
X121217093Y-102706649D01*
X121217086Y-102706645D01*
X121082379Y-102656403D01*
X121082372Y-102656401D01*
X121022844Y-102650000D01*
X120375000Y-102650000D01*
X120375000Y-103566988D01*
X120317993Y-103534075D01*
X120190826Y-103500000D01*
X120059174Y-103500000D01*
X119932007Y-103534075D01*
X119875000Y-103566988D01*
X119875000Y-102650000D01*
X119227155Y-102650000D01*
X119167627Y-102656401D01*
X119167620Y-102656403D01*
X119032913Y-102706645D01*
X119032906Y-102706649D01*
X118917812Y-102792809D01*
X118917809Y-102792812D01*
X118831649Y-102907906D01*
X118831645Y-102907913D01*
X118781403Y-103042620D01*
X118781401Y-103042627D01*
X118775000Y-103102155D01*
X118775000Y-103750000D01*
X119691988Y-103750000D01*
X119659075Y-103807007D01*
X119625000Y-103934174D01*
X119625000Y-104065826D01*
X119659075Y-104192993D01*
X119691988Y-104250000D01*
X118775000Y-104250000D01*
X118775000Y-104897844D01*
X118781401Y-104957372D01*
X118781403Y-104957379D01*
X118831645Y-105092086D01*
X118831649Y-105092093D01*
X118917809Y-105207187D01*
X118917812Y-105207190D01*
X119032906Y-105293350D01*
X119032913Y-105293354D01*
X119167620Y-105343596D01*
X119167627Y-105343598D01*
X119227155Y-105349999D01*
X119227172Y-105350000D01*
X119875000Y-105350000D01*
X119875000Y-104433012D01*
X119932007Y-104465925D01*
X120059174Y-104500000D01*
X120190826Y-104500000D01*
X120317993Y-104465925D01*
X120375000Y-104433012D01*
X120375000Y-105350000D01*
X121022828Y-105350000D01*
X121022844Y-105349999D01*
X121082372Y-105343598D01*
X121082379Y-105343596D01*
X121217086Y-105293354D01*
X121217093Y-105293350D01*
X121332187Y-105207190D01*
X121332190Y-105207187D01*
X121418350Y-105092093D01*
X121418354Y-105092086D01*
X121467422Y-104960529D01*
X121509293Y-104904595D01*
X121574757Y-104880178D01*
X121643030Y-104895030D01*
X121671285Y-104916181D01*
X121793599Y-105038495D01*
X121870135Y-105092086D01*
X121987165Y-105174032D01*
X121987167Y-105174033D01*
X121987170Y-105174035D01*
X122201337Y-105273903D01*
X122429592Y-105335063D01*
X122600319Y-105350000D01*
X122664999Y-105355659D01*
X122665000Y-105355659D01*
X122665001Y-105355659D01*
X122729681Y-105350000D01*
X122900408Y-105335063D01*
X123128663Y-105273903D01*
X123342830Y-105174035D01*
X123536401Y-105038495D01*
X123703495Y-104871401D01*
X123833425Y-104685842D01*
X123888002Y-104642217D01*
X123957500Y-104635023D01*
X124019855Y-104666546D01*
X124036575Y-104685842D01*
X124166500Y-104871395D01*
X124166505Y-104871401D01*
X124333599Y-105038495D01*
X124410135Y-105092086D01*
X124527165Y-105174032D01*
X124527167Y-105174033D01*
X124527170Y-105174035D01*
X124741337Y-105273903D01*
X124969592Y-105335063D01*
X125140319Y-105350000D01*
X125204999Y-105355659D01*
X125205000Y-105355659D01*
X125205001Y-105355659D01*
X125269681Y-105350000D01*
X125440408Y-105335063D01*
X125668663Y-105273903D01*
X125882830Y-105174035D01*
X126076401Y-105038495D01*
X126243495Y-104871401D01*
X126373425Y-104685842D01*
X126428002Y-104642217D01*
X126497500Y-104635023D01*
X126559855Y-104666546D01*
X126576575Y-104685842D01*
X126706500Y-104871395D01*
X126706505Y-104871401D01*
X126873599Y-105038495D01*
X126950135Y-105092086D01*
X127067165Y-105174032D01*
X127067167Y-105174033D01*
X127067170Y-105174035D01*
X127281337Y-105273903D01*
X127509592Y-105335063D01*
X127680319Y-105350000D01*
X127744999Y-105355659D01*
X127745000Y-105355659D01*
X127745001Y-105355659D01*
X127809681Y-105350000D01*
X127980408Y-105335063D01*
X128208663Y-105273903D01*
X128422830Y-105174035D01*
X128616401Y-105038495D01*
X128783495Y-104871401D01*
X128913425Y-104685842D01*
X128968002Y-104642217D01*
X129037500Y-104635023D01*
X129099855Y-104666546D01*
X129116575Y-104685842D01*
X129246500Y-104871395D01*
X129246505Y-104871401D01*
X129413599Y-105038495D01*
X129490135Y-105092086D01*
X129607165Y-105174032D01*
X129607167Y-105174033D01*
X129607170Y-105174035D01*
X129821337Y-105273903D01*
X130049592Y-105335063D01*
X130220319Y-105350000D01*
X130284999Y-105355659D01*
X130285000Y-105355659D01*
X130285001Y-105355659D01*
X130349681Y-105350000D01*
X130520408Y-105335063D01*
X130748663Y-105273903D01*
X130962830Y-105174035D01*
X131156401Y-105038495D01*
X131323495Y-104871401D01*
X131453425Y-104685842D01*
X131508002Y-104642217D01*
X131577500Y-104635023D01*
X131639855Y-104666546D01*
X131656575Y-104685842D01*
X131786500Y-104871395D01*
X131786505Y-104871401D01*
X131953599Y-105038495D01*
X132030135Y-105092086D01*
X132147165Y-105174032D01*
X132147167Y-105174033D01*
X132147170Y-105174035D01*
X132361337Y-105273903D01*
X132589592Y-105335063D01*
X132760319Y-105350000D01*
X132824999Y-105355659D01*
X132825000Y-105355659D01*
X132825001Y-105355659D01*
X132889681Y-105350000D01*
X133060408Y-105335063D01*
X133288663Y-105273903D01*
X133502830Y-105174035D01*
X133696401Y-105038495D01*
X133863495Y-104871401D01*
X133993425Y-104685842D01*
X134048002Y-104642217D01*
X134117500Y-104635023D01*
X134179855Y-104666546D01*
X134196575Y-104685842D01*
X134326500Y-104871395D01*
X134326505Y-104871401D01*
X134493599Y-105038495D01*
X134570135Y-105092086D01*
X134687165Y-105174032D01*
X134687167Y-105174033D01*
X134687170Y-105174035D01*
X134901337Y-105273903D01*
X135129592Y-105335063D01*
X135300319Y-105350000D01*
X135364999Y-105355659D01*
X135365000Y-105355659D01*
X135365001Y-105355659D01*
X135429681Y-105350000D01*
X135600408Y-105335063D01*
X135828663Y-105273903D01*
X136042830Y-105174035D01*
X136236401Y-105038495D01*
X136403495Y-104871401D01*
X136533425Y-104685842D01*
X136588002Y-104642217D01*
X136657500Y-104635023D01*
X136719855Y-104666546D01*
X136736575Y-104685842D01*
X136866500Y-104871395D01*
X136866505Y-104871401D01*
X137033599Y-105038495D01*
X137110135Y-105092086D01*
X137227165Y-105174032D01*
X137227167Y-105174033D01*
X137227170Y-105174035D01*
X137441337Y-105273903D01*
X137669592Y-105335063D01*
X137840319Y-105350000D01*
X137904999Y-105355659D01*
X137905000Y-105355659D01*
X137905001Y-105355659D01*
X137969681Y-105350000D01*
X138140408Y-105335063D01*
X138368663Y-105273903D01*
X138582830Y-105174035D01*
X138776401Y-105038495D01*
X138943495Y-104871401D01*
X139079035Y-104677830D01*
X139178903Y-104463663D01*
X139240063Y-104235408D01*
X139260659Y-104000000D01*
X139240063Y-103764592D01*
X139197728Y-103606593D01*
X139199391Y-103536743D01*
X139238554Y-103478881D01*
X139302782Y-103451377D01*
X139317503Y-103450500D01*
X143118920Y-103450500D01*
X143216462Y-103431096D01*
X143263913Y-103421658D01*
X143400495Y-103365084D01*
X143464719Y-103322171D01*
X143523416Y-103282952D01*
X146546652Y-100259714D01*
X146607973Y-100226231D01*
X146645135Y-100223869D01*
X146788366Y-100236400D01*
X146811999Y-100238468D01*
X146812000Y-100238468D01*
X146812002Y-100238468D01*
X146868807Y-100233498D01*
X147038692Y-100218635D01*
X147258496Y-100159739D01*
X147464734Y-100063568D01*
X147651139Y-99933047D01*
X147812047Y-99772139D01*
X147942568Y-99585734D01*
X148038739Y-99379496D01*
X148097635Y-99159692D01*
X148117468Y-98933000D01*
X148097635Y-98706308D01*
X148038739Y-98486504D01*
X147942568Y-98280266D01*
X147812047Y-98093861D01*
X147812045Y-98093858D01*
X147651141Y-97932954D01*
X147464734Y-97802432D01*
X147464732Y-97802431D01*
X147258497Y-97706261D01*
X147258488Y-97706258D01*
X147038697Y-97647366D01*
X147038693Y-97647365D01*
X147038692Y-97647365D01*
X147038691Y-97647364D01*
X147038686Y-97647364D01*
X146812002Y-97627532D01*
X146811998Y-97627532D01*
X146585313Y-97647364D01*
X146585302Y-97647366D01*
X146365511Y-97706258D01*
X146365502Y-97706261D01*
X146159267Y-97802431D01*
X146159265Y-97802432D01*
X145972858Y-97932954D01*
X145811954Y-98093858D01*
X145681432Y-98280265D01*
X145681431Y-98280267D01*
X145654382Y-98338275D01*
X145608209Y-98390714D01*
X145541016Y-98409866D01*
X145474135Y-98389650D01*
X145429618Y-98338275D01*
X145402686Y-98280520D01*
X145402568Y-98280266D01*
X145272047Y-98093861D01*
X145272045Y-98093858D01*
X145111141Y-97932954D01*
X144924734Y-97802432D01*
X144924732Y-97802431D01*
X144718497Y-97706261D01*
X144718488Y-97706258D01*
X144498697Y-97647366D01*
X144498693Y-97647365D01*
X144498692Y-97647365D01*
X144498691Y-97647364D01*
X144498686Y-97647364D01*
X144272002Y-97627532D01*
X144271998Y-97627532D01*
X144045313Y-97647364D01*
X144045302Y-97647366D01*
X143825511Y-97706258D01*
X143825502Y-97706261D01*
X143619267Y-97802431D01*
X143619265Y-97802432D01*
X143432858Y-97932954D01*
X143271954Y-98093858D01*
X143141432Y-98280265D01*
X143141431Y-98280267D01*
X143114382Y-98338275D01*
X143068209Y-98390714D01*
X143001016Y-98409866D01*
X142934135Y-98389650D01*
X142889618Y-98338275D01*
X142862686Y-98280520D01*
X142862568Y-98280266D01*
X142732047Y-98093861D01*
X142732045Y-98093858D01*
X142571141Y-97932954D01*
X142384734Y-97802432D01*
X142384732Y-97802431D01*
X142178497Y-97706261D01*
X142178488Y-97706258D01*
X141958697Y-97647366D01*
X141958693Y-97647365D01*
X141958692Y-97647365D01*
X141958691Y-97647364D01*
X141958686Y-97647364D01*
X141732002Y-97627532D01*
X141731998Y-97627532D01*
X141505313Y-97647364D01*
X141505302Y-97647366D01*
X141285511Y-97706258D01*
X141285502Y-97706261D01*
X141079267Y-97802431D01*
X141079265Y-97802432D01*
X140892858Y-97932954D01*
X140731954Y-98093858D01*
X140601432Y-98280265D01*
X140601431Y-98280267D01*
X140574382Y-98338275D01*
X140528209Y-98390714D01*
X140461016Y-98409866D01*
X140394135Y-98389650D01*
X140349618Y-98338275D01*
X140322686Y-98280520D01*
X140322568Y-98280266D01*
X140192047Y-98093861D01*
X140192045Y-98093858D01*
X140031141Y-97932954D01*
X139844734Y-97802432D01*
X139844732Y-97802431D01*
X139638497Y-97706261D01*
X139638488Y-97706258D01*
X139418697Y-97647366D01*
X139418693Y-97647365D01*
X139418692Y-97647365D01*
X139418691Y-97647364D01*
X139418686Y-97647364D01*
X139192002Y-97627532D01*
X139191998Y-97627532D01*
X138965313Y-97647364D01*
X138965302Y-97647366D01*
X138745511Y-97706258D01*
X138745502Y-97706261D01*
X138539267Y-97802431D01*
X138539265Y-97802432D01*
X138352858Y-97932954D01*
X138191954Y-98093858D01*
X138061432Y-98280265D01*
X138061431Y-98280267D01*
X138034382Y-98338275D01*
X137988209Y-98390714D01*
X137921016Y-98409866D01*
X137854135Y-98389650D01*
X137809618Y-98338275D01*
X137782686Y-98280520D01*
X137782568Y-98280266D01*
X137652047Y-98093861D01*
X137652045Y-98093858D01*
X137491141Y-97932954D01*
X137304734Y-97802432D01*
X137304732Y-97802431D01*
X137098497Y-97706261D01*
X137098488Y-97706258D01*
X136878697Y-97647366D01*
X136878693Y-97647365D01*
X136878692Y-97647365D01*
X136878691Y-97647364D01*
X136878686Y-97647364D01*
X136652002Y-97627532D01*
X136651998Y-97627532D01*
X136425313Y-97647364D01*
X136425302Y-97647366D01*
X136205511Y-97706258D01*
X136205502Y-97706261D01*
X135999267Y-97802431D01*
X135999265Y-97802432D01*
X135812858Y-97932954D01*
X135651954Y-98093858D01*
X135521432Y-98280265D01*
X135521431Y-98280267D01*
X135494382Y-98338275D01*
X135448209Y-98390714D01*
X135381016Y-98409866D01*
X135314135Y-98389650D01*
X135269618Y-98338275D01*
X135242686Y-98280520D01*
X135242568Y-98280266D01*
X135112047Y-98093861D01*
X135112045Y-98093858D01*
X134951141Y-97932954D01*
X134764734Y-97802432D01*
X134764732Y-97802431D01*
X134558497Y-97706261D01*
X134558488Y-97706258D01*
X134338697Y-97647366D01*
X134338693Y-97647365D01*
X134338692Y-97647365D01*
X134338691Y-97647364D01*
X134338686Y-97647364D01*
X134112002Y-97627532D01*
X134111998Y-97627532D01*
X133885313Y-97647364D01*
X133885302Y-97647366D01*
X133665511Y-97706258D01*
X133665502Y-97706261D01*
X133459267Y-97802431D01*
X133459265Y-97802432D01*
X133272858Y-97932954D01*
X133111954Y-98093858D01*
X132981432Y-98280265D01*
X132981431Y-98280267D01*
X132954382Y-98338275D01*
X132908209Y-98390714D01*
X132841016Y-98409866D01*
X132774135Y-98389650D01*
X132729618Y-98338275D01*
X132702686Y-98280520D01*
X132702568Y-98280266D01*
X132572047Y-98093861D01*
X132572045Y-98093858D01*
X132411141Y-97932954D01*
X132224734Y-97802432D01*
X132224732Y-97802431D01*
X132018497Y-97706261D01*
X132018488Y-97706258D01*
X131798697Y-97647366D01*
X131798693Y-97647365D01*
X131798692Y-97647365D01*
X131798691Y-97647364D01*
X131798686Y-97647364D01*
X131572002Y-97627532D01*
X131571998Y-97627532D01*
X131345313Y-97647364D01*
X131345302Y-97647366D01*
X131125511Y-97706258D01*
X131125502Y-97706261D01*
X130919267Y-97802431D01*
X130919265Y-97802432D01*
X130732858Y-97932954D01*
X130571954Y-98093858D01*
X130441432Y-98280265D01*
X130441431Y-98280267D01*
X130414382Y-98338275D01*
X130368209Y-98390714D01*
X130301016Y-98409866D01*
X130234135Y-98389650D01*
X130189618Y-98338275D01*
X130162686Y-98280520D01*
X130162568Y-98280266D01*
X130032047Y-98093861D01*
X130032045Y-98093858D01*
X129871141Y-97932954D01*
X129684734Y-97802432D01*
X129684732Y-97802431D01*
X129478497Y-97706261D01*
X129478488Y-97706258D01*
X129258697Y-97647366D01*
X129258693Y-97647365D01*
X129258692Y-97647365D01*
X129258691Y-97647364D01*
X129258686Y-97647364D01*
X129032002Y-97627532D01*
X129031998Y-97627532D01*
X128805313Y-97647364D01*
X128805302Y-97647366D01*
X128651593Y-97688552D01*
X128581743Y-97686889D01*
X128523881Y-97647726D01*
X128496377Y-97583498D01*
X128495500Y-97568777D01*
X128495500Y-85342229D01*
X128515185Y-85275190D01*
X128531815Y-85254552D01*
X128766652Y-85019714D01*
X128827973Y-84986231D01*
X128865135Y-84983869D01*
X129008366Y-84996400D01*
X129031999Y-84998468D01*
X129032000Y-84998468D01*
X129032002Y-84998468D01*
X129088673Y-84993509D01*
X129258692Y-84978635D01*
X129478496Y-84919739D01*
X129684734Y-84823568D01*
X129871139Y-84693047D01*
X130032047Y-84532139D01*
X130162568Y-84345734D01*
X130189618Y-84287724D01*
X130235790Y-84235285D01*
X130302983Y-84216133D01*
X130369865Y-84236348D01*
X130414382Y-84287725D01*
X130441429Y-84345728D01*
X130441432Y-84345734D01*
X130571954Y-84532141D01*
X130732858Y-84693045D01*
X130732861Y-84693047D01*
X130919266Y-84823568D01*
X131125504Y-84919739D01*
X131345308Y-84978635D01*
X131507230Y-84992801D01*
X131571998Y-84998468D01*
X131572000Y-84998468D01*
X131572002Y-84998468D01*
X131628673Y-84993509D01*
X131798692Y-84978635D01*
X132018496Y-84919739D01*
X132224734Y-84823568D01*
X132411139Y-84693047D01*
X132572047Y-84532139D01*
X132702568Y-84345734D01*
X132729618Y-84287724D01*
X132775790Y-84235285D01*
X132842983Y-84216133D01*
X132909865Y-84236348D01*
X132954382Y-84287725D01*
X132981429Y-84345728D01*
X132981432Y-84345734D01*
X133111954Y-84532141D01*
X133272858Y-84693045D01*
X133272861Y-84693047D01*
X133459266Y-84823568D01*
X133665504Y-84919739D01*
X133885308Y-84978635D01*
X134047230Y-84992801D01*
X134111998Y-84998468D01*
X134112000Y-84998468D01*
X134112002Y-84998468D01*
X134168673Y-84993509D01*
X134338692Y-84978635D01*
X134558496Y-84919739D01*
X134764734Y-84823568D01*
X134951139Y-84693047D01*
X135112047Y-84532139D01*
X135242568Y-84345734D01*
X135269618Y-84287724D01*
X135315790Y-84235285D01*
X135382983Y-84216133D01*
X135449865Y-84236348D01*
X135494382Y-84287725D01*
X135521429Y-84345728D01*
X135521432Y-84345734D01*
X135651954Y-84532141D01*
X135812858Y-84693045D01*
X135812861Y-84693047D01*
X135999266Y-84823568D01*
X136205504Y-84919739D01*
X136425308Y-84978635D01*
X136587230Y-84992801D01*
X136651998Y-84998468D01*
X136652000Y-84998468D01*
X136652002Y-84998468D01*
X136708673Y-84993509D01*
X136878692Y-84978635D01*
X137098496Y-84919739D01*
X137304734Y-84823568D01*
X137491139Y-84693047D01*
X137652047Y-84532139D01*
X137782568Y-84345734D01*
X137809618Y-84287724D01*
X137855790Y-84235285D01*
X137922983Y-84216133D01*
X137989865Y-84236348D01*
X138034382Y-84287725D01*
X138061429Y-84345728D01*
X138061432Y-84345734D01*
X138191954Y-84532141D01*
X138352858Y-84693045D01*
X138352861Y-84693047D01*
X138539266Y-84823568D01*
X138745504Y-84919739D01*
X138965308Y-84978635D01*
X139127230Y-84992801D01*
X139191998Y-84998468D01*
X139192000Y-84998468D01*
X139192002Y-84998468D01*
X139248673Y-84993509D01*
X139418692Y-84978635D01*
X139638496Y-84919739D01*
X139844734Y-84823568D01*
X140031139Y-84693047D01*
X140192047Y-84532139D01*
X140322568Y-84345734D01*
X140349618Y-84287724D01*
X140395790Y-84235285D01*
X140462983Y-84216133D01*
X140529865Y-84236348D01*
X140574382Y-84287725D01*
X140601429Y-84345728D01*
X140601432Y-84345734D01*
X140731954Y-84532141D01*
X140892858Y-84693045D01*
X140892861Y-84693047D01*
X141079266Y-84823568D01*
X141285504Y-84919739D01*
X141505308Y-84978635D01*
X141667230Y-84992801D01*
X141731998Y-84998468D01*
X141732000Y-84998468D01*
X141732002Y-84998468D01*
X141788673Y-84993509D01*
X141958692Y-84978635D01*
X142178496Y-84919739D01*
X142384734Y-84823568D01*
X142571139Y-84693047D01*
X142732047Y-84532139D01*
X142862568Y-84345734D01*
X142889618Y-84287724D01*
X142935790Y-84235285D01*
X143002983Y-84216133D01*
X143069865Y-84236348D01*
X143114382Y-84287725D01*
X143141429Y-84345728D01*
X143141432Y-84345734D01*
X143271954Y-84532141D01*
X143432858Y-84693045D01*
X143432861Y-84693047D01*
X143619266Y-84823568D01*
X143825504Y-84919739D01*
X144045308Y-84978635D01*
X144207230Y-84992801D01*
X144271998Y-84998468D01*
X144272000Y-84998468D01*
X144272002Y-84998468D01*
X144328673Y-84993509D01*
X144498692Y-84978635D01*
X144718496Y-84919739D01*
X144924734Y-84823568D01*
X145111139Y-84693047D01*
X145272047Y-84532139D01*
X145402568Y-84345734D01*
X145429618Y-84287724D01*
X145475790Y-84235285D01*
X145542983Y-84216133D01*
X145609865Y-84236348D01*
X145654382Y-84287725D01*
X145681429Y-84345728D01*
X145681432Y-84345734D01*
X145811954Y-84532141D01*
X145972858Y-84693045D01*
X145972861Y-84693047D01*
X146159266Y-84823568D01*
X146365504Y-84919739D01*
X146585308Y-84978635D01*
X146747230Y-84992801D01*
X146811998Y-84998468D01*
X146812000Y-84998468D01*
X146812002Y-84998468D01*
X146868673Y-84993509D01*
X147038692Y-84978635D01*
X147258496Y-84919739D01*
X147464734Y-84823568D01*
X147651139Y-84693047D01*
X147812047Y-84532139D01*
X147942568Y-84345734D01*
X148038739Y-84139496D01*
X148097635Y-83919692D01*
X148117468Y-83693000D01*
X148097635Y-83466308D01*
X148038739Y-83246504D01*
X147942568Y-83040266D01*
X147812047Y-82853861D01*
X147812045Y-82853858D01*
X147651141Y-82692954D01*
X147464734Y-82562432D01*
X147464732Y-82562431D01*
X147258497Y-82466261D01*
X147258488Y-82466258D01*
X147038697Y-82407366D01*
X147038693Y-82407365D01*
X147038692Y-82407365D01*
X147038691Y-82407364D01*
X147038686Y-82407364D01*
X146812002Y-82387532D01*
X146811998Y-82387532D01*
X146585313Y-82407364D01*
X146585302Y-82407366D01*
X146365511Y-82466258D01*
X146365502Y-82466261D01*
X146159267Y-82562431D01*
X146159265Y-82562432D01*
X145972858Y-82692954D01*
X145811954Y-82853858D01*
X145681432Y-83040265D01*
X145681431Y-83040267D01*
X145654382Y-83098275D01*
X145608209Y-83150714D01*
X145541016Y-83169866D01*
X145474135Y-83149650D01*
X145429618Y-83098275D01*
X145402686Y-83040520D01*
X145402568Y-83040266D01*
X145272047Y-82853861D01*
X145272045Y-82853858D01*
X145111141Y-82692954D01*
X144924734Y-82562432D01*
X144924732Y-82562431D01*
X144718497Y-82466261D01*
X144718488Y-82466258D01*
X144498697Y-82407366D01*
X144498693Y-82407365D01*
X144498692Y-82407365D01*
X144498691Y-82407364D01*
X144498686Y-82407364D01*
X144272002Y-82387532D01*
X144271998Y-82387532D01*
X144045313Y-82407364D01*
X144045302Y-82407366D01*
X143825511Y-82466258D01*
X143825502Y-82466261D01*
X143619267Y-82562431D01*
X143619265Y-82562432D01*
X143432858Y-82692954D01*
X143271954Y-82853858D01*
X143141432Y-83040265D01*
X143141431Y-83040267D01*
X143114382Y-83098275D01*
X143068209Y-83150714D01*
X143001016Y-83169866D01*
X142934135Y-83149650D01*
X142889618Y-83098275D01*
X142862686Y-83040520D01*
X142862568Y-83040266D01*
X142732047Y-82853861D01*
X142732045Y-82853858D01*
X142571141Y-82692954D01*
X142384734Y-82562432D01*
X142384732Y-82562431D01*
X142178497Y-82466261D01*
X142178488Y-82466258D01*
X141958697Y-82407366D01*
X141958693Y-82407365D01*
X141958692Y-82407365D01*
X141958691Y-82407364D01*
X141958686Y-82407364D01*
X141732002Y-82387532D01*
X141731998Y-82387532D01*
X141505313Y-82407364D01*
X141505302Y-82407366D01*
X141285511Y-82466258D01*
X141285502Y-82466261D01*
X141079267Y-82562431D01*
X141079265Y-82562432D01*
X140892858Y-82692954D01*
X140731954Y-82853858D01*
X140601432Y-83040265D01*
X140601431Y-83040267D01*
X140574382Y-83098275D01*
X140528209Y-83150714D01*
X140461016Y-83169866D01*
X140394135Y-83149650D01*
X140349618Y-83098275D01*
X140322686Y-83040520D01*
X140322568Y-83040266D01*
X140192047Y-82853861D01*
X140192045Y-82853858D01*
X140031141Y-82692954D01*
X139844734Y-82562432D01*
X139844732Y-82562431D01*
X139638497Y-82466261D01*
X139638488Y-82466258D01*
X139418697Y-82407366D01*
X139418693Y-82407365D01*
X139418692Y-82407365D01*
X139418691Y-82407364D01*
X139418686Y-82407364D01*
X139192002Y-82387532D01*
X139191998Y-82387532D01*
X138965313Y-82407364D01*
X138965302Y-82407366D01*
X138745511Y-82466258D01*
X138745502Y-82466261D01*
X138539267Y-82562431D01*
X138539265Y-82562432D01*
X138352858Y-82692954D01*
X138191954Y-82853858D01*
X138061432Y-83040265D01*
X138061431Y-83040267D01*
X138034382Y-83098275D01*
X137988209Y-83150714D01*
X137921016Y-83169866D01*
X137854135Y-83149650D01*
X137809618Y-83098275D01*
X137782686Y-83040520D01*
X137782568Y-83040266D01*
X137652047Y-82853861D01*
X137652045Y-82853858D01*
X137491141Y-82692954D01*
X137304734Y-82562432D01*
X137304732Y-82562431D01*
X137098497Y-82466261D01*
X137098488Y-82466258D01*
X136878697Y-82407366D01*
X136878693Y-82407365D01*
X136878692Y-82407365D01*
X136878691Y-82407364D01*
X136878686Y-82407364D01*
X136652002Y-82387532D01*
X136651998Y-82387532D01*
X136425313Y-82407364D01*
X136425302Y-82407366D01*
X136205511Y-82466258D01*
X136205502Y-82466261D01*
X135999267Y-82562431D01*
X135999265Y-82562432D01*
X135812858Y-82692954D01*
X135651954Y-82853858D01*
X135521432Y-83040265D01*
X135521431Y-83040267D01*
X135494382Y-83098275D01*
X135448209Y-83150714D01*
X135381016Y-83169866D01*
X135314135Y-83149650D01*
X135269618Y-83098275D01*
X135242686Y-83040520D01*
X135242568Y-83040266D01*
X135112047Y-82853861D01*
X135112045Y-82853858D01*
X134951141Y-82692954D01*
X134764734Y-82562432D01*
X134764732Y-82562431D01*
X134558497Y-82466261D01*
X134558488Y-82466258D01*
X134338697Y-82407366D01*
X134338693Y-82407365D01*
X134338692Y-82407365D01*
X134338691Y-82407364D01*
X134338686Y-82407364D01*
X134112002Y-82387532D01*
X134111998Y-82387532D01*
X133885313Y-82407364D01*
X133885302Y-82407366D01*
X133665511Y-82466258D01*
X133665502Y-82466261D01*
X133459267Y-82562431D01*
X133459265Y-82562432D01*
X133272858Y-82692954D01*
X133111954Y-82853858D01*
X132981432Y-83040265D01*
X132981431Y-83040267D01*
X132954382Y-83098275D01*
X132908209Y-83150714D01*
X132841016Y-83169866D01*
X132774135Y-83149650D01*
X132729618Y-83098275D01*
X132702686Y-83040520D01*
X132702568Y-83040266D01*
X132572047Y-82853861D01*
X132572045Y-82853858D01*
X132411141Y-82692954D01*
X132224734Y-82562432D01*
X132224732Y-82562431D01*
X132018497Y-82466261D01*
X132018488Y-82466258D01*
X131798697Y-82407366D01*
X131798693Y-82407365D01*
X131798692Y-82407365D01*
X131798691Y-82407364D01*
X131798686Y-82407364D01*
X131572002Y-82387532D01*
X131571998Y-82387532D01*
X131345313Y-82407364D01*
X131345302Y-82407366D01*
X131125511Y-82466258D01*
X131125502Y-82466261D01*
X130919267Y-82562431D01*
X130919265Y-82562432D01*
X130732858Y-82692954D01*
X130571954Y-82853858D01*
X130441432Y-83040265D01*
X130441431Y-83040267D01*
X130414382Y-83098275D01*
X130368209Y-83150714D01*
X130301016Y-83169866D01*
X130234135Y-83149650D01*
X130189618Y-83098275D01*
X130162686Y-83040520D01*
X130162568Y-83040266D01*
X130032047Y-82853861D01*
X130032045Y-82853858D01*
X129871141Y-82692954D01*
X129684734Y-82562432D01*
X129684732Y-82562431D01*
X129478497Y-82466261D01*
X129478488Y-82466258D01*
X129258697Y-82407366D01*
X129258693Y-82407365D01*
X129258692Y-82407365D01*
X129258691Y-82407364D01*
X129258686Y-82407364D01*
X129032002Y-82387532D01*
X129031998Y-82387532D01*
X128805313Y-82407364D01*
X128805302Y-82407366D01*
X128585511Y-82466258D01*
X128585502Y-82466261D01*
X128379267Y-82562431D01*
X128379265Y-82562432D01*
X128192858Y-82692954D01*
X128031954Y-82853858D01*
X127901432Y-83040265D01*
X127901431Y-83040267D01*
X127874382Y-83098275D01*
X127828209Y-83150714D01*
X127761016Y-83169866D01*
X127694135Y-83149650D01*
X127649618Y-83098275D01*
X127622686Y-83040520D01*
X127622568Y-83040266D01*
X127492047Y-82853861D01*
X127492045Y-82853858D01*
X127331141Y-82692954D01*
X127144734Y-82562432D01*
X127144732Y-82562431D01*
X126938497Y-82466261D01*
X126938488Y-82466258D01*
X126718697Y-82407366D01*
X126718693Y-82407365D01*
X126718692Y-82407365D01*
X126718691Y-82407364D01*
X126718686Y-82407364D01*
X126492002Y-82387532D01*
X126491998Y-82387532D01*
X126265313Y-82407364D01*
X126265302Y-82407366D01*
X126045511Y-82466258D01*
X126045502Y-82466261D01*
X125839267Y-82562431D01*
X125839265Y-82562432D01*
X125652858Y-82692954D01*
X125491954Y-82853858D01*
X125361432Y-83040265D01*
X125361431Y-83040267D01*
X125334382Y-83098275D01*
X125288209Y-83150714D01*
X125221016Y-83169866D01*
X125154135Y-83149650D01*
X125109618Y-83098275D01*
X125082686Y-83040520D01*
X125082568Y-83040266D01*
X124952047Y-82853861D01*
X124952045Y-82853858D01*
X124791141Y-82692954D01*
X124604734Y-82562432D01*
X124604732Y-82562431D01*
X124398497Y-82466261D01*
X124398488Y-82466258D01*
X124178697Y-82407366D01*
X124178693Y-82407365D01*
X124178692Y-82407365D01*
X124178691Y-82407364D01*
X124178686Y-82407364D01*
X123952002Y-82387532D01*
X123951998Y-82387532D01*
X123725313Y-82407364D01*
X123725302Y-82407366D01*
X123505511Y-82466258D01*
X123505502Y-82466261D01*
X123299261Y-82562434D01*
X123299258Y-82562435D01*
X123273508Y-82580466D01*
X123207302Y-82602793D01*
X123139535Y-82585781D01*
X123114706Y-82566571D01*
X122408188Y-81860052D01*
X122408181Y-81860046D01*
X122334496Y-81810812D01*
X122334496Y-81810813D01*
X122285258Y-81777913D01*
X122148684Y-81721343D01*
X122148674Y-81721340D01*
X122003687Y-81692499D01*
X121997625Y-81691903D01*
X121997781Y-81690313D01*
X121938190Y-81672815D01*
X121917548Y-81656181D01*
X120096324Y-79834956D01*
X120062839Y-79773633D01*
X120067823Y-79703941D01*
X120109695Y-79648008D01*
X120118909Y-79641736D01*
X120218656Y-79580212D01*
X120342712Y-79456156D01*
X120434814Y-79306834D01*
X120489999Y-79140297D01*
X120490258Y-79137752D01*
X120490857Y-79136284D01*
X120491417Y-79133673D01*
X120491882Y-79133772D01*
X120516649Y-79073061D01*
X120573826Y-79032905D01*
X120643637Y-79030036D01*
X120701298Y-79062666D01*
X121310947Y-79672314D01*
X121917048Y-80278415D01*
X121917049Y-80278416D01*
X121973549Y-80334916D01*
X122021585Y-80382952D01*
X122144498Y-80465080D01*
X122144511Y-80465087D01*
X122281082Y-80521656D01*
X122281087Y-80521658D01*
X122281091Y-80521658D01*
X122281092Y-80521659D01*
X122426079Y-80550500D01*
X122426082Y-80550500D01*
X127773920Y-80550500D01*
X127892676Y-80526877D01*
X127918913Y-80521658D01*
X127963784Y-80503071D01*
X128033251Y-80495603D01*
X128095730Y-80526877D01*
X128131383Y-80586966D01*
X128128890Y-80656791D01*
X128116229Y-80683604D01*
X128074212Y-80750474D01*
X128014631Y-80920745D01*
X128014630Y-80920750D01*
X127994435Y-81099996D01*
X127994435Y-81100003D01*
X128014630Y-81279249D01*
X128014631Y-81279254D01*
X128074211Y-81449523D01*
X128139285Y-81553087D01*
X128170184Y-81602262D01*
X128297738Y-81729816D01*
X128450478Y-81825789D01*
X128548379Y-81860046D01*
X128620745Y-81885368D01*
X128620750Y-81885369D01*
X128799996Y-81905565D01*
X128800000Y-81905565D01*
X128800004Y-81905565D01*
X128979249Y-81885369D01*
X128979252Y-81885368D01*
X128979255Y-81885368D01*
X129149522Y-81825789D01*
X129302262Y-81729816D01*
X129429816Y-81602262D01*
X129525789Y-81449522D01*
X129525790Y-81449518D01*
X129528811Y-81443246D01*
X129530655Y-81444134D01*
X129553305Y-81408061D01*
X131724549Y-79236819D01*
X131785872Y-79203334D01*
X131812230Y-79200500D01*
X133825501Y-79200500D01*
X133892540Y-79220185D01*
X133938295Y-79272989D01*
X133949501Y-79324500D01*
X133949501Y-79347876D01*
X133955908Y-79407483D01*
X134006202Y-79542328D01*
X134006206Y-79542335D01*
X134092452Y-79657544D01*
X134092455Y-79657547D01*
X134207664Y-79743793D01*
X134207671Y-79743797D01*
X134232716Y-79753138D01*
X134342517Y-79794091D01*
X134402127Y-79800500D01*
X135024143Y-79800499D01*
X135043541Y-79802026D01*
X135137377Y-79816888D01*
X135191746Y-79825500D01*
X135191747Y-79825500D01*
X135408253Y-79825500D01*
X135408254Y-79825500D01*
X135556458Y-79802025D01*
X135575856Y-79800499D01*
X136197871Y-79800499D01*
X136197872Y-79800499D01*
X136257483Y-79794091D01*
X136392331Y-79743796D01*
X136507546Y-79657546D01*
X136593796Y-79542331D01*
X136644091Y-79407483D01*
X136650500Y-79347873D01*
X136650499Y-78725854D01*
X136652026Y-78706456D01*
X136662183Y-78642328D01*
X136675500Y-78558254D01*
X136675500Y-75801746D01*
X136641630Y-75587903D01*
X136574726Y-75381991D01*
X136574726Y-75381990D01*
X136515159Y-75265084D01*
X136476433Y-75189081D01*
X136349172Y-75013922D01*
X136196078Y-74860828D01*
X136077006Y-74774316D01*
X136034342Y-74718988D01*
X136028363Y-74649374D01*
X136060969Y-74587579D01*
X136121808Y-74553222D01*
X136149893Y-74550000D01*
X136197828Y-74550000D01*
X136197844Y-74549999D01*
X136257372Y-74543598D01*
X136257379Y-74543596D01*
X136392086Y-74493354D01*
X136392093Y-74493350D01*
X136507187Y-74407190D01*
X136507190Y-74407187D01*
X136593350Y-74292093D01*
X136593354Y-74292086D01*
X136643596Y-74157379D01*
X136643598Y-74157372D01*
X136649999Y-74097844D01*
X136650000Y-74097827D01*
X136650000Y-73450000D01*
X135733012Y-73450000D01*
X135765925Y-73392993D01*
X135800000Y-73265826D01*
X135800000Y-73134174D01*
X135765925Y-73007007D01*
X135733012Y-72950000D01*
X136650000Y-72950000D01*
X136650000Y-72302172D01*
X136649999Y-72302155D01*
X136643598Y-72242627D01*
X136643596Y-72242620D01*
X136593354Y-72107913D01*
X136593350Y-72107906D01*
X136507190Y-71992812D01*
X136507187Y-71992809D01*
X136392093Y-71906649D01*
X136392086Y-71906645D01*
X136260013Y-71857385D01*
X136204079Y-71815514D01*
X136179662Y-71750049D01*
X136194514Y-71681776D01*
X136215665Y-71653521D01*
X136338108Y-71531078D01*
X136473600Y-71337578D01*
X136573429Y-71123492D01*
X136573432Y-71123486D01*
X136630636Y-70910000D01*
X135733012Y-70910000D01*
X135765925Y-70852993D01*
X135800000Y-70725826D01*
X135800000Y-70594174D01*
X135765925Y-70467007D01*
X135733012Y-70410000D01*
X136630636Y-70410000D01*
X136630635Y-70409999D01*
X136573432Y-70196513D01*
X136573429Y-70196507D01*
X136473600Y-69982422D01*
X136473599Y-69982420D01*
X136338113Y-69788926D01*
X136338108Y-69788920D01*
X136171082Y-69621894D01*
X135977578Y-69486399D01*
X135763492Y-69386570D01*
X135763486Y-69386567D01*
X135550000Y-69329364D01*
X135550000Y-70226988D01*
X135492993Y-70194075D01*
X135365826Y-70160000D01*
X135234174Y-70160000D01*
X135107007Y-70194075D01*
X135050000Y-70226988D01*
X135050000Y-69329364D01*
X135049999Y-69329364D01*
X134836513Y-69386567D01*
X134836507Y-69386570D01*
X134622422Y-69486399D01*
X134622420Y-69486400D01*
X134428926Y-69621886D01*
X134428920Y-69621891D01*
X134261891Y-69788920D01*
X134261886Y-69788926D01*
X134126400Y-69982420D01*
X134126399Y-69982422D01*
X134026570Y-70196507D01*
X134026567Y-70196513D01*
X133969364Y-70409999D01*
X133969364Y-70410000D01*
X134866988Y-70410000D01*
X134834075Y-70467007D01*
X134800000Y-70594174D01*
X134800000Y-70725826D01*
X134834075Y-70852993D01*
X134866988Y-70910000D01*
X133969364Y-70910000D01*
X134026567Y-71123486D01*
X134026570Y-71123492D01*
X134126399Y-71337578D01*
X134261894Y-71531082D01*
X134384334Y-71653522D01*
X134417819Y-71714845D01*
X134412835Y-71784537D01*
X134370963Y-71840470D01*
X134339987Y-71857385D01*
X134207911Y-71906646D01*
X134207906Y-71906649D01*
X134092812Y-71992809D01*
X134092809Y-71992812D01*
X134006649Y-72107906D01*
X134006645Y-72107913D01*
X133956403Y-72242620D01*
X133956401Y-72242627D01*
X133950000Y-72302155D01*
X133950000Y-72950000D01*
X134866988Y-72950000D01*
X134834075Y-73007007D01*
X134800000Y-73134174D01*
X134800000Y-73265826D01*
X134834075Y-73392993D01*
X134866988Y-73450000D01*
X133950000Y-73450000D01*
X133950000Y-74097835D01*
X133950063Y-74099016D01*
X133950000Y-74099282D01*
X133950000Y-74101149D01*
X133949558Y-74101149D01*
X133933980Y-74167009D01*
X133883690Y-74215514D01*
X133815160Y-74229130D01*
X133750147Y-74203534D01*
X133738558Y-74193307D01*
X131261136Y-71715885D01*
X131227651Y-71654562D01*
X131226466Y-71646525D01*
X131226262Y-71646558D01*
X131202026Y-71493540D01*
X131200499Y-71474142D01*
X131200499Y-70949998D01*
X131200498Y-70949981D01*
X131189999Y-70847203D01*
X131189998Y-70847200D01*
X131152104Y-70732845D01*
X131134814Y-70680666D01*
X131042712Y-70531344D01*
X130918656Y-70407288D01*
X130769334Y-70315186D01*
X130602797Y-70260001D01*
X130602795Y-70260000D01*
X130500010Y-70249500D01*
X129199998Y-70249500D01*
X129199981Y-70249501D01*
X129097203Y-70260000D01*
X129097200Y-70260001D01*
X128930668Y-70315185D01*
X128930663Y-70315187D01*
X128781342Y-70407289D01*
X128657289Y-70531342D01*
X128561821Y-70686121D01*
X128509873Y-70732845D01*
X128440910Y-70744068D01*
X128376828Y-70716224D01*
X128368601Y-70708705D01*
X128229786Y-70569890D01*
X128057820Y-70444951D01*
X127868414Y-70348444D01*
X127868413Y-70348443D01*
X127868412Y-70348443D01*
X127666243Y-70282754D01*
X127666241Y-70282753D01*
X127666240Y-70282753D01*
X127504957Y-70257208D01*
X127456287Y-70249500D01*
X127243713Y-70249500D01*
X127195042Y-70257208D01*
X127033760Y-70282753D01*
X126831585Y-70348444D01*
X126642179Y-70444951D01*
X126470213Y-70569890D01*
X126319890Y-70720213D01*
X126194949Y-70892182D01*
X126133620Y-71012545D01*
X126110817Y-71043930D01*
X125010825Y-72143923D01*
X125010821Y-72143928D01*
X124883569Y-72319077D01*
X124785273Y-72511990D01*
X124785272Y-72511993D01*
X124718370Y-72717901D01*
X124684500Y-72931746D01*
X124684500Y-76163493D01*
X124664815Y-76230532D01*
X124612011Y-76276287D01*
X124542853Y-76286231D01*
X124479297Y-76257206D01*
X124472819Y-76251174D01*
X124466242Y-76244597D01*
X124281276Y-76110211D01*
X124077568Y-76006417D01*
X123860124Y-75935765D01*
X123770000Y-75921490D01*
X123770000Y-76909252D01*
X123732292Y-76887482D01*
X123592409Y-76850000D01*
X123447591Y-76850000D01*
X123307708Y-76887482D01*
X123270000Y-76909252D01*
X123270000Y-75921490D01*
X123269999Y-75921490D01*
X123179875Y-75935765D01*
X122962431Y-76006417D01*
X122758723Y-76110211D01*
X122573757Y-76244597D01*
X122412097Y-76406257D01*
X122277711Y-76591223D01*
X122173917Y-76794929D01*
X122103265Y-77012371D01*
X122081468Y-77150000D01*
X123029252Y-77150000D01*
X123007482Y-77187708D01*
X122970000Y-77327591D01*
X122970000Y-77472409D01*
X123007482Y-77612292D01*
X123029252Y-77650000D01*
X122081468Y-77650000D01*
X122103265Y-77787628D01*
X122173917Y-78005070D01*
X122241794Y-78138284D01*
X122254690Y-78206953D01*
X122228414Y-78271694D01*
X122171307Y-78311951D01*
X122101502Y-78314943D01*
X122043628Y-78282260D01*
X120536818Y-76775450D01*
X120503333Y-76714127D01*
X120500499Y-76687769D01*
X120500499Y-76587498D01*
X120500498Y-76587481D01*
X120489999Y-76484703D01*
X120489998Y-76484700D01*
X120481715Y-76459703D01*
X120434814Y-76318166D01*
X120342712Y-76168844D01*
X120218656Y-76044788D01*
X120075038Y-75956204D01*
X120069336Y-75952687D01*
X120069331Y-75952685D01*
X120045810Y-75944891D01*
X119902797Y-75897501D01*
X119902795Y-75897500D01*
X119800010Y-75887000D01*
X118799998Y-75887000D01*
X118799980Y-75887001D01*
X118697203Y-75897500D01*
X118697200Y-75897501D01*
X118530668Y-75952685D01*
X118530663Y-75952687D01*
X118381342Y-76044789D01*
X118337951Y-76088181D01*
X118276628Y-76121666D01*
X118250270Y-76124500D01*
X117774730Y-76124500D01*
X117707691Y-76104815D01*
X117687049Y-76088181D01*
X117618657Y-76019789D01*
X117618656Y-76019788D01*
X117509864Y-75952685D01*
X117469336Y-75927687D01*
X117469331Y-75927685D01*
X117403612Y-75905908D01*
X117302797Y-75872501D01*
X117302795Y-75872500D01*
X117200010Y-75862000D01*
X116199998Y-75862000D01*
X116199980Y-75862001D01*
X116097203Y-75872500D01*
X116097200Y-75872501D01*
X115930668Y-75927685D01*
X115930663Y-75927687D01*
X115781342Y-76019789D01*
X115657289Y-76143842D01*
X115565187Y-76293163D01*
X115565185Y-76293168D01*
X115537349Y-76377170D01*
X115510001Y-76459703D01*
X115510001Y-76459704D01*
X115510000Y-76459704D01*
X115499500Y-76562483D01*
X115499500Y-77187501D01*
X115499501Y-77187519D01*
X115510000Y-77290296D01*
X115510001Y-77290299D01*
X115522359Y-77327591D01*
X115565186Y-77456834D01*
X115649197Y-77593039D01*
X115657289Y-77606157D01*
X115751304Y-77700172D01*
X115784789Y-77761495D01*
X115779805Y-77831187D01*
X115751305Y-77875534D01*
X115657682Y-77969157D01*
X115565643Y-78118375D01*
X115565641Y-78118380D01*
X115510494Y-78284802D01*
X115510493Y-78284809D01*
X115500000Y-78387513D01*
X115500000Y-78450000D01*
X116826000Y-78450000D01*
X116893039Y-78469685D01*
X116938794Y-78522489D01*
X116950000Y-78574000D01*
X116950000Y-79712499D01*
X117199972Y-79712499D01*
X117199986Y-79712498D01*
X117302697Y-79702005D01*
X117469119Y-79646858D01*
X117469124Y-79646856D01*
X117618345Y-79554815D01*
X117742315Y-79430845D01*
X117834356Y-79281624D01*
X117834359Y-79281617D01*
X117877888Y-79150255D01*
X117917660Y-79092809D01*
X117982176Y-79065986D01*
X118050952Y-79078301D01*
X118102152Y-79125843D01*
X118113300Y-79150253D01*
X118165186Y-79306834D01*
X118257288Y-79456156D01*
X118381344Y-79580212D01*
X118490597Y-79647599D01*
X118537321Y-79699547D01*
X118549500Y-79753138D01*
X118549500Y-80173919D01*
X118549752Y-80176480D01*
X118549500Y-80177808D01*
X118549500Y-80180010D01*
X118549082Y-80180010D01*
X118536728Y-80245126D01*
X118488660Y-80295833D01*
X118420808Y-80312502D01*
X118378896Y-80303187D01*
X118318917Y-80278343D01*
X118318907Y-80278340D01*
X118173920Y-80249500D01*
X118173918Y-80249500D01*
X115162229Y-80249500D01*
X115095190Y-80229815D01*
X115074548Y-80213181D01*
X114696324Y-79834956D01*
X114662839Y-79773633D01*
X114667823Y-79703941D01*
X114709695Y-79648008D01*
X114718909Y-79641736D01*
X114818656Y-79580212D01*
X114942712Y-79456156D01*
X115034814Y-79306834D01*
X115089999Y-79140297D01*
X115100500Y-79037509D01*
X115100500Y-79012486D01*
X115500001Y-79012486D01*
X115510494Y-79115197D01*
X115565641Y-79281619D01*
X115565643Y-79281624D01*
X115657684Y-79430845D01*
X115781654Y-79554815D01*
X115930875Y-79646856D01*
X115930880Y-79646858D01*
X116097302Y-79702005D01*
X116097309Y-79702006D01*
X116200019Y-79712499D01*
X116449999Y-79712499D01*
X116450000Y-79712498D01*
X116450000Y-78950000D01*
X115500001Y-78950000D01*
X115500001Y-79012486D01*
X115100500Y-79012486D01*
X115100499Y-78412492D01*
X115098583Y-78393739D01*
X115089999Y-78309703D01*
X115089998Y-78309700D01*
X115073692Y-78260491D01*
X115034814Y-78143166D01*
X114942712Y-77993844D01*
X114849049Y-77900181D01*
X114815564Y-77838858D01*
X114820548Y-77769166D01*
X114849049Y-77724819D01*
X114885574Y-77688294D01*
X114942712Y-77631156D01*
X115034814Y-77481834D01*
X115089999Y-77315297D01*
X115100500Y-77212509D01*
X115100499Y-76587492D01*
X115089999Y-76484703D01*
X115034814Y-76318166D01*
X115034810Y-76318160D01*
X115034809Y-76318157D01*
X115013186Y-76283101D01*
X114994745Y-76215709D01*
X115015667Y-76149045D01*
X115031038Y-76130329D01*
X115774549Y-75386819D01*
X115835872Y-75353334D01*
X115862230Y-75350500D01*
X117973920Y-75350500D01*
X118071462Y-75331096D01*
X118118913Y-75321658D01*
X118187204Y-75293371D01*
X118255491Y-75265086D01*
X118255492Y-75265085D01*
X118255495Y-75265084D01*
X118304753Y-75232171D01*
X118378416Y-75182952D01*
X119399548Y-74161818D01*
X119460871Y-74128334D01*
X119487229Y-74125500D01*
X120928584Y-74125500D01*
X120969539Y-74132459D01*
X121120737Y-74185366D01*
X121120743Y-74185367D01*
X121120745Y-74185368D01*
X121120746Y-74185368D01*
X121120750Y-74185369D01*
X121299996Y-74205565D01*
X121300000Y-74205565D01*
X121300004Y-74205565D01*
X121479249Y-74185369D01*
X121479252Y-74185368D01*
X121479255Y-74185368D01*
X121649522Y-74125789D01*
X121802262Y-74029816D01*
X121929816Y-73902262D01*
X122025789Y-73749522D01*
X122085368Y-73579255D01*
X122085369Y-73579249D01*
X122105565Y-73400003D01*
X122105565Y-73399996D01*
X122085369Y-73220750D01*
X122085368Y-73220745D01*
X122036052Y-73079809D01*
X122025789Y-73050478D01*
X122002095Y-73012770D01*
X121962654Y-72950000D01*
X121929816Y-72897738D01*
X121802262Y-72770184D01*
X121744795Y-72734075D01*
X121649523Y-72674211D01*
X121479254Y-72614631D01*
X121479249Y-72614630D01*
X121300004Y-72594435D01*
X121299996Y-72594435D01*
X121120753Y-72614630D01*
X121120746Y-72614631D01*
X121116016Y-72616286D01*
X121112430Y-72617541D01*
X121071477Y-72624500D01*
X119999500Y-72624500D01*
X119932461Y-72604815D01*
X119886706Y-72552011D01*
X119875500Y-72500500D01*
X119875500Y-68332328D01*
X119880424Y-68297733D01*
X119922597Y-68152573D01*
X119922598Y-68152567D01*
X119925499Y-68115701D01*
X119925500Y-68115694D01*
X119925500Y-66584306D01*
X119922598Y-66547431D01*
X119921000Y-66541932D01*
X119876745Y-66389606D01*
X119876744Y-66389603D01*
X119876744Y-66389602D01*
X119793081Y-66248135D01*
X119793079Y-66248133D01*
X119793076Y-66248129D01*
X119676870Y-66131923D01*
X119676862Y-66131917D01*
X119598681Y-66085681D01*
X119535398Y-66048256D01*
X119535397Y-66048255D01*
X119535396Y-66048255D01*
X119535393Y-66048254D01*
X119377573Y-66002402D01*
X119377567Y-66002401D01*
X119340701Y-65999500D01*
X119340694Y-65999500D01*
X118909306Y-65999500D01*
X118909298Y-65999500D01*
X118872432Y-66002401D01*
X118872426Y-66002402D01*
X118714606Y-66048254D01*
X118714603Y-66048255D01*
X118566420Y-66135890D01*
X118565329Y-66134045D01*
X118510537Y-66155551D01*
X118442021Y-66141862D01*
X118433292Y-66136252D01*
X118433271Y-66136288D01*
X118285196Y-66048717D01*
X118285193Y-66048716D01*
X118127494Y-66002900D01*
X118127497Y-66002900D01*
X118125000Y-66002703D01*
X118125000Y-68697295D01*
X118125001Y-68697295D01*
X118127488Y-68697100D01*
X118127494Y-68697099D01*
X118215905Y-68671413D01*
X118285774Y-68671612D01*
X118344444Y-68709554D01*
X118373288Y-68773192D01*
X118374500Y-68790489D01*
X118374500Y-73012770D01*
X118354815Y-73079809D01*
X118338181Y-73100451D01*
X117625451Y-73813181D01*
X117564128Y-73846666D01*
X117537770Y-73849500D01*
X115426076Y-73849500D01*
X115397242Y-73855234D01*
X115397243Y-73855235D01*
X115281093Y-73878339D01*
X115281083Y-73878342D01*
X115201081Y-73911479D01*
X115201082Y-73911480D01*
X115144506Y-73934915D01*
X115110031Y-73957951D01*
X115021582Y-74017049D01*
X115021581Y-74017050D01*
X113317050Y-75721580D01*
X113317044Y-75721588D01*
X113267812Y-75795268D01*
X113267813Y-75795269D01*
X113234916Y-75844503D01*
X113221269Y-75877449D01*
X113177426Y-75931851D01*
X113145718Y-75947697D01*
X113130669Y-75952684D01*
X112981342Y-76044789D01*
X112857289Y-76168842D01*
X112765187Y-76318163D01*
X112765186Y-76318166D01*
X112710001Y-76484703D01*
X112710001Y-76484704D01*
X112710000Y-76484704D01*
X112699500Y-76587483D01*
X112699500Y-77212501D01*
X112699501Y-77212519D01*
X112710000Y-77315296D01*
X112710001Y-77315299D01*
X112741217Y-77409500D01*
X112765186Y-77481834D01*
X112853799Y-77625500D01*
X112857289Y-77631157D01*
X112950951Y-77724819D01*
X112984436Y-77786142D01*
X112979452Y-77855834D01*
X112950951Y-77900181D01*
X112857289Y-77993842D01*
X112765187Y-78143163D01*
X112765186Y-78143166D01*
X112710001Y-78309703D01*
X112710001Y-78309704D01*
X112710000Y-78309704D01*
X112699500Y-78412483D01*
X112699500Y-79037501D01*
X112699501Y-79037519D01*
X112710000Y-79140296D01*
X112710001Y-79140299D01*
X112756832Y-79281624D01*
X112765186Y-79306834D01*
X112857288Y-79456156D01*
X112981344Y-79580212D01*
X113090597Y-79647599D01*
X113137321Y-79699547D01*
X113149500Y-79753138D01*
X113149500Y-80173918D01*
X113149500Y-80173920D01*
X113149499Y-80173920D01*
X113178340Y-80318907D01*
X113178343Y-80318917D01*
X113234913Y-80455490D01*
X113234914Y-80455491D01*
X113234916Y-80455495D01*
X113244730Y-80470182D01*
X113244731Y-80470185D01*
X113317046Y-80578414D01*
X113317052Y-80578421D01*
X114321580Y-81582948D01*
X114321584Y-81582951D01*
X114444498Y-81665080D01*
X114444511Y-81665087D01*
X114581082Y-81721656D01*
X114581087Y-81721658D01*
X114581091Y-81721658D01*
X114581092Y-81721659D01*
X114726079Y-81750500D01*
X114726082Y-81750500D01*
X114873917Y-81750500D01*
X117737770Y-81750500D01*
X117804809Y-81770185D01*
X117825451Y-81786819D01*
X118085181Y-82046549D01*
X118118666Y-82107872D01*
X118121500Y-82134230D01*
X118121500Y-82566336D01*
X118101815Y-82633375D01*
X118068625Y-82667910D01*
X118032863Y-82692951D01*
X117871951Y-82853862D01*
X117741432Y-83040265D01*
X117741431Y-83040267D01*
X117714382Y-83098275D01*
X117668209Y-83150714D01*
X117601016Y-83169866D01*
X117534135Y-83149650D01*
X117489618Y-83098275D01*
X117462686Y-83040520D01*
X117462568Y-83040266D01*
X117332047Y-82853861D01*
X117332045Y-82853858D01*
X117171141Y-82692954D01*
X116984734Y-82562432D01*
X116984732Y-82562431D01*
X116778497Y-82466261D01*
X116778488Y-82466258D01*
X116558697Y-82407366D01*
X116558693Y-82407365D01*
X116558692Y-82407365D01*
X116558691Y-82407364D01*
X116558686Y-82407364D01*
X116332002Y-82387532D01*
X116331998Y-82387532D01*
X116105313Y-82407364D01*
X116105302Y-82407366D01*
X115885511Y-82466258D01*
X115885502Y-82466261D01*
X115679267Y-82562431D01*
X115679265Y-82562432D01*
X115492858Y-82692954D01*
X115331954Y-82853858D01*
X115201433Y-83040264D01*
X115201432Y-83040266D01*
X115201315Y-83040518D01*
X115174106Y-83098867D01*
X115127933Y-83151306D01*
X115060739Y-83170457D01*
X114993858Y-83150241D01*
X114949342Y-83098865D01*
X114922135Y-83040520D01*
X114922134Y-83040518D01*
X114791657Y-82854179D01*
X114630820Y-82693342D01*
X114444482Y-82562865D01*
X114238328Y-82466734D01*
X114042000Y-82414127D01*
X114042000Y-83259988D01*
X113984993Y-83227075D01*
X113857826Y-83193000D01*
X113726174Y-83193000D01*
X113599007Y-83227075D01*
X113542000Y-83259988D01*
X113542000Y-82414127D01*
X113345671Y-82466734D01*
X113139517Y-82562865D01*
X112953179Y-82693342D01*
X112792342Y-82854179D01*
X112661867Y-83040515D01*
X112634657Y-83098867D01*
X112588484Y-83151306D01*
X112521290Y-83170457D01*
X112454409Y-83150241D01*
X112409893Y-83098865D01*
X112382685Y-83040518D01*
X112382568Y-83040266D01*
X112252047Y-82853861D01*
X112252045Y-82853858D01*
X112091141Y-82692954D01*
X111904734Y-82562432D01*
X111904732Y-82562431D01*
X111698497Y-82466261D01*
X111698488Y-82466258D01*
X111478697Y-82407366D01*
X111478693Y-82407365D01*
X111478692Y-82407365D01*
X111478691Y-82407364D01*
X111478686Y-82407364D01*
X111252002Y-82387532D01*
X111251998Y-82387532D01*
X111025313Y-82407364D01*
X111025302Y-82407366D01*
X110805511Y-82466258D01*
X110805502Y-82466261D01*
X110599267Y-82562431D01*
X110599265Y-82562432D01*
X110412858Y-82692954D01*
X110251954Y-82853858D01*
X110121432Y-83040265D01*
X110121431Y-83040267D01*
X110025261Y-83246502D01*
X110025258Y-83246511D01*
X109966366Y-83466302D01*
X109966364Y-83466313D01*
X109946532Y-83692998D01*
X107615427Y-83692998D01*
X107620675Y-68115649D01*
X117075000Y-68115649D01*
X117077899Y-68152489D01*
X117077900Y-68152495D01*
X117123716Y-68310193D01*
X117123717Y-68310196D01*
X117207314Y-68451552D01*
X117207321Y-68451561D01*
X117323438Y-68567678D01*
X117323447Y-68567685D01*
X117464801Y-68651281D01*
X117622514Y-68697100D01*
X117622511Y-68697100D01*
X117624998Y-68697295D01*
X117625000Y-68697295D01*
X117625000Y-67600000D01*
X117075000Y-67600000D01*
X117075000Y-68115649D01*
X107620675Y-68115649D01*
X107621766Y-64878711D01*
X108549500Y-64878711D01*
X108549500Y-65121288D01*
X108573025Y-65299986D01*
X108581162Y-65361789D01*
X108592123Y-65402697D01*
X108643947Y-65596104D01*
X108694581Y-65718345D01*
X108736776Y-65820212D01*
X108858064Y-66030289D01*
X108858066Y-66030292D01*
X108858067Y-66030293D01*
X109005733Y-66222736D01*
X109005739Y-66222743D01*
X109177256Y-66394260D01*
X109177262Y-66394265D01*
X109369711Y-66541936D01*
X109579788Y-66663224D01*
X109803900Y-66756054D01*
X110038211Y-66818838D01*
X110218586Y-66842584D01*
X110278711Y-66850500D01*
X110278712Y-66850500D01*
X110521289Y-66850500D01*
X110569388Y-66844167D01*
X110761789Y-66818838D01*
X110996100Y-66756054D01*
X111220212Y-66663224D01*
X111356826Y-66584350D01*
X117075000Y-66584350D01*
X117075000Y-67100000D01*
X117625000Y-67100000D01*
X117625000Y-66002703D01*
X117622503Y-66002900D01*
X117464806Y-66048716D01*
X117464803Y-66048717D01*
X117323447Y-66132314D01*
X117323438Y-66132321D01*
X117207321Y-66248438D01*
X117207314Y-66248447D01*
X117123717Y-66389803D01*
X117123716Y-66389806D01*
X117077900Y-66547504D01*
X117077899Y-66547510D01*
X117075000Y-66584350D01*
X111356826Y-66584350D01*
X111430289Y-66541936D01*
X111622738Y-66394265D01*
X111794265Y-66222738D01*
X111941936Y-66030289D01*
X112063224Y-65820212D01*
X112156054Y-65596100D01*
X112218838Y-65361789D01*
X112226974Y-65299986D01*
X115025001Y-65299986D01*
X115035494Y-65402697D01*
X115090641Y-65569119D01*
X115090643Y-65569124D01*
X115182684Y-65718345D01*
X115306654Y-65842315D01*
X115455875Y-65934356D01*
X115455880Y-65934358D01*
X115622302Y-65989505D01*
X115622309Y-65989506D01*
X115725019Y-65999999D01*
X116275000Y-65999999D01*
X116324972Y-65999999D01*
X116324986Y-65999998D01*
X116427697Y-65989505D01*
X116594119Y-65934358D01*
X116594124Y-65934356D01*
X116743345Y-65842315D01*
X116867315Y-65718345D01*
X116959356Y-65569124D01*
X116959358Y-65569119D01*
X117014505Y-65402697D01*
X117014506Y-65402690D01*
X117024999Y-65299986D01*
X119975001Y-65299986D01*
X119985494Y-65402697D01*
X120040641Y-65569119D01*
X120040643Y-65569124D01*
X120132684Y-65718345D01*
X120256654Y-65842315D01*
X120405875Y-65934356D01*
X120405880Y-65934358D01*
X120572302Y-65989505D01*
X120572309Y-65989506D01*
X120675019Y-65999999D01*
X121225000Y-65999999D01*
X121274972Y-65999999D01*
X121274986Y-65999998D01*
X121377697Y-65989505D01*
X121544119Y-65934358D01*
X121544124Y-65934356D01*
X121693345Y-65842315D01*
X121817315Y-65718345D01*
X121909356Y-65569124D01*
X121909358Y-65569119D01*
X121964505Y-65402697D01*
X121964506Y-65402690D01*
X121974999Y-65299986D01*
X121975000Y-65299973D01*
X121975000Y-64878711D01*
X145749500Y-64878711D01*
X145749500Y-65121288D01*
X145773025Y-65299986D01*
X145781162Y-65361789D01*
X145792123Y-65402697D01*
X145843947Y-65596104D01*
X145894581Y-65718345D01*
X145936776Y-65820212D01*
X146058064Y-66030289D01*
X146058066Y-66030292D01*
X146058067Y-66030293D01*
X146205733Y-66222736D01*
X146205739Y-66222743D01*
X146377256Y-66394260D01*
X146377262Y-66394265D01*
X146569711Y-66541936D01*
X146779788Y-66663224D01*
X147003900Y-66756054D01*
X147238211Y-66818838D01*
X147418586Y-66842584D01*
X147478711Y-66850500D01*
X147478712Y-66850500D01*
X147721289Y-66850500D01*
X147769388Y-66844167D01*
X147961789Y-66818838D01*
X148196100Y-66756054D01*
X148420212Y-66663224D01*
X148630289Y-66541936D01*
X148822738Y-66394265D01*
X148994265Y-66222738D01*
X149141936Y-66030289D01*
X149263224Y-65820212D01*
X149356054Y-65596100D01*
X149418838Y-65361789D01*
X149450500Y-65121288D01*
X149450500Y-64878712D01*
X149418838Y-64638211D01*
X149356054Y-64403900D01*
X149263224Y-64179788D01*
X149141936Y-63969711D01*
X148994265Y-63777262D01*
X148994260Y-63777256D01*
X148822743Y-63605739D01*
X148822736Y-63605733D01*
X148630293Y-63458067D01*
X148630292Y-63458066D01*
X148630289Y-63458064D01*
X148420212Y-63336776D01*
X148420205Y-63336773D01*
X148196104Y-63243947D01*
X147961785Y-63181161D01*
X147721289Y-63149500D01*
X147721288Y-63149500D01*
X147478712Y-63149500D01*
X147478711Y-63149500D01*
X147238214Y-63181161D01*
X147003895Y-63243947D01*
X146779794Y-63336773D01*
X146779785Y-63336777D01*
X146569706Y-63458067D01*
X146377263Y-63605733D01*
X146377256Y-63605739D01*
X146205739Y-63777256D01*
X146205733Y-63777263D01*
X146058067Y-63969706D01*
X145936777Y-64179785D01*
X145936773Y-64179794D01*
X145843947Y-64403895D01*
X145781161Y-64638214D01*
X145749500Y-64878711D01*
X121975000Y-64878711D01*
X121975000Y-64400000D01*
X121225000Y-64400000D01*
X121225000Y-65999999D01*
X120675019Y-65999999D01*
X120724999Y-65999998D01*
X120725000Y-65999998D01*
X120725000Y-64400000D01*
X119975001Y-64400000D01*
X119975001Y-65299986D01*
X117024999Y-65299986D01*
X117025000Y-65299973D01*
X117025000Y-64400000D01*
X116275000Y-64400000D01*
X116275000Y-65999999D01*
X115725019Y-65999999D01*
X115774999Y-65999998D01*
X115775000Y-65999998D01*
X115775000Y-64400000D01*
X115025001Y-64400000D01*
X115025001Y-65299986D01*
X112226974Y-65299986D01*
X112250500Y-65121288D01*
X112250500Y-64878712D01*
X112218838Y-64638211D01*
X112156054Y-64403900D01*
X112063224Y-64179788D01*
X111941936Y-63969711D01*
X111794265Y-63777262D01*
X111794260Y-63777256D01*
X111622743Y-63605739D01*
X111622736Y-63605733D01*
X111430293Y-63458067D01*
X111430292Y-63458066D01*
X111430289Y-63458064D01*
X111220212Y-63336776D01*
X111220205Y-63336773D01*
X110996104Y-63243947D01*
X110761785Y-63181161D01*
X110521289Y-63149500D01*
X110521288Y-63149500D01*
X110278712Y-63149500D01*
X110278711Y-63149500D01*
X110038214Y-63181161D01*
X109803895Y-63243947D01*
X109579794Y-63336773D01*
X109579785Y-63336777D01*
X109369706Y-63458067D01*
X109177263Y-63605733D01*
X109177256Y-63605739D01*
X109005739Y-63777256D01*
X109005733Y-63777263D01*
X108858067Y-63969706D01*
X108736777Y-64179785D01*
X108736773Y-64179794D01*
X108643947Y-64403895D01*
X108581161Y-64638214D01*
X108549500Y-64878711D01*
X107621766Y-64878711D01*
X107621794Y-64795717D01*
X107621820Y-64795323D01*
X107621820Y-64787212D01*
X107621821Y-64787209D01*
X107621820Y-64725065D01*
X107622046Y-64717579D01*
X107626846Y-64638211D01*
X107639589Y-64427515D01*
X107641394Y-64412655D01*
X107642999Y-64403900D01*
X107693096Y-64130520D01*
X107696678Y-64115988D01*
X107763982Y-63900000D01*
X107782012Y-63842136D01*
X107787321Y-63828139D01*
X107810219Y-63777262D01*
X107905042Y-63566570D01*
X107911993Y-63553325D01*
X108060394Y-63307841D01*
X108068881Y-63295545D01*
X108245795Y-63069731D01*
X108255710Y-63058540D01*
X108458540Y-62855710D01*
X108469731Y-62845795D01*
X108695545Y-62668881D01*
X108707841Y-62660394D01*
X108953325Y-62511993D01*
X108966570Y-62505042D01*
X109228143Y-62387319D01*
X109242136Y-62382012D01*
X109515995Y-62296676D01*
X109530520Y-62293096D01*
X109812661Y-62241393D01*
X109827515Y-62239589D01*
X110117581Y-62222045D01*
X110125065Y-62221820D01*
X110187209Y-62221821D01*
X110187213Y-62221820D01*
X115251813Y-62221820D01*
X115318852Y-62241505D01*
G37*
%TD.AperFunction*%
%TD*%
M02*
