%TF.GenerationSoftware,KiCad,Pcbnew,8.0.5*%
%TF.CreationDate,2024-11-28T22:16:38+01:00*%
%TF.ProjectId,hotendheater,686f7465-6e64-4686-9561-7465722e6b69,rev?*%
%TF.SameCoordinates,Original*%
%TF.FileFunction,Copper,L2,Bot*%
%TF.FilePolarity,Positive*%
%FSLAX46Y46*%
G04 Gerber Fmt 4.6, Leading zero omitted, Abs format (unit mm)*
G04 Created by KiCad (PCBNEW 8.0.5) date 2024-11-28 22:16:38*
%MOMM*%
%LPD*%
G01*
G04 APERTURE LIST*
G04 Aperture macros list*
%AMRoundRect*
0 Rectangle with rounded corners*
0 $1 Rounding radius*
0 $2 $3 $4 $5 $6 $7 $8 $9 X,Y pos of 4 corners*
0 Add a 4 corners polygon primitive as box body*
4,1,4,$2,$3,$4,$5,$6,$7,$8,$9,$2,$3,0*
0 Add four circle primitives for the rounded corners*
1,1,$1+$1,$2,$3*
1,1,$1+$1,$4,$5*
1,1,$1+$1,$6,$7*
1,1,$1+$1,$8,$9*
0 Add four rect primitives between the rounded corners*
20,1,$1+$1,$2,$3,$4,$5,0*
20,1,$1+$1,$4,$5,$6,$7,0*
20,1,$1+$1,$6,$7,$8,$9,0*
20,1,$1+$1,$8,$9,$2,$3,0*%
G04 Aperture macros list end*
%TA.AperFunction,ComponentPad*%
%ADD10R,1.700000X1.700000*%
%TD*%
%TA.AperFunction,ComponentPad*%
%ADD11O,1.700000X1.700000*%
%TD*%
%TA.AperFunction,ComponentPad*%
%ADD12R,1.905000X2.000000*%
%TD*%
%TA.AperFunction,ComponentPad*%
%ADD13O,1.905000X2.000000*%
%TD*%
%TA.AperFunction,ComponentPad*%
%ADD14RoundRect,0.250000X0.600000X0.750000X-0.600000X0.750000X-0.600000X-0.750000X0.600000X-0.750000X0*%
%TD*%
%TA.AperFunction,ComponentPad*%
%ADD15O,1.700000X2.000000*%
%TD*%
%TA.AperFunction,ComponentPad*%
%ADD16R,1.600000X1.600000*%
%TD*%
%TA.AperFunction,ComponentPad*%
%ADD17O,1.600000X1.600000*%
%TD*%
%TA.AperFunction,ViaPad*%
%ADD18C,1.000000*%
%TD*%
%TA.AperFunction,Conductor*%
%ADD19C,1.750000*%
%TD*%
%TA.AperFunction,Conductor*%
%ADD20C,0.500000*%
%TD*%
G04 APERTURE END LIST*
D10*
%TO.P,J5,1,Pin_1*%
%TO.N,GND*%
X140500000Y-72540000D03*
D11*
%TO.P,J5,2,Pin_2*%
X140500000Y-70000000D03*
%TD*%
D10*
%TO.P,J4,1,Pin_1*%
%TO.N,+12V*%
X140500000Y-77790000D03*
D11*
%TO.P,J4,2,Pin_2*%
X140500000Y-75250000D03*
%TD*%
D12*
%TO.P,Q1,1,G*%
%TO.N,Net-(Q1-G)*%
X129420000Y-78500000D03*
D13*
%TO.P,Q1,2,D*%
%TO.N,Net-(J1-Pin_2)*%
X131960000Y-78500000D03*
%TO.P,Q1,3,S*%
%TO.N,GND*%
X134500000Y-78500000D03*
%TD*%
D10*
%TO.P,J3,1,Pin_1*%
%TO.N,GND*%
X121340000Y-104000000D03*
D11*
%TO.P,J3,2,Pin_2*%
%TO.N,+5V*%
X123880000Y-104000000D03*
%TO.P,J3,3,Pin_3*%
%TO.N,/SCL*%
X126420000Y-104000000D03*
%TO.P,J3,4,Pin_4*%
%TO.N,/SDA*%
X128960000Y-104000000D03*
%TO.P,J3,5,Pin_5*%
%TO.N,/Button4*%
X131500000Y-104000000D03*
%TO.P,J3,6,Pin_6*%
%TO.N,/Button3*%
X134040000Y-104000000D03*
%TO.P,J3,7,Pin_7*%
%TO.N,/Button2*%
X136580000Y-104000000D03*
%TO.P,J3,8,Pin_8*%
%TO.N,/Button1*%
X139120000Y-104000000D03*
%TD*%
D14*
%TO.P,J1,1,Pin_1*%
%TO.N,+12V*%
X134500000Y-70500000D03*
D15*
%TO.P,J1,2,Pin_2*%
%TO.N,Net-(J1-Pin_2)*%
X132000000Y-70500000D03*
%TD*%
D16*
%TO.P,A1,1,D1/TX*%
%TO.N,unconnected-(A1-D1{slash}TX-Pad1)*%
X111252000Y-98933000D03*
D17*
%TO.P,A1,2,D0/RX*%
%TO.N,unconnected-(A1-D0{slash}RX-Pad2)*%
X113792000Y-98933000D03*
%TO.P,A1,3,~{RESET}*%
%TO.N,unconnected-(A1-~{RESET}-Pad3)*%
X116332000Y-98933000D03*
%TO.P,A1,4,GND*%
%TO.N,GND*%
X118872000Y-98933000D03*
%TO.P,A1,5,D2*%
%TO.N,unconnected-(A1-D2-Pad5)*%
X121412000Y-98933000D03*
%TO.P,A1,6,D3*%
%TO.N,/Heater*%
X123952000Y-98933000D03*
%TO.P,A1,7,D4*%
%TO.N,unconnected-(A1-D4-Pad7)*%
X126492000Y-98933000D03*
%TO.P,A1,8,D5*%
%TO.N,unconnected-(A1-D5-Pad8)*%
X129032000Y-98933000D03*
%TO.P,A1,9,D6*%
%TO.N,unconnected-(A1-D6-Pad9)*%
X131572000Y-98933000D03*
%TO.P,A1,10,D7*%
%TO.N,unconnected-(A1-D7-Pad10)*%
X134112000Y-98933000D03*
%TO.P,A1,11,D8*%
%TO.N,unconnected-(A1-D8-Pad11)*%
X136652000Y-98933000D03*
%TO.P,A1,12,D9*%
%TO.N,unconnected-(A1-D9-Pad12)*%
X139192000Y-98933000D03*
%TO.P,A1,13,D10*%
%TO.N,/Button4*%
X141732000Y-98933000D03*
%TO.P,A1,14,D11*%
%TO.N,/Button3*%
X144272000Y-98933000D03*
%TO.P,A1,15,D12*%
%TO.N,/Button2*%
X146812000Y-98933000D03*
%TO.P,A1,16,D13*%
%TO.N,/Button1*%
X146812000Y-83693000D03*
%TO.P,A1,17,3V3*%
%TO.N,unconnected-(A1-3V3-Pad17)*%
X144272000Y-83693000D03*
%TO.P,A1,18,AREF*%
%TO.N,unconnected-(A1-AREF-Pad18)*%
X141732000Y-83693000D03*
%TO.P,A1,19,A0*%
%TO.N,/Thermistor*%
X139192000Y-83693000D03*
%TO.P,A1,20,A1*%
%TO.N,unconnected-(A1-A1-Pad20)*%
X136652000Y-83693000D03*
%TO.P,A1,21,A2*%
%TO.N,unconnected-(A1-A2-Pad21)*%
X134112000Y-83693000D03*
%TO.P,A1,22,A3*%
%TO.N,unconnected-(A1-A3-Pad22)*%
X131572000Y-83693000D03*
%TO.P,A1,23,A4*%
%TO.N,/SDA*%
X129032000Y-83693000D03*
%TO.P,A1,24,A5*%
%TO.N,/SCL*%
X126492000Y-83693000D03*
%TO.P,A1,25,A6*%
%TO.N,unconnected-(A1-A6-Pad25)*%
X123952000Y-83693000D03*
%TO.P,A1,26,A7*%
%TO.N,unconnected-(A1-A7-Pad26)*%
X121412000Y-83693000D03*
%TO.P,A1,27,+5V*%
%TO.N,+5V*%
X118872000Y-83693000D03*
%TO.P,A1,28,~{RESET}*%
%TO.N,unconnected-(A1-~{RESET}-Pad28)*%
X116332000Y-83693000D03*
%TO.P,A1,29,GND*%
%TO.N,GND*%
X113792000Y-83693000D03*
%TO.P,A1,30,VIN*%
%TO.N,+12V*%
X111252000Y-83693000D03*
%TD*%
D18*
%TO.N,GND*%
X114000000Y-74800000D03*
X113800000Y-91200000D03*
X134250000Y-76000000D03*
X138000000Y-77750000D03*
X126500000Y-95250000D03*
X129000000Y-95250000D03*
X133500000Y-86500000D03*
X129000000Y-86500000D03*
X138000000Y-88000000D03*
%TO.N,/Thermistor*%
X126500000Y-88000000D03*
%TO.N,/Heater*%
X125250000Y-81250000D03*
%TD*%
D19*
%TO.N,+12V*%
X134500000Y-73000000D02*
X136750000Y-75250000D01*
X134500000Y-70500000D02*
X134500000Y-73000000D01*
X136750000Y-75250000D02*
X140500000Y-75250000D01*
%TO.N,Net-(J1-Pin_2)*%
X132000000Y-70500000D02*
X132000000Y-78460000D01*
X132000000Y-78460000D02*
X131960000Y-78500000D01*
D20*
%TO.N,/Thermistor*%
X126500000Y-88000000D02*
X134885000Y-88000000D01*
X134885000Y-88000000D02*
X139192000Y-83693000D01*
%TO.N,+12V*%
X111252000Y-83693000D02*
X114695000Y-80250000D01*
X114695000Y-80250000D02*
X138040000Y-80250000D01*
X138040000Y-80250000D02*
X140500000Y-77790000D01*
%TO.N,/Heater*%
X125250000Y-81250000D02*
X125242000Y-81258000D01*
X123952000Y-88048000D02*
X123952000Y-98933000D01*
X125242000Y-81258000D02*
X125242000Y-86758000D01*
X125242000Y-86758000D02*
X123952000Y-88048000D01*
%TO.N,/Button1*%
X146812000Y-83693000D02*
X142982000Y-87523000D01*
X142982000Y-87523000D02*
X142982000Y-100138000D01*
X142982000Y-100138000D02*
X139120000Y-104000000D01*
%TD*%
%TA.AperFunction,Conductor*%
%TO.N,GND*%
G36*
X143069865Y-84236348D02*
G01*
X143114382Y-84287725D01*
X143141429Y-84345728D01*
X143141432Y-84345734D01*
X143271954Y-84532141D01*
X143432858Y-84693045D01*
X143432861Y-84693047D01*
X143619266Y-84823568D01*
X143825504Y-84919739D01*
X144045308Y-84978635D01*
X144166327Y-84989222D01*
X144231394Y-85014674D01*
X144272372Y-85071265D01*
X144276251Y-85141027D01*
X144243199Y-85200431D01*
X142399050Y-87044581D01*
X142399048Y-87044584D01*
X142381274Y-87071186D01*
X142381273Y-87071188D01*
X142381272Y-87071189D01*
X142316914Y-87167507D01*
X142260343Y-87304082D01*
X142260340Y-87304092D01*
X142231500Y-87449079D01*
X142231500Y-97558863D01*
X142211815Y-97625902D01*
X142159011Y-97671657D01*
X142089853Y-97681601D01*
X142075407Y-97678638D01*
X141958697Y-97647366D01*
X141958693Y-97647365D01*
X141958692Y-97647365D01*
X141958691Y-97647364D01*
X141958686Y-97647364D01*
X141732002Y-97627532D01*
X141731998Y-97627532D01*
X141505313Y-97647364D01*
X141505302Y-97647366D01*
X141285511Y-97706258D01*
X141285502Y-97706261D01*
X141079267Y-97802431D01*
X141079265Y-97802432D01*
X140892858Y-97932954D01*
X140731954Y-98093858D01*
X140601432Y-98280265D01*
X140601431Y-98280267D01*
X140574382Y-98338275D01*
X140528209Y-98390714D01*
X140461016Y-98409866D01*
X140394135Y-98389650D01*
X140349618Y-98338275D01*
X140322686Y-98280520D01*
X140322568Y-98280266D01*
X140192047Y-98093861D01*
X140192045Y-98093858D01*
X140031141Y-97932954D01*
X139844734Y-97802432D01*
X139844732Y-97802431D01*
X139638497Y-97706261D01*
X139638488Y-97706258D01*
X139418697Y-97647366D01*
X139418693Y-97647365D01*
X139418692Y-97647365D01*
X139418691Y-97647364D01*
X139418686Y-97647364D01*
X139192002Y-97627532D01*
X139191998Y-97627532D01*
X138965313Y-97647364D01*
X138965302Y-97647366D01*
X138745511Y-97706258D01*
X138745502Y-97706261D01*
X138539267Y-97802431D01*
X138539265Y-97802432D01*
X138352858Y-97932954D01*
X138191954Y-98093858D01*
X138061432Y-98280265D01*
X138061431Y-98280267D01*
X138034382Y-98338275D01*
X137988209Y-98390714D01*
X137921016Y-98409866D01*
X137854135Y-98389650D01*
X137809618Y-98338275D01*
X137782686Y-98280520D01*
X137782568Y-98280266D01*
X137652047Y-98093861D01*
X137652045Y-98093858D01*
X137491141Y-97932954D01*
X137304734Y-97802432D01*
X137304732Y-97802431D01*
X137098497Y-97706261D01*
X137098488Y-97706258D01*
X136878697Y-97647366D01*
X136878693Y-97647365D01*
X136878692Y-97647365D01*
X136878691Y-97647364D01*
X136878686Y-97647364D01*
X136652002Y-97627532D01*
X136651998Y-97627532D01*
X136425313Y-97647364D01*
X136425302Y-97647366D01*
X136205511Y-97706258D01*
X136205502Y-97706261D01*
X135999267Y-97802431D01*
X135999265Y-97802432D01*
X135812858Y-97932954D01*
X135651954Y-98093858D01*
X135521432Y-98280265D01*
X135521431Y-98280267D01*
X135494382Y-98338275D01*
X135448209Y-98390714D01*
X135381016Y-98409866D01*
X135314135Y-98389650D01*
X135269618Y-98338275D01*
X135242686Y-98280520D01*
X135242568Y-98280266D01*
X135112047Y-98093861D01*
X135112045Y-98093858D01*
X134951141Y-97932954D01*
X134764734Y-97802432D01*
X134764732Y-97802431D01*
X134558497Y-97706261D01*
X134558488Y-97706258D01*
X134338697Y-97647366D01*
X134338693Y-97647365D01*
X134338692Y-97647365D01*
X134338691Y-97647364D01*
X134338686Y-97647364D01*
X134112002Y-97627532D01*
X134111998Y-97627532D01*
X133885313Y-97647364D01*
X133885302Y-97647366D01*
X133665511Y-97706258D01*
X133665502Y-97706261D01*
X133459267Y-97802431D01*
X133459265Y-97802432D01*
X133272858Y-97932954D01*
X133111954Y-98093858D01*
X132981432Y-98280265D01*
X132981431Y-98280267D01*
X132954382Y-98338275D01*
X132908209Y-98390714D01*
X132841016Y-98409866D01*
X132774135Y-98389650D01*
X132729618Y-98338275D01*
X132702686Y-98280520D01*
X132702568Y-98280266D01*
X132572047Y-98093861D01*
X132572045Y-98093858D01*
X132411141Y-97932954D01*
X132224734Y-97802432D01*
X132224732Y-97802431D01*
X132018497Y-97706261D01*
X132018488Y-97706258D01*
X131798697Y-97647366D01*
X131798693Y-97647365D01*
X131798692Y-97647365D01*
X131798691Y-97647364D01*
X131798686Y-97647364D01*
X131572002Y-97627532D01*
X131571998Y-97627532D01*
X131345313Y-97647364D01*
X131345302Y-97647366D01*
X131125511Y-97706258D01*
X131125502Y-97706261D01*
X130919267Y-97802431D01*
X130919265Y-97802432D01*
X130732858Y-97932954D01*
X130571954Y-98093858D01*
X130441432Y-98280265D01*
X130441431Y-98280267D01*
X130414382Y-98338275D01*
X130368209Y-98390714D01*
X130301016Y-98409866D01*
X130234135Y-98389650D01*
X130189618Y-98338275D01*
X130162686Y-98280520D01*
X130162568Y-98280266D01*
X130032047Y-98093861D01*
X130032045Y-98093858D01*
X129871141Y-97932954D01*
X129684734Y-97802432D01*
X129684732Y-97802431D01*
X129478497Y-97706261D01*
X129478488Y-97706258D01*
X129258697Y-97647366D01*
X129258693Y-97647365D01*
X129258692Y-97647365D01*
X129258691Y-97647364D01*
X129258686Y-97647364D01*
X129032002Y-97627532D01*
X129031998Y-97627532D01*
X128805313Y-97647364D01*
X128805302Y-97647366D01*
X128585511Y-97706258D01*
X128585502Y-97706261D01*
X128379267Y-97802431D01*
X128379265Y-97802432D01*
X128192858Y-97932954D01*
X128031954Y-98093858D01*
X127901432Y-98280265D01*
X127901431Y-98280267D01*
X127874382Y-98338275D01*
X127828209Y-98390714D01*
X127761016Y-98409866D01*
X127694135Y-98389650D01*
X127649618Y-98338275D01*
X127622686Y-98280520D01*
X127622568Y-98280266D01*
X127492047Y-98093861D01*
X127492045Y-98093858D01*
X127331141Y-97932954D01*
X127144734Y-97802432D01*
X127144732Y-97802431D01*
X126938497Y-97706261D01*
X126938488Y-97706258D01*
X126718697Y-97647366D01*
X126718693Y-97647365D01*
X126718692Y-97647365D01*
X126718691Y-97647364D01*
X126718686Y-97647364D01*
X126492002Y-97627532D01*
X126491998Y-97627532D01*
X126265313Y-97647364D01*
X126265302Y-97647366D01*
X126045511Y-97706258D01*
X126045502Y-97706261D01*
X125839267Y-97802431D01*
X125839265Y-97802432D01*
X125652858Y-97932954D01*
X125491954Y-98093858D01*
X125361432Y-98280265D01*
X125361431Y-98280267D01*
X125334382Y-98338275D01*
X125288209Y-98390714D01*
X125221016Y-98409866D01*
X125154135Y-98389650D01*
X125109618Y-98338275D01*
X125082686Y-98280520D01*
X125082568Y-98280266D01*
X125017307Y-98187063D01*
X124952048Y-98093862D01*
X124883702Y-98025516D01*
X124791139Y-97932953D01*
X124786373Y-97929615D01*
X124755375Y-97907910D01*
X124711751Y-97853332D01*
X124702500Y-97806336D01*
X124702500Y-88410229D01*
X124722185Y-88343190D01*
X124738819Y-88322548D01*
X125296944Y-87764423D01*
X125358267Y-87730938D01*
X125427959Y-87735922D01*
X125483892Y-87777794D01*
X125508309Y-87843258D01*
X125508028Y-87864258D01*
X125494659Y-87999999D01*
X125513975Y-88196129D01*
X125513976Y-88196132D01*
X125563341Y-88358867D01*
X125571188Y-88384733D01*
X125664086Y-88558532D01*
X125664090Y-88558539D01*
X125789116Y-88710883D01*
X125941460Y-88835909D01*
X125941467Y-88835913D01*
X126115266Y-88928811D01*
X126115269Y-88928811D01*
X126115273Y-88928814D01*
X126303868Y-88986024D01*
X126500000Y-89005341D01*
X126696132Y-88986024D01*
X126884727Y-88928814D01*
X127058538Y-88835910D01*
X127128313Y-88778647D01*
X127192623Y-88751334D01*
X127206978Y-88750500D01*
X134958920Y-88750500D01*
X135056462Y-88731096D01*
X135103913Y-88721658D01*
X135240495Y-88665084D01*
X135291577Y-88630952D01*
X135363416Y-88582952D01*
X138926652Y-85019714D01*
X138987973Y-84986231D01*
X139025135Y-84983869D01*
X139168366Y-84996400D01*
X139191999Y-84998468D01*
X139192000Y-84998468D01*
X139192002Y-84998468D01*
X139248673Y-84993509D01*
X139418692Y-84978635D01*
X139638496Y-84919739D01*
X139844734Y-84823568D01*
X140031139Y-84693047D01*
X140192047Y-84532139D01*
X140322568Y-84345734D01*
X140349618Y-84287724D01*
X140395790Y-84235285D01*
X140462983Y-84216133D01*
X140529865Y-84236348D01*
X140574382Y-84287725D01*
X140601429Y-84345728D01*
X140601432Y-84345734D01*
X140731954Y-84532141D01*
X140892858Y-84693045D01*
X140892861Y-84693047D01*
X141079266Y-84823568D01*
X141285504Y-84919739D01*
X141505308Y-84978635D01*
X141667230Y-84992801D01*
X141731998Y-84998468D01*
X141732000Y-84998468D01*
X141732002Y-84998468D01*
X141788673Y-84993509D01*
X141958692Y-84978635D01*
X142178496Y-84919739D01*
X142384734Y-84823568D01*
X142571139Y-84693047D01*
X142732047Y-84532139D01*
X142862568Y-84345734D01*
X142889618Y-84287724D01*
X142935790Y-84235285D01*
X143002983Y-84216133D01*
X143069865Y-84236348D01*
G37*
%TD.AperFunction*%
%TA.AperFunction,Conductor*%
G36*
X135449865Y-84236348D02*
G01*
X135494382Y-84287725D01*
X135521429Y-84345728D01*
X135521432Y-84345734D01*
X135651954Y-84532141D01*
X135812858Y-84693045D01*
X135812861Y-84693047D01*
X135999266Y-84823568D01*
X136205504Y-84919739D01*
X136425308Y-84978635D01*
X136546327Y-84989222D01*
X136611394Y-85014674D01*
X136652372Y-85071265D01*
X136656251Y-85141027D01*
X136623199Y-85200431D01*
X134610451Y-87213181D01*
X134549128Y-87246666D01*
X134522770Y-87249500D01*
X127206978Y-87249500D01*
X127139939Y-87229815D01*
X127128313Y-87221353D01*
X127058539Y-87164090D01*
X127058532Y-87164086D01*
X126884733Y-87071188D01*
X126884727Y-87071186D01*
X126696132Y-87013976D01*
X126696129Y-87013975D01*
X126500000Y-86994659D01*
X126303869Y-87013975D01*
X126131939Y-87066130D01*
X126062072Y-87066753D01*
X126002959Y-87029505D01*
X125973368Y-86966211D01*
X125974327Y-86923277D01*
X125992500Y-86831920D01*
X125992500Y-85067136D01*
X126012185Y-85000097D01*
X126064989Y-84954342D01*
X126134147Y-84944398D01*
X126148582Y-84947358D01*
X126265308Y-84978635D01*
X126427230Y-84992801D01*
X126491998Y-84998468D01*
X126492000Y-84998468D01*
X126492002Y-84998468D01*
X126548673Y-84993509D01*
X126718692Y-84978635D01*
X126938496Y-84919739D01*
X127144734Y-84823568D01*
X127331139Y-84693047D01*
X127492047Y-84532139D01*
X127622568Y-84345734D01*
X127649618Y-84287724D01*
X127695790Y-84235285D01*
X127762983Y-84216133D01*
X127829865Y-84236348D01*
X127874382Y-84287725D01*
X127901429Y-84345728D01*
X127901432Y-84345734D01*
X128031954Y-84532141D01*
X128192858Y-84693045D01*
X128192861Y-84693047D01*
X128379266Y-84823568D01*
X128585504Y-84919739D01*
X128805308Y-84978635D01*
X128967230Y-84992801D01*
X129031998Y-84998468D01*
X129032000Y-84998468D01*
X129032002Y-84998468D01*
X129088673Y-84993509D01*
X129258692Y-84978635D01*
X129478496Y-84919739D01*
X129684734Y-84823568D01*
X129871139Y-84693047D01*
X130032047Y-84532139D01*
X130162568Y-84345734D01*
X130189618Y-84287724D01*
X130235790Y-84235285D01*
X130302983Y-84216133D01*
X130369865Y-84236348D01*
X130414382Y-84287725D01*
X130441429Y-84345728D01*
X130441432Y-84345734D01*
X130571954Y-84532141D01*
X130732858Y-84693045D01*
X130732861Y-84693047D01*
X130919266Y-84823568D01*
X131125504Y-84919739D01*
X131345308Y-84978635D01*
X131507230Y-84992801D01*
X131571998Y-84998468D01*
X131572000Y-84998468D01*
X131572002Y-84998468D01*
X131628673Y-84993509D01*
X131798692Y-84978635D01*
X132018496Y-84919739D01*
X132224734Y-84823568D01*
X132411139Y-84693047D01*
X132572047Y-84532139D01*
X132702568Y-84345734D01*
X132729618Y-84287724D01*
X132775790Y-84235285D01*
X132842983Y-84216133D01*
X132909865Y-84236348D01*
X132954382Y-84287725D01*
X132981429Y-84345728D01*
X132981432Y-84345734D01*
X133111954Y-84532141D01*
X133272858Y-84693045D01*
X133272861Y-84693047D01*
X133459266Y-84823568D01*
X133665504Y-84919739D01*
X133885308Y-84978635D01*
X134047230Y-84992801D01*
X134111998Y-84998468D01*
X134112000Y-84998468D01*
X134112002Y-84998468D01*
X134168673Y-84993509D01*
X134338692Y-84978635D01*
X134558496Y-84919739D01*
X134764734Y-84823568D01*
X134951139Y-84693047D01*
X135112047Y-84532139D01*
X135242568Y-84345734D01*
X135269618Y-84287724D01*
X135315790Y-84235285D01*
X135382983Y-84216133D01*
X135449865Y-84236348D01*
G37*
%TD.AperFunction*%
%TA.AperFunction,Conductor*%
G36*
X133580703Y-74026400D02*
G01*
X133587181Y-74032432D01*
X135853922Y-76299173D01*
X135955373Y-76372880D01*
X136029081Y-76426433D01*
X136221991Y-76524726D01*
X136272486Y-76541132D01*
X136272487Y-76541133D01*
X136324293Y-76557965D01*
X136427903Y-76591631D01*
X136612507Y-76620869D01*
X136612506Y-76620869D01*
X136641745Y-76625500D01*
X136641746Y-76625500D01*
X136641747Y-76625500D01*
X136858254Y-76625500D01*
X139054528Y-76625500D01*
X139121567Y-76645185D01*
X139167322Y-76697989D01*
X139177266Y-76767147D01*
X139170710Y-76792833D01*
X139155908Y-76832517D01*
X139150438Y-76883400D01*
X139149501Y-76892123D01*
X139149500Y-76892135D01*
X139149500Y-78027769D01*
X139129815Y-78094808D01*
X139113181Y-78115450D01*
X137765451Y-79463181D01*
X137704128Y-79496666D01*
X137677770Y-79499500D01*
X135846831Y-79499500D01*
X135779792Y-79479815D01*
X135734037Y-79427011D01*
X135724093Y-79357853D01*
X135740211Y-79313185D01*
X135740077Y-79313117D01*
X135740623Y-79312045D01*
X135741106Y-79310707D01*
X135742286Y-79308781D01*
X135846082Y-79105070D01*
X135916734Y-78887628D01*
X135938532Y-78750000D01*
X134990748Y-78750000D01*
X135012518Y-78712292D01*
X135050000Y-78572409D01*
X135050000Y-78427591D01*
X135012518Y-78287708D01*
X134990748Y-78250000D01*
X135938532Y-78250000D01*
X135916734Y-78112371D01*
X135846082Y-77894929D01*
X135742288Y-77691223D01*
X135607902Y-77506257D01*
X135446242Y-77344597D01*
X135261276Y-77210211D01*
X135057568Y-77106417D01*
X134840124Y-77035765D01*
X134750000Y-77021490D01*
X134750000Y-78009252D01*
X134712292Y-77987482D01*
X134572409Y-77950000D01*
X134427591Y-77950000D01*
X134287708Y-77987482D01*
X134250000Y-78009252D01*
X134250000Y-77021490D01*
X134249999Y-77021490D01*
X134159875Y-77035765D01*
X133942431Y-77106417D01*
X133738723Y-77210211D01*
X133572386Y-77331063D01*
X133506579Y-77354543D01*
X133438525Y-77338718D01*
X133389830Y-77288612D01*
X133375500Y-77230745D01*
X133375500Y-74120113D01*
X133395185Y-74053074D01*
X133447989Y-74007319D01*
X133517147Y-73997375D01*
X133580703Y-74026400D01*
G37*
%TD.AperFunction*%
%TA.AperFunction,Conductor*%
G36*
X140750000Y-72106988D02*
G01*
X140692993Y-72074075D01*
X140565826Y-72040000D01*
X140434174Y-72040000D01*
X140307007Y-72074075D01*
X140250000Y-72106988D01*
X140250000Y-70433012D01*
X140307007Y-70465925D01*
X140434174Y-70500000D01*
X140565826Y-70500000D01*
X140692993Y-70465925D01*
X140750000Y-70433012D01*
X140750000Y-72106988D01*
G37*
%TD.AperFunction*%
%TA.AperFunction,Conductor*%
G36*
X147812791Y-62221821D02*
G01*
X147874933Y-62221820D01*
X147882419Y-62222045D01*
X148172482Y-62239589D01*
X148187340Y-62241393D01*
X148469475Y-62293095D01*
X148484008Y-62296677D01*
X148654495Y-62349802D01*
X148757859Y-62382011D01*
X148771860Y-62387321D01*
X149033422Y-62505039D01*
X149046680Y-62511997D01*
X149292150Y-62660389D01*
X149304461Y-62668887D01*
X149530259Y-62845788D01*
X149541467Y-62855718D01*
X149744281Y-63058532D01*
X149754211Y-63069740D01*
X149890693Y-63243947D01*
X149931108Y-63295532D01*
X149939614Y-63307855D01*
X150088001Y-63553318D01*
X150094960Y-63566577D01*
X150212678Y-63828139D01*
X150217988Y-63842140D01*
X150303321Y-64115988D01*
X150306904Y-64130527D01*
X150358605Y-64412655D01*
X150360410Y-64427520D01*
X150377953Y-64717579D01*
X150378179Y-64725065D01*
X150378179Y-64797196D01*
X150378180Y-64797209D01*
X150378180Y-121805180D01*
X150378179Y-121805198D01*
X150378179Y-121874934D01*
X150377953Y-121882420D01*
X150360410Y-122172479D01*
X150358605Y-122187344D01*
X150306904Y-122469472D01*
X150303321Y-122484011D01*
X150217988Y-122757859D01*
X150212678Y-122771860D01*
X150094960Y-123033422D01*
X150088001Y-123046681D01*
X149939614Y-123292144D01*
X149931108Y-123304467D01*
X149754211Y-123530259D01*
X149744281Y-123541467D01*
X149541467Y-123744281D01*
X149530259Y-123754211D01*
X149304467Y-123931108D01*
X149292144Y-123939614D01*
X149046681Y-124088001D01*
X149033422Y-124094960D01*
X148771860Y-124212678D01*
X148757859Y-124217988D01*
X148484011Y-124303321D01*
X148469472Y-124306904D01*
X148187344Y-124358605D01*
X148172479Y-124360410D01*
X147882420Y-124377953D01*
X147874934Y-124378179D01*
X147805197Y-124378179D01*
X147805181Y-124378180D01*
X110194819Y-124378180D01*
X110194803Y-124378179D01*
X110125065Y-124378179D01*
X110117579Y-124377953D01*
X109827520Y-124360410D01*
X109812655Y-124358605D01*
X109530527Y-124306904D01*
X109515988Y-124303321D01*
X109242140Y-124217988D01*
X109228139Y-124212678D01*
X108966577Y-124094960D01*
X108953318Y-124088001D01*
X108707855Y-123939614D01*
X108695532Y-123931108D01*
X108469740Y-123754211D01*
X108458532Y-123744281D01*
X108255718Y-123541467D01*
X108245788Y-123530259D01*
X108193271Y-123463226D01*
X108068887Y-123304461D01*
X108060389Y-123292150D01*
X107911997Y-123046680D01*
X107905039Y-123033422D01*
X107787321Y-122771860D01*
X107782011Y-122757859D01*
X107696678Y-122484011D01*
X107693095Y-122469472D01*
X107641393Y-122187340D01*
X107639589Y-122172479D01*
X107638942Y-122161789D01*
X107622045Y-121882419D01*
X107621820Y-121874932D01*
X107621821Y-121812791D01*
X107621820Y-121812787D01*
X107621820Y-121478711D01*
X108549500Y-121478711D01*
X108549500Y-121721288D01*
X108581161Y-121961785D01*
X108643947Y-122196104D01*
X108726790Y-122396104D01*
X108736776Y-122420212D01*
X108858064Y-122630289D01*
X108858066Y-122630292D01*
X108858067Y-122630293D01*
X109005733Y-122822736D01*
X109005739Y-122822743D01*
X109177256Y-122994260D01*
X109177263Y-122994266D01*
X109290321Y-123081018D01*
X109369711Y-123141936D01*
X109579788Y-123263224D01*
X109803900Y-123356054D01*
X110038211Y-123418838D01*
X110218586Y-123442584D01*
X110278711Y-123450500D01*
X110278712Y-123450500D01*
X110521289Y-123450500D01*
X110569388Y-123444167D01*
X110761789Y-123418838D01*
X110996100Y-123356054D01*
X111220212Y-123263224D01*
X111430289Y-123141936D01*
X111622738Y-122994265D01*
X111794265Y-122822738D01*
X111941936Y-122630289D01*
X112063224Y-122420212D01*
X112156054Y-122196100D01*
X112218838Y-121961789D01*
X112250500Y-121721288D01*
X112250500Y-121678711D01*
X145749500Y-121678711D01*
X145749500Y-121921288D01*
X145781161Y-122161785D01*
X145843947Y-122396104D01*
X145936773Y-122620205D01*
X145936776Y-122620212D01*
X146058064Y-122830289D01*
X146058066Y-122830292D01*
X146058067Y-122830293D01*
X146205733Y-123022736D01*
X146205739Y-123022743D01*
X146377256Y-123194260D01*
X146377262Y-123194265D01*
X146569711Y-123341936D01*
X146779788Y-123463224D01*
X147003900Y-123556054D01*
X147238211Y-123618838D01*
X147418586Y-123642584D01*
X147478711Y-123650500D01*
X147478712Y-123650500D01*
X147721289Y-123650500D01*
X147769388Y-123644167D01*
X147961789Y-123618838D01*
X148196100Y-123556054D01*
X148420212Y-123463224D01*
X148630289Y-123341936D01*
X148822738Y-123194265D01*
X148994265Y-123022738D01*
X149141936Y-122830289D01*
X149263224Y-122620212D01*
X149356054Y-122396100D01*
X149418838Y-122161789D01*
X149450500Y-121921288D01*
X149450500Y-121678712D01*
X149418838Y-121438211D01*
X149356054Y-121203900D01*
X149263224Y-120979788D01*
X149141936Y-120769711D01*
X148994265Y-120577262D01*
X148994260Y-120577256D01*
X148822743Y-120405739D01*
X148822736Y-120405733D01*
X148630293Y-120258067D01*
X148630292Y-120258066D01*
X148630289Y-120258064D01*
X148420212Y-120136776D01*
X148420205Y-120136773D01*
X148196104Y-120043947D01*
X147961785Y-119981161D01*
X147721289Y-119949500D01*
X147721288Y-119949500D01*
X147478712Y-119949500D01*
X147478711Y-119949500D01*
X147238214Y-119981161D01*
X147003895Y-120043947D01*
X146779794Y-120136773D01*
X146779785Y-120136777D01*
X146569706Y-120258067D01*
X146377263Y-120405733D01*
X146377256Y-120405739D01*
X146205739Y-120577256D01*
X146205733Y-120577263D01*
X146058067Y-120769706D01*
X145936777Y-120979785D01*
X145936773Y-120979794D01*
X145843947Y-121203895D01*
X145781161Y-121438214D01*
X145749500Y-121678711D01*
X112250500Y-121678711D01*
X112250500Y-121478712D01*
X112218838Y-121238211D01*
X112156054Y-121003900D01*
X112063224Y-120779788D01*
X111941936Y-120569711D01*
X111794265Y-120377262D01*
X111794260Y-120377256D01*
X111622743Y-120205739D01*
X111622736Y-120205733D01*
X111430293Y-120058067D01*
X111430292Y-120058066D01*
X111430289Y-120058064D01*
X111220212Y-119936776D01*
X111220205Y-119936773D01*
X110996104Y-119843947D01*
X110761785Y-119781161D01*
X110521289Y-119749500D01*
X110521288Y-119749500D01*
X110278712Y-119749500D01*
X110278711Y-119749500D01*
X110038214Y-119781161D01*
X109803895Y-119843947D01*
X109579794Y-119936773D01*
X109579785Y-119936777D01*
X109369706Y-120058067D01*
X109177263Y-120205733D01*
X109177256Y-120205739D01*
X109005739Y-120377256D01*
X109005733Y-120377263D01*
X108858067Y-120569706D01*
X108858064Y-120569710D01*
X108858064Y-120569711D01*
X108853704Y-120577263D01*
X108736777Y-120779785D01*
X108736773Y-120779794D01*
X108643947Y-121003895D01*
X108581161Y-121238214D01*
X108549500Y-121478711D01*
X107621820Y-121478711D01*
X107621820Y-83692998D01*
X109946532Y-83692998D01*
X109946532Y-83693001D01*
X109966364Y-83919686D01*
X109966366Y-83919697D01*
X110025258Y-84139488D01*
X110025261Y-84139497D01*
X110121431Y-84345732D01*
X110121432Y-84345734D01*
X110251954Y-84532141D01*
X110412858Y-84693045D01*
X110412861Y-84693047D01*
X110599266Y-84823568D01*
X110805504Y-84919739D01*
X111025308Y-84978635D01*
X111187230Y-84992801D01*
X111251998Y-84998468D01*
X111252000Y-84998468D01*
X111252002Y-84998468D01*
X111308673Y-84993509D01*
X111478692Y-84978635D01*
X111698496Y-84919739D01*
X111904734Y-84823568D01*
X112091139Y-84693047D01*
X112252047Y-84532139D01*
X112382568Y-84345734D01*
X112409895Y-84287129D01*
X112456064Y-84234695D01*
X112523257Y-84215542D01*
X112590139Y-84235757D01*
X112634657Y-84287133D01*
X112661865Y-84345482D01*
X112792342Y-84531820D01*
X112953179Y-84692657D01*
X113139517Y-84823134D01*
X113345673Y-84919265D01*
X113345682Y-84919269D01*
X113541999Y-84971872D01*
X113542000Y-84971871D01*
X113542000Y-84126012D01*
X113599007Y-84158925D01*
X113726174Y-84193000D01*
X113857826Y-84193000D01*
X113984993Y-84158925D01*
X114042000Y-84126012D01*
X114042000Y-84971872D01*
X114238317Y-84919269D01*
X114238326Y-84919265D01*
X114444482Y-84823134D01*
X114630820Y-84692657D01*
X114791657Y-84531820D01*
X114922132Y-84345484D01*
X114949341Y-84287134D01*
X114995513Y-84234695D01*
X115062707Y-84215542D01*
X115129588Y-84235757D01*
X115174106Y-84287133D01*
X115201431Y-84345732D01*
X115201432Y-84345734D01*
X115331954Y-84532141D01*
X115492858Y-84693045D01*
X115492861Y-84693047D01*
X115679266Y-84823568D01*
X115885504Y-84919739D01*
X116105308Y-84978635D01*
X116267230Y-84992801D01*
X116331998Y-84998468D01*
X116332000Y-84998468D01*
X116332002Y-84998468D01*
X116388673Y-84993509D01*
X116558692Y-84978635D01*
X116778496Y-84919739D01*
X116984734Y-84823568D01*
X117171139Y-84693047D01*
X117332047Y-84532139D01*
X117462568Y-84345734D01*
X117489618Y-84287724D01*
X117535790Y-84235285D01*
X117602983Y-84216133D01*
X117669865Y-84236348D01*
X117714382Y-84287725D01*
X117741429Y-84345728D01*
X117741432Y-84345734D01*
X117871954Y-84532141D01*
X118032858Y-84693045D01*
X118032861Y-84693047D01*
X118219266Y-84823568D01*
X118425504Y-84919739D01*
X118645308Y-84978635D01*
X118807230Y-84992801D01*
X118871998Y-84998468D01*
X118872000Y-84998468D01*
X118872002Y-84998468D01*
X118928673Y-84993509D01*
X119098692Y-84978635D01*
X119318496Y-84919739D01*
X119524734Y-84823568D01*
X119711139Y-84693047D01*
X119872047Y-84532139D01*
X120002568Y-84345734D01*
X120029618Y-84287724D01*
X120075790Y-84235285D01*
X120142983Y-84216133D01*
X120209865Y-84236348D01*
X120254382Y-84287725D01*
X120281429Y-84345728D01*
X120281432Y-84345734D01*
X120411954Y-84532141D01*
X120572858Y-84693045D01*
X120572861Y-84693047D01*
X120759266Y-84823568D01*
X120965504Y-84919739D01*
X121185308Y-84978635D01*
X121347230Y-84992801D01*
X121411998Y-84998468D01*
X121412000Y-84998468D01*
X121412002Y-84998468D01*
X121468673Y-84993509D01*
X121638692Y-84978635D01*
X121858496Y-84919739D01*
X122064734Y-84823568D01*
X122251139Y-84693047D01*
X122412047Y-84532139D01*
X122542568Y-84345734D01*
X122569618Y-84287724D01*
X122615790Y-84235285D01*
X122682983Y-84216133D01*
X122749865Y-84236348D01*
X122794382Y-84287725D01*
X122821429Y-84345728D01*
X122821432Y-84345734D01*
X122951954Y-84532141D01*
X123112858Y-84693045D01*
X123112861Y-84693047D01*
X123299266Y-84823568D01*
X123505504Y-84919739D01*
X123725308Y-84978635D01*
X123887230Y-84992801D01*
X123951998Y-84998468D01*
X123952000Y-84998468D01*
X123952002Y-84998468D01*
X124008673Y-84993509D01*
X124178692Y-84978635D01*
X124335408Y-84936643D01*
X124405256Y-84938306D01*
X124463119Y-84977468D01*
X124490623Y-85041697D01*
X124491500Y-85056418D01*
X124491500Y-86395769D01*
X124471815Y-86462808D01*
X124455181Y-86483450D01*
X123369050Y-87569580D01*
X123369044Y-87569588D01*
X123319812Y-87643268D01*
X123319813Y-87643269D01*
X123286921Y-87692496D01*
X123286914Y-87692508D01*
X123230342Y-87829086D01*
X123230340Y-87829092D01*
X123201500Y-87974079D01*
X123201500Y-97806336D01*
X123181815Y-97873375D01*
X123148625Y-97907910D01*
X123112863Y-97932951D01*
X122951951Y-98093862D01*
X122821432Y-98280265D01*
X122821431Y-98280267D01*
X122794382Y-98338275D01*
X122748209Y-98390714D01*
X122681016Y-98409866D01*
X122614135Y-98389650D01*
X122569618Y-98338275D01*
X122542686Y-98280520D01*
X122542568Y-98280266D01*
X122412047Y-98093861D01*
X122412045Y-98093858D01*
X122251141Y-97932954D01*
X122064734Y-97802432D01*
X122064732Y-97802431D01*
X121858497Y-97706261D01*
X121858488Y-97706258D01*
X121638697Y-97647366D01*
X121638693Y-97647365D01*
X121638692Y-97647365D01*
X121638691Y-97647364D01*
X121638686Y-97647364D01*
X121412002Y-97627532D01*
X121411998Y-97627532D01*
X121185313Y-97647364D01*
X121185302Y-97647366D01*
X120965511Y-97706258D01*
X120965502Y-97706261D01*
X120759267Y-97802431D01*
X120759265Y-97802432D01*
X120572858Y-97932954D01*
X120411954Y-98093858D01*
X120281433Y-98280264D01*
X120281432Y-98280266D01*
X120281315Y-98280518D01*
X120254106Y-98338867D01*
X120207933Y-98391306D01*
X120140739Y-98410457D01*
X120073858Y-98390241D01*
X120029342Y-98338865D01*
X120002135Y-98280520D01*
X120002134Y-98280518D01*
X119871657Y-98094179D01*
X119710820Y-97933342D01*
X119524482Y-97802865D01*
X119318328Y-97706734D01*
X119122000Y-97654127D01*
X119122000Y-98499988D01*
X119064993Y-98467075D01*
X118937826Y-98433000D01*
X118806174Y-98433000D01*
X118679007Y-98467075D01*
X118622000Y-98499988D01*
X118622000Y-97654127D01*
X118425671Y-97706734D01*
X118219517Y-97802865D01*
X118033179Y-97933342D01*
X117872342Y-98094179D01*
X117741867Y-98280515D01*
X117714657Y-98338867D01*
X117668484Y-98391306D01*
X117601290Y-98410457D01*
X117534409Y-98390241D01*
X117489893Y-98338865D01*
X117462685Y-98280518D01*
X117462568Y-98280266D01*
X117332047Y-98093861D01*
X117332045Y-98093858D01*
X117171141Y-97932954D01*
X116984734Y-97802432D01*
X116984732Y-97802431D01*
X116778497Y-97706261D01*
X116778488Y-97706258D01*
X116558697Y-97647366D01*
X116558693Y-97647365D01*
X116558692Y-97647365D01*
X116558691Y-97647364D01*
X116558686Y-97647364D01*
X116332002Y-97627532D01*
X116331998Y-97627532D01*
X116105313Y-97647364D01*
X116105302Y-97647366D01*
X115885511Y-97706258D01*
X115885502Y-97706261D01*
X115679267Y-97802431D01*
X115679265Y-97802432D01*
X115492858Y-97932954D01*
X115331954Y-98093858D01*
X115201432Y-98280265D01*
X115201431Y-98280267D01*
X115174382Y-98338275D01*
X115128209Y-98390714D01*
X115061016Y-98409866D01*
X114994135Y-98389650D01*
X114949618Y-98338275D01*
X114922686Y-98280520D01*
X114922568Y-98280266D01*
X114792047Y-98093861D01*
X114792045Y-98093858D01*
X114631141Y-97932954D01*
X114444734Y-97802432D01*
X114444732Y-97802431D01*
X114238497Y-97706261D01*
X114238488Y-97706258D01*
X114018697Y-97647366D01*
X114018693Y-97647365D01*
X114018692Y-97647365D01*
X114018691Y-97647364D01*
X114018686Y-97647364D01*
X113792002Y-97627532D01*
X113791998Y-97627532D01*
X113565313Y-97647364D01*
X113565302Y-97647366D01*
X113345511Y-97706258D01*
X113345502Y-97706261D01*
X113139267Y-97802431D01*
X113139265Y-97802432D01*
X112952858Y-97932954D01*
X112791954Y-98093858D01*
X112774725Y-98118464D01*
X112720147Y-98162088D01*
X112650648Y-98169280D01*
X112588294Y-98137757D01*
X112552882Y-98077526D01*
X112549861Y-98060591D01*
X112546091Y-98025516D01*
X112495797Y-97890671D01*
X112495793Y-97890664D01*
X112409547Y-97775455D01*
X112409544Y-97775452D01*
X112294335Y-97689206D01*
X112294328Y-97689202D01*
X112159482Y-97638908D01*
X112159483Y-97638908D01*
X112099883Y-97632501D01*
X112099881Y-97632500D01*
X112099873Y-97632500D01*
X112099864Y-97632500D01*
X110404129Y-97632500D01*
X110404123Y-97632501D01*
X110344516Y-97638908D01*
X110209671Y-97689202D01*
X110209664Y-97689206D01*
X110094455Y-97775452D01*
X110094452Y-97775455D01*
X110008206Y-97890664D01*
X110008202Y-97890671D01*
X109957908Y-98025517D01*
X109951501Y-98085116D01*
X109951500Y-98085135D01*
X109951500Y-99780870D01*
X109951501Y-99780876D01*
X109957908Y-99840483D01*
X110008202Y-99975328D01*
X110008206Y-99975335D01*
X110094452Y-100090544D01*
X110094455Y-100090547D01*
X110209664Y-100176793D01*
X110209671Y-100176797D01*
X110344517Y-100227091D01*
X110344516Y-100227091D01*
X110351444Y-100227835D01*
X110404127Y-100233500D01*
X112099872Y-100233499D01*
X112159483Y-100227091D01*
X112294331Y-100176796D01*
X112409546Y-100090546D01*
X112495796Y-99975331D01*
X112546091Y-99840483D01*
X112549862Y-99805401D01*
X112576599Y-99740855D01*
X112633990Y-99701006D01*
X112703816Y-99698511D01*
X112763905Y-99734163D01*
X112774726Y-99747536D01*
X112791956Y-99772143D01*
X112952858Y-99933045D01*
X112952861Y-99933047D01*
X113139266Y-100063568D01*
X113345504Y-100159739D01*
X113565308Y-100218635D01*
X113727230Y-100232801D01*
X113791998Y-100238468D01*
X113792000Y-100238468D01*
X113792002Y-100238468D01*
X113848807Y-100233498D01*
X114018692Y-100218635D01*
X114238496Y-100159739D01*
X114444734Y-100063568D01*
X114631139Y-99933047D01*
X114792047Y-99772139D01*
X114922568Y-99585734D01*
X114949618Y-99527724D01*
X114995790Y-99475285D01*
X115062983Y-99456133D01*
X115129865Y-99476348D01*
X115174382Y-99527725D01*
X115201429Y-99585728D01*
X115201432Y-99585734D01*
X115331954Y-99772141D01*
X115492858Y-99933045D01*
X115492861Y-99933047D01*
X115679266Y-100063568D01*
X115885504Y-100159739D01*
X116105308Y-100218635D01*
X116267230Y-100232801D01*
X116331998Y-100238468D01*
X116332000Y-100238468D01*
X116332002Y-100238468D01*
X116388807Y-100233498D01*
X116558692Y-100218635D01*
X116778496Y-100159739D01*
X116984734Y-100063568D01*
X117171139Y-99933047D01*
X117332047Y-99772139D01*
X117462568Y-99585734D01*
X117489895Y-99527129D01*
X117536064Y-99474695D01*
X117603257Y-99455542D01*
X117670139Y-99475757D01*
X117714657Y-99527133D01*
X117741865Y-99585482D01*
X117872342Y-99771820D01*
X118033179Y-99932657D01*
X118219517Y-100063134D01*
X118425673Y-100159265D01*
X118425682Y-100159269D01*
X118621999Y-100211872D01*
X118622000Y-100211871D01*
X118622000Y-99366012D01*
X118679007Y-99398925D01*
X118806174Y-99433000D01*
X118937826Y-99433000D01*
X119064993Y-99398925D01*
X119122000Y-99366012D01*
X119122000Y-100211872D01*
X119318317Y-100159269D01*
X119318326Y-100159265D01*
X119524482Y-100063134D01*
X119710820Y-99932657D01*
X119871657Y-99771820D01*
X120002132Y-99585484D01*
X120029341Y-99527134D01*
X120075513Y-99474695D01*
X120142707Y-99455542D01*
X120209588Y-99475757D01*
X120254106Y-99527133D01*
X120281431Y-99585732D01*
X120281432Y-99585734D01*
X120411954Y-99772141D01*
X120572858Y-99933045D01*
X120572861Y-99933047D01*
X120759266Y-100063568D01*
X120965504Y-100159739D01*
X121185308Y-100218635D01*
X121347230Y-100232801D01*
X121411998Y-100238468D01*
X121412000Y-100238468D01*
X121412002Y-100238468D01*
X121468807Y-100233498D01*
X121638692Y-100218635D01*
X121858496Y-100159739D01*
X122064734Y-100063568D01*
X122251139Y-99933047D01*
X122412047Y-99772139D01*
X122542568Y-99585734D01*
X122569618Y-99527724D01*
X122615790Y-99475285D01*
X122682983Y-99456133D01*
X122749865Y-99476348D01*
X122794382Y-99527725D01*
X122821429Y-99585728D01*
X122821432Y-99585734D01*
X122951954Y-99772141D01*
X123112858Y-99933045D01*
X123112861Y-99933047D01*
X123299266Y-100063568D01*
X123505504Y-100159739D01*
X123725308Y-100218635D01*
X123887230Y-100232801D01*
X123951998Y-100238468D01*
X123952000Y-100238468D01*
X123952002Y-100238468D01*
X124008807Y-100233498D01*
X124178692Y-100218635D01*
X124398496Y-100159739D01*
X124604734Y-100063568D01*
X124791139Y-99933047D01*
X124952047Y-99772139D01*
X125082568Y-99585734D01*
X125109618Y-99527724D01*
X125155790Y-99475285D01*
X125222983Y-99456133D01*
X125289865Y-99476348D01*
X125334382Y-99527725D01*
X125361429Y-99585728D01*
X125361432Y-99585734D01*
X125491954Y-99772141D01*
X125652858Y-99933045D01*
X125652861Y-99933047D01*
X125839266Y-100063568D01*
X126045504Y-100159739D01*
X126265308Y-100218635D01*
X126427230Y-100232801D01*
X126491998Y-100238468D01*
X126492000Y-100238468D01*
X126492002Y-100238468D01*
X126548807Y-100233498D01*
X126718692Y-100218635D01*
X126938496Y-100159739D01*
X127144734Y-100063568D01*
X127331139Y-99933047D01*
X127492047Y-99772139D01*
X127622568Y-99585734D01*
X127649618Y-99527724D01*
X127695790Y-99475285D01*
X127762983Y-99456133D01*
X127829865Y-99476348D01*
X127874382Y-99527725D01*
X127901429Y-99585728D01*
X127901432Y-99585734D01*
X128031954Y-99772141D01*
X128192858Y-99933045D01*
X128192861Y-99933047D01*
X128379266Y-100063568D01*
X128585504Y-100159739D01*
X128805308Y-100218635D01*
X128967230Y-100232801D01*
X129031998Y-100238468D01*
X129032000Y-100238468D01*
X129032002Y-100238468D01*
X129088807Y-100233498D01*
X129258692Y-100218635D01*
X129478496Y-100159739D01*
X129684734Y-100063568D01*
X129871139Y-99933047D01*
X130032047Y-99772139D01*
X130162568Y-99585734D01*
X130189618Y-99527724D01*
X130235790Y-99475285D01*
X130302983Y-99456133D01*
X130369865Y-99476348D01*
X130414382Y-99527725D01*
X130441429Y-99585728D01*
X130441432Y-99585734D01*
X130571954Y-99772141D01*
X130732858Y-99933045D01*
X130732861Y-99933047D01*
X130919266Y-100063568D01*
X131125504Y-100159739D01*
X131345308Y-100218635D01*
X131507230Y-100232801D01*
X131571998Y-100238468D01*
X131572000Y-100238468D01*
X131572002Y-100238468D01*
X131628807Y-100233498D01*
X131798692Y-100218635D01*
X132018496Y-100159739D01*
X132224734Y-100063568D01*
X132411139Y-99933047D01*
X132572047Y-99772139D01*
X132702568Y-99585734D01*
X132729618Y-99527724D01*
X132775790Y-99475285D01*
X132842983Y-99456133D01*
X132909865Y-99476348D01*
X132954382Y-99527725D01*
X132981429Y-99585728D01*
X132981432Y-99585734D01*
X133111954Y-99772141D01*
X133272858Y-99933045D01*
X133272861Y-99933047D01*
X133459266Y-100063568D01*
X133665504Y-100159739D01*
X133885308Y-100218635D01*
X134047230Y-100232801D01*
X134111998Y-100238468D01*
X134112000Y-100238468D01*
X134112002Y-100238468D01*
X134168807Y-100233498D01*
X134338692Y-100218635D01*
X134558496Y-100159739D01*
X134764734Y-100063568D01*
X134951139Y-99933047D01*
X135112047Y-99772139D01*
X135242568Y-99585734D01*
X135269618Y-99527724D01*
X135315790Y-99475285D01*
X135382983Y-99456133D01*
X135449865Y-99476348D01*
X135494382Y-99527725D01*
X135521429Y-99585728D01*
X135521432Y-99585734D01*
X135651954Y-99772141D01*
X135812858Y-99933045D01*
X135812861Y-99933047D01*
X135999266Y-100063568D01*
X136205504Y-100159739D01*
X136425308Y-100218635D01*
X136587230Y-100232801D01*
X136651998Y-100238468D01*
X136652000Y-100238468D01*
X136652002Y-100238468D01*
X136708807Y-100233498D01*
X136878692Y-100218635D01*
X137098496Y-100159739D01*
X137304734Y-100063568D01*
X137491139Y-99933047D01*
X137652047Y-99772139D01*
X137782568Y-99585734D01*
X137809618Y-99527724D01*
X137855790Y-99475285D01*
X137922983Y-99456133D01*
X137989865Y-99476348D01*
X138034382Y-99527725D01*
X138061429Y-99585728D01*
X138061432Y-99585734D01*
X138191954Y-99772141D01*
X138352858Y-99933045D01*
X138352861Y-99933047D01*
X138539266Y-100063568D01*
X138745504Y-100159739D01*
X138965308Y-100218635D01*
X139127230Y-100232801D01*
X139191998Y-100238468D01*
X139192000Y-100238468D01*
X139192002Y-100238468D01*
X139248807Y-100233498D01*
X139418692Y-100218635D01*
X139638496Y-100159739D01*
X139844734Y-100063568D01*
X140031139Y-99933047D01*
X140192047Y-99772139D01*
X140322568Y-99585734D01*
X140349618Y-99527724D01*
X140395790Y-99475285D01*
X140462983Y-99456133D01*
X140529865Y-99476348D01*
X140574382Y-99527725D01*
X140601429Y-99585728D01*
X140601432Y-99585734D01*
X140731954Y-99772141D01*
X140892858Y-99933045D01*
X140892861Y-99933047D01*
X141079266Y-100063568D01*
X141285504Y-100159739D01*
X141505308Y-100218635D01*
X141548164Y-100222384D01*
X141613232Y-100247836D01*
X141654210Y-100304427D01*
X141658089Y-100374189D01*
X141625037Y-100433593D01*
X139431500Y-102627130D01*
X139370177Y-102660615D01*
X139333012Y-102662977D01*
X139120002Y-102644341D01*
X139119999Y-102644341D01*
X138884596Y-102664936D01*
X138884586Y-102664938D01*
X138656344Y-102726094D01*
X138656335Y-102726098D01*
X138442171Y-102825964D01*
X138442169Y-102825965D01*
X138248597Y-102961505D01*
X138081505Y-103128597D01*
X137951575Y-103314158D01*
X137896998Y-103357783D01*
X137827500Y-103364977D01*
X137765145Y-103333454D01*
X137748425Y-103314158D01*
X137618494Y-103128597D01*
X137451402Y-102961506D01*
X137451395Y-102961501D01*
X137257834Y-102825967D01*
X137257830Y-102825965D01*
X137186727Y-102792809D01*
X137043663Y-102726097D01*
X137043659Y-102726096D01*
X137043655Y-102726094D01*
X136815413Y-102664938D01*
X136815403Y-102664936D01*
X136580001Y-102644341D01*
X136579999Y-102644341D01*
X136344596Y-102664936D01*
X136344586Y-102664938D01*
X136116344Y-102726094D01*
X136116335Y-102726098D01*
X135902171Y-102825964D01*
X135902169Y-102825965D01*
X135708597Y-102961505D01*
X135541505Y-103128597D01*
X135411575Y-103314158D01*
X135356998Y-103357783D01*
X135287500Y-103364977D01*
X135225145Y-103333454D01*
X135208425Y-103314158D01*
X135078494Y-103128597D01*
X134911402Y-102961506D01*
X134911395Y-102961501D01*
X134717834Y-102825967D01*
X134717830Y-102825965D01*
X134646727Y-102792809D01*
X134503663Y-102726097D01*
X134503659Y-102726096D01*
X134503655Y-102726094D01*
X134275413Y-102664938D01*
X134275403Y-102664936D01*
X134040001Y-102644341D01*
X134039999Y-102644341D01*
X133804596Y-102664936D01*
X133804586Y-102664938D01*
X133576344Y-102726094D01*
X133576335Y-102726098D01*
X133362171Y-102825964D01*
X133362169Y-102825965D01*
X133168597Y-102961505D01*
X133001505Y-103128597D01*
X132871575Y-103314158D01*
X132816998Y-103357783D01*
X132747500Y-103364977D01*
X132685145Y-103333454D01*
X132668425Y-103314158D01*
X132538494Y-103128597D01*
X132371402Y-102961506D01*
X132371395Y-102961501D01*
X132177834Y-102825967D01*
X132177830Y-102825965D01*
X132106727Y-102792809D01*
X131963663Y-102726097D01*
X131963659Y-102726096D01*
X131963655Y-102726094D01*
X131735413Y-102664938D01*
X131735403Y-102664936D01*
X131500001Y-102644341D01*
X131499999Y-102644341D01*
X131264596Y-102664936D01*
X131264586Y-102664938D01*
X131036344Y-102726094D01*
X131036335Y-102726098D01*
X130822171Y-102825964D01*
X130822169Y-102825965D01*
X130628597Y-102961505D01*
X130461505Y-103128597D01*
X130331575Y-103314158D01*
X130276998Y-103357783D01*
X130207500Y-103364977D01*
X130145145Y-103333454D01*
X130128425Y-103314158D01*
X129998494Y-103128597D01*
X129831402Y-102961506D01*
X129831395Y-102961501D01*
X129637834Y-102825967D01*
X129637830Y-102825965D01*
X129566727Y-102792809D01*
X129423663Y-102726097D01*
X129423659Y-102726096D01*
X129423655Y-102726094D01*
X129195413Y-102664938D01*
X129195403Y-102664936D01*
X128960001Y-102644341D01*
X128959999Y-102644341D01*
X128724596Y-102664936D01*
X128724586Y-102664938D01*
X128496344Y-102726094D01*
X128496335Y-102726098D01*
X128282171Y-102825964D01*
X128282169Y-102825965D01*
X128088597Y-102961505D01*
X127921505Y-103128597D01*
X127791575Y-103314158D01*
X127736998Y-103357783D01*
X127667500Y-103364977D01*
X127605145Y-103333454D01*
X127588425Y-103314158D01*
X127458494Y-103128597D01*
X127291402Y-102961506D01*
X127291395Y-102961501D01*
X127097834Y-102825967D01*
X127097830Y-102825965D01*
X127026727Y-102792809D01*
X126883663Y-102726097D01*
X126883659Y-102726096D01*
X126883655Y-102726094D01*
X126655413Y-102664938D01*
X126655403Y-102664936D01*
X126420001Y-102644341D01*
X126419999Y-102644341D01*
X126184596Y-102664936D01*
X126184586Y-102664938D01*
X125956344Y-102726094D01*
X125956335Y-102726098D01*
X125742171Y-102825964D01*
X125742169Y-102825965D01*
X125548597Y-102961505D01*
X125381505Y-103128597D01*
X125251575Y-103314158D01*
X125196998Y-103357783D01*
X125127500Y-103364977D01*
X125065145Y-103333454D01*
X125048425Y-103314158D01*
X124918494Y-103128597D01*
X124751402Y-102961506D01*
X124751395Y-102961501D01*
X124557834Y-102825967D01*
X124557830Y-102825965D01*
X124486727Y-102792809D01*
X124343663Y-102726097D01*
X124343659Y-102726096D01*
X124343655Y-102726094D01*
X124115413Y-102664938D01*
X124115403Y-102664936D01*
X123880001Y-102644341D01*
X123879999Y-102644341D01*
X123644596Y-102664936D01*
X123644586Y-102664938D01*
X123416344Y-102726094D01*
X123416335Y-102726098D01*
X123202171Y-102825964D01*
X123202169Y-102825965D01*
X123008600Y-102961503D01*
X122886284Y-103083819D01*
X122824961Y-103117303D01*
X122755269Y-103112319D01*
X122699336Y-103070447D01*
X122682421Y-103039470D01*
X122633354Y-102907913D01*
X122633350Y-102907906D01*
X122547190Y-102792812D01*
X122547187Y-102792809D01*
X122432093Y-102706649D01*
X122432086Y-102706645D01*
X122297379Y-102656403D01*
X122297372Y-102656401D01*
X122237844Y-102650000D01*
X121590000Y-102650000D01*
X121590000Y-103566988D01*
X121532993Y-103534075D01*
X121405826Y-103500000D01*
X121274174Y-103500000D01*
X121147007Y-103534075D01*
X121090000Y-103566988D01*
X121090000Y-102650000D01*
X120442155Y-102650000D01*
X120382627Y-102656401D01*
X120382620Y-102656403D01*
X120247913Y-102706645D01*
X120247906Y-102706649D01*
X120132812Y-102792809D01*
X120132809Y-102792812D01*
X120046649Y-102907906D01*
X120046645Y-102907913D01*
X119996403Y-103042620D01*
X119996401Y-103042627D01*
X119990000Y-103102155D01*
X119990000Y-103750000D01*
X120906988Y-103750000D01*
X120874075Y-103807007D01*
X120840000Y-103934174D01*
X120840000Y-104065826D01*
X120874075Y-104192993D01*
X120906988Y-104250000D01*
X119990000Y-104250000D01*
X119990000Y-104897844D01*
X119996401Y-104957372D01*
X119996403Y-104957379D01*
X120046645Y-105092086D01*
X120046649Y-105092093D01*
X120132809Y-105207187D01*
X120132812Y-105207190D01*
X120247906Y-105293350D01*
X120247913Y-105293354D01*
X120382620Y-105343596D01*
X120382627Y-105343598D01*
X120442155Y-105349999D01*
X120442172Y-105350000D01*
X121090000Y-105350000D01*
X121090000Y-104433012D01*
X121147007Y-104465925D01*
X121274174Y-104500000D01*
X121405826Y-104500000D01*
X121532993Y-104465925D01*
X121590000Y-104433012D01*
X121590000Y-105350000D01*
X122237828Y-105350000D01*
X122237844Y-105349999D01*
X122297372Y-105343598D01*
X122297379Y-105343596D01*
X122432086Y-105293354D01*
X122432093Y-105293350D01*
X122547187Y-105207190D01*
X122547190Y-105207187D01*
X122633350Y-105092093D01*
X122633354Y-105092086D01*
X122682422Y-104960529D01*
X122724293Y-104904595D01*
X122789757Y-104880178D01*
X122858030Y-104895030D01*
X122886285Y-104916181D01*
X123008599Y-105038495D01*
X123085135Y-105092086D01*
X123202165Y-105174032D01*
X123202167Y-105174033D01*
X123202170Y-105174035D01*
X123416337Y-105273903D01*
X123644592Y-105335063D01*
X123815319Y-105350000D01*
X123879999Y-105355659D01*
X123880000Y-105355659D01*
X123880001Y-105355659D01*
X123944681Y-105350000D01*
X124115408Y-105335063D01*
X124343663Y-105273903D01*
X124557830Y-105174035D01*
X124751401Y-105038495D01*
X124918495Y-104871401D01*
X125048425Y-104685842D01*
X125103002Y-104642217D01*
X125172500Y-104635023D01*
X125234855Y-104666546D01*
X125251575Y-104685842D01*
X125381500Y-104871395D01*
X125381505Y-104871401D01*
X125548599Y-105038495D01*
X125625135Y-105092086D01*
X125742165Y-105174032D01*
X125742167Y-105174033D01*
X125742170Y-105174035D01*
X125956337Y-105273903D01*
X126184592Y-105335063D01*
X126355319Y-105350000D01*
X126419999Y-105355659D01*
X126420000Y-105355659D01*
X126420001Y-105355659D01*
X126484681Y-105350000D01*
X126655408Y-105335063D01*
X126883663Y-105273903D01*
X127097830Y-105174035D01*
X127291401Y-105038495D01*
X127458495Y-104871401D01*
X127588425Y-104685842D01*
X127643002Y-104642217D01*
X127712500Y-104635023D01*
X127774855Y-104666546D01*
X127791575Y-104685842D01*
X127921500Y-104871395D01*
X127921505Y-104871401D01*
X128088599Y-105038495D01*
X128165135Y-105092086D01*
X128282165Y-105174032D01*
X128282167Y-105174033D01*
X128282170Y-105174035D01*
X128496337Y-105273903D01*
X128724592Y-105335063D01*
X128895319Y-105350000D01*
X128959999Y-105355659D01*
X128960000Y-105355659D01*
X128960001Y-105355659D01*
X129024681Y-105350000D01*
X129195408Y-105335063D01*
X129423663Y-105273903D01*
X129637830Y-105174035D01*
X129831401Y-105038495D01*
X129998495Y-104871401D01*
X130128425Y-104685842D01*
X130183002Y-104642217D01*
X130252500Y-104635023D01*
X130314855Y-104666546D01*
X130331575Y-104685842D01*
X130461500Y-104871395D01*
X130461505Y-104871401D01*
X130628599Y-105038495D01*
X130705135Y-105092086D01*
X130822165Y-105174032D01*
X130822167Y-105174033D01*
X130822170Y-105174035D01*
X131036337Y-105273903D01*
X131264592Y-105335063D01*
X131435319Y-105350000D01*
X131499999Y-105355659D01*
X131500000Y-105355659D01*
X131500001Y-105355659D01*
X131564681Y-105350000D01*
X131735408Y-105335063D01*
X131963663Y-105273903D01*
X132177830Y-105174035D01*
X132371401Y-105038495D01*
X132538495Y-104871401D01*
X132668425Y-104685842D01*
X132723002Y-104642217D01*
X132792500Y-104635023D01*
X132854855Y-104666546D01*
X132871575Y-104685842D01*
X133001500Y-104871395D01*
X133001505Y-104871401D01*
X133168599Y-105038495D01*
X133245135Y-105092086D01*
X133362165Y-105174032D01*
X133362167Y-105174033D01*
X133362170Y-105174035D01*
X133576337Y-105273903D01*
X133804592Y-105335063D01*
X133975319Y-105350000D01*
X134039999Y-105355659D01*
X134040000Y-105355659D01*
X134040001Y-105355659D01*
X134104681Y-105350000D01*
X134275408Y-105335063D01*
X134503663Y-105273903D01*
X134717830Y-105174035D01*
X134911401Y-105038495D01*
X135078495Y-104871401D01*
X135208425Y-104685842D01*
X135263002Y-104642217D01*
X135332500Y-104635023D01*
X135394855Y-104666546D01*
X135411575Y-104685842D01*
X135541500Y-104871395D01*
X135541505Y-104871401D01*
X135708599Y-105038495D01*
X135785135Y-105092086D01*
X135902165Y-105174032D01*
X135902167Y-105174033D01*
X135902170Y-105174035D01*
X136116337Y-105273903D01*
X136344592Y-105335063D01*
X136515319Y-105350000D01*
X136579999Y-105355659D01*
X136580000Y-105355659D01*
X136580001Y-105355659D01*
X136644681Y-105350000D01*
X136815408Y-105335063D01*
X137043663Y-105273903D01*
X137257830Y-105174035D01*
X137451401Y-105038495D01*
X137618495Y-104871401D01*
X137748425Y-104685842D01*
X137803002Y-104642217D01*
X137872500Y-104635023D01*
X137934855Y-104666546D01*
X137951575Y-104685842D01*
X138081500Y-104871395D01*
X138081505Y-104871401D01*
X138248599Y-105038495D01*
X138325135Y-105092086D01*
X138442165Y-105174032D01*
X138442167Y-105174033D01*
X138442170Y-105174035D01*
X138656337Y-105273903D01*
X138884592Y-105335063D01*
X139055319Y-105350000D01*
X139119999Y-105355659D01*
X139120000Y-105355659D01*
X139120001Y-105355659D01*
X139184681Y-105350000D01*
X139355408Y-105335063D01*
X139583663Y-105273903D01*
X139797830Y-105174035D01*
X139991401Y-105038495D01*
X140158495Y-104871401D01*
X140294035Y-104677830D01*
X140393903Y-104463663D01*
X140455063Y-104235408D01*
X140475659Y-104000000D01*
X140457022Y-103786985D01*
X140470788Y-103718486D01*
X140492866Y-103688500D01*
X143564952Y-100616416D01*
X143614186Y-100542729D01*
X143647084Y-100493495D01*
X143703658Y-100356913D01*
X143721231Y-100268568D01*
X143753616Y-100206658D01*
X143814331Y-100172084D01*
X143874938Y-100172984D01*
X144045308Y-100218635D01*
X144207230Y-100232801D01*
X144271998Y-100238468D01*
X144272000Y-100238468D01*
X144272002Y-100238468D01*
X144328807Y-100233498D01*
X144498692Y-100218635D01*
X144718496Y-100159739D01*
X144924734Y-100063568D01*
X145111139Y-99933047D01*
X145272047Y-99772139D01*
X145402568Y-99585734D01*
X145429618Y-99527724D01*
X145475790Y-99475285D01*
X145542983Y-99456133D01*
X145609865Y-99476348D01*
X145654382Y-99527725D01*
X145681429Y-99585728D01*
X145681432Y-99585734D01*
X145811954Y-99772141D01*
X145972858Y-99933045D01*
X145972861Y-99933047D01*
X146159266Y-100063568D01*
X146365504Y-100159739D01*
X146585308Y-100218635D01*
X146747230Y-100232801D01*
X146811998Y-100238468D01*
X146812000Y-100238468D01*
X146812002Y-100238468D01*
X146868807Y-100233498D01*
X147038692Y-100218635D01*
X147258496Y-100159739D01*
X147464734Y-100063568D01*
X147651139Y-99933047D01*
X147812047Y-99772139D01*
X147942568Y-99585734D01*
X148038739Y-99379496D01*
X148097635Y-99159692D01*
X148117468Y-98933000D01*
X148097635Y-98706308D01*
X148038739Y-98486504D01*
X147942568Y-98280266D01*
X147812047Y-98093861D01*
X147812045Y-98093858D01*
X147651141Y-97932954D01*
X147464734Y-97802432D01*
X147464732Y-97802431D01*
X147258497Y-97706261D01*
X147258488Y-97706258D01*
X147038697Y-97647366D01*
X147038693Y-97647365D01*
X147038692Y-97647365D01*
X147038691Y-97647364D01*
X147038686Y-97647364D01*
X146812002Y-97627532D01*
X146811998Y-97627532D01*
X146585313Y-97647364D01*
X146585302Y-97647366D01*
X146365511Y-97706258D01*
X146365502Y-97706261D01*
X146159267Y-97802431D01*
X146159265Y-97802432D01*
X145972858Y-97932954D01*
X145811954Y-98093858D01*
X145681432Y-98280265D01*
X145681431Y-98280267D01*
X145654382Y-98338275D01*
X145608209Y-98390714D01*
X145541016Y-98409866D01*
X145474135Y-98389650D01*
X145429618Y-98338275D01*
X145402686Y-98280520D01*
X145402568Y-98280266D01*
X145272047Y-98093861D01*
X145272045Y-98093858D01*
X145111141Y-97932954D01*
X144924734Y-97802432D01*
X144924732Y-97802431D01*
X144718497Y-97706261D01*
X144718488Y-97706258D01*
X144498697Y-97647366D01*
X144498693Y-97647365D01*
X144498692Y-97647365D01*
X144498691Y-97647364D01*
X144498686Y-97647364D01*
X144272002Y-97627532D01*
X144271998Y-97627532D01*
X144045313Y-97647364D01*
X144045302Y-97647366D01*
X143888593Y-97689356D01*
X143818743Y-97687693D01*
X143760881Y-97648530D01*
X143733377Y-97584302D01*
X143732500Y-97569581D01*
X143732500Y-87885229D01*
X143752185Y-87818190D01*
X143768814Y-87797553D01*
X146546652Y-85019714D01*
X146607973Y-84986231D01*
X146645135Y-84983869D01*
X146788366Y-84996400D01*
X146811999Y-84998468D01*
X146812000Y-84998468D01*
X146812002Y-84998468D01*
X146868673Y-84993509D01*
X147038692Y-84978635D01*
X147258496Y-84919739D01*
X147464734Y-84823568D01*
X147651139Y-84693047D01*
X147812047Y-84532139D01*
X147942568Y-84345734D01*
X148038739Y-84139496D01*
X148097635Y-83919692D01*
X148117468Y-83693000D01*
X148097635Y-83466308D01*
X148038739Y-83246504D01*
X147942568Y-83040266D01*
X147812047Y-82853861D01*
X147812045Y-82853858D01*
X147651141Y-82692954D01*
X147464734Y-82562432D01*
X147464732Y-82562431D01*
X147258497Y-82466261D01*
X147258488Y-82466258D01*
X147038697Y-82407366D01*
X147038693Y-82407365D01*
X147038692Y-82407365D01*
X147038691Y-82407364D01*
X147038686Y-82407364D01*
X146812002Y-82387532D01*
X146811998Y-82387532D01*
X146585313Y-82407364D01*
X146585302Y-82407366D01*
X146365511Y-82466258D01*
X146365502Y-82466261D01*
X146159267Y-82562431D01*
X146159265Y-82562432D01*
X145972858Y-82692954D01*
X145811954Y-82853858D01*
X145681432Y-83040265D01*
X145681431Y-83040267D01*
X145654382Y-83098275D01*
X145608209Y-83150714D01*
X145541016Y-83169866D01*
X145474135Y-83149650D01*
X145429618Y-83098275D01*
X145402686Y-83040520D01*
X145402568Y-83040266D01*
X145272047Y-82853861D01*
X145272045Y-82853858D01*
X145111141Y-82692954D01*
X144924734Y-82562432D01*
X144924732Y-82562431D01*
X144718497Y-82466261D01*
X144718488Y-82466258D01*
X144498697Y-82407366D01*
X144498693Y-82407365D01*
X144498692Y-82407365D01*
X144498691Y-82407364D01*
X144498686Y-82407364D01*
X144272002Y-82387532D01*
X144271998Y-82387532D01*
X144045313Y-82407364D01*
X144045302Y-82407366D01*
X143825511Y-82466258D01*
X143825502Y-82466261D01*
X143619267Y-82562431D01*
X143619265Y-82562432D01*
X143432858Y-82692954D01*
X143271954Y-82853858D01*
X143141432Y-83040265D01*
X143141431Y-83040267D01*
X143114382Y-83098275D01*
X143068209Y-83150714D01*
X143001016Y-83169866D01*
X142934135Y-83149650D01*
X142889618Y-83098275D01*
X142862686Y-83040520D01*
X142862568Y-83040266D01*
X142732047Y-82853861D01*
X142732045Y-82853858D01*
X142571141Y-82692954D01*
X142384734Y-82562432D01*
X142384732Y-82562431D01*
X142178497Y-82466261D01*
X142178488Y-82466258D01*
X141958697Y-82407366D01*
X141958693Y-82407365D01*
X141958692Y-82407365D01*
X141958691Y-82407364D01*
X141958686Y-82407364D01*
X141732002Y-82387532D01*
X141731998Y-82387532D01*
X141505313Y-82407364D01*
X141505302Y-82407366D01*
X141285511Y-82466258D01*
X141285502Y-82466261D01*
X141079267Y-82562431D01*
X141079265Y-82562432D01*
X140892858Y-82692954D01*
X140731954Y-82853858D01*
X140601432Y-83040265D01*
X140601431Y-83040267D01*
X140574382Y-83098275D01*
X140528209Y-83150714D01*
X140461016Y-83169866D01*
X140394135Y-83149650D01*
X140349618Y-83098275D01*
X140322686Y-83040520D01*
X140322568Y-83040266D01*
X140192047Y-82853861D01*
X140192045Y-82853858D01*
X140031141Y-82692954D01*
X139844734Y-82562432D01*
X139844732Y-82562431D01*
X139638497Y-82466261D01*
X139638488Y-82466258D01*
X139418697Y-82407366D01*
X139418693Y-82407365D01*
X139418692Y-82407365D01*
X139418691Y-82407364D01*
X139418686Y-82407364D01*
X139192002Y-82387532D01*
X139191998Y-82387532D01*
X138965313Y-82407364D01*
X138965302Y-82407366D01*
X138745511Y-82466258D01*
X138745502Y-82466261D01*
X138539267Y-82562431D01*
X138539265Y-82562432D01*
X138352858Y-82692954D01*
X138191954Y-82853858D01*
X138061432Y-83040265D01*
X138061431Y-83040267D01*
X138034382Y-83098275D01*
X137988209Y-83150714D01*
X137921016Y-83169866D01*
X137854135Y-83149650D01*
X137809618Y-83098275D01*
X137782686Y-83040520D01*
X137782568Y-83040266D01*
X137652047Y-82853861D01*
X137652045Y-82853858D01*
X137491141Y-82692954D01*
X137304734Y-82562432D01*
X137304732Y-82562431D01*
X137098497Y-82466261D01*
X137098488Y-82466258D01*
X136878697Y-82407366D01*
X136878693Y-82407365D01*
X136878692Y-82407365D01*
X136878691Y-82407364D01*
X136878686Y-82407364D01*
X136652002Y-82387532D01*
X136651998Y-82387532D01*
X136425313Y-82407364D01*
X136425302Y-82407366D01*
X136205511Y-82466258D01*
X136205502Y-82466261D01*
X135999267Y-82562431D01*
X135999265Y-82562432D01*
X135812858Y-82692954D01*
X135651954Y-82853858D01*
X135521432Y-83040265D01*
X135521431Y-83040267D01*
X135494382Y-83098275D01*
X135448209Y-83150714D01*
X135381016Y-83169866D01*
X135314135Y-83149650D01*
X135269618Y-83098275D01*
X135242686Y-83040520D01*
X135242568Y-83040266D01*
X135112047Y-82853861D01*
X135112045Y-82853858D01*
X134951141Y-82692954D01*
X134764734Y-82562432D01*
X134764732Y-82562431D01*
X134558497Y-82466261D01*
X134558488Y-82466258D01*
X134338697Y-82407366D01*
X134338693Y-82407365D01*
X134338692Y-82407365D01*
X134338691Y-82407364D01*
X134338686Y-82407364D01*
X134112002Y-82387532D01*
X134111998Y-82387532D01*
X133885313Y-82407364D01*
X133885302Y-82407366D01*
X133665511Y-82466258D01*
X133665502Y-82466261D01*
X133459267Y-82562431D01*
X133459265Y-82562432D01*
X133272858Y-82692954D01*
X133111954Y-82853858D01*
X132981432Y-83040265D01*
X132981431Y-83040267D01*
X132954382Y-83098275D01*
X132908209Y-83150714D01*
X132841016Y-83169866D01*
X132774135Y-83149650D01*
X132729618Y-83098275D01*
X132702686Y-83040520D01*
X132702568Y-83040266D01*
X132572047Y-82853861D01*
X132572045Y-82853858D01*
X132411141Y-82692954D01*
X132224734Y-82562432D01*
X132224732Y-82562431D01*
X132018497Y-82466261D01*
X132018488Y-82466258D01*
X131798697Y-82407366D01*
X131798693Y-82407365D01*
X131798692Y-82407365D01*
X131798691Y-82407364D01*
X131798686Y-82407364D01*
X131572002Y-82387532D01*
X131571998Y-82387532D01*
X131345313Y-82407364D01*
X131345302Y-82407366D01*
X131125511Y-82466258D01*
X131125502Y-82466261D01*
X130919267Y-82562431D01*
X130919265Y-82562432D01*
X130732858Y-82692954D01*
X130571954Y-82853858D01*
X130441432Y-83040265D01*
X130441431Y-83040267D01*
X130414382Y-83098275D01*
X130368209Y-83150714D01*
X130301016Y-83169866D01*
X130234135Y-83149650D01*
X130189618Y-83098275D01*
X130162686Y-83040520D01*
X130162568Y-83040266D01*
X130032047Y-82853861D01*
X130032045Y-82853858D01*
X129871141Y-82692954D01*
X129684734Y-82562432D01*
X129684732Y-82562431D01*
X129478497Y-82466261D01*
X129478488Y-82466258D01*
X129258697Y-82407366D01*
X129258693Y-82407365D01*
X129258692Y-82407365D01*
X129258691Y-82407364D01*
X129258686Y-82407364D01*
X129032002Y-82387532D01*
X129031998Y-82387532D01*
X128805313Y-82407364D01*
X128805302Y-82407366D01*
X128585511Y-82466258D01*
X128585502Y-82466261D01*
X128379267Y-82562431D01*
X128379265Y-82562432D01*
X128192858Y-82692954D01*
X128031954Y-82853858D01*
X127901432Y-83040265D01*
X127901431Y-83040267D01*
X127874382Y-83098275D01*
X127828209Y-83150714D01*
X127761016Y-83169866D01*
X127694135Y-83149650D01*
X127649618Y-83098275D01*
X127622686Y-83040520D01*
X127622568Y-83040266D01*
X127492047Y-82853861D01*
X127492045Y-82853858D01*
X127331141Y-82692954D01*
X127144734Y-82562432D01*
X127144732Y-82562431D01*
X126938497Y-82466261D01*
X126938488Y-82466258D01*
X126718697Y-82407366D01*
X126718693Y-82407365D01*
X126718692Y-82407365D01*
X126718691Y-82407364D01*
X126718686Y-82407364D01*
X126492002Y-82387532D01*
X126491998Y-82387532D01*
X126265313Y-82407364D01*
X126265302Y-82407366D01*
X126148593Y-82438638D01*
X126078743Y-82436975D01*
X126020881Y-82397812D01*
X125993377Y-82333583D01*
X125992500Y-82318863D01*
X125992500Y-81966725D01*
X126012185Y-81899686D01*
X126020639Y-81888069D01*
X126085910Y-81808538D01*
X126178814Y-81634727D01*
X126236024Y-81446132D01*
X126255341Y-81250000D01*
X126255341Y-81249999D01*
X126244178Y-81136653D01*
X126257197Y-81068007D01*
X126305262Y-81017297D01*
X126367581Y-81000500D01*
X138113920Y-81000500D01*
X138211462Y-80981096D01*
X138258913Y-80971658D01*
X138395495Y-80915084D01*
X138470043Y-80865273D01*
X138518416Y-80832952D01*
X140174548Y-79176817D01*
X140235871Y-79143333D01*
X140262229Y-79140499D01*
X141397871Y-79140499D01*
X141397872Y-79140499D01*
X141457483Y-79134091D01*
X141592331Y-79083796D01*
X141707546Y-78997546D01*
X141793796Y-78882331D01*
X141844091Y-78747483D01*
X141850500Y-78687873D01*
X141850499Y-76892128D01*
X141844091Y-76832517D01*
X141793915Y-76697989D01*
X141793797Y-76697671D01*
X141793793Y-76697664D01*
X141707547Y-76582455D01*
X141707544Y-76582452D01*
X141592335Y-76496206D01*
X141592328Y-76496202D01*
X141486667Y-76456793D01*
X141430733Y-76414922D01*
X141406316Y-76349457D01*
X141421168Y-76281184D01*
X141442313Y-76252936D01*
X141549172Y-76146078D01*
X141676433Y-75970919D01*
X141774726Y-75778009D01*
X141841630Y-75572097D01*
X141875500Y-75358254D01*
X141875500Y-75141746D01*
X141841630Y-74927903D01*
X141774726Y-74721991D01*
X141774726Y-74721990D01*
X141676432Y-74529080D01*
X141549172Y-74353922D01*
X141396078Y-74200828D01*
X141277006Y-74114316D01*
X141234342Y-74058988D01*
X141228363Y-73989374D01*
X141260969Y-73927579D01*
X141321808Y-73893222D01*
X141349893Y-73890000D01*
X141397828Y-73890000D01*
X141397844Y-73889999D01*
X141457372Y-73883598D01*
X141457379Y-73883596D01*
X141592086Y-73833354D01*
X141592093Y-73833350D01*
X141707187Y-73747190D01*
X141707190Y-73747187D01*
X141793350Y-73632093D01*
X141793354Y-73632086D01*
X141843596Y-73497379D01*
X141843598Y-73497372D01*
X141849999Y-73437844D01*
X141850000Y-73437827D01*
X141850000Y-72790000D01*
X140933012Y-72790000D01*
X140965925Y-72732993D01*
X141000000Y-72605826D01*
X141000000Y-72474174D01*
X140965925Y-72347007D01*
X140933012Y-72290000D01*
X141850000Y-72290000D01*
X141850000Y-71642172D01*
X141849999Y-71642155D01*
X141843598Y-71582627D01*
X141843596Y-71582620D01*
X141793354Y-71447913D01*
X141793350Y-71447906D01*
X141707190Y-71332812D01*
X141707187Y-71332809D01*
X141592093Y-71246649D01*
X141592086Y-71246645D01*
X141460013Y-71197385D01*
X141404079Y-71155514D01*
X141379662Y-71090049D01*
X141394514Y-71021776D01*
X141415665Y-70993521D01*
X141538108Y-70871078D01*
X141673600Y-70677578D01*
X141773429Y-70463492D01*
X141773432Y-70463486D01*
X141830636Y-70250000D01*
X140933012Y-70250000D01*
X140965925Y-70192993D01*
X141000000Y-70065826D01*
X141000000Y-69934174D01*
X140965925Y-69807007D01*
X140933012Y-69750000D01*
X141830636Y-69750000D01*
X141830635Y-69749999D01*
X141773432Y-69536513D01*
X141773429Y-69536507D01*
X141673600Y-69322422D01*
X141673599Y-69322420D01*
X141538113Y-69128926D01*
X141538108Y-69128920D01*
X141371082Y-68961894D01*
X141177578Y-68826399D01*
X140963492Y-68726570D01*
X140963486Y-68726567D01*
X140750000Y-68669364D01*
X140750000Y-69566988D01*
X140692993Y-69534075D01*
X140565826Y-69500000D01*
X140434174Y-69500000D01*
X140307007Y-69534075D01*
X140250000Y-69566988D01*
X140250000Y-68669364D01*
X140249999Y-68669364D01*
X140036513Y-68726567D01*
X140036507Y-68726570D01*
X139822422Y-68826399D01*
X139822420Y-68826400D01*
X139628926Y-68961886D01*
X139628920Y-68961891D01*
X139461891Y-69128920D01*
X139461886Y-69128926D01*
X139326400Y-69322420D01*
X139326399Y-69322422D01*
X139226570Y-69536507D01*
X139226567Y-69536513D01*
X139169364Y-69749999D01*
X139169364Y-69750000D01*
X140066988Y-69750000D01*
X140034075Y-69807007D01*
X140000000Y-69934174D01*
X140000000Y-70065826D01*
X140034075Y-70192993D01*
X140066988Y-70250000D01*
X139169364Y-70250000D01*
X139226567Y-70463486D01*
X139226570Y-70463492D01*
X139326399Y-70677578D01*
X139461894Y-70871082D01*
X139584334Y-70993522D01*
X139617819Y-71054845D01*
X139612835Y-71124537D01*
X139570963Y-71180470D01*
X139539987Y-71197385D01*
X139407911Y-71246646D01*
X139407906Y-71246649D01*
X139292812Y-71332809D01*
X139292809Y-71332812D01*
X139206649Y-71447906D01*
X139206645Y-71447913D01*
X139156403Y-71582620D01*
X139156401Y-71582627D01*
X139150000Y-71642155D01*
X139150000Y-72290000D01*
X140066988Y-72290000D01*
X140034075Y-72347007D01*
X140000000Y-72474174D01*
X140000000Y-72605826D01*
X140034075Y-72732993D01*
X140066988Y-72790000D01*
X139150000Y-72790000D01*
X139150000Y-73437844D01*
X139156401Y-73497372D01*
X139156403Y-73497379D01*
X139206645Y-73632086D01*
X139206647Y-73632089D01*
X139239660Y-73676188D01*
X139264078Y-73741652D01*
X139249227Y-73809925D01*
X139199822Y-73859331D01*
X139140394Y-73874500D01*
X137371113Y-73874500D01*
X137304074Y-73854815D01*
X137283432Y-73838181D01*
X135911819Y-72466568D01*
X135878334Y-72405245D01*
X135875500Y-72378887D01*
X135875500Y-70391746D01*
X135852026Y-70243540D01*
X135850499Y-70224142D01*
X135850499Y-69699998D01*
X135850498Y-69699981D01*
X135839999Y-69597203D01*
X135819080Y-69534075D01*
X135807037Y-69497733D01*
X135804636Y-69427907D01*
X135840367Y-69367865D01*
X135902888Y-69336672D01*
X135948935Y-69337114D01*
X135988270Y-69344937D01*
X136016230Y-69350499D01*
X136016232Y-69350500D01*
X136016233Y-69350500D01*
X136183768Y-69350500D01*
X136183769Y-69350499D01*
X136348082Y-69317816D01*
X136502863Y-69253703D01*
X136642162Y-69160626D01*
X136760626Y-69042162D01*
X136853703Y-68902863D01*
X136917816Y-68748082D01*
X136950500Y-68583767D01*
X136950500Y-68416233D01*
X136917816Y-68251918D01*
X136853703Y-68097137D01*
X136822537Y-68050494D01*
X136760626Y-67957837D01*
X136642162Y-67839373D01*
X136502860Y-67746295D01*
X136348082Y-67682184D01*
X136348074Y-67682182D01*
X136183771Y-67649500D01*
X136183767Y-67649500D01*
X136016233Y-67649500D01*
X136016228Y-67649500D01*
X135851925Y-67682182D01*
X135851917Y-67682184D01*
X135697139Y-67746295D01*
X135557837Y-67839373D01*
X135439373Y-67957837D01*
X135346295Y-68097139D01*
X135282184Y-68251917D01*
X135282182Y-68251925D01*
X135249500Y-68416228D01*
X135249500Y-68583771D01*
X135282182Y-68748074D01*
X135282185Y-68748086D01*
X135317269Y-68832786D01*
X135324738Y-68902255D01*
X135293463Y-68964734D01*
X135233374Y-69000386D01*
X135190106Y-69003596D01*
X135150011Y-68999500D01*
X133849998Y-68999500D01*
X133849981Y-68999501D01*
X133747203Y-69010000D01*
X133747200Y-69010001D01*
X133580668Y-69065185D01*
X133580663Y-69065187D01*
X133431342Y-69157289D01*
X133307289Y-69281342D01*
X133211821Y-69436121D01*
X133159873Y-69482845D01*
X133090910Y-69494068D01*
X133026828Y-69466224D01*
X133018601Y-69458705D01*
X132879786Y-69319890D01*
X132707820Y-69194951D01*
X132518414Y-69098444D01*
X132518413Y-69098443D01*
X132518412Y-69098443D01*
X132316243Y-69032754D01*
X132316241Y-69032753D01*
X132316240Y-69032753D01*
X132154957Y-69007208D01*
X132106287Y-68999500D01*
X131893713Y-68999500D01*
X131845042Y-69007208D01*
X131683760Y-69032753D01*
X131481585Y-69098444D01*
X131292179Y-69194951D01*
X131120213Y-69319890D01*
X130969890Y-69470213D01*
X130844951Y-69642179D01*
X130748444Y-69831585D01*
X130682753Y-70033760D01*
X130662925Y-70158943D01*
X130658392Y-70177833D01*
X130658372Y-70177891D01*
X130658367Y-70177916D01*
X130624500Y-70391746D01*
X130624500Y-76883400D01*
X130604815Y-76950439D01*
X130552011Y-76996194D01*
X130487246Y-77006690D01*
X130479983Y-77005909D01*
X130420373Y-76999500D01*
X130420365Y-76999500D01*
X128419629Y-76999500D01*
X128419623Y-76999501D01*
X128360016Y-77005908D01*
X128225171Y-77056202D01*
X128225164Y-77056206D01*
X128109955Y-77142452D01*
X128109952Y-77142455D01*
X128023706Y-77257664D01*
X128023702Y-77257671D01*
X127973408Y-77392517D01*
X127967001Y-77452116D01*
X127967000Y-77452127D01*
X127967000Y-78427591D01*
X127967001Y-79375500D01*
X127947316Y-79442539D01*
X127894513Y-79488294D01*
X127843001Y-79499500D01*
X114621080Y-79499500D01*
X114476092Y-79528340D01*
X114476082Y-79528343D01*
X114339511Y-79584912D01*
X114339498Y-79584919D01*
X114216584Y-79667048D01*
X114216580Y-79667051D01*
X111517348Y-82366282D01*
X111456025Y-82399767D01*
X111418861Y-82402129D01*
X111252003Y-82387532D01*
X111251998Y-82387532D01*
X111025313Y-82407364D01*
X111025302Y-82407366D01*
X110805511Y-82466258D01*
X110805502Y-82466261D01*
X110599267Y-82562431D01*
X110599265Y-82562432D01*
X110412858Y-82692954D01*
X110251954Y-82853858D01*
X110121432Y-83040265D01*
X110121431Y-83040267D01*
X110025261Y-83246502D01*
X110025258Y-83246511D01*
X109966366Y-83466302D01*
X109966364Y-83466313D01*
X109946532Y-83692998D01*
X107621820Y-83692998D01*
X107621820Y-64878711D01*
X108549500Y-64878711D01*
X108549500Y-65121288D01*
X108581161Y-65361785D01*
X108643947Y-65596104D01*
X108736773Y-65820205D01*
X108736776Y-65820212D01*
X108858064Y-66030289D01*
X108858066Y-66030292D01*
X108858067Y-66030293D01*
X109005733Y-66222736D01*
X109005739Y-66222743D01*
X109177256Y-66394260D01*
X109177262Y-66394265D01*
X109369711Y-66541936D01*
X109579788Y-66663224D01*
X109803900Y-66756054D01*
X110038211Y-66818838D01*
X110218586Y-66842584D01*
X110278711Y-66850500D01*
X110278712Y-66850500D01*
X110521289Y-66850500D01*
X110569388Y-66844167D01*
X110761789Y-66818838D01*
X110996100Y-66756054D01*
X111220212Y-66663224D01*
X111430289Y-66541936D01*
X111622738Y-66394265D01*
X111794265Y-66222738D01*
X111941936Y-66030289D01*
X112063224Y-65820212D01*
X112156054Y-65596100D01*
X112218838Y-65361789D01*
X112250500Y-65121288D01*
X112250500Y-64878712D01*
X112250500Y-64878711D01*
X145749500Y-64878711D01*
X145749500Y-65121288D01*
X145781161Y-65361785D01*
X145843947Y-65596104D01*
X145936773Y-65820205D01*
X145936776Y-65820212D01*
X146058064Y-66030289D01*
X146058066Y-66030292D01*
X146058067Y-66030293D01*
X146205733Y-66222736D01*
X146205739Y-66222743D01*
X146377256Y-66394260D01*
X146377262Y-66394265D01*
X146569711Y-66541936D01*
X146779788Y-66663224D01*
X147003900Y-66756054D01*
X147238211Y-66818838D01*
X147418586Y-66842584D01*
X147478711Y-66850500D01*
X147478712Y-66850500D01*
X147721289Y-66850500D01*
X147769388Y-66844167D01*
X147961789Y-66818838D01*
X148196100Y-66756054D01*
X148420212Y-66663224D01*
X148630289Y-66541936D01*
X148822738Y-66394265D01*
X148994265Y-66222738D01*
X149141936Y-66030289D01*
X149263224Y-65820212D01*
X149356054Y-65596100D01*
X149418838Y-65361789D01*
X149450500Y-65121288D01*
X149450500Y-64878712D01*
X149418838Y-64638211D01*
X149356054Y-64403900D01*
X149263224Y-64179788D01*
X149141936Y-63969711D01*
X148994265Y-63777262D01*
X148994260Y-63777256D01*
X148822743Y-63605739D01*
X148822736Y-63605733D01*
X148630293Y-63458067D01*
X148630292Y-63458066D01*
X148630289Y-63458064D01*
X148420212Y-63336776D01*
X148420205Y-63336773D01*
X148196104Y-63243947D01*
X147961785Y-63181161D01*
X147721289Y-63149500D01*
X147721288Y-63149500D01*
X147478712Y-63149500D01*
X147478711Y-63149500D01*
X147238214Y-63181161D01*
X147003895Y-63243947D01*
X146779794Y-63336773D01*
X146779785Y-63336777D01*
X146569706Y-63458067D01*
X146377263Y-63605733D01*
X146377256Y-63605739D01*
X146205739Y-63777256D01*
X146205733Y-63777263D01*
X146058067Y-63969706D01*
X145936777Y-64179785D01*
X145936773Y-64179794D01*
X145843947Y-64403895D01*
X145781161Y-64638214D01*
X145749500Y-64878711D01*
X112250500Y-64878711D01*
X112218838Y-64638211D01*
X112156054Y-64403900D01*
X112063224Y-64179788D01*
X111941936Y-63969711D01*
X111794265Y-63777262D01*
X111794260Y-63777256D01*
X111622743Y-63605739D01*
X111622736Y-63605733D01*
X111430293Y-63458067D01*
X111430292Y-63458066D01*
X111430289Y-63458064D01*
X111220212Y-63336776D01*
X111220205Y-63336773D01*
X110996104Y-63243947D01*
X110761785Y-63181161D01*
X110521289Y-63149500D01*
X110521288Y-63149500D01*
X110278712Y-63149500D01*
X110278711Y-63149500D01*
X110038214Y-63181161D01*
X109803895Y-63243947D01*
X109579794Y-63336773D01*
X109579785Y-63336777D01*
X109369706Y-63458067D01*
X109177263Y-63605733D01*
X109177256Y-63605739D01*
X109005739Y-63777256D01*
X109005733Y-63777263D01*
X108858067Y-63969706D01*
X108736777Y-64179785D01*
X108736773Y-64179794D01*
X108643947Y-64403895D01*
X108581161Y-64638214D01*
X108549500Y-64878711D01*
X107621820Y-64878711D01*
X107621820Y-64787212D01*
X107621821Y-64787209D01*
X107621820Y-64725065D01*
X107622046Y-64717579D01*
X107626846Y-64638211D01*
X107639589Y-64427515D01*
X107641394Y-64412655D01*
X107642999Y-64403900D01*
X107693096Y-64130520D01*
X107696678Y-64115988D01*
X107782011Y-63842140D01*
X107787321Y-63828139D01*
X107810219Y-63777262D01*
X107905042Y-63566570D01*
X107911993Y-63553325D01*
X108060394Y-63307841D01*
X108068881Y-63295545D01*
X108245795Y-63069731D01*
X108255710Y-63058540D01*
X108458540Y-62855710D01*
X108469731Y-62845795D01*
X108695545Y-62668881D01*
X108707841Y-62660394D01*
X108953325Y-62511993D01*
X108966570Y-62505042D01*
X109228143Y-62387319D01*
X109242136Y-62382012D01*
X109515995Y-62296676D01*
X109530520Y-62293096D01*
X109812661Y-62241393D01*
X109827515Y-62239589D01*
X110117581Y-62222045D01*
X110125065Y-62221820D01*
X110187209Y-62221821D01*
X110187213Y-62221820D01*
X147812787Y-62221820D01*
X147812791Y-62221821D01*
G37*
%TD.AperFunction*%
%TD*%
M02*
