%TF.GenerationSoftware,KiCad,Pcbnew,8.0.5*%
%TF.CreationDate,2024-11-29T22:55:39+01:00*%
%TF.ProjectId,hotendheater,686f7465-6e64-4686-9561-7465722e6b69,rev?*%
%TF.SameCoordinates,Original*%
%TF.FileFunction,Copper,L2,Bot*%
%TF.FilePolarity,Positive*%
%FSLAX46Y46*%
G04 Gerber Fmt 4.6, Leading zero omitted, Abs format (unit mm)*
G04 Created by KiCad (PCBNEW 8.0.5) date 2024-11-29 22:55:39*
%MOMM*%
%LPD*%
G01*
G04 APERTURE LIST*
G04 Aperture macros list*
%AMRoundRect*
0 Rectangle with rounded corners*
0 $1 Rounding radius*
0 $2 $3 $4 $5 $6 $7 $8 $9 X,Y pos of 4 corners*
0 Add a 4 corners polygon primitive as box body*
4,1,4,$2,$3,$4,$5,$6,$7,$8,$9,$2,$3,0*
0 Add four circle primitives for the rounded corners*
1,1,$1+$1,$2,$3*
1,1,$1+$1,$4,$5*
1,1,$1+$1,$6,$7*
1,1,$1+$1,$8,$9*
0 Add four rect primitives between the rounded corners*
20,1,$1+$1,$2,$3,$4,$5,0*
20,1,$1+$1,$4,$5,$6,$7,0*
20,1,$1+$1,$6,$7,$8,$9,0*
20,1,$1+$1,$8,$9,$2,$3,0*%
G04 Aperture macros list end*
%TA.AperFunction,ComponentPad*%
%ADD10R,1.905000X2.000000*%
%TD*%
%TA.AperFunction,ComponentPad*%
%ADD11O,1.905000X2.000000*%
%TD*%
%TA.AperFunction,ComponentPad*%
%ADD12R,1.600000X1.600000*%
%TD*%
%TA.AperFunction,ComponentPad*%
%ADD13O,1.600000X1.600000*%
%TD*%
%TA.AperFunction,ComponentPad*%
%ADD14R,1.700000X1.700000*%
%TD*%
%TA.AperFunction,ComponentPad*%
%ADD15O,1.700000X1.700000*%
%TD*%
%TA.AperFunction,ComponentPad*%
%ADD16RoundRect,0.250000X0.600000X0.750000X-0.600000X0.750000X-0.600000X-0.750000X0.600000X-0.750000X0*%
%TD*%
%TA.AperFunction,ComponentPad*%
%ADD17O,1.700000X2.000000*%
%TD*%
%TA.AperFunction,ViaPad*%
%ADD18C,0.600000*%
%TD*%
%TA.AperFunction,Conductor*%
%ADD19C,0.500000*%
%TD*%
G04 APERTURE END LIST*
D10*
%TO.P,Q1,1,G*%
%TO.N,Net-(Q1-G)*%
X128600000Y-77400000D03*
D11*
%TO.P,Q1,2,D*%
%TO.N,Net-(J1-Pin_2)*%
X126060000Y-77400000D03*
%TO.P,Q1,3,S*%
%TO.N,GND*%
X123520000Y-77400000D03*
%TD*%
D12*
%TO.P,A1,1,D1/TX*%
%TO.N,unconnected-(A1-D1{slash}TX-Pad1)*%
X111252000Y-98933000D03*
D13*
%TO.P,A1,2,D0/RX*%
%TO.N,unconnected-(A1-D0{slash}RX-Pad2)*%
X113792000Y-98933000D03*
%TO.P,A1,3,~{RESET}*%
%TO.N,unconnected-(A1-~{RESET}-Pad3)*%
X116332000Y-98933000D03*
%TO.P,A1,4,GND*%
%TO.N,GND*%
X118872000Y-98933000D03*
%TO.P,A1,5,D2*%
%TO.N,unconnected-(A1-D2-Pad5)*%
X121412000Y-98933000D03*
%TO.P,A1,6,D3*%
%TO.N,/Heater*%
X123952000Y-98933000D03*
%TO.P,A1,7,D4*%
%TO.N,unconnected-(A1-D4-Pad7)*%
X126492000Y-98933000D03*
%TO.P,A1,8,D5*%
%TO.N,unconnected-(A1-D5-Pad8)*%
X129032000Y-98933000D03*
%TO.P,A1,9,D6*%
%TO.N,unconnected-(A1-D6-Pad9)*%
X131572000Y-98933000D03*
%TO.P,A1,10,D7*%
%TO.N,unconnected-(A1-D7-Pad10)*%
X134112000Y-98933000D03*
%TO.P,A1,11,D8*%
%TO.N,unconnected-(A1-D8-Pad11)*%
X136652000Y-98933000D03*
%TO.P,A1,12,D9*%
%TO.N,unconnected-(A1-D9-Pad12)*%
X139192000Y-98933000D03*
%TO.P,A1,13,D10*%
%TO.N,/Button4*%
X141732000Y-98933000D03*
%TO.P,A1,14,D11*%
%TO.N,/Button3*%
X144272000Y-98933000D03*
%TO.P,A1,15,D12*%
%TO.N,/Button2*%
X146812000Y-98933000D03*
%TO.P,A1,16,D13*%
%TO.N,/Button1*%
X146812000Y-83693000D03*
%TO.P,A1,17,3V3*%
%TO.N,unconnected-(A1-3V3-Pad17)*%
X144272000Y-83693000D03*
%TO.P,A1,18,AREF*%
%TO.N,unconnected-(A1-AREF-Pad18)*%
X141732000Y-83693000D03*
%TO.P,A1,19,A0*%
%TO.N,/Thermistor*%
X139192000Y-83693000D03*
%TO.P,A1,20,A1*%
%TO.N,unconnected-(A1-A1-Pad20)*%
X136652000Y-83693000D03*
%TO.P,A1,21,A2*%
%TO.N,unconnected-(A1-A2-Pad21)*%
X134112000Y-83693000D03*
%TO.P,A1,22,A3*%
%TO.N,unconnected-(A1-A3-Pad22)*%
X131572000Y-83693000D03*
%TO.P,A1,23,A4*%
%TO.N,/SDA*%
X129032000Y-83693000D03*
%TO.P,A1,24,A5*%
%TO.N,/SCL*%
X126492000Y-83693000D03*
%TO.P,A1,25,A6*%
%TO.N,unconnected-(A1-A6-Pad25)*%
X123952000Y-83693000D03*
%TO.P,A1,26,A7*%
%TO.N,unconnected-(A1-A7-Pad26)*%
X121412000Y-83693000D03*
%TO.P,A1,27,+5V*%
%TO.N,+5V*%
X118872000Y-83693000D03*
%TO.P,A1,28,~{RESET}*%
%TO.N,unconnected-(A1-~{RESET}-Pad28)*%
X116332000Y-83693000D03*
%TO.P,A1,29,GND*%
%TO.N,GND*%
X113792000Y-83693000D03*
%TO.P,A1,30,VIN*%
%TO.N,+12V*%
X111252000Y-83693000D03*
%TD*%
D14*
%TO.P,J3,1,Pin_1*%
%TO.N,GND*%
X120125000Y-104000000D03*
D15*
%TO.P,J3,2,Pin_2*%
%TO.N,+5V*%
X122665000Y-104000000D03*
%TO.P,J3,3,Pin_3*%
%TO.N,/SCL*%
X125205000Y-104000000D03*
%TO.P,J3,4,Pin_4*%
%TO.N,/SDA*%
X127745000Y-104000000D03*
%TO.P,J3,5,Pin_5*%
%TO.N,/Button4*%
X130285000Y-104000000D03*
%TO.P,J3,6,Pin_6*%
%TO.N,/Button3*%
X132825000Y-104000000D03*
%TO.P,J3,7,Pin_7*%
%TO.N,/Button2*%
X135365000Y-104000000D03*
%TO.P,J3,8,Pin_8*%
%TO.N,/Button1*%
X137905000Y-104000000D03*
%TD*%
D14*
%TO.P,J4,1,Pin_1*%
%TO.N,+12V*%
X135300000Y-78450000D03*
D15*
%TO.P,J4,2,Pin_2*%
X135300000Y-75910000D03*
%TD*%
D16*
%TO.P,J1,1,Pin_1*%
%TO.N,+12V*%
X129850000Y-71750000D03*
D17*
%TO.P,J1,2,Pin_2*%
%TO.N,Net-(J1-Pin_2)*%
X127350000Y-71750000D03*
%TD*%
D14*
%TO.P,J5,1,Pin_1*%
%TO.N,GND*%
X135300000Y-73200000D03*
D15*
%TO.P,J5,2,Pin_2*%
X135300000Y-70660000D03*
%TD*%
D18*
%TO.N,+12V*%
X128800000Y-81100000D03*
%TO.N,/Thermistor*%
X121300000Y-73400000D03*
%TD*%
D19*
%TO.N,+12V*%
X113845000Y-81100000D02*
X128800000Y-81100000D01*
X111252000Y-83693000D02*
X113845000Y-81100000D01*
%TO.N,/Thermistor*%
X131400000Y-79300000D02*
X133000000Y-80900000D01*
X133000000Y-80900000D02*
X136399000Y-80900000D01*
X131400000Y-76300000D02*
X131400000Y-79300000D01*
X121300000Y-73400000D02*
X128500000Y-73400000D01*
X128500000Y-73400000D02*
X131400000Y-76300000D01*
X136399000Y-80900000D02*
X139192000Y-83693000D01*
%TO.N,/Button1*%
X146900000Y-86700000D02*
X146812000Y-86612000D01*
X143022000Y-91078000D02*
X146900000Y-87200000D01*
X146812000Y-86612000D02*
X146812000Y-83693000D01*
X146900000Y-87200000D02*
X146900000Y-86700000D01*
X143000000Y-101100000D02*
X143000000Y-100700000D01*
X137905000Y-104000000D02*
X140100000Y-104000000D01*
X143000000Y-100700000D02*
X143022000Y-100678000D01*
X140100000Y-104000000D02*
X143000000Y-101100000D01*
X143022000Y-100678000D02*
X143022000Y-91078000D01*
%TD*%
%TA.AperFunction,Conductor*%
%TO.N,GND*%
G36*
X135550000Y-72766988D02*
G01*
X135492993Y-72734075D01*
X135365826Y-72700000D01*
X135234174Y-72700000D01*
X135107007Y-72734075D01*
X135050000Y-72766988D01*
X135050000Y-71093012D01*
X135107007Y-71125925D01*
X135234174Y-71160000D01*
X135365826Y-71160000D01*
X135492993Y-71125925D01*
X135550000Y-71093012D01*
X135550000Y-72766988D01*
G37*
%TD.AperFunction*%
%TA.AperFunction,Conductor*%
G36*
X147812791Y-62221821D02*
G01*
X147874933Y-62221820D01*
X147882419Y-62222045D01*
X148172482Y-62239589D01*
X148187340Y-62241393D01*
X148469475Y-62293095D01*
X148484008Y-62296677D01*
X148654495Y-62349802D01*
X148757859Y-62382011D01*
X148771860Y-62387321D01*
X149033422Y-62505039D01*
X149046680Y-62511997D01*
X149292150Y-62660389D01*
X149304461Y-62668887D01*
X149530259Y-62845788D01*
X149541467Y-62855718D01*
X149744281Y-63058532D01*
X149754211Y-63069740D01*
X149890693Y-63243947D01*
X149931108Y-63295532D01*
X149939614Y-63307855D01*
X150088001Y-63553318D01*
X150094960Y-63566577D01*
X150212678Y-63828139D01*
X150217988Y-63842140D01*
X150303321Y-64115988D01*
X150306904Y-64130527D01*
X150358605Y-64412655D01*
X150360410Y-64427520D01*
X150377953Y-64717579D01*
X150378179Y-64725065D01*
X150378179Y-64794991D01*
X150378204Y-64795386D01*
X150399498Y-127996228D01*
X150399272Y-128003757D01*
X150381728Y-128293794D01*
X150379923Y-128308659D01*
X150328219Y-128590798D01*
X150324635Y-128605336D01*
X150239306Y-128879167D01*
X150233997Y-128893168D01*
X150116275Y-129154736D01*
X150109316Y-129167995D01*
X149960928Y-129413459D01*
X149952422Y-129425782D01*
X149775526Y-129651573D01*
X149765596Y-129662781D01*
X149562781Y-129865596D01*
X149551573Y-129875526D01*
X149325782Y-130052422D01*
X149313459Y-130060928D01*
X149067995Y-130209316D01*
X149054736Y-130216275D01*
X148793168Y-130333997D01*
X148779167Y-130339306D01*
X148505336Y-130424635D01*
X148490798Y-130428219D01*
X148208659Y-130479923D01*
X148193794Y-130481728D01*
X147903736Y-130499274D01*
X147896249Y-130499500D01*
X110103751Y-130499500D01*
X110096264Y-130499274D01*
X109806205Y-130481728D01*
X109791340Y-130479923D01*
X109509201Y-130428219D01*
X109494663Y-130424635D01*
X109220832Y-130339306D01*
X109206831Y-130333997D01*
X108945263Y-130216275D01*
X108932004Y-130209316D01*
X108686540Y-130060928D01*
X108674217Y-130052422D01*
X108448426Y-129875526D01*
X108437218Y-129865596D01*
X108234403Y-129662781D01*
X108224473Y-129651573D01*
X108155256Y-129563224D01*
X108047573Y-129425776D01*
X108039075Y-129413465D01*
X107890680Y-129167989D01*
X107883727Y-129154743D01*
X107766000Y-128893163D01*
X107760693Y-128879167D01*
X107711161Y-128720214D01*
X107675363Y-128605335D01*
X107671780Y-128590798D01*
X107654426Y-128496100D01*
X107620075Y-128308657D01*
X107618271Y-128293794D01*
X107610902Y-128171969D01*
X107600726Y-128003748D01*
X107600501Y-127996228D01*
X107600541Y-127878711D01*
X108349500Y-127878711D01*
X108349500Y-128121288D01*
X108381161Y-128361785D01*
X108443947Y-128596104D01*
X108536773Y-128820205D01*
X108536776Y-128820212D01*
X108658064Y-129030289D01*
X108658066Y-129030292D01*
X108658067Y-129030293D01*
X108805733Y-129222736D01*
X108805739Y-129222743D01*
X108977256Y-129394260D01*
X108977263Y-129394266D01*
X109018336Y-129425782D01*
X109169711Y-129541936D01*
X109379788Y-129663224D01*
X109603900Y-129756054D01*
X109838211Y-129818838D01*
X110018586Y-129842584D01*
X110078711Y-129850500D01*
X110078712Y-129850500D01*
X110321289Y-129850500D01*
X110369388Y-129844167D01*
X110561789Y-129818838D01*
X110796100Y-129756054D01*
X111020212Y-129663224D01*
X111230289Y-129541936D01*
X111422738Y-129394265D01*
X111594265Y-129222738D01*
X111741936Y-129030289D01*
X111863224Y-128820212D01*
X111956054Y-128596100D01*
X112018838Y-128361789D01*
X112050500Y-128121288D01*
X112050500Y-127878712D01*
X112037335Y-127778711D01*
X145949500Y-127778711D01*
X145949500Y-128021288D01*
X145981161Y-128261785D01*
X146043947Y-128496104D01*
X146089193Y-128605336D01*
X146136776Y-128720212D01*
X146258064Y-128930289D01*
X146258066Y-128930292D01*
X146258067Y-128930293D01*
X146405733Y-129122736D01*
X146405739Y-129122743D01*
X146577256Y-129294260D01*
X146577262Y-129294265D01*
X146769711Y-129441936D01*
X146979788Y-129563224D01*
X147203900Y-129656054D01*
X147438211Y-129718838D01*
X147618586Y-129742584D01*
X147678711Y-129750500D01*
X147678712Y-129750500D01*
X147921289Y-129750500D01*
X147969388Y-129744167D01*
X148161789Y-129718838D01*
X148396100Y-129656054D01*
X148620212Y-129563224D01*
X148830289Y-129441936D01*
X149022738Y-129294265D01*
X149194265Y-129122738D01*
X149341936Y-128930289D01*
X149463224Y-128720212D01*
X149556054Y-128496100D01*
X149618838Y-128261789D01*
X149650500Y-128021288D01*
X149650500Y-127778712D01*
X149618838Y-127538211D01*
X149556054Y-127303900D01*
X149463224Y-127079788D01*
X149341936Y-126869711D01*
X149194265Y-126677262D01*
X149194260Y-126677256D01*
X149022743Y-126505739D01*
X149022736Y-126505733D01*
X148830293Y-126358067D01*
X148830292Y-126358066D01*
X148830289Y-126358064D01*
X148620212Y-126236776D01*
X148620205Y-126236773D01*
X148396104Y-126143947D01*
X148161785Y-126081161D01*
X147921289Y-126049500D01*
X147921288Y-126049500D01*
X147678712Y-126049500D01*
X147678711Y-126049500D01*
X147438214Y-126081161D01*
X147203895Y-126143947D01*
X146979794Y-126236773D01*
X146979785Y-126236777D01*
X146769706Y-126358067D01*
X146577263Y-126505733D01*
X146577256Y-126505739D01*
X146405739Y-126677256D01*
X146405733Y-126677263D01*
X146258067Y-126869706D01*
X146136777Y-127079785D01*
X146136773Y-127079794D01*
X146043947Y-127303895D01*
X145981161Y-127538214D01*
X145949500Y-127778711D01*
X112037335Y-127778711D01*
X112018838Y-127638211D01*
X111956054Y-127403900D01*
X111863224Y-127179788D01*
X111741936Y-126969711D01*
X111681018Y-126890321D01*
X111594266Y-126777263D01*
X111594260Y-126777256D01*
X111422743Y-126605739D01*
X111422736Y-126605733D01*
X111230293Y-126458067D01*
X111230292Y-126458066D01*
X111230289Y-126458064D01*
X111020212Y-126336776D01*
X111020205Y-126336773D01*
X110796104Y-126243947D01*
X110561785Y-126181161D01*
X110321289Y-126149500D01*
X110321288Y-126149500D01*
X110078712Y-126149500D01*
X110078711Y-126149500D01*
X109838214Y-126181161D01*
X109603895Y-126243947D01*
X109379794Y-126336773D01*
X109379785Y-126336777D01*
X109169706Y-126458067D01*
X108977263Y-126605733D01*
X108977256Y-126605739D01*
X108805739Y-126777256D01*
X108805733Y-126777263D01*
X108658067Y-126969706D01*
X108536777Y-127179785D01*
X108536773Y-127179794D01*
X108443947Y-127403895D01*
X108381161Y-127638214D01*
X108349500Y-127878711D01*
X107600541Y-127878711D01*
X107600575Y-127778712D01*
X107608054Y-105578711D01*
X108449500Y-105578711D01*
X108449500Y-105821288D01*
X108481161Y-106061785D01*
X108543947Y-106296104D01*
X108636773Y-106520205D01*
X108636776Y-106520212D01*
X108758064Y-106730289D01*
X108758066Y-106730292D01*
X108758067Y-106730293D01*
X108905733Y-106922736D01*
X108905739Y-106922743D01*
X109077256Y-107094260D01*
X109077262Y-107094265D01*
X109269711Y-107241936D01*
X109479788Y-107363224D01*
X109703900Y-107456054D01*
X109938211Y-107518838D01*
X110118586Y-107542584D01*
X110178711Y-107550500D01*
X110178712Y-107550500D01*
X110421289Y-107550500D01*
X110469388Y-107544167D01*
X110661789Y-107518838D01*
X110896100Y-107456054D01*
X111120212Y-107363224D01*
X111330289Y-107241936D01*
X111522738Y-107094265D01*
X111694265Y-106922738D01*
X111841936Y-106730289D01*
X111963224Y-106520212D01*
X112056054Y-106296100D01*
X112118838Y-106061789D01*
X112150500Y-105821288D01*
X112150500Y-105578712D01*
X112150500Y-105578711D01*
X145749500Y-105578711D01*
X145749500Y-105821288D01*
X145781161Y-106061785D01*
X145843947Y-106296104D01*
X145936773Y-106520205D01*
X145936776Y-106520212D01*
X146058064Y-106730289D01*
X146058066Y-106730292D01*
X146058067Y-106730293D01*
X146205733Y-106922736D01*
X146205739Y-106922743D01*
X146377256Y-107094260D01*
X146377262Y-107094265D01*
X146569711Y-107241936D01*
X146779788Y-107363224D01*
X147003900Y-107456054D01*
X147238211Y-107518838D01*
X147418586Y-107542584D01*
X147478711Y-107550500D01*
X147478712Y-107550500D01*
X147721289Y-107550500D01*
X147769388Y-107544167D01*
X147961789Y-107518838D01*
X148196100Y-107456054D01*
X148420212Y-107363224D01*
X148630289Y-107241936D01*
X148822738Y-107094265D01*
X148994265Y-106922738D01*
X149141936Y-106730289D01*
X149263224Y-106520212D01*
X149356054Y-106296100D01*
X149418838Y-106061789D01*
X149450500Y-105821288D01*
X149450500Y-105578712D01*
X149418838Y-105338211D01*
X149356054Y-105103900D01*
X149351160Y-105092086D01*
X149269537Y-104895030D01*
X149263224Y-104879788D01*
X149141936Y-104669711D01*
X149075362Y-104582950D01*
X148994266Y-104477263D01*
X148994260Y-104477256D01*
X148822743Y-104305739D01*
X148822736Y-104305733D01*
X148630293Y-104158067D01*
X148630292Y-104158066D01*
X148630289Y-104158064D01*
X148420212Y-104036776D01*
X148331427Y-104000000D01*
X148196104Y-103943947D01*
X147961785Y-103881161D01*
X147721289Y-103849500D01*
X147721288Y-103849500D01*
X147478712Y-103849500D01*
X147478711Y-103849500D01*
X147238214Y-103881161D01*
X147003895Y-103943947D01*
X146779794Y-104036773D01*
X146779785Y-104036777D01*
X146569706Y-104158067D01*
X146377263Y-104305733D01*
X146377256Y-104305739D01*
X146205739Y-104477256D01*
X146205733Y-104477263D01*
X146058067Y-104669706D01*
X146058064Y-104669710D01*
X146058064Y-104669711D01*
X146048751Y-104685842D01*
X145936777Y-104879785D01*
X145936773Y-104879794D01*
X145843947Y-105103895D01*
X145781161Y-105338214D01*
X145749500Y-105578711D01*
X112150500Y-105578711D01*
X112118838Y-105338211D01*
X112056054Y-105103900D01*
X112051160Y-105092086D01*
X111969537Y-104895030D01*
X111963224Y-104879788D01*
X111841936Y-104669711D01*
X111775362Y-104582950D01*
X111694266Y-104477263D01*
X111694260Y-104477256D01*
X111522743Y-104305739D01*
X111522736Y-104305733D01*
X111330293Y-104158067D01*
X111330292Y-104158066D01*
X111330289Y-104158064D01*
X111120212Y-104036776D01*
X111031427Y-104000000D01*
X110896104Y-103943947D01*
X110661785Y-103881161D01*
X110421289Y-103849500D01*
X110421288Y-103849500D01*
X110178712Y-103849500D01*
X110178711Y-103849500D01*
X109938214Y-103881161D01*
X109703895Y-103943947D01*
X109479794Y-104036773D01*
X109479785Y-104036777D01*
X109269706Y-104158067D01*
X109077263Y-104305733D01*
X109077256Y-104305739D01*
X108905739Y-104477256D01*
X108905733Y-104477263D01*
X108758067Y-104669706D01*
X108758064Y-104669710D01*
X108758064Y-104669711D01*
X108748751Y-104685842D01*
X108636777Y-104879785D01*
X108636773Y-104879794D01*
X108543947Y-105103895D01*
X108481161Y-105338214D01*
X108449500Y-105578711D01*
X107608054Y-105578711D01*
X107615427Y-83692998D01*
X109946532Y-83692998D01*
X109946532Y-83693001D01*
X109966364Y-83919686D01*
X109966366Y-83919697D01*
X110025258Y-84139488D01*
X110025261Y-84139497D01*
X110121431Y-84345732D01*
X110121432Y-84345734D01*
X110251954Y-84532141D01*
X110412858Y-84693045D01*
X110412861Y-84693047D01*
X110599266Y-84823568D01*
X110805504Y-84919739D01*
X111025308Y-84978635D01*
X111187230Y-84992801D01*
X111251998Y-84998468D01*
X111252000Y-84998468D01*
X111252002Y-84998468D01*
X111308673Y-84993509D01*
X111478692Y-84978635D01*
X111698496Y-84919739D01*
X111904734Y-84823568D01*
X112091139Y-84693047D01*
X112252047Y-84532139D01*
X112382568Y-84345734D01*
X112409895Y-84287129D01*
X112456064Y-84234695D01*
X112523257Y-84215542D01*
X112590139Y-84235757D01*
X112634657Y-84287133D01*
X112661865Y-84345482D01*
X112792342Y-84531820D01*
X112953179Y-84692657D01*
X113139517Y-84823134D01*
X113345673Y-84919265D01*
X113345682Y-84919269D01*
X113541999Y-84971872D01*
X113542000Y-84971871D01*
X113542000Y-84126012D01*
X113599007Y-84158925D01*
X113726174Y-84193000D01*
X113857826Y-84193000D01*
X113984993Y-84158925D01*
X114042000Y-84126012D01*
X114042000Y-84971872D01*
X114238317Y-84919269D01*
X114238326Y-84919265D01*
X114444482Y-84823134D01*
X114630820Y-84692657D01*
X114791657Y-84531820D01*
X114922132Y-84345484D01*
X114949341Y-84287134D01*
X114995513Y-84234695D01*
X115062707Y-84215542D01*
X115129588Y-84235757D01*
X115174106Y-84287133D01*
X115201431Y-84345732D01*
X115201432Y-84345734D01*
X115331954Y-84532141D01*
X115492858Y-84693045D01*
X115492861Y-84693047D01*
X115679266Y-84823568D01*
X115885504Y-84919739D01*
X116105308Y-84978635D01*
X116267230Y-84992801D01*
X116331998Y-84998468D01*
X116332000Y-84998468D01*
X116332002Y-84998468D01*
X116388673Y-84993509D01*
X116558692Y-84978635D01*
X116778496Y-84919739D01*
X116984734Y-84823568D01*
X117171139Y-84693047D01*
X117332047Y-84532139D01*
X117462568Y-84345734D01*
X117489618Y-84287724D01*
X117535790Y-84235285D01*
X117602983Y-84216133D01*
X117669865Y-84236348D01*
X117714382Y-84287725D01*
X117741429Y-84345728D01*
X117741432Y-84345734D01*
X117871954Y-84532141D01*
X118032858Y-84693045D01*
X118032861Y-84693047D01*
X118219266Y-84823568D01*
X118425504Y-84919739D01*
X118645308Y-84978635D01*
X118807230Y-84992801D01*
X118871998Y-84998468D01*
X118872000Y-84998468D01*
X118872002Y-84998468D01*
X118928673Y-84993509D01*
X119098692Y-84978635D01*
X119318496Y-84919739D01*
X119524734Y-84823568D01*
X119711139Y-84693047D01*
X119872047Y-84532139D01*
X120002568Y-84345734D01*
X120029618Y-84287724D01*
X120075790Y-84235285D01*
X120142983Y-84216133D01*
X120209865Y-84236348D01*
X120254382Y-84287725D01*
X120281429Y-84345728D01*
X120281432Y-84345734D01*
X120411954Y-84532141D01*
X120572858Y-84693045D01*
X120572861Y-84693047D01*
X120759266Y-84823568D01*
X120965504Y-84919739D01*
X121185308Y-84978635D01*
X121347230Y-84992801D01*
X121411998Y-84998468D01*
X121412000Y-84998468D01*
X121412002Y-84998468D01*
X121468673Y-84993509D01*
X121638692Y-84978635D01*
X121858496Y-84919739D01*
X122064734Y-84823568D01*
X122251139Y-84693047D01*
X122412047Y-84532139D01*
X122542568Y-84345734D01*
X122569618Y-84287724D01*
X122615790Y-84235285D01*
X122682983Y-84216133D01*
X122749865Y-84236348D01*
X122794382Y-84287725D01*
X122821429Y-84345728D01*
X122821432Y-84345734D01*
X122951954Y-84532141D01*
X123112858Y-84693045D01*
X123112861Y-84693047D01*
X123299266Y-84823568D01*
X123505504Y-84919739D01*
X123725308Y-84978635D01*
X123887230Y-84992801D01*
X123951998Y-84998468D01*
X123952000Y-84998468D01*
X123952002Y-84998468D01*
X124008673Y-84993509D01*
X124178692Y-84978635D01*
X124398496Y-84919739D01*
X124604734Y-84823568D01*
X124791139Y-84693047D01*
X124952047Y-84532139D01*
X125082568Y-84345734D01*
X125109618Y-84287724D01*
X125155790Y-84235285D01*
X125222983Y-84216133D01*
X125289865Y-84236348D01*
X125334382Y-84287725D01*
X125361429Y-84345728D01*
X125361432Y-84345734D01*
X125491954Y-84532141D01*
X125652858Y-84693045D01*
X125652861Y-84693047D01*
X125839266Y-84823568D01*
X126045504Y-84919739D01*
X126265308Y-84978635D01*
X126427230Y-84992801D01*
X126491998Y-84998468D01*
X126492000Y-84998468D01*
X126492002Y-84998468D01*
X126548673Y-84993509D01*
X126718692Y-84978635D01*
X126938496Y-84919739D01*
X127144734Y-84823568D01*
X127331139Y-84693047D01*
X127492047Y-84532139D01*
X127622568Y-84345734D01*
X127649618Y-84287724D01*
X127695790Y-84235285D01*
X127762983Y-84216133D01*
X127829865Y-84236348D01*
X127874382Y-84287725D01*
X127901429Y-84345728D01*
X127901432Y-84345734D01*
X128031954Y-84532141D01*
X128192858Y-84693045D01*
X128192861Y-84693047D01*
X128379266Y-84823568D01*
X128585504Y-84919739D01*
X128805308Y-84978635D01*
X128967230Y-84992801D01*
X129031998Y-84998468D01*
X129032000Y-84998468D01*
X129032002Y-84998468D01*
X129088673Y-84993509D01*
X129258692Y-84978635D01*
X129478496Y-84919739D01*
X129684734Y-84823568D01*
X129871139Y-84693047D01*
X130032047Y-84532139D01*
X130162568Y-84345734D01*
X130189618Y-84287724D01*
X130235790Y-84235285D01*
X130302983Y-84216133D01*
X130369865Y-84236348D01*
X130414382Y-84287725D01*
X130441429Y-84345728D01*
X130441432Y-84345734D01*
X130571954Y-84532141D01*
X130732858Y-84693045D01*
X130732861Y-84693047D01*
X130919266Y-84823568D01*
X131125504Y-84919739D01*
X131345308Y-84978635D01*
X131507230Y-84992801D01*
X131571998Y-84998468D01*
X131572000Y-84998468D01*
X131572002Y-84998468D01*
X131628673Y-84993509D01*
X131798692Y-84978635D01*
X132018496Y-84919739D01*
X132224734Y-84823568D01*
X132411139Y-84693047D01*
X132572047Y-84532139D01*
X132702568Y-84345734D01*
X132729618Y-84287724D01*
X132775790Y-84235285D01*
X132842983Y-84216133D01*
X132909865Y-84236348D01*
X132954382Y-84287725D01*
X132981429Y-84345728D01*
X132981432Y-84345734D01*
X133111954Y-84532141D01*
X133272858Y-84693045D01*
X133272861Y-84693047D01*
X133459266Y-84823568D01*
X133665504Y-84919739D01*
X133885308Y-84978635D01*
X134047230Y-84992801D01*
X134111998Y-84998468D01*
X134112000Y-84998468D01*
X134112002Y-84998468D01*
X134168673Y-84993509D01*
X134338692Y-84978635D01*
X134558496Y-84919739D01*
X134764734Y-84823568D01*
X134951139Y-84693047D01*
X135112047Y-84532139D01*
X135242568Y-84345734D01*
X135269618Y-84287724D01*
X135315790Y-84235285D01*
X135382983Y-84216133D01*
X135449865Y-84236348D01*
X135494382Y-84287725D01*
X135521429Y-84345728D01*
X135521432Y-84345734D01*
X135651954Y-84532141D01*
X135812858Y-84693045D01*
X135812861Y-84693047D01*
X135999266Y-84823568D01*
X136205504Y-84919739D01*
X136425308Y-84978635D01*
X136587230Y-84992801D01*
X136651998Y-84998468D01*
X136652000Y-84998468D01*
X136652002Y-84998468D01*
X136708673Y-84993509D01*
X136878692Y-84978635D01*
X137098496Y-84919739D01*
X137304734Y-84823568D01*
X137491139Y-84693047D01*
X137652047Y-84532139D01*
X137782568Y-84345734D01*
X137809618Y-84287724D01*
X137855790Y-84235285D01*
X137922983Y-84216133D01*
X137989865Y-84236348D01*
X138034382Y-84287725D01*
X138061429Y-84345728D01*
X138061432Y-84345734D01*
X138191954Y-84532141D01*
X138352858Y-84693045D01*
X138352861Y-84693047D01*
X138539266Y-84823568D01*
X138745504Y-84919739D01*
X138965308Y-84978635D01*
X139127230Y-84992801D01*
X139191998Y-84998468D01*
X139192000Y-84998468D01*
X139192002Y-84998468D01*
X139248673Y-84993509D01*
X139418692Y-84978635D01*
X139638496Y-84919739D01*
X139844734Y-84823568D01*
X140031139Y-84693047D01*
X140192047Y-84532139D01*
X140322568Y-84345734D01*
X140349618Y-84287724D01*
X140395790Y-84235285D01*
X140462983Y-84216133D01*
X140529865Y-84236348D01*
X140574382Y-84287725D01*
X140601429Y-84345728D01*
X140601432Y-84345734D01*
X140731954Y-84532141D01*
X140892858Y-84693045D01*
X140892861Y-84693047D01*
X141079266Y-84823568D01*
X141285504Y-84919739D01*
X141505308Y-84978635D01*
X141667230Y-84992801D01*
X141731998Y-84998468D01*
X141732000Y-84998468D01*
X141732002Y-84998468D01*
X141788673Y-84993509D01*
X141958692Y-84978635D01*
X142178496Y-84919739D01*
X142384734Y-84823568D01*
X142571139Y-84693047D01*
X142732047Y-84532139D01*
X142862568Y-84345734D01*
X142889618Y-84287724D01*
X142935790Y-84235285D01*
X143002983Y-84216133D01*
X143069865Y-84236348D01*
X143114382Y-84287725D01*
X143141429Y-84345728D01*
X143141432Y-84345734D01*
X143271954Y-84532141D01*
X143432858Y-84693045D01*
X143432861Y-84693047D01*
X143619266Y-84823568D01*
X143825504Y-84919739D01*
X144045308Y-84978635D01*
X144207230Y-84992801D01*
X144271998Y-84998468D01*
X144272000Y-84998468D01*
X144272002Y-84998468D01*
X144328673Y-84993509D01*
X144498692Y-84978635D01*
X144718496Y-84919739D01*
X144924734Y-84823568D01*
X145111139Y-84693047D01*
X145272047Y-84532139D01*
X145402568Y-84345734D01*
X145429618Y-84287724D01*
X145475790Y-84235285D01*
X145542983Y-84216133D01*
X145609865Y-84236348D01*
X145654382Y-84287725D01*
X145681429Y-84345728D01*
X145681432Y-84345734D01*
X145811954Y-84532141D01*
X145972859Y-84693046D01*
X146008621Y-84718086D01*
X146052247Y-84772662D01*
X146061500Y-84819662D01*
X146061500Y-86685918D01*
X146061500Y-86685920D01*
X146061499Y-86685920D01*
X146090340Y-86830907D01*
X146090341Y-86830909D01*
X146090342Y-86830913D01*
X146093014Y-86837364D01*
X146100483Y-86906831D01*
X146069209Y-86969311D01*
X146066134Y-86972497D01*
X142439050Y-90599580D01*
X142439044Y-90599588D01*
X142389812Y-90673268D01*
X142389813Y-90673269D01*
X142356921Y-90722496D01*
X142356914Y-90722508D01*
X142300342Y-90859086D01*
X142300340Y-90859092D01*
X142271500Y-91004079D01*
X142271500Y-97569581D01*
X142251815Y-97636620D01*
X142199011Y-97682375D01*
X142129853Y-97692319D01*
X142115407Y-97689356D01*
X141958697Y-97647366D01*
X141958693Y-97647365D01*
X141958692Y-97647365D01*
X141958691Y-97647364D01*
X141958686Y-97647364D01*
X141732002Y-97627532D01*
X141731998Y-97627532D01*
X141505313Y-97647364D01*
X141505302Y-97647366D01*
X141285511Y-97706258D01*
X141285502Y-97706261D01*
X141079267Y-97802431D01*
X141079265Y-97802432D01*
X140892858Y-97932954D01*
X140731954Y-98093858D01*
X140601432Y-98280265D01*
X140601431Y-98280267D01*
X140574382Y-98338275D01*
X140528209Y-98390714D01*
X140461016Y-98409866D01*
X140394135Y-98389650D01*
X140349618Y-98338275D01*
X140322686Y-98280520D01*
X140322568Y-98280266D01*
X140192047Y-98093861D01*
X140192045Y-98093858D01*
X140031141Y-97932954D01*
X139844734Y-97802432D01*
X139844732Y-97802431D01*
X139638497Y-97706261D01*
X139638488Y-97706258D01*
X139418697Y-97647366D01*
X139418693Y-97647365D01*
X139418692Y-97647365D01*
X139418691Y-97647364D01*
X139418686Y-97647364D01*
X139192002Y-97627532D01*
X139191998Y-97627532D01*
X138965313Y-97647364D01*
X138965302Y-97647366D01*
X138745511Y-97706258D01*
X138745502Y-97706261D01*
X138539267Y-97802431D01*
X138539265Y-97802432D01*
X138352858Y-97932954D01*
X138191954Y-98093858D01*
X138061432Y-98280265D01*
X138061431Y-98280267D01*
X138034382Y-98338275D01*
X137988209Y-98390714D01*
X137921016Y-98409866D01*
X137854135Y-98389650D01*
X137809618Y-98338275D01*
X137782686Y-98280520D01*
X137782568Y-98280266D01*
X137652047Y-98093861D01*
X137652045Y-98093858D01*
X137491141Y-97932954D01*
X137304734Y-97802432D01*
X137304732Y-97802431D01*
X137098497Y-97706261D01*
X137098488Y-97706258D01*
X136878697Y-97647366D01*
X136878693Y-97647365D01*
X136878692Y-97647365D01*
X136878691Y-97647364D01*
X136878686Y-97647364D01*
X136652002Y-97627532D01*
X136651998Y-97627532D01*
X136425313Y-97647364D01*
X136425302Y-97647366D01*
X136205511Y-97706258D01*
X136205502Y-97706261D01*
X135999267Y-97802431D01*
X135999265Y-97802432D01*
X135812858Y-97932954D01*
X135651954Y-98093858D01*
X135521432Y-98280265D01*
X135521431Y-98280267D01*
X135494382Y-98338275D01*
X135448209Y-98390714D01*
X135381016Y-98409866D01*
X135314135Y-98389650D01*
X135269618Y-98338275D01*
X135242686Y-98280520D01*
X135242568Y-98280266D01*
X135112047Y-98093861D01*
X135112045Y-98093858D01*
X134951141Y-97932954D01*
X134764734Y-97802432D01*
X134764732Y-97802431D01*
X134558497Y-97706261D01*
X134558488Y-97706258D01*
X134338697Y-97647366D01*
X134338693Y-97647365D01*
X134338692Y-97647365D01*
X134338691Y-97647364D01*
X134338686Y-97647364D01*
X134112002Y-97627532D01*
X134111998Y-97627532D01*
X133885313Y-97647364D01*
X133885302Y-97647366D01*
X133665511Y-97706258D01*
X133665502Y-97706261D01*
X133459267Y-97802431D01*
X133459265Y-97802432D01*
X133272858Y-97932954D01*
X133111954Y-98093858D01*
X132981432Y-98280265D01*
X132981431Y-98280267D01*
X132954382Y-98338275D01*
X132908209Y-98390714D01*
X132841016Y-98409866D01*
X132774135Y-98389650D01*
X132729618Y-98338275D01*
X132702686Y-98280520D01*
X132702568Y-98280266D01*
X132572047Y-98093861D01*
X132572045Y-98093858D01*
X132411141Y-97932954D01*
X132224734Y-97802432D01*
X132224732Y-97802431D01*
X132018497Y-97706261D01*
X132018488Y-97706258D01*
X131798697Y-97647366D01*
X131798693Y-97647365D01*
X131798692Y-97647365D01*
X131798691Y-97647364D01*
X131798686Y-97647364D01*
X131572002Y-97627532D01*
X131571998Y-97627532D01*
X131345313Y-97647364D01*
X131345302Y-97647366D01*
X131125511Y-97706258D01*
X131125502Y-97706261D01*
X130919267Y-97802431D01*
X130919265Y-97802432D01*
X130732858Y-97932954D01*
X130571954Y-98093858D01*
X130441432Y-98280265D01*
X130441431Y-98280267D01*
X130414382Y-98338275D01*
X130368209Y-98390714D01*
X130301016Y-98409866D01*
X130234135Y-98389650D01*
X130189618Y-98338275D01*
X130162686Y-98280520D01*
X130162568Y-98280266D01*
X130032047Y-98093861D01*
X130032045Y-98093858D01*
X129871141Y-97932954D01*
X129684734Y-97802432D01*
X129684732Y-97802431D01*
X129478497Y-97706261D01*
X129478488Y-97706258D01*
X129258697Y-97647366D01*
X129258693Y-97647365D01*
X129258692Y-97647365D01*
X129258691Y-97647364D01*
X129258686Y-97647364D01*
X129032002Y-97627532D01*
X129031998Y-97627532D01*
X128805313Y-97647364D01*
X128805302Y-97647366D01*
X128585511Y-97706258D01*
X128585502Y-97706261D01*
X128379267Y-97802431D01*
X128379265Y-97802432D01*
X128192858Y-97932954D01*
X128031954Y-98093858D01*
X127901432Y-98280265D01*
X127901431Y-98280267D01*
X127874382Y-98338275D01*
X127828209Y-98390714D01*
X127761016Y-98409866D01*
X127694135Y-98389650D01*
X127649618Y-98338275D01*
X127622686Y-98280520D01*
X127622568Y-98280266D01*
X127492047Y-98093861D01*
X127492045Y-98093858D01*
X127331141Y-97932954D01*
X127144734Y-97802432D01*
X127144732Y-97802431D01*
X126938497Y-97706261D01*
X126938488Y-97706258D01*
X126718697Y-97647366D01*
X126718693Y-97647365D01*
X126718692Y-97647365D01*
X126718691Y-97647364D01*
X126718686Y-97647364D01*
X126492002Y-97627532D01*
X126491998Y-97627532D01*
X126265313Y-97647364D01*
X126265302Y-97647366D01*
X126045511Y-97706258D01*
X126045502Y-97706261D01*
X125839267Y-97802431D01*
X125839265Y-97802432D01*
X125652858Y-97932954D01*
X125491954Y-98093858D01*
X125361432Y-98280265D01*
X125361431Y-98280267D01*
X125334382Y-98338275D01*
X125288209Y-98390714D01*
X125221016Y-98409866D01*
X125154135Y-98389650D01*
X125109618Y-98338275D01*
X125082686Y-98280520D01*
X125082568Y-98280266D01*
X124952047Y-98093861D01*
X124952045Y-98093858D01*
X124791141Y-97932954D01*
X124604734Y-97802432D01*
X124604732Y-97802431D01*
X124398497Y-97706261D01*
X124398488Y-97706258D01*
X124178697Y-97647366D01*
X124178693Y-97647365D01*
X124178692Y-97647365D01*
X124178691Y-97647364D01*
X124178686Y-97647364D01*
X123952002Y-97627532D01*
X123951998Y-97627532D01*
X123725313Y-97647364D01*
X123725302Y-97647366D01*
X123505511Y-97706258D01*
X123505502Y-97706261D01*
X123299267Y-97802431D01*
X123299265Y-97802432D01*
X123112858Y-97932954D01*
X122951954Y-98093858D01*
X122821432Y-98280265D01*
X122821431Y-98280267D01*
X122794382Y-98338275D01*
X122748209Y-98390714D01*
X122681016Y-98409866D01*
X122614135Y-98389650D01*
X122569618Y-98338275D01*
X122542686Y-98280520D01*
X122542568Y-98280266D01*
X122412047Y-98093861D01*
X122412045Y-98093858D01*
X122251141Y-97932954D01*
X122064734Y-97802432D01*
X122064732Y-97802431D01*
X121858497Y-97706261D01*
X121858488Y-97706258D01*
X121638697Y-97647366D01*
X121638693Y-97647365D01*
X121638692Y-97647365D01*
X121638691Y-97647364D01*
X121638686Y-97647364D01*
X121412002Y-97627532D01*
X121411998Y-97627532D01*
X121185313Y-97647364D01*
X121185302Y-97647366D01*
X120965511Y-97706258D01*
X120965502Y-97706261D01*
X120759267Y-97802431D01*
X120759265Y-97802432D01*
X120572858Y-97932954D01*
X120411954Y-98093858D01*
X120281433Y-98280264D01*
X120281432Y-98280266D01*
X120281315Y-98280518D01*
X120254106Y-98338867D01*
X120207933Y-98391306D01*
X120140739Y-98410457D01*
X120073858Y-98390241D01*
X120029342Y-98338865D01*
X120002135Y-98280520D01*
X120002134Y-98280518D01*
X119871657Y-98094179D01*
X119710820Y-97933342D01*
X119524482Y-97802865D01*
X119318328Y-97706734D01*
X119122000Y-97654127D01*
X119122000Y-98499988D01*
X119064993Y-98467075D01*
X118937826Y-98433000D01*
X118806174Y-98433000D01*
X118679007Y-98467075D01*
X118622000Y-98499988D01*
X118622000Y-97654127D01*
X118425671Y-97706734D01*
X118219517Y-97802865D01*
X118033179Y-97933342D01*
X117872342Y-98094179D01*
X117741867Y-98280515D01*
X117714657Y-98338867D01*
X117668484Y-98391306D01*
X117601290Y-98410457D01*
X117534409Y-98390241D01*
X117489893Y-98338865D01*
X117462685Y-98280518D01*
X117462568Y-98280266D01*
X117332047Y-98093861D01*
X117332045Y-98093858D01*
X117171141Y-97932954D01*
X116984734Y-97802432D01*
X116984732Y-97802431D01*
X116778497Y-97706261D01*
X116778488Y-97706258D01*
X116558697Y-97647366D01*
X116558693Y-97647365D01*
X116558692Y-97647365D01*
X116558691Y-97647364D01*
X116558686Y-97647364D01*
X116332002Y-97627532D01*
X116331998Y-97627532D01*
X116105313Y-97647364D01*
X116105302Y-97647366D01*
X115885511Y-97706258D01*
X115885502Y-97706261D01*
X115679267Y-97802431D01*
X115679265Y-97802432D01*
X115492858Y-97932954D01*
X115331954Y-98093858D01*
X115201432Y-98280265D01*
X115201431Y-98280267D01*
X115174382Y-98338275D01*
X115128209Y-98390714D01*
X115061016Y-98409866D01*
X114994135Y-98389650D01*
X114949618Y-98338275D01*
X114922686Y-98280520D01*
X114922568Y-98280266D01*
X114792047Y-98093861D01*
X114792045Y-98093858D01*
X114631141Y-97932954D01*
X114444734Y-97802432D01*
X114444732Y-97802431D01*
X114238497Y-97706261D01*
X114238488Y-97706258D01*
X114018697Y-97647366D01*
X114018693Y-97647365D01*
X114018692Y-97647365D01*
X114018691Y-97647364D01*
X114018686Y-97647364D01*
X113792002Y-97627532D01*
X113791998Y-97627532D01*
X113565313Y-97647364D01*
X113565302Y-97647366D01*
X113345511Y-97706258D01*
X113345502Y-97706261D01*
X113139267Y-97802431D01*
X113139265Y-97802432D01*
X112952858Y-97932954D01*
X112791954Y-98093858D01*
X112774725Y-98118464D01*
X112720147Y-98162088D01*
X112650648Y-98169280D01*
X112588294Y-98137757D01*
X112552882Y-98077526D01*
X112549861Y-98060591D01*
X112546091Y-98025516D01*
X112495797Y-97890671D01*
X112495793Y-97890664D01*
X112409547Y-97775455D01*
X112409544Y-97775452D01*
X112294335Y-97689206D01*
X112294328Y-97689202D01*
X112159482Y-97638908D01*
X112159483Y-97638908D01*
X112099883Y-97632501D01*
X112099881Y-97632500D01*
X112099873Y-97632500D01*
X112099864Y-97632500D01*
X110404129Y-97632500D01*
X110404123Y-97632501D01*
X110344516Y-97638908D01*
X110209671Y-97689202D01*
X110209664Y-97689206D01*
X110094455Y-97775452D01*
X110094452Y-97775455D01*
X110008206Y-97890664D01*
X110008202Y-97890671D01*
X109957908Y-98025517D01*
X109951501Y-98085116D01*
X109951500Y-98085135D01*
X109951500Y-99780870D01*
X109951501Y-99780876D01*
X109957908Y-99840483D01*
X110008202Y-99975328D01*
X110008206Y-99975335D01*
X110094452Y-100090544D01*
X110094455Y-100090547D01*
X110209664Y-100176793D01*
X110209671Y-100176797D01*
X110344517Y-100227091D01*
X110344516Y-100227091D01*
X110351444Y-100227835D01*
X110404127Y-100233500D01*
X112099872Y-100233499D01*
X112159483Y-100227091D01*
X112294331Y-100176796D01*
X112409546Y-100090546D01*
X112495796Y-99975331D01*
X112546091Y-99840483D01*
X112549862Y-99805401D01*
X112576599Y-99740855D01*
X112633990Y-99701006D01*
X112703816Y-99698511D01*
X112763905Y-99734163D01*
X112774726Y-99747536D01*
X112791956Y-99772143D01*
X112952858Y-99933045D01*
X112952861Y-99933047D01*
X113139266Y-100063568D01*
X113345504Y-100159739D01*
X113565308Y-100218635D01*
X113727230Y-100232801D01*
X113791998Y-100238468D01*
X113792000Y-100238468D01*
X113792002Y-100238468D01*
X113848807Y-100233498D01*
X114018692Y-100218635D01*
X114238496Y-100159739D01*
X114444734Y-100063568D01*
X114631139Y-99933047D01*
X114792047Y-99772139D01*
X114922568Y-99585734D01*
X114949618Y-99527724D01*
X114995790Y-99475285D01*
X115062983Y-99456133D01*
X115129865Y-99476348D01*
X115174382Y-99527725D01*
X115201429Y-99585728D01*
X115201432Y-99585734D01*
X115331954Y-99772141D01*
X115492858Y-99933045D01*
X115492861Y-99933047D01*
X115679266Y-100063568D01*
X115885504Y-100159739D01*
X116105308Y-100218635D01*
X116267230Y-100232801D01*
X116331998Y-100238468D01*
X116332000Y-100238468D01*
X116332002Y-100238468D01*
X116388807Y-100233498D01*
X116558692Y-100218635D01*
X116778496Y-100159739D01*
X116984734Y-100063568D01*
X117171139Y-99933047D01*
X117332047Y-99772139D01*
X117462568Y-99585734D01*
X117489895Y-99527129D01*
X117536064Y-99474695D01*
X117603257Y-99455542D01*
X117670139Y-99475757D01*
X117714657Y-99527133D01*
X117741865Y-99585482D01*
X117872342Y-99771820D01*
X118033179Y-99932657D01*
X118219517Y-100063134D01*
X118425673Y-100159265D01*
X118425682Y-100159269D01*
X118621999Y-100211872D01*
X118622000Y-100211871D01*
X118622000Y-99366012D01*
X118679007Y-99398925D01*
X118806174Y-99433000D01*
X118937826Y-99433000D01*
X119064993Y-99398925D01*
X119122000Y-99366012D01*
X119122000Y-100211872D01*
X119318317Y-100159269D01*
X119318326Y-100159265D01*
X119524482Y-100063134D01*
X119710820Y-99932657D01*
X119871657Y-99771820D01*
X120002132Y-99585484D01*
X120029341Y-99527134D01*
X120075513Y-99474695D01*
X120142707Y-99455542D01*
X120209588Y-99475757D01*
X120254106Y-99527133D01*
X120281431Y-99585732D01*
X120281432Y-99585734D01*
X120411954Y-99772141D01*
X120572858Y-99933045D01*
X120572861Y-99933047D01*
X120759266Y-100063568D01*
X120965504Y-100159739D01*
X121185308Y-100218635D01*
X121347230Y-100232801D01*
X121411998Y-100238468D01*
X121412000Y-100238468D01*
X121412002Y-100238468D01*
X121468807Y-100233498D01*
X121638692Y-100218635D01*
X121858496Y-100159739D01*
X122064734Y-100063568D01*
X122251139Y-99933047D01*
X122412047Y-99772139D01*
X122542568Y-99585734D01*
X122569618Y-99527724D01*
X122615790Y-99475285D01*
X122682983Y-99456133D01*
X122749865Y-99476348D01*
X122794382Y-99527725D01*
X122821429Y-99585728D01*
X122821432Y-99585734D01*
X122951954Y-99772141D01*
X123112858Y-99933045D01*
X123112861Y-99933047D01*
X123299266Y-100063568D01*
X123505504Y-100159739D01*
X123725308Y-100218635D01*
X123887230Y-100232801D01*
X123951998Y-100238468D01*
X123952000Y-100238468D01*
X123952002Y-100238468D01*
X124008807Y-100233498D01*
X124178692Y-100218635D01*
X124398496Y-100159739D01*
X124604734Y-100063568D01*
X124791139Y-99933047D01*
X124952047Y-99772139D01*
X125082568Y-99585734D01*
X125109618Y-99527724D01*
X125155790Y-99475285D01*
X125222983Y-99456133D01*
X125289865Y-99476348D01*
X125334382Y-99527725D01*
X125361429Y-99585728D01*
X125361432Y-99585734D01*
X125491954Y-99772141D01*
X125652858Y-99933045D01*
X125652861Y-99933047D01*
X125839266Y-100063568D01*
X126045504Y-100159739D01*
X126265308Y-100218635D01*
X126427230Y-100232801D01*
X126491998Y-100238468D01*
X126492000Y-100238468D01*
X126492002Y-100238468D01*
X126548807Y-100233498D01*
X126718692Y-100218635D01*
X126938496Y-100159739D01*
X127144734Y-100063568D01*
X127331139Y-99933047D01*
X127492047Y-99772139D01*
X127622568Y-99585734D01*
X127649618Y-99527724D01*
X127695790Y-99475285D01*
X127762983Y-99456133D01*
X127829865Y-99476348D01*
X127874382Y-99527725D01*
X127901429Y-99585728D01*
X127901432Y-99585734D01*
X128031954Y-99772141D01*
X128192858Y-99933045D01*
X128192861Y-99933047D01*
X128379266Y-100063568D01*
X128585504Y-100159739D01*
X128805308Y-100218635D01*
X128967230Y-100232801D01*
X129031998Y-100238468D01*
X129032000Y-100238468D01*
X129032002Y-100238468D01*
X129088807Y-100233498D01*
X129258692Y-100218635D01*
X129478496Y-100159739D01*
X129684734Y-100063568D01*
X129871139Y-99933047D01*
X130032047Y-99772139D01*
X130162568Y-99585734D01*
X130189618Y-99527724D01*
X130235790Y-99475285D01*
X130302983Y-99456133D01*
X130369865Y-99476348D01*
X130414382Y-99527725D01*
X130441429Y-99585728D01*
X130441432Y-99585734D01*
X130571954Y-99772141D01*
X130732858Y-99933045D01*
X130732861Y-99933047D01*
X130919266Y-100063568D01*
X131125504Y-100159739D01*
X131345308Y-100218635D01*
X131507230Y-100232801D01*
X131571998Y-100238468D01*
X131572000Y-100238468D01*
X131572002Y-100238468D01*
X131628807Y-100233498D01*
X131798692Y-100218635D01*
X132018496Y-100159739D01*
X132224734Y-100063568D01*
X132411139Y-99933047D01*
X132572047Y-99772139D01*
X132702568Y-99585734D01*
X132729618Y-99527724D01*
X132775790Y-99475285D01*
X132842983Y-99456133D01*
X132909865Y-99476348D01*
X132954382Y-99527725D01*
X132981429Y-99585728D01*
X132981432Y-99585734D01*
X133111954Y-99772141D01*
X133272858Y-99933045D01*
X133272861Y-99933047D01*
X133459266Y-100063568D01*
X133665504Y-100159739D01*
X133885308Y-100218635D01*
X134047230Y-100232801D01*
X134111998Y-100238468D01*
X134112000Y-100238468D01*
X134112002Y-100238468D01*
X134168807Y-100233498D01*
X134338692Y-100218635D01*
X134558496Y-100159739D01*
X134764734Y-100063568D01*
X134951139Y-99933047D01*
X135112047Y-99772139D01*
X135242568Y-99585734D01*
X135269618Y-99527724D01*
X135315790Y-99475285D01*
X135382983Y-99456133D01*
X135449865Y-99476348D01*
X135494382Y-99527725D01*
X135521429Y-99585728D01*
X135521432Y-99585734D01*
X135651954Y-99772141D01*
X135812858Y-99933045D01*
X135812861Y-99933047D01*
X135999266Y-100063568D01*
X136205504Y-100159739D01*
X136425308Y-100218635D01*
X136587230Y-100232801D01*
X136651998Y-100238468D01*
X136652000Y-100238468D01*
X136652002Y-100238468D01*
X136708807Y-100233498D01*
X136878692Y-100218635D01*
X137098496Y-100159739D01*
X137304734Y-100063568D01*
X137491139Y-99933047D01*
X137652047Y-99772139D01*
X137782568Y-99585734D01*
X137809618Y-99527724D01*
X137855790Y-99475285D01*
X137922983Y-99456133D01*
X137989865Y-99476348D01*
X138034382Y-99527725D01*
X138061429Y-99585728D01*
X138061432Y-99585734D01*
X138191954Y-99772141D01*
X138352858Y-99933045D01*
X138352861Y-99933047D01*
X138539266Y-100063568D01*
X138745504Y-100159739D01*
X138965308Y-100218635D01*
X139127230Y-100232801D01*
X139191998Y-100238468D01*
X139192000Y-100238468D01*
X139192002Y-100238468D01*
X139248807Y-100233498D01*
X139418692Y-100218635D01*
X139638496Y-100159739D01*
X139844734Y-100063568D01*
X140031139Y-99933047D01*
X140192047Y-99772139D01*
X140322568Y-99585734D01*
X140349618Y-99527724D01*
X140395790Y-99475285D01*
X140462983Y-99456133D01*
X140529865Y-99476348D01*
X140574382Y-99527725D01*
X140601429Y-99585728D01*
X140601432Y-99585734D01*
X140731954Y-99772141D01*
X140892858Y-99933045D01*
X140892861Y-99933047D01*
X141079266Y-100063568D01*
X141285504Y-100159739D01*
X141505308Y-100218635D01*
X141667230Y-100232801D01*
X141731998Y-100238468D01*
X141732000Y-100238468D01*
X141732002Y-100238468D01*
X141788807Y-100233498D01*
X141958692Y-100218635D01*
X142115408Y-100176643D01*
X142185256Y-100178306D01*
X142243119Y-100217468D01*
X142270623Y-100281697D01*
X142271500Y-100296418D01*
X142271500Y-100503270D01*
X142269117Y-100527462D01*
X142249500Y-100626079D01*
X142249500Y-100737770D01*
X142229815Y-100804809D01*
X142213181Y-100825451D01*
X139825451Y-103213181D01*
X139764128Y-103246666D01*
X139737770Y-103249500D01*
X139092701Y-103249500D01*
X139025662Y-103229815D01*
X138991126Y-103196623D01*
X138943494Y-103128597D01*
X138776402Y-102961506D01*
X138776395Y-102961501D01*
X138582834Y-102825967D01*
X138582830Y-102825965D01*
X138511727Y-102792809D01*
X138368663Y-102726097D01*
X138368659Y-102726096D01*
X138368655Y-102726094D01*
X138140413Y-102664938D01*
X138140403Y-102664936D01*
X137905001Y-102644341D01*
X137904999Y-102644341D01*
X137669596Y-102664936D01*
X137669586Y-102664938D01*
X137441344Y-102726094D01*
X137441335Y-102726098D01*
X137227171Y-102825964D01*
X137227169Y-102825965D01*
X137033597Y-102961505D01*
X136866505Y-103128597D01*
X136736575Y-103314158D01*
X136681998Y-103357783D01*
X136612500Y-103364977D01*
X136550145Y-103333454D01*
X136533425Y-103314158D01*
X136403494Y-103128597D01*
X136236402Y-102961506D01*
X136236395Y-102961501D01*
X136042834Y-102825967D01*
X136042830Y-102825965D01*
X135971727Y-102792809D01*
X135828663Y-102726097D01*
X135828659Y-102726096D01*
X135828655Y-102726094D01*
X135600413Y-102664938D01*
X135600403Y-102664936D01*
X135365001Y-102644341D01*
X135364999Y-102644341D01*
X135129596Y-102664936D01*
X135129586Y-102664938D01*
X134901344Y-102726094D01*
X134901335Y-102726098D01*
X134687171Y-102825964D01*
X134687169Y-102825965D01*
X134493597Y-102961505D01*
X134326505Y-103128597D01*
X134196575Y-103314158D01*
X134141998Y-103357783D01*
X134072500Y-103364977D01*
X134010145Y-103333454D01*
X133993425Y-103314158D01*
X133863494Y-103128597D01*
X133696402Y-102961506D01*
X133696395Y-102961501D01*
X133502834Y-102825967D01*
X133502830Y-102825965D01*
X133431727Y-102792809D01*
X133288663Y-102726097D01*
X133288659Y-102726096D01*
X133288655Y-102726094D01*
X133060413Y-102664938D01*
X133060403Y-102664936D01*
X132825001Y-102644341D01*
X132824999Y-102644341D01*
X132589596Y-102664936D01*
X132589586Y-102664938D01*
X132361344Y-102726094D01*
X132361335Y-102726098D01*
X132147171Y-102825964D01*
X132147169Y-102825965D01*
X131953597Y-102961505D01*
X131786505Y-103128597D01*
X131656575Y-103314158D01*
X131601998Y-103357783D01*
X131532500Y-103364977D01*
X131470145Y-103333454D01*
X131453425Y-103314158D01*
X131323494Y-103128597D01*
X131156402Y-102961506D01*
X131156395Y-102961501D01*
X130962834Y-102825967D01*
X130962830Y-102825965D01*
X130891727Y-102792809D01*
X130748663Y-102726097D01*
X130748659Y-102726096D01*
X130748655Y-102726094D01*
X130520413Y-102664938D01*
X130520403Y-102664936D01*
X130285001Y-102644341D01*
X130284999Y-102644341D01*
X130049596Y-102664936D01*
X130049586Y-102664938D01*
X129821344Y-102726094D01*
X129821335Y-102726098D01*
X129607171Y-102825964D01*
X129607169Y-102825965D01*
X129413597Y-102961505D01*
X129246505Y-103128597D01*
X129116575Y-103314158D01*
X129061998Y-103357783D01*
X128992500Y-103364977D01*
X128930145Y-103333454D01*
X128913425Y-103314158D01*
X128783494Y-103128597D01*
X128616402Y-102961506D01*
X128616395Y-102961501D01*
X128422834Y-102825967D01*
X128422830Y-102825965D01*
X128351727Y-102792809D01*
X128208663Y-102726097D01*
X128208659Y-102726096D01*
X128208655Y-102726094D01*
X127980413Y-102664938D01*
X127980403Y-102664936D01*
X127745001Y-102644341D01*
X127744999Y-102644341D01*
X127509596Y-102664936D01*
X127509586Y-102664938D01*
X127281344Y-102726094D01*
X127281335Y-102726098D01*
X127067171Y-102825964D01*
X127067169Y-102825965D01*
X126873597Y-102961505D01*
X126706505Y-103128597D01*
X126576575Y-103314158D01*
X126521998Y-103357783D01*
X126452500Y-103364977D01*
X126390145Y-103333454D01*
X126373425Y-103314158D01*
X126243494Y-103128597D01*
X126076402Y-102961506D01*
X126076395Y-102961501D01*
X125882834Y-102825967D01*
X125882830Y-102825965D01*
X125811727Y-102792809D01*
X125668663Y-102726097D01*
X125668659Y-102726096D01*
X125668655Y-102726094D01*
X125440413Y-102664938D01*
X125440403Y-102664936D01*
X125205001Y-102644341D01*
X125204999Y-102644341D01*
X124969596Y-102664936D01*
X124969586Y-102664938D01*
X124741344Y-102726094D01*
X124741335Y-102726098D01*
X124527171Y-102825964D01*
X124527169Y-102825965D01*
X124333597Y-102961505D01*
X124166505Y-103128597D01*
X124036575Y-103314158D01*
X123981998Y-103357783D01*
X123912500Y-103364977D01*
X123850145Y-103333454D01*
X123833425Y-103314158D01*
X123703494Y-103128597D01*
X123536402Y-102961506D01*
X123536395Y-102961501D01*
X123342834Y-102825967D01*
X123342830Y-102825965D01*
X123271727Y-102792809D01*
X123128663Y-102726097D01*
X123128659Y-102726096D01*
X123128655Y-102726094D01*
X122900413Y-102664938D01*
X122900403Y-102664936D01*
X122665001Y-102644341D01*
X122664999Y-102644341D01*
X122429596Y-102664936D01*
X122429586Y-102664938D01*
X122201344Y-102726094D01*
X122201335Y-102726098D01*
X121987171Y-102825964D01*
X121987169Y-102825965D01*
X121793600Y-102961503D01*
X121671284Y-103083819D01*
X121609961Y-103117303D01*
X121540269Y-103112319D01*
X121484336Y-103070447D01*
X121467421Y-103039470D01*
X121418354Y-102907913D01*
X121418350Y-102907906D01*
X121332190Y-102792812D01*
X121332187Y-102792809D01*
X121217093Y-102706649D01*
X121217086Y-102706645D01*
X121082379Y-102656403D01*
X121082372Y-102656401D01*
X121022844Y-102650000D01*
X120375000Y-102650000D01*
X120375000Y-103566988D01*
X120317993Y-103534075D01*
X120190826Y-103500000D01*
X120059174Y-103500000D01*
X119932007Y-103534075D01*
X119875000Y-103566988D01*
X119875000Y-102650000D01*
X119227155Y-102650000D01*
X119167627Y-102656401D01*
X119167620Y-102656403D01*
X119032913Y-102706645D01*
X119032906Y-102706649D01*
X118917812Y-102792809D01*
X118917809Y-102792812D01*
X118831649Y-102907906D01*
X118831645Y-102907913D01*
X118781403Y-103042620D01*
X118781401Y-103042627D01*
X118775000Y-103102155D01*
X118775000Y-103750000D01*
X119691988Y-103750000D01*
X119659075Y-103807007D01*
X119625000Y-103934174D01*
X119625000Y-104065826D01*
X119659075Y-104192993D01*
X119691988Y-104250000D01*
X118775000Y-104250000D01*
X118775000Y-104897844D01*
X118781401Y-104957372D01*
X118781403Y-104957379D01*
X118831645Y-105092086D01*
X118831649Y-105092093D01*
X118917809Y-105207187D01*
X118917812Y-105207190D01*
X119032906Y-105293350D01*
X119032913Y-105293354D01*
X119167620Y-105343596D01*
X119167627Y-105343598D01*
X119227155Y-105349999D01*
X119227172Y-105350000D01*
X119875000Y-105350000D01*
X119875000Y-104433012D01*
X119932007Y-104465925D01*
X120059174Y-104500000D01*
X120190826Y-104500000D01*
X120317993Y-104465925D01*
X120375000Y-104433012D01*
X120375000Y-105350000D01*
X121022828Y-105350000D01*
X121022844Y-105349999D01*
X121082372Y-105343598D01*
X121082379Y-105343596D01*
X121217086Y-105293354D01*
X121217093Y-105293350D01*
X121332187Y-105207190D01*
X121332190Y-105207187D01*
X121418350Y-105092093D01*
X121418354Y-105092086D01*
X121467422Y-104960529D01*
X121509293Y-104904595D01*
X121574757Y-104880178D01*
X121643030Y-104895030D01*
X121671285Y-104916181D01*
X121793599Y-105038495D01*
X121870135Y-105092086D01*
X121987165Y-105174032D01*
X121987167Y-105174033D01*
X121987170Y-105174035D01*
X122201337Y-105273903D01*
X122429592Y-105335063D01*
X122600319Y-105350000D01*
X122664999Y-105355659D01*
X122665000Y-105355659D01*
X122665001Y-105355659D01*
X122729681Y-105350000D01*
X122900408Y-105335063D01*
X123128663Y-105273903D01*
X123342830Y-105174035D01*
X123536401Y-105038495D01*
X123703495Y-104871401D01*
X123833425Y-104685842D01*
X123888002Y-104642217D01*
X123957500Y-104635023D01*
X124019855Y-104666546D01*
X124036575Y-104685842D01*
X124166505Y-104871401D01*
X124333599Y-105038495D01*
X124410135Y-105092086D01*
X124527165Y-105174032D01*
X124527167Y-105174033D01*
X124527170Y-105174035D01*
X124741337Y-105273903D01*
X124969592Y-105335063D01*
X125140319Y-105350000D01*
X125204999Y-105355659D01*
X125205000Y-105355659D01*
X125205001Y-105355659D01*
X125269681Y-105350000D01*
X125440408Y-105335063D01*
X125668663Y-105273903D01*
X125882830Y-105174035D01*
X126076401Y-105038495D01*
X126243495Y-104871401D01*
X126373425Y-104685842D01*
X126428002Y-104642217D01*
X126497500Y-104635023D01*
X126559855Y-104666546D01*
X126576575Y-104685842D01*
X126706505Y-104871401D01*
X126873599Y-105038495D01*
X126950135Y-105092086D01*
X127067165Y-105174032D01*
X127067167Y-105174033D01*
X127067170Y-105174035D01*
X127281337Y-105273903D01*
X127509592Y-105335063D01*
X127680319Y-105350000D01*
X127744999Y-105355659D01*
X127745000Y-105355659D01*
X127745001Y-105355659D01*
X127809681Y-105350000D01*
X127980408Y-105335063D01*
X128208663Y-105273903D01*
X128422830Y-105174035D01*
X128616401Y-105038495D01*
X128783495Y-104871401D01*
X128913425Y-104685842D01*
X128968002Y-104642217D01*
X129037500Y-104635023D01*
X129099855Y-104666546D01*
X129116575Y-104685842D01*
X129246505Y-104871401D01*
X129413599Y-105038495D01*
X129490135Y-105092086D01*
X129607165Y-105174032D01*
X129607167Y-105174033D01*
X129607170Y-105174035D01*
X129821337Y-105273903D01*
X130049592Y-105335063D01*
X130220319Y-105350000D01*
X130284999Y-105355659D01*
X130285000Y-105355659D01*
X130285001Y-105355659D01*
X130349681Y-105350000D01*
X130520408Y-105335063D01*
X130748663Y-105273903D01*
X130962830Y-105174035D01*
X131156401Y-105038495D01*
X131323495Y-104871401D01*
X131453425Y-104685842D01*
X131508002Y-104642217D01*
X131577500Y-104635023D01*
X131639855Y-104666546D01*
X131656575Y-104685842D01*
X131786505Y-104871401D01*
X131953599Y-105038495D01*
X132030135Y-105092086D01*
X132147165Y-105174032D01*
X132147167Y-105174033D01*
X132147170Y-105174035D01*
X132361337Y-105273903D01*
X132589592Y-105335063D01*
X132760319Y-105350000D01*
X132824999Y-105355659D01*
X132825000Y-105355659D01*
X132825001Y-105355659D01*
X132889681Y-105350000D01*
X133060408Y-105335063D01*
X133288663Y-105273903D01*
X133502830Y-105174035D01*
X133696401Y-105038495D01*
X133863495Y-104871401D01*
X133993425Y-104685842D01*
X134048002Y-104642217D01*
X134117500Y-104635023D01*
X134179855Y-104666546D01*
X134196575Y-104685842D01*
X134326505Y-104871401D01*
X134493599Y-105038495D01*
X134570135Y-105092086D01*
X134687165Y-105174032D01*
X134687167Y-105174033D01*
X134687170Y-105174035D01*
X134901337Y-105273903D01*
X135129592Y-105335063D01*
X135300319Y-105350000D01*
X135364999Y-105355659D01*
X135365000Y-105355659D01*
X135365001Y-105355659D01*
X135429681Y-105350000D01*
X135600408Y-105335063D01*
X135828663Y-105273903D01*
X136042830Y-105174035D01*
X136236401Y-105038495D01*
X136403495Y-104871401D01*
X136533425Y-104685842D01*
X136588002Y-104642217D01*
X136657500Y-104635023D01*
X136719855Y-104666546D01*
X136736575Y-104685842D01*
X136866505Y-104871401D01*
X137033599Y-105038495D01*
X137110135Y-105092086D01*
X137227165Y-105174032D01*
X137227167Y-105174033D01*
X137227170Y-105174035D01*
X137441337Y-105273903D01*
X137669592Y-105335063D01*
X137840319Y-105350000D01*
X137904999Y-105355659D01*
X137905000Y-105355659D01*
X137905001Y-105355659D01*
X137969681Y-105350000D01*
X138140408Y-105335063D01*
X138368663Y-105273903D01*
X138582830Y-105174035D01*
X138776401Y-105038495D01*
X138943495Y-104871401D01*
X138991127Y-104803376D01*
X139045704Y-104759751D01*
X139092701Y-104750500D01*
X140173920Y-104750500D01*
X140271462Y-104731096D01*
X140318913Y-104721658D01*
X140455495Y-104665084D01*
X140504729Y-104632186D01*
X140578416Y-104582952D01*
X143582951Y-101578416D01*
X143665084Y-101455495D01*
X143721658Y-101318913D01*
X143750500Y-101173918D01*
X143750500Y-101026083D01*
X143750500Y-100874730D01*
X143752883Y-100850538D01*
X143761979Y-100804809D01*
X143772500Y-100751917D01*
X143772500Y-100604082D01*
X143772500Y-100307136D01*
X143792185Y-100240097D01*
X143844989Y-100194342D01*
X143914147Y-100184398D01*
X143928582Y-100187358D01*
X144045308Y-100218635D01*
X144207230Y-100232801D01*
X144271998Y-100238468D01*
X144272000Y-100238468D01*
X144272002Y-100238468D01*
X144328807Y-100233498D01*
X144498692Y-100218635D01*
X144718496Y-100159739D01*
X144924734Y-100063568D01*
X145111139Y-99933047D01*
X145272047Y-99772139D01*
X145402568Y-99585734D01*
X145429618Y-99527724D01*
X145475790Y-99475285D01*
X145542983Y-99456133D01*
X145609865Y-99476348D01*
X145654382Y-99527725D01*
X145681429Y-99585728D01*
X145681432Y-99585734D01*
X145811954Y-99772141D01*
X145972858Y-99933045D01*
X145972861Y-99933047D01*
X146159266Y-100063568D01*
X146365504Y-100159739D01*
X146585308Y-100218635D01*
X146747230Y-100232801D01*
X146811998Y-100238468D01*
X146812000Y-100238468D01*
X146812002Y-100238468D01*
X146868807Y-100233498D01*
X147038692Y-100218635D01*
X147258496Y-100159739D01*
X147464734Y-100063568D01*
X147651139Y-99933047D01*
X147812047Y-99772139D01*
X147942568Y-99585734D01*
X148038739Y-99379496D01*
X148097635Y-99159692D01*
X148117468Y-98933000D01*
X148097635Y-98706308D01*
X148038739Y-98486504D01*
X147942568Y-98280266D01*
X147812047Y-98093861D01*
X147812045Y-98093858D01*
X147651141Y-97932954D01*
X147464734Y-97802432D01*
X147464732Y-97802431D01*
X147258497Y-97706261D01*
X147258488Y-97706258D01*
X147038697Y-97647366D01*
X147038693Y-97647365D01*
X147038692Y-97647365D01*
X147038691Y-97647364D01*
X147038686Y-97647364D01*
X146812002Y-97627532D01*
X146811998Y-97627532D01*
X146585313Y-97647364D01*
X146585302Y-97647366D01*
X146365511Y-97706258D01*
X146365502Y-97706261D01*
X146159267Y-97802431D01*
X146159265Y-97802432D01*
X145972858Y-97932954D01*
X145811954Y-98093858D01*
X145681432Y-98280265D01*
X145681431Y-98280267D01*
X145654382Y-98338275D01*
X145608209Y-98390714D01*
X145541016Y-98409866D01*
X145474135Y-98389650D01*
X145429618Y-98338275D01*
X145402686Y-98280520D01*
X145402568Y-98280266D01*
X145272047Y-98093861D01*
X145272045Y-98093858D01*
X145111141Y-97932954D01*
X144924734Y-97802432D01*
X144924732Y-97802431D01*
X144718497Y-97706261D01*
X144718488Y-97706258D01*
X144498697Y-97647366D01*
X144498693Y-97647365D01*
X144498692Y-97647365D01*
X144498691Y-97647364D01*
X144498686Y-97647364D01*
X144272002Y-97627532D01*
X144271998Y-97627532D01*
X144045313Y-97647364D01*
X144045302Y-97647366D01*
X143928593Y-97678638D01*
X143858743Y-97676975D01*
X143800881Y-97637812D01*
X143773377Y-97573583D01*
X143772500Y-97558863D01*
X143772500Y-91440229D01*
X143792185Y-91373190D01*
X143808819Y-91352548D01*
X147482948Y-87678419D01*
X147482951Y-87678416D01*
X147565084Y-87555495D01*
X147621658Y-87418913D01*
X147650500Y-87273918D01*
X147650500Y-87126083D01*
X147650500Y-86626082D01*
X147650500Y-86626079D01*
X147621659Y-86481092D01*
X147621658Y-86481091D01*
X147621658Y-86481087D01*
X147621656Y-86481082D01*
X147571939Y-86361053D01*
X147562500Y-86313601D01*
X147562500Y-84819662D01*
X147582185Y-84752623D01*
X147615379Y-84718086D01*
X147651140Y-84693046D01*
X147812045Y-84532141D01*
X147812047Y-84532139D01*
X147942568Y-84345734D01*
X148038739Y-84139496D01*
X148097635Y-83919692D01*
X148117468Y-83693000D01*
X148097635Y-83466308D01*
X148038739Y-83246504D01*
X147942568Y-83040266D01*
X147812047Y-82853861D01*
X147812045Y-82853858D01*
X147651141Y-82692954D01*
X147464734Y-82562432D01*
X147464732Y-82562431D01*
X147258497Y-82466261D01*
X147258488Y-82466258D01*
X147038697Y-82407366D01*
X147038693Y-82407365D01*
X147038692Y-82407365D01*
X147038691Y-82407364D01*
X147038686Y-82407364D01*
X146812002Y-82387532D01*
X146811998Y-82387532D01*
X146585313Y-82407364D01*
X146585302Y-82407366D01*
X146365511Y-82466258D01*
X146365502Y-82466261D01*
X146159267Y-82562431D01*
X146159265Y-82562432D01*
X145972858Y-82692954D01*
X145811954Y-82853858D01*
X145681432Y-83040265D01*
X145681431Y-83040267D01*
X145654382Y-83098275D01*
X145608209Y-83150714D01*
X145541016Y-83169866D01*
X145474135Y-83149650D01*
X145429618Y-83098275D01*
X145402686Y-83040520D01*
X145402568Y-83040266D01*
X145272047Y-82853861D01*
X145272045Y-82853858D01*
X145111141Y-82692954D01*
X144924734Y-82562432D01*
X144924732Y-82562431D01*
X144718497Y-82466261D01*
X144718488Y-82466258D01*
X144498697Y-82407366D01*
X144498693Y-82407365D01*
X144498692Y-82407365D01*
X144498691Y-82407364D01*
X144498686Y-82407364D01*
X144272002Y-82387532D01*
X144271998Y-82387532D01*
X144045313Y-82407364D01*
X144045302Y-82407366D01*
X143825511Y-82466258D01*
X143825502Y-82466261D01*
X143619267Y-82562431D01*
X143619265Y-82562432D01*
X143432858Y-82692954D01*
X143271954Y-82853858D01*
X143141432Y-83040265D01*
X143141431Y-83040267D01*
X143114382Y-83098275D01*
X143068209Y-83150714D01*
X143001016Y-83169866D01*
X142934135Y-83149650D01*
X142889618Y-83098275D01*
X142862686Y-83040520D01*
X142862568Y-83040266D01*
X142732047Y-82853861D01*
X142732045Y-82853858D01*
X142571141Y-82692954D01*
X142384734Y-82562432D01*
X142384732Y-82562431D01*
X142178497Y-82466261D01*
X142178488Y-82466258D01*
X141958697Y-82407366D01*
X141958693Y-82407365D01*
X141958692Y-82407365D01*
X141958691Y-82407364D01*
X141958686Y-82407364D01*
X141732002Y-82387532D01*
X141731998Y-82387532D01*
X141505313Y-82407364D01*
X141505302Y-82407366D01*
X141285511Y-82466258D01*
X141285502Y-82466261D01*
X141079267Y-82562431D01*
X141079265Y-82562432D01*
X140892858Y-82692954D01*
X140731954Y-82853858D01*
X140601432Y-83040265D01*
X140601431Y-83040267D01*
X140574382Y-83098275D01*
X140528209Y-83150714D01*
X140461016Y-83169866D01*
X140394135Y-83149650D01*
X140349618Y-83098275D01*
X140322686Y-83040520D01*
X140322568Y-83040266D01*
X140192047Y-82853861D01*
X140192045Y-82853858D01*
X140031141Y-82692954D01*
X139844734Y-82562432D01*
X139844732Y-82562431D01*
X139638497Y-82466261D01*
X139638488Y-82466258D01*
X139418697Y-82407366D01*
X139418693Y-82407365D01*
X139418692Y-82407365D01*
X139418691Y-82407364D01*
X139418686Y-82407364D01*
X139192002Y-82387532D01*
X139191997Y-82387532D01*
X139025137Y-82402129D01*
X138956637Y-82388362D01*
X138926650Y-82366282D01*
X136877421Y-80317052D01*
X136877414Y-80317046D01*
X136803729Y-80267812D01*
X136803729Y-80267813D01*
X136754491Y-80234913D01*
X136617917Y-80178343D01*
X136617907Y-80178340D01*
X136472920Y-80149500D01*
X136472918Y-80149500D01*
X133362230Y-80149500D01*
X133295191Y-80129815D01*
X133274549Y-80113181D01*
X132186819Y-79025451D01*
X132153334Y-78964128D01*
X132150500Y-78937770D01*
X132150500Y-76226079D01*
X132121659Y-76081092D01*
X132121658Y-76081091D01*
X132121658Y-76081087D01*
X132090536Y-76005952D01*
X132065087Y-75944511D01*
X132065080Y-75944498D01*
X132042028Y-75909999D01*
X133944341Y-75909999D01*
X133944341Y-75910000D01*
X133964936Y-76145403D01*
X133964938Y-76145413D01*
X134026094Y-76373655D01*
X134026096Y-76373659D01*
X134026097Y-76373663D01*
X134125965Y-76587830D01*
X134125967Y-76587834D01*
X134234281Y-76742521D01*
X134261501Y-76781396D01*
X134261506Y-76781402D01*
X134383430Y-76903326D01*
X134416915Y-76964649D01*
X134411931Y-77034341D01*
X134370059Y-77090274D01*
X134339083Y-77107189D01*
X134207669Y-77156203D01*
X134207664Y-77156206D01*
X134092455Y-77242452D01*
X134092452Y-77242455D01*
X134006206Y-77357664D01*
X134006202Y-77357671D01*
X133955908Y-77492517D01*
X133949501Y-77552116D01*
X133949501Y-77552123D01*
X133949500Y-77552135D01*
X133949500Y-79347870D01*
X133949501Y-79347876D01*
X133955908Y-79407483D01*
X134006202Y-79542328D01*
X134006206Y-79542335D01*
X134092452Y-79657544D01*
X134092455Y-79657547D01*
X134207664Y-79743793D01*
X134207671Y-79743797D01*
X134342517Y-79794091D01*
X134342516Y-79794091D01*
X134349444Y-79794835D01*
X134402127Y-79800500D01*
X136197872Y-79800499D01*
X136257483Y-79794091D01*
X136392331Y-79743796D01*
X136507546Y-79657546D01*
X136593796Y-79542331D01*
X136644091Y-79407483D01*
X136650500Y-79347873D01*
X136650499Y-77552128D01*
X136644091Y-77492517D01*
X136636591Y-77472409D01*
X136593797Y-77357671D01*
X136593793Y-77357664D01*
X136507547Y-77242455D01*
X136507544Y-77242452D01*
X136392335Y-77156206D01*
X136392328Y-77156202D01*
X136260917Y-77107189D01*
X136204983Y-77065318D01*
X136180566Y-76999853D01*
X136195418Y-76931580D01*
X136216563Y-76903332D01*
X136338495Y-76781401D01*
X136474035Y-76587830D01*
X136573903Y-76373663D01*
X136635063Y-76145408D01*
X136655659Y-75910000D01*
X136654740Y-75899501D01*
X136648017Y-75822659D01*
X136635063Y-75674592D01*
X136573903Y-75446337D01*
X136474035Y-75232171D01*
X136338495Y-75038599D01*
X136338494Y-75038597D01*
X136171402Y-74871506D01*
X136171396Y-74871501D01*
X136034399Y-74775575D01*
X135990774Y-74720998D01*
X135983580Y-74651500D01*
X136015103Y-74589145D01*
X136075333Y-74553731D01*
X136105522Y-74550000D01*
X136197828Y-74550000D01*
X136197844Y-74549999D01*
X136257372Y-74543598D01*
X136257379Y-74543596D01*
X136392086Y-74493354D01*
X136392093Y-74493350D01*
X136507187Y-74407190D01*
X136507190Y-74407187D01*
X136593350Y-74292093D01*
X136593354Y-74292086D01*
X136643596Y-74157379D01*
X136643598Y-74157372D01*
X136649999Y-74097844D01*
X136650000Y-74097827D01*
X136650000Y-73450000D01*
X135733012Y-73450000D01*
X135765925Y-73392993D01*
X135800000Y-73265826D01*
X135800000Y-73134174D01*
X135765925Y-73007007D01*
X135733012Y-72950000D01*
X136650000Y-72950000D01*
X136650000Y-72302172D01*
X136649999Y-72302155D01*
X136643598Y-72242627D01*
X136643596Y-72242620D01*
X136593354Y-72107913D01*
X136593350Y-72107906D01*
X136507190Y-71992812D01*
X136507187Y-71992809D01*
X136392093Y-71906649D01*
X136392086Y-71906645D01*
X136260013Y-71857385D01*
X136204079Y-71815514D01*
X136179662Y-71750049D01*
X136194514Y-71681776D01*
X136215665Y-71653521D01*
X136338108Y-71531078D01*
X136473600Y-71337578D01*
X136573429Y-71123492D01*
X136573432Y-71123486D01*
X136630636Y-70910000D01*
X135733012Y-70910000D01*
X135765925Y-70852993D01*
X135800000Y-70725826D01*
X135800000Y-70594174D01*
X135765925Y-70467007D01*
X135733012Y-70410000D01*
X136630636Y-70410000D01*
X136630635Y-70409999D01*
X136573432Y-70196513D01*
X136573429Y-70196507D01*
X136473600Y-69982422D01*
X136473599Y-69982420D01*
X136338113Y-69788926D01*
X136338108Y-69788920D01*
X136171082Y-69621894D01*
X135977578Y-69486399D01*
X135763492Y-69386570D01*
X135763486Y-69386567D01*
X135550000Y-69329364D01*
X135550000Y-70226988D01*
X135492993Y-70194075D01*
X135365826Y-70160000D01*
X135234174Y-70160000D01*
X135107007Y-70194075D01*
X135050000Y-70226988D01*
X135050000Y-69329364D01*
X135049999Y-69329364D01*
X134836513Y-69386567D01*
X134836507Y-69386570D01*
X134622422Y-69486399D01*
X134622420Y-69486400D01*
X134428926Y-69621886D01*
X134428920Y-69621891D01*
X134261891Y-69788920D01*
X134261886Y-69788926D01*
X134126400Y-69982420D01*
X134126399Y-69982422D01*
X134026570Y-70196507D01*
X134026567Y-70196513D01*
X133969364Y-70409999D01*
X133969364Y-70410000D01*
X134866988Y-70410000D01*
X134834075Y-70467007D01*
X134800000Y-70594174D01*
X134800000Y-70725826D01*
X134834075Y-70852993D01*
X134866988Y-70910000D01*
X133969364Y-70910000D01*
X134026567Y-71123486D01*
X134026570Y-71123492D01*
X134126399Y-71337578D01*
X134261894Y-71531082D01*
X134384334Y-71653522D01*
X134417819Y-71714845D01*
X134412835Y-71784537D01*
X134370963Y-71840470D01*
X134339987Y-71857385D01*
X134207911Y-71906646D01*
X134207906Y-71906649D01*
X134092812Y-71992809D01*
X134092809Y-71992812D01*
X134006649Y-72107906D01*
X134006645Y-72107913D01*
X133956403Y-72242620D01*
X133956401Y-72242627D01*
X133950000Y-72302155D01*
X133950000Y-72950000D01*
X134866988Y-72950000D01*
X134834075Y-73007007D01*
X134800000Y-73134174D01*
X134800000Y-73265826D01*
X134834075Y-73392993D01*
X134866988Y-73450000D01*
X133950000Y-73450000D01*
X133950000Y-74097844D01*
X133956401Y-74157372D01*
X133956403Y-74157379D01*
X134006645Y-74292086D01*
X134006649Y-74292093D01*
X134092809Y-74407187D01*
X134092812Y-74407190D01*
X134207906Y-74493350D01*
X134207913Y-74493354D01*
X134342620Y-74543596D01*
X134342627Y-74543598D01*
X134402155Y-74549999D01*
X134402172Y-74550000D01*
X134494478Y-74550000D01*
X134561517Y-74569685D01*
X134607272Y-74622489D01*
X134617216Y-74691647D01*
X134588191Y-74755203D01*
X134565601Y-74775575D01*
X134428597Y-74871505D01*
X134261505Y-75038597D01*
X134125965Y-75232169D01*
X134125964Y-75232171D01*
X134026098Y-75446335D01*
X134026094Y-75446344D01*
X133964938Y-75674586D01*
X133964936Y-75674596D01*
X133944341Y-75909999D01*
X132042028Y-75909999D01*
X131982952Y-75821585D01*
X131982951Y-75821584D01*
X131878416Y-75717049D01*
X130783856Y-74622489D01*
X129623548Y-73462180D01*
X129590063Y-73400857D01*
X129595047Y-73331165D01*
X129636919Y-73275232D01*
X129702383Y-73250815D01*
X129711229Y-73250499D01*
X130500002Y-73250499D01*
X130500008Y-73250499D01*
X130602797Y-73239999D01*
X130769334Y-73184814D01*
X130918656Y-73092712D01*
X131042712Y-72968656D01*
X131134814Y-72819334D01*
X131189999Y-72652797D01*
X131200500Y-72550009D01*
X131200499Y-70949992D01*
X131189999Y-70847203D01*
X131134814Y-70680666D01*
X131042712Y-70531344D01*
X130918656Y-70407288D01*
X130769334Y-70315186D01*
X130602797Y-70260001D01*
X130602795Y-70260000D01*
X130500010Y-70249500D01*
X129199998Y-70249500D01*
X129199981Y-70249501D01*
X129097203Y-70260000D01*
X129097200Y-70260001D01*
X128930668Y-70315185D01*
X128930663Y-70315187D01*
X128781342Y-70407289D01*
X128657289Y-70531342D01*
X128561821Y-70686121D01*
X128509873Y-70732845D01*
X128440910Y-70744068D01*
X128376828Y-70716224D01*
X128368601Y-70708705D01*
X128229786Y-70569890D01*
X128057820Y-70444951D01*
X127868414Y-70348444D01*
X127868413Y-70348443D01*
X127868412Y-70348443D01*
X127666243Y-70282754D01*
X127666241Y-70282753D01*
X127666240Y-70282753D01*
X127504957Y-70257208D01*
X127456287Y-70249500D01*
X127243713Y-70249500D01*
X127195042Y-70257208D01*
X127033760Y-70282753D01*
X126831585Y-70348444D01*
X126642179Y-70444951D01*
X126470213Y-70569890D01*
X126319890Y-70720213D01*
X126194951Y-70892179D01*
X126098444Y-71081585D01*
X126032753Y-71283760D01*
X125999500Y-71493713D01*
X125999500Y-72006287D01*
X126032754Y-72216243D01*
X126041324Y-72242620D01*
X126098444Y-72418414D01*
X126124323Y-72469205D01*
X126137219Y-72537875D01*
X126110942Y-72602615D01*
X126053836Y-72642872D01*
X126013838Y-72649500D01*
X121599972Y-72649500D01*
X121559017Y-72642542D01*
X121479254Y-72614631D01*
X121479249Y-72614630D01*
X121300004Y-72594435D01*
X121299996Y-72594435D01*
X121120750Y-72614630D01*
X121120745Y-72614631D01*
X120950476Y-72674211D01*
X120797737Y-72770184D01*
X120670184Y-72897737D01*
X120574211Y-73050476D01*
X120514631Y-73220745D01*
X120514630Y-73220750D01*
X120494435Y-73399996D01*
X120494435Y-73400003D01*
X120514630Y-73579249D01*
X120514631Y-73579254D01*
X120574211Y-73749523D01*
X120670184Y-73902262D01*
X120797738Y-74029816D01*
X120950478Y-74125789D01*
X121120745Y-74185368D01*
X121120750Y-74185369D01*
X121299996Y-74205565D01*
X121300000Y-74205565D01*
X121300004Y-74205565D01*
X121479249Y-74185369D01*
X121479252Y-74185368D01*
X121479255Y-74185368D01*
X121559017Y-74157457D01*
X121599972Y-74150500D01*
X128137770Y-74150500D01*
X128204809Y-74170185D01*
X128225451Y-74186819D01*
X129730276Y-75691644D01*
X129763761Y-75752967D01*
X129758777Y-75822659D01*
X129716905Y-75878592D01*
X129651441Y-75903009D01*
X129629346Y-75902615D01*
X129600373Y-75899500D01*
X129600365Y-75899500D01*
X127599629Y-75899500D01*
X127599623Y-75899501D01*
X127540016Y-75905908D01*
X127405171Y-75956202D01*
X127405164Y-75956206D01*
X127289955Y-76042452D01*
X127289952Y-76042455D01*
X127203706Y-76157664D01*
X127203703Y-76157670D01*
X127193308Y-76185541D01*
X127151436Y-76241474D01*
X127085972Y-76265891D01*
X127017699Y-76251039D01*
X127004250Y-76242531D01*
X126821538Y-76109783D01*
X126765209Y-76081082D01*
X126617755Y-76005950D01*
X126400248Y-75935278D01*
X126214812Y-75905908D01*
X126174354Y-75899500D01*
X125945646Y-75899500D01*
X125905188Y-75905908D01*
X125719753Y-75935278D01*
X125719750Y-75935278D01*
X125502244Y-76005950D01*
X125298461Y-76109783D01*
X125232551Y-76157670D01*
X125113434Y-76244214D01*
X125113432Y-76244216D01*
X125113431Y-76244216D01*
X124951716Y-76405931D01*
X124951709Y-76405940D01*
X124890007Y-76490864D01*
X124834677Y-76533530D01*
X124765063Y-76539508D01*
X124703269Y-76506901D01*
X124689372Y-76490863D01*
X124627907Y-76406263D01*
X124627902Y-76406257D01*
X124466242Y-76244597D01*
X124281276Y-76110211D01*
X124077568Y-76006417D01*
X123860124Y-75935765D01*
X123770000Y-75921490D01*
X123770000Y-76909252D01*
X123732292Y-76887482D01*
X123592409Y-76850000D01*
X123447591Y-76850000D01*
X123307708Y-76887482D01*
X123270000Y-76909252D01*
X123270000Y-75921490D01*
X123269999Y-75921490D01*
X123179875Y-75935765D01*
X122962431Y-76006417D01*
X122758723Y-76110211D01*
X122573757Y-76244597D01*
X122412097Y-76406257D01*
X122277711Y-76591223D01*
X122173917Y-76794929D01*
X122103265Y-77012371D01*
X122081468Y-77150000D01*
X123029252Y-77150000D01*
X123007482Y-77187708D01*
X122970000Y-77327591D01*
X122970000Y-77472409D01*
X123007482Y-77612292D01*
X123029252Y-77650000D01*
X122081468Y-77650000D01*
X122103265Y-77787628D01*
X122173917Y-78005070D01*
X122277711Y-78208776D01*
X122412097Y-78393742D01*
X122573757Y-78555402D01*
X122758723Y-78689788D01*
X122962429Y-78793582D01*
X123179871Y-78864234D01*
X123270000Y-78878509D01*
X123270000Y-77890747D01*
X123307708Y-77912518D01*
X123447591Y-77950000D01*
X123592409Y-77950000D01*
X123732292Y-77912518D01*
X123770000Y-77890747D01*
X123770000Y-78878508D01*
X123860128Y-78864234D01*
X124077570Y-78793582D01*
X124281276Y-78689788D01*
X124466242Y-78555402D01*
X124627905Y-78393739D01*
X124689371Y-78309137D01*
X124744701Y-78266470D01*
X124814314Y-78260491D01*
X124876109Y-78293096D01*
X124890007Y-78309134D01*
X124951714Y-78394066D01*
X125113434Y-78555786D01*
X125298462Y-78690217D01*
X125430599Y-78757544D01*
X125502244Y-78794049D01*
X125719751Y-78864721D01*
X125719752Y-78864721D01*
X125719755Y-78864722D01*
X125945646Y-78900500D01*
X125945647Y-78900500D01*
X126174353Y-78900500D01*
X126174354Y-78900500D01*
X126400245Y-78864722D01*
X126400248Y-78864721D01*
X126400249Y-78864721D01*
X126617755Y-78794049D01*
X126617755Y-78794048D01*
X126617758Y-78794048D01*
X126821538Y-78690217D01*
X127004245Y-78557472D01*
X127070046Y-78533994D01*
X127138100Y-78549819D01*
X127186795Y-78599924D01*
X127193308Y-78614459D01*
X127203702Y-78642328D01*
X127203706Y-78642335D01*
X127289952Y-78757544D01*
X127289955Y-78757547D01*
X127405164Y-78843793D01*
X127405171Y-78843797D01*
X127540017Y-78894091D01*
X127540016Y-78894091D01*
X127546944Y-78894835D01*
X127599627Y-78900500D01*
X129600372Y-78900499D01*
X129659983Y-78894091D01*
X129794831Y-78843796D01*
X129910046Y-78757546D01*
X129996296Y-78642331D01*
X130046591Y-78507483D01*
X130053000Y-78447873D01*
X130052999Y-76352128D01*
X130052998Y-76352126D01*
X130052998Y-76352114D01*
X130049885Y-76323161D01*
X130062289Y-76254401D01*
X130109899Y-76203263D01*
X130177598Y-76185983D01*
X130243893Y-76208047D01*
X130260855Y-76222223D01*
X130613181Y-76574548D01*
X130646666Y-76635871D01*
X130649500Y-76662229D01*
X130649500Y-79373918D01*
X130649500Y-79373920D01*
X130649499Y-79373920D01*
X130678340Y-79518907D01*
X130678343Y-79518917D01*
X130734914Y-79655492D01*
X130767812Y-79704727D01*
X130767813Y-79704730D01*
X130817046Y-79778414D01*
X130817052Y-79778421D01*
X132521584Y-81482952D01*
X132521586Y-81482954D01*
X132551058Y-81502645D01*
X132595268Y-81532184D01*
X132595270Y-81532187D01*
X132595271Y-81532187D01*
X132644496Y-81565079D01*
X132644511Y-81565087D01*
X132701079Y-81588518D01*
X132701080Y-81588518D01*
X132781088Y-81621659D01*
X132897241Y-81644763D01*
X132916468Y-81648587D01*
X132926081Y-81650500D01*
X132926082Y-81650500D01*
X132926083Y-81650500D01*
X133073918Y-81650500D01*
X136036770Y-81650500D01*
X136103809Y-81670185D01*
X136124451Y-81686819D01*
X136623200Y-82185568D01*
X136656685Y-82246891D01*
X136651701Y-82316583D01*
X136609829Y-82372516D01*
X136546327Y-82396777D01*
X136425312Y-82407364D01*
X136425302Y-82407366D01*
X136205511Y-82466258D01*
X136205502Y-82466261D01*
X135999267Y-82562431D01*
X135999265Y-82562432D01*
X135812858Y-82692954D01*
X135651954Y-82853858D01*
X135521432Y-83040265D01*
X135521431Y-83040267D01*
X135494382Y-83098275D01*
X135448209Y-83150714D01*
X135381016Y-83169866D01*
X135314135Y-83149650D01*
X135269618Y-83098275D01*
X135242686Y-83040520D01*
X135242568Y-83040266D01*
X135112047Y-82853861D01*
X135112045Y-82853858D01*
X134951141Y-82692954D01*
X134764734Y-82562432D01*
X134764732Y-82562431D01*
X134558497Y-82466261D01*
X134558488Y-82466258D01*
X134338697Y-82407366D01*
X134338693Y-82407365D01*
X134338692Y-82407365D01*
X134338691Y-82407364D01*
X134338686Y-82407364D01*
X134112002Y-82387532D01*
X134111998Y-82387532D01*
X133885313Y-82407364D01*
X133885302Y-82407366D01*
X133665511Y-82466258D01*
X133665502Y-82466261D01*
X133459267Y-82562431D01*
X133459265Y-82562432D01*
X133272858Y-82692954D01*
X133111954Y-82853858D01*
X132981432Y-83040265D01*
X132981431Y-83040267D01*
X132954382Y-83098275D01*
X132908209Y-83150714D01*
X132841016Y-83169866D01*
X132774135Y-83149650D01*
X132729618Y-83098275D01*
X132702686Y-83040520D01*
X132702568Y-83040266D01*
X132572047Y-82853861D01*
X132572045Y-82853858D01*
X132411141Y-82692954D01*
X132224734Y-82562432D01*
X132224732Y-82562431D01*
X132018497Y-82466261D01*
X132018488Y-82466258D01*
X131798697Y-82407366D01*
X131798693Y-82407365D01*
X131798692Y-82407365D01*
X131798691Y-82407364D01*
X131798686Y-82407364D01*
X131572002Y-82387532D01*
X131571998Y-82387532D01*
X131345313Y-82407364D01*
X131345302Y-82407366D01*
X131125511Y-82466258D01*
X131125502Y-82466261D01*
X130919267Y-82562431D01*
X130919265Y-82562432D01*
X130732858Y-82692954D01*
X130571954Y-82853858D01*
X130441432Y-83040265D01*
X130441431Y-83040267D01*
X130414382Y-83098275D01*
X130368209Y-83150714D01*
X130301016Y-83169866D01*
X130234135Y-83149650D01*
X130189618Y-83098275D01*
X130162686Y-83040520D01*
X130162568Y-83040266D01*
X130032047Y-82853861D01*
X130032045Y-82853858D01*
X129871141Y-82692954D01*
X129684734Y-82562432D01*
X129684732Y-82562431D01*
X129478497Y-82466261D01*
X129478488Y-82466258D01*
X129258697Y-82407366D01*
X129258693Y-82407365D01*
X129258692Y-82407365D01*
X129258691Y-82407364D01*
X129258686Y-82407364D01*
X129032002Y-82387532D01*
X129031998Y-82387532D01*
X128805313Y-82407364D01*
X128805302Y-82407366D01*
X128585511Y-82466258D01*
X128585502Y-82466261D01*
X128379267Y-82562431D01*
X128379265Y-82562432D01*
X128192858Y-82692954D01*
X128031954Y-82853858D01*
X127901432Y-83040265D01*
X127901431Y-83040267D01*
X127874382Y-83098275D01*
X127828209Y-83150714D01*
X127761016Y-83169866D01*
X127694135Y-83149650D01*
X127649618Y-83098275D01*
X127622686Y-83040520D01*
X127622568Y-83040266D01*
X127492047Y-82853861D01*
X127492045Y-82853858D01*
X127331141Y-82692954D01*
X127144734Y-82562432D01*
X127144732Y-82562431D01*
X126938497Y-82466261D01*
X126938488Y-82466258D01*
X126718697Y-82407366D01*
X126718693Y-82407365D01*
X126718692Y-82407365D01*
X126718691Y-82407364D01*
X126718686Y-82407364D01*
X126492002Y-82387532D01*
X126491998Y-82387532D01*
X126265313Y-82407364D01*
X126265302Y-82407366D01*
X126045511Y-82466258D01*
X126045502Y-82466261D01*
X125839267Y-82562431D01*
X125839265Y-82562432D01*
X125652858Y-82692954D01*
X125491954Y-82853858D01*
X125361432Y-83040265D01*
X125361431Y-83040267D01*
X125334382Y-83098275D01*
X125288209Y-83150714D01*
X125221016Y-83169866D01*
X125154135Y-83149650D01*
X125109618Y-83098275D01*
X125082686Y-83040520D01*
X125082568Y-83040266D01*
X124952047Y-82853861D01*
X124952045Y-82853858D01*
X124791141Y-82692954D01*
X124604734Y-82562432D01*
X124604732Y-82562431D01*
X124398497Y-82466261D01*
X124398488Y-82466258D01*
X124178697Y-82407366D01*
X124178693Y-82407365D01*
X124178692Y-82407365D01*
X124178691Y-82407364D01*
X124178686Y-82407364D01*
X123952002Y-82387532D01*
X123951998Y-82387532D01*
X123725313Y-82407364D01*
X123725302Y-82407366D01*
X123505511Y-82466258D01*
X123505502Y-82466261D01*
X123299267Y-82562431D01*
X123299265Y-82562432D01*
X123112858Y-82692954D01*
X122951954Y-82853858D01*
X122821432Y-83040265D01*
X122821431Y-83040267D01*
X122794382Y-83098275D01*
X122748209Y-83150714D01*
X122681016Y-83169866D01*
X122614135Y-83149650D01*
X122569618Y-83098275D01*
X122542686Y-83040520D01*
X122542568Y-83040266D01*
X122412047Y-82853861D01*
X122412045Y-82853858D01*
X122251141Y-82692954D01*
X122064734Y-82562432D01*
X122064732Y-82562431D01*
X121858497Y-82466261D01*
X121858488Y-82466258D01*
X121638697Y-82407366D01*
X121638693Y-82407365D01*
X121638692Y-82407365D01*
X121638691Y-82407364D01*
X121638686Y-82407364D01*
X121412002Y-82387532D01*
X121411998Y-82387532D01*
X121185313Y-82407364D01*
X121185302Y-82407366D01*
X120965511Y-82466258D01*
X120965502Y-82466261D01*
X120759267Y-82562431D01*
X120759265Y-82562432D01*
X120572858Y-82692954D01*
X120411954Y-82853858D01*
X120281432Y-83040265D01*
X120281431Y-83040267D01*
X120254382Y-83098275D01*
X120208209Y-83150714D01*
X120141016Y-83169866D01*
X120074135Y-83149650D01*
X120029618Y-83098275D01*
X120002686Y-83040520D01*
X120002568Y-83040266D01*
X119872047Y-82853861D01*
X119872045Y-82853858D01*
X119711141Y-82692954D01*
X119524734Y-82562432D01*
X119524732Y-82562431D01*
X119318497Y-82466261D01*
X119318488Y-82466258D01*
X119098697Y-82407366D01*
X119098693Y-82407365D01*
X119098692Y-82407365D01*
X119098691Y-82407364D01*
X119098686Y-82407364D01*
X118872002Y-82387532D01*
X118871998Y-82387532D01*
X118645313Y-82407364D01*
X118645302Y-82407366D01*
X118425511Y-82466258D01*
X118425502Y-82466261D01*
X118219267Y-82562431D01*
X118219265Y-82562432D01*
X118032858Y-82692954D01*
X117871954Y-82853858D01*
X117741432Y-83040265D01*
X117741431Y-83040267D01*
X117714382Y-83098275D01*
X117668209Y-83150714D01*
X117601016Y-83169866D01*
X117534135Y-83149650D01*
X117489618Y-83098275D01*
X117462686Y-83040520D01*
X117462568Y-83040266D01*
X117332047Y-82853861D01*
X117332045Y-82853858D01*
X117171141Y-82692954D01*
X116984734Y-82562432D01*
X116984732Y-82562431D01*
X116778497Y-82466261D01*
X116778488Y-82466258D01*
X116558697Y-82407366D01*
X116558693Y-82407365D01*
X116558692Y-82407365D01*
X116558691Y-82407364D01*
X116558686Y-82407364D01*
X116332002Y-82387532D01*
X116331998Y-82387532D01*
X116105313Y-82407364D01*
X116105302Y-82407366D01*
X115885511Y-82466258D01*
X115885502Y-82466261D01*
X115679267Y-82562431D01*
X115679265Y-82562432D01*
X115492858Y-82692954D01*
X115331954Y-82853858D01*
X115201433Y-83040264D01*
X115201432Y-83040266D01*
X115201315Y-83040518D01*
X115174106Y-83098867D01*
X115127933Y-83151306D01*
X115060739Y-83170457D01*
X114993858Y-83150241D01*
X114949342Y-83098865D01*
X114922135Y-83040520D01*
X114922134Y-83040518D01*
X114791657Y-82854179D01*
X114630820Y-82693342D01*
X114444482Y-82562865D01*
X114238326Y-82466734D01*
X114238317Y-82466730D01*
X114018610Y-82407860D01*
X114018600Y-82407858D01*
X113897210Y-82397238D01*
X113832142Y-82371785D01*
X113791163Y-82315194D01*
X113787285Y-82245432D01*
X113820333Y-82186034D01*
X114119551Y-81886816D01*
X114180872Y-81853334D01*
X114207230Y-81850500D01*
X128500028Y-81850500D01*
X128540983Y-81857458D01*
X128620745Y-81885368D01*
X128620750Y-81885369D01*
X128799996Y-81905565D01*
X128800000Y-81905565D01*
X128800004Y-81905565D01*
X128979249Y-81885369D01*
X128979252Y-81885368D01*
X128979255Y-81885368D01*
X129149522Y-81825789D01*
X129302262Y-81729816D01*
X129429816Y-81602262D01*
X129525789Y-81449522D01*
X129585368Y-81279255D01*
X129605565Y-81100000D01*
X129585368Y-80920745D01*
X129525789Y-80750478D01*
X129429816Y-80597738D01*
X129302262Y-80470184D01*
X129298489Y-80467813D01*
X129149523Y-80374211D01*
X128979254Y-80314631D01*
X128979249Y-80314630D01*
X128800004Y-80294435D01*
X128799996Y-80294435D01*
X128620750Y-80314630D01*
X128620745Y-80314631D01*
X128540983Y-80342542D01*
X128500028Y-80349500D01*
X113771080Y-80349500D01*
X113626092Y-80378340D01*
X113626086Y-80378342D01*
X113489508Y-80434914D01*
X113489496Y-80434921D01*
X113440269Y-80467813D01*
X113366588Y-80517044D01*
X113366580Y-80517050D01*
X111517348Y-82366282D01*
X111456025Y-82399767D01*
X111418861Y-82402129D01*
X111252003Y-82387532D01*
X111251998Y-82387532D01*
X111025313Y-82407364D01*
X111025302Y-82407366D01*
X110805511Y-82466258D01*
X110805502Y-82466261D01*
X110599267Y-82562431D01*
X110599265Y-82562432D01*
X110412858Y-82692954D01*
X110251954Y-82853858D01*
X110121432Y-83040265D01*
X110121431Y-83040267D01*
X110025261Y-83246502D01*
X110025258Y-83246511D01*
X109966366Y-83466302D01*
X109966364Y-83466313D01*
X109946532Y-83692998D01*
X107615427Y-83692998D01*
X107621766Y-64878711D01*
X108549500Y-64878711D01*
X108549500Y-65121288D01*
X108581161Y-65361785D01*
X108643947Y-65596104D01*
X108736773Y-65820205D01*
X108736776Y-65820212D01*
X108858064Y-66030289D01*
X108858066Y-66030292D01*
X108858067Y-66030293D01*
X109005733Y-66222736D01*
X109005739Y-66222743D01*
X109177256Y-66394260D01*
X109177262Y-66394265D01*
X109369711Y-66541936D01*
X109579788Y-66663224D01*
X109803900Y-66756054D01*
X110038211Y-66818838D01*
X110218586Y-66842584D01*
X110278711Y-66850500D01*
X110278712Y-66850500D01*
X110521289Y-66850500D01*
X110569388Y-66844167D01*
X110761789Y-66818838D01*
X110996100Y-66756054D01*
X111220212Y-66663224D01*
X111430289Y-66541936D01*
X111622738Y-66394265D01*
X111794265Y-66222738D01*
X111941936Y-66030289D01*
X112063224Y-65820212D01*
X112156054Y-65596100D01*
X112218838Y-65361789D01*
X112250500Y-65121288D01*
X112250500Y-64878712D01*
X112250500Y-64878711D01*
X145749500Y-64878711D01*
X145749500Y-65121288D01*
X145781161Y-65361785D01*
X145843947Y-65596104D01*
X145936773Y-65820205D01*
X145936776Y-65820212D01*
X146058064Y-66030289D01*
X146058066Y-66030292D01*
X146058067Y-66030293D01*
X146205733Y-66222736D01*
X146205739Y-66222743D01*
X146377256Y-66394260D01*
X146377262Y-66394265D01*
X146569711Y-66541936D01*
X146779788Y-66663224D01*
X147003900Y-66756054D01*
X147238211Y-66818838D01*
X147418586Y-66842584D01*
X147478711Y-66850500D01*
X147478712Y-66850500D01*
X147721289Y-66850500D01*
X147769388Y-66844167D01*
X147961789Y-66818838D01*
X148196100Y-66756054D01*
X148420212Y-66663224D01*
X148630289Y-66541936D01*
X148822738Y-66394265D01*
X148994265Y-66222738D01*
X149141936Y-66030289D01*
X149263224Y-65820212D01*
X149356054Y-65596100D01*
X149418838Y-65361789D01*
X149450500Y-65121288D01*
X149450500Y-64878712D01*
X149418838Y-64638211D01*
X149356054Y-64403900D01*
X149263224Y-64179788D01*
X149141936Y-63969711D01*
X148994265Y-63777262D01*
X148994260Y-63777256D01*
X148822743Y-63605739D01*
X148822736Y-63605733D01*
X148630293Y-63458067D01*
X148630292Y-63458066D01*
X148630289Y-63458064D01*
X148420212Y-63336776D01*
X148420205Y-63336773D01*
X148196104Y-63243947D01*
X147961785Y-63181161D01*
X147721289Y-63149500D01*
X147721288Y-63149500D01*
X147478712Y-63149500D01*
X147478711Y-63149500D01*
X147238214Y-63181161D01*
X147003895Y-63243947D01*
X146779794Y-63336773D01*
X146779785Y-63336777D01*
X146569706Y-63458067D01*
X146377263Y-63605733D01*
X146377256Y-63605739D01*
X146205739Y-63777256D01*
X146205733Y-63777263D01*
X146058067Y-63969706D01*
X145936777Y-64179785D01*
X145936773Y-64179794D01*
X145843947Y-64403895D01*
X145781161Y-64638214D01*
X145749500Y-64878711D01*
X112250500Y-64878711D01*
X112218838Y-64638211D01*
X112156054Y-64403900D01*
X112063224Y-64179788D01*
X111941936Y-63969711D01*
X111794265Y-63777262D01*
X111794260Y-63777256D01*
X111622743Y-63605739D01*
X111622736Y-63605733D01*
X111430293Y-63458067D01*
X111430292Y-63458066D01*
X111430289Y-63458064D01*
X111220212Y-63336776D01*
X111220205Y-63336773D01*
X110996104Y-63243947D01*
X110761785Y-63181161D01*
X110521289Y-63149500D01*
X110521288Y-63149500D01*
X110278712Y-63149500D01*
X110278711Y-63149500D01*
X110038214Y-63181161D01*
X109803895Y-63243947D01*
X109579794Y-63336773D01*
X109579785Y-63336777D01*
X109369706Y-63458067D01*
X109177263Y-63605733D01*
X109177256Y-63605739D01*
X109005739Y-63777256D01*
X109005733Y-63777263D01*
X108858067Y-63969706D01*
X108736777Y-64179785D01*
X108736773Y-64179794D01*
X108643947Y-64403895D01*
X108581161Y-64638214D01*
X108549500Y-64878711D01*
X107621766Y-64878711D01*
X107621794Y-64795717D01*
X107621820Y-64795323D01*
X107621820Y-64787212D01*
X107621821Y-64787209D01*
X107621820Y-64725065D01*
X107622046Y-64717579D01*
X107626846Y-64638211D01*
X107639589Y-64427515D01*
X107641394Y-64412655D01*
X107642999Y-64403900D01*
X107693096Y-64130520D01*
X107696678Y-64115988D01*
X107782011Y-63842140D01*
X107787321Y-63828139D01*
X107810219Y-63777262D01*
X107905042Y-63566570D01*
X107911993Y-63553325D01*
X108060394Y-63307841D01*
X108068881Y-63295545D01*
X108245795Y-63069731D01*
X108255710Y-63058540D01*
X108458540Y-62855710D01*
X108469731Y-62845795D01*
X108695545Y-62668881D01*
X108707841Y-62660394D01*
X108953325Y-62511993D01*
X108966570Y-62505042D01*
X109228143Y-62387319D01*
X109242136Y-62382012D01*
X109515995Y-62296676D01*
X109530520Y-62293096D01*
X109812661Y-62241393D01*
X109827515Y-62239589D01*
X110117581Y-62222045D01*
X110125065Y-62221820D01*
X110187209Y-62221821D01*
X110187213Y-62221820D01*
X147812787Y-62221820D01*
X147812791Y-62221821D01*
G37*
%TD.AperFunction*%
%TD*%
M02*
