%TF.GenerationSoftware,KiCad,Pcbnew,8.0.5*%
%TF.CreationDate,2024-11-28T22:16:39+01:00*%
%TF.ProjectId,hotendheater,686f7465-6e64-4686-9561-7465722e6b69,rev?*%
%TF.SameCoordinates,Original*%
%TF.FileFunction,Soldermask,Top*%
%TF.FilePolarity,Negative*%
%FSLAX46Y46*%
G04 Gerber Fmt 4.6, Leading zero omitted, Abs format (unit mm)*
G04 Created by KiCad (PCBNEW 8.0.5) date 2024-11-28 22:16:39*
%MOMM*%
%LPD*%
G01*
G04 APERTURE LIST*
G04 Aperture macros list*
%AMRoundRect*
0 Rectangle with rounded corners*
0 $1 Rounding radius*
0 $2 $3 $4 $5 $6 $7 $8 $9 X,Y pos of 4 corners*
0 Add a 4 corners polygon primitive as box body*
4,1,4,$2,$3,$4,$5,$6,$7,$8,$9,$2,$3,0*
0 Add four circle primitives for the rounded corners*
1,1,$1+$1,$2,$3*
1,1,$1+$1,$4,$5*
1,1,$1+$1,$6,$7*
1,1,$1+$1,$8,$9*
0 Add four rect primitives between the rounded corners*
20,1,$1+$1,$2,$3,$4,$5,0*
20,1,$1+$1,$4,$5,$6,$7,0*
20,1,$1+$1,$6,$7,$8,$9,0*
20,1,$1+$1,$8,$9,$2,$3,0*%
G04 Aperture macros list end*
%ADD10C,3.200000*%
%ADD11R,1.700000X1.700000*%
%ADD12O,1.700000X1.700000*%
%ADD13RoundRect,0.250000X0.450000X-0.262500X0.450000X0.262500X-0.450000X0.262500X-0.450000X-0.262500X0*%
%ADD14R,1.905000X2.000000*%
%ADD15O,1.905000X2.000000*%
%ADD16RoundRect,0.150000X-0.150000X-0.700000X0.150000X-0.700000X0.150000X0.700000X-0.150000X0.700000X0*%
%ADD17RoundRect,0.250000X-0.250000X-1.150000X0.250000X-1.150000X0.250000X1.150000X-0.250000X1.150000X0*%
%ADD18C,1.200000*%
%ADD19RoundRect,0.250000X0.600000X0.750000X-0.600000X0.750000X-0.600000X-0.750000X0.600000X-0.750000X0*%
%ADD20O,1.700000X2.000000*%
%ADD21R,1.600000X1.600000*%
%ADD22O,1.600000X1.600000*%
G04 APERTURE END LIST*
D10*
%TO.C,H4*%
X147600000Y-121800000D03*
%TD*%
%TO.C,H3*%
X147600000Y-65000000D03*
%TD*%
%TO.C,H2*%
X110400000Y-121600000D03*
%TD*%
%TO.C,H1*%
X110400000Y-65000000D03*
%TD*%
D11*
%TO.C,J5*%
X140500000Y-72540000D03*
D12*
X140500000Y-70000000D03*
%TD*%
D11*
%TO.C,J4*%
X140500000Y-77790000D03*
D12*
X140500000Y-75250000D03*
%TD*%
D13*
%TO.C,R2*%
X119000000Y-78825000D03*
X119000000Y-77000000D03*
%TD*%
%TO.C,R1*%
X123500000Y-78825000D03*
X123500000Y-77000000D03*
%TD*%
D14*
%TO.C,Q1*%
X129420000Y-78500000D03*
D15*
X131960000Y-78500000D03*
X134500000Y-78500000D03*
%TD*%
D11*
%TO.C,J3*%
X121340000Y-104000000D03*
D12*
X123880000Y-104000000D03*
X126420000Y-104000000D03*
X128960000Y-104000000D03*
X131500000Y-104000000D03*
X134040000Y-104000000D03*
X136580000Y-104000000D03*
X139120000Y-104000000D03*
%TD*%
D16*
%TO.C,J2*%
X120400000Y-71850000D03*
X121650000Y-71850000D03*
D17*
X118550000Y-68500000D03*
X123500000Y-68500000D03*
%TD*%
D18*
%TO.C,J1*%
X136100000Y-68500000D03*
D19*
X134500000Y-70500000D03*
D20*
X132000000Y-70500000D03*
%TD*%
D21*
%TO.C,A1*%
X111252000Y-98933000D03*
D22*
X113792000Y-98933000D03*
X116332000Y-98933000D03*
X118872000Y-98933000D03*
X121412000Y-98933000D03*
X123952000Y-98933000D03*
X126492000Y-98933000D03*
X129032000Y-98933000D03*
X131572000Y-98933000D03*
X134112000Y-98933000D03*
X136652000Y-98933000D03*
X139192000Y-98933000D03*
X141732000Y-98933000D03*
X144272000Y-98933000D03*
X146812000Y-98933000D03*
X146812000Y-83693000D03*
X144272000Y-83693000D03*
X141732000Y-83693000D03*
X139192000Y-83693000D03*
X136652000Y-83693000D03*
X134112000Y-83693000D03*
X131572000Y-83693000D03*
X129032000Y-83693000D03*
X126492000Y-83693000D03*
X123952000Y-83693000D03*
X121412000Y-83693000D03*
X118872000Y-83693000D03*
X116332000Y-83693000D03*
X113792000Y-83693000D03*
X111252000Y-83693000D03*
%TD*%
M02*
