%TF.GenerationSoftware,KiCad,Pcbnew,8.0.5*%
%TF.CreationDate,2024-11-28T22:16:39+01:00*%
%TF.ProjectId,hotendheater,686f7465-6e64-4686-9561-7465722e6b69,rev?*%
%TF.SameCoordinates,Original*%
%TF.FileFunction,Legend,Top*%
%TF.FilePolarity,Positive*%
%FSLAX46Y46*%
G04 Gerber Fmt 4.6, Leading zero omitted, Abs format (unit mm)*
G04 Created by KiCad (PCBNEW 8.0.5) date 2024-11-28 22:16:39*
%MOMM*%
%LPD*%
G01*
G04 APERTURE LIST*
%ADD10C,0.350000*%
%ADD11C,0.150000*%
%ADD12C,0.300000*%
%ADD13C,0.200000*%
%ADD14C,0.120000*%
G04 APERTURE END LIST*
D10*
X118668358Y-120375847D02*
X120096929Y-120375847D01*
X119382643Y-122875847D02*
X119382643Y-120375847D01*
X120930263Y-122875847D02*
X120930263Y-120375847D01*
X122001691Y-122875847D02*
X122001691Y-121566323D01*
X122001691Y-121566323D02*
X121882644Y-121328228D01*
X121882644Y-121328228D02*
X121644548Y-121209180D01*
X121644548Y-121209180D02*
X121287405Y-121209180D01*
X121287405Y-121209180D02*
X121049310Y-121328228D01*
X121049310Y-121328228D02*
X120930263Y-121447276D01*
X124144549Y-122756800D02*
X123906453Y-122875847D01*
X123906453Y-122875847D02*
X123430263Y-122875847D01*
X123430263Y-122875847D02*
X123192168Y-122756800D01*
X123192168Y-122756800D02*
X123073120Y-122518704D01*
X123073120Y-122518704D02*
X123073120Y-121566323D01*
X123073120Y-121566323D02*
X123192168Y-121328228D01*
X123192168Y-121328228D02*
X123430263Y-121209180D01*
X123430263Y-121209180D02*
X123906453Y-121209180D01*
X123906453Y-121209180D02*
X124144549Y-121328228D01*
X124144549Y-121328228D02*
X124263596Y-121566323D01*
X124263596Y-121566323D02*
X124263596Y-121804419D01*
X124263596Y-121804419D02*
X123073120Y-122042514D01*
X127239787Y-122875847D02*
X127239787Y-120375847D01*
X127239787Y-120375847D02*
X128668358Y-122875847D01*
X128668358Y-122875847D02*
X128668358Y-120375847D01*
X130930263Y-121209180D02*
X130930263Y-122875847D01*
X129858835Y-121209180D02*
X129858835Y-122518704D01*
X129858835Y-122518704D02*
X129977882Y-122756800D01*
X129977882Y-122756800D02*
X130215977Y-122875847D01*
X130215977Y-122875847D02*
X130573120Y-122875847D01*
X130573120Y-122875847D02*
X130811216Y-122756800D01*
X130811216Y-122756800D02*
X130930263Y-122637752D01*
X131882644Y-121209180D02*
X133192168Y-121209180D01*
X133192168Y-121209180D02*
X131882644Y-122875847D01*
X131882644Y-122875847D02*
X133192168Y-122875847D01*
X133906454Y-121209180D02*
X135215978Y-121209180D01*
X135215978Y-121209180D02*
X133906454Y-122875847D01*
X133906454Y-122875847D02*
X135215978Y-122875847D01*
X136525502Y-122875847D02*
X136287407Y-122756800D01*
X136287407Y-122756800D02*
X136168360Y-122518704D01*
X136168360Y-122518704D02*
X136168360Y-120375847D01*
X138430265Y-122756800D02*
X138192169Y-122875847D01*
X138192169Y-122875847D02*
X137715979Y-122875847D01*
X137715979Y-122875847D02*
X137477884Y-122756800D01*
X137477884Y-122756800D02*
X137358836Y-122518704D01*
X137358836Y-122518704D02*
X137358836Y-121566323D01*
X137358836Y-121566323D02*
X137477884Y-121328228D01*
X137477884Y-121328228D02*
X137715979Y-121209180D01*
X137715979Y-121209180D02*
X138192169Y-121209180D01*
X138192169Y-121209180D02*
X138430265Y-121328228D01*
X138430265Y-121328228D02*
X138549312Y-121566323D01*
X138549312Y-121566323D02*
X138549312Y-121804419D01*
X138549312Y-121804419D02*
X137358836Y-122042514D01*
X139620741Y-122875847D02*
X139620741Y-121209180D01*
X139620741Y-121685371D02*
X139739788Y-121447276D01*
X139739788Y-121447276D02*
X139858836Y-121328228D01*
X139858836Y-121328228D02*
X140096931Y-121209180D01*
X140096931Y-121209180D02*
X140335026Y-121209180D01*
D11*
X130255826Y-65408628D02*
X130255826Y-63908628D01*
X130255826Y-64622914D02*
X131112969Y-64622914D01*
X131112969Y-65408628D02*
X131112969Y-63908628D01*
X132398684Y-65337200D02*
X132255827Y-65408628D01*
X132255827Y-65408628D02*
X131970113Y-65408628D01*
X131970113Y-65408628D02*
X131827255Y-65337200D01*
X131827255Y-65337200D02*
X131755827Y-65194342D01*
X131755827Y-65194342D02*
X131755827Y-64622914D01*
X131755827Y-64622914D02*
X131827255Y-64480057D01*
X131827255Y-64480057D02*
X131970113Y-64408628D01*
X131970113Y-64408628D02*
X132255827Y-64408628D01*
X132255827Y-64408628D02*
X132398684Y-64480057D01*
X132398684Y-64480057D02*
X132470113Y-64622914D01*
X132470113Y-64622914D02*
X132470113Y-64765771D01*
X132470113Y-64765771D02*
X131755827Y-64908628D01*
X133755827Y-65408628D02*
X133755827Y-64622914D01*
X133755827Y-64622914D02*
X133684398Y-64480057D01*
X133684398Y-64480057D02*
X133541541Y-64408628D01*
X133541541Y-64408628D02*
X133255827Y-64408628D01*
X133255827Y-64408628D02*
X133112969Y-64480057D01*
X133755827Y-65337200D02*
X133612969Y-65408628D01*
X133612969Y-65408628D02*
X133255827Y-65408628D01*
X133255827Y-65408628D02*
X133112969Y-65337200D01*
X133112969Y-65337200D02*
X133041541Y-65194342D01*
X133041541Y-65194342D02*
X133041541Y-65051485D01*
X133041541Y-65051485D02*
X133112969Y-64908628D01*
X133112969Y-64908628D02*
X133255827Y-64837200D01*
X133255827Y-64837200D02*
X133612969Y-64837200D01*
X133612969Y-64837200D02*
X133755827Y-64765771D01*
X134255827Y-64408628D02*
X134827255Y-64408628D01*
X134470112Y-63908628D02*
X134470112Y-65194342D01*
X134470112Y-65194342D02*
X134541541Y-65337200D01*
X134541541Y-65337200D02*
X134684398Y-65408628D01*
X134684398Y-65408628D02*
X134827255Y-65408628D01*
X135898684Y-65337200D02*
X135755827Y-65408628D01*
X135755827Y-65408628D02*
X135470113Y-65408628D01*
X135470113Y-65408628D02*
X135327255Y-65337200D01*
X135327255Y-65337200D02*
X135255827Y-65194342D01*
X135255827Y-65194342D02*
X135255827Y-64622914D01*
X135255827Y-64622914D02*
X135327255Y-64480057D01*
X135327255Y-64480057D02*
X135470113Y-64408628D01*
X135470113Y-64408628D02*
X135755827Y-64408628D01*
X135755827Y-64408628D02*
X135898684Y-64480057D01*
X135898684Y-64480057D02*
X135970113Y-64622914D01*
X135970113Y-64622914D02*
X135970113Y-64765771D01*
X135970113Y-64765771D02*
X135255827Y-64908628D01*
X136612969Y-65408628D02*
X136612969Y-64408628D01*
X136612969Y-64694342D02*
X136684398Y-64551485D01*
X136684398Y-64551485D02*
X136755827Y-64480057D01*
X136755827Y-64480057D02*
X136898684Y-64408628D01*
X136898684Y-64408628D02*
X137041541Y-64408628D01*
X115741541Y-63808628D02*
X116598684Y-63808628D01*
X116170112Y-65308628D02*
X116170112Y-63808628D01*
X117098683Y-65308628D02*
X117098683Y-63808628D01*
X117741541Y-65308628D02*
X117741541Y-64522914D01*
X117741541Y-64522914D02*
X117670112Y-64380057D01*
X117670112Y-64380057D02*
X117527255Y-64308628D01*
X117527255Y-64308628D02*
X117312969Y-64308628D01*
X117312969Y-64308628D02*
X117170112Y-64380057D01*
X117170112Y-64380057D02*
X117098683Y-64451485D01*
X119027255Y-65237200D02*
X118884398Y-65308628D01*
X118884398Y-65308628D02*
X118598684Y-65308628D01*
X118598684Y-65308628D02*
X118455826Y-65237200D01*
X118455826Y-65237200D02*
X118384398Y-65094342D01*
X118384398Y-65094342D02*
X118384398Y-64522914D01*
X118384398Y-64522914D02*
X118455826Y-64380057D01*
X118455826Y-64380057D02*
X118598684Y-64308628D01*
X118598684Y-64308628D02*
X118884398Y-64308628D01*
X118884398Y-64308628D02*
X119027255Y-64380057D01*
X119027255Y-64380057D02*
X119098684Y-64522914D01*
X119098684Y-64522914D02*
X119098684Y-64665771D01*
X119098684Y-64665771D02*
X118384398Y-64808628D01*
X119741540Y-65308628D02*
X119741540Y-64308628D01*
X119741540Y-64594342D02*
X119812969Y-64451485D01*
X119812969Y-64451485D02*
X119884398Y-64380057D01*
X119884398Y-64380057D02*
X120027255Y-64308628D01*
X120027255Y-64308628D02*
X120170112Y-64308628D01*
X120670111Y-65308628D02*
X120670111Y-64308628D01*
X120670111Y-64451485D02*
X120741540Y-64380057D01*
X120741540Y-64380057D02*
X120884397Y-64308628D01*
X120884397Y-64308628D02*
X121098683Y-64308628D01*
X121098683Y-64308628D02*
X121241540Y-64380057D01*
X121241540Y-64380057D02*
X121312969Y-64522914D01*
X121312969Y-64522914D02*
X121312969Y-65308628D01*
X121312969Y-64522914D02*
X121384397Y-64380057D01*
X121384397Y-64380057D02*
X121527254Y-64308628D01*
X121527254Y-64308628D02*
X121741540Y-64308628D01*
X121741540Y-64308628D02*
X121884397Y-64380057D01*
X121884397Y-64380057D02*
X121955826Y-64522914D01*
X121955826Y-64522914D02*
X121955826Y-65308628D01*
X122670111Y-65308628D02*
X122670111Y-64308628D01*
X122670111Y-63808628D02*
X122598683Y-63880057D01*
X122598683Y-63880057D02*
X122670111Y-63951485D01*
X122670111Y-63951485D02*
X122741540Y-63880057D01*
X122741540Y-63880057D02*
X122670111Y-63808628D01*
X122670111Y-63808628D02*
X122670111Y-63951485D01*
X123312969Y-65237200D02*
X123455826Y-65308628D01*
X123455826Y-65308628D02*
X123741540Y-65308628D01*
X123741540Y-65308628D02*
X123884397Y-65237200D01*
X123884397Y-65237200D02*
X123955826Y-65094342D01*
X123955826Y-65094342D02*
X123955826Y-65022914D01*
X123955826Y-65022914D02*
X123884397Y-64880057D01*
X123884397Y-64880057D02*
X123741540Y-64808628D01*
X123741540Y-64808628D02*
X123527255Y-64808628D01*
X123527255Y-64808628D02*
X123384397Y-64737200D01*
X123384397Y-64737200D02*
X123312969Y-64594342D01*
X123312969Y-64594342D02*
X123312969Y-64522914D01*
X123312969Y-64522914D02*
X123384397Y-64380057D01*
X123384397Y-64380057D02*
X123527255Y-64308628D01*
X123527255Y-64308628D02*
X123741540Y-64308628D01*
X123741540Y-64308628D02*
X123884397Y-64380057D01*
X124384398Y-64308628D02*
X124955826Y-64308628D01*
X124598683Y-63808628D02*
X124598683Y-65094342D01*
X124598683Y-65094342D02*
X124670112Y-65237200D01*
X124670112Y-65237200D02*
X124812969Y-65308628D01*
X124812969Y-65308628D02*
X124955826Y-65308628D01*
X125670112Y-65308628D02*
X125527255Y-65237200D01*
X125527255Y-65237200D02*
X125455826Y-65165771D01*
X125455826Y-65165771D02*
X125384398Y-65022914D01*
X125384398Y-65022914D02*
X125384398Y-64594342D01*
X125384398Y-64594342D02*
X125455826Y-64451485D01*
X125455826Y-64451485D02*
X125527255Y-64380057D01*
X125527255Y-64380057D02*
X125670112Y-64308628D01*
X125670112Y-64308628D02*
X125884398Y-64308628D01*
X125884398Y-64308628D02*
X126027255Y-64380057D01*
X126027255Y-64380057D02*
X126098684Y-64451485D01*
X126098684Y-64451485D02*
X126170112Y-64594342D01*
X126170112Y-64594342D02*
X126170112Y-65022914D01*
X126170112Y-65022914D02*
X126098684Y-65165771D01*
X126098684Y-65165771D02*
X126027255Y-65237200D01*
X126027255Y-65237200D02*
X125884398Y-65308628D01*
X125884398Y-65308628D02*
X125670112Y-65308628D01*
X126812969Y-65308628D02*
X126812969Y-64308628D01*
X126812969Y-64594342D02*
X126884398Y-64451485D01*
X126884398Y-64451485D02*
X126955827Y-64380057D01*
X126955827Y-64380057D02*
X127098684Y-64308628D01*
X127098684Y-64308628D02*
X127241541Y-64308628D01*
X118941541Y-92257628D02*
X119798684Y-92257628D01*
X118770112Y-92771914D02*
X119370112Y-90971914D01*
X119370112Y-90971914D02*
X119970112Y-92771914D01*
X120570112Y-92771914D02*
X120570112Y-91571914D01*
X120570112Y-91914771D02*
X120655826Y-91743342D01*
X120655826Y-91743342D02*
X120741541Y-91657628D01*
X120741541Y-91657628D02*
X120912969Y-91571914D01*
X120912969Y-91571914D02*
X121084398Y-91571914D01*
X122455827Y-92771914D02*
X122455827Y-90971914D01*
X122455827Y-92686200D02*
X122284398Y-92771914D01*
X122284398Y-92771914D02*
X121941541Y-92771914D01*
X121941541Y-92771914D02*
X121770112Y-92686200D01*
X121770112Y-92686200D02*
X121684398Y-92600485D01*
X121684398Y-92600485D02*
X121598684Y-92429057D01*
X121598684Y-92429057D02*
X121598684Y-91914771D01*
X121598684Y-91914771D02*
X121684398Y-91743342D01*
X121684398Y-91743342D02*
X121770112Y-91657628D01*
X121770112Y-91657628D02*
X121941541Y-91571914D01*
X121941541Y-91571914D02*
X122284398Y-91571914D01*
X122284398Y-91571914D02*
X122455827Y-91657628D01*
X124084398Y-91571914D02*
X124084398Y-92771914D01*
X123312969Y-91571914D02*
X123312969Y-92514771D01*
X123312969Y-92514771D02*
X123398683Y-92686200D01*
X123398683Y-92686200D02*
X123570112Y-92771914D01*
X123570112Y-92771914D02*
X123827255Y-92771914D01*
X123827255Y-92771914D02*
X123998683Y-92686200D01*
X123998683Y-92686200D02*
X124084398Y-92600485D01*
X124941540Y-92771914D02*
X124941540Y-91571914D01*
X124941540Y-90971914D02*
X124855826Y-91057628D01*
X124855826Y-91057628D02*
X124941540Y-91143342D01*
X124941540Y-91143342D02*
X125027254Y-91057628D01*
X125027254Y-91057628D02*
X124941540Y-90971914D01*
X124941540Y-90971914D02*
X124941540Y-91143342D01*
X125798683Y-91571914D02*
X125798683Y-92771914D01*
X125798683Y-91743342D02*
X125884397Y-91657628D01*
X125884397Y-91657628D02*
X126055826Y-91571914D01*
X126055826Y-91571914D02*
X126312969Y-91571914D01*
X126312969Y-91571914D02*
X126484397Y-91657628D01*
X126484397Y-91657628D02*
X126570112Y-91829057D01*
X126570112Y-91829057D02*
X126570112Y-92771914D01*
X127684397Y-92771914D02*
X127512968Y-92686200D01*
X127512968Y-92686200D02*
X127427254Y-92600485D01*
X127427254Y-92600485D02*
X127341540Y-92429057D01*
X127341540Y-92429057D02*
X127341540Y-91914771D01*
X127341540Y-91914771D02*
X127427254Y-91743342D01*
X127427254Y-91743342D02*
X127512968Y-91657628D01*
X127512968Y-91657628D02*
X127684397Y-91571914D01*
X127684397Y-91571914D02*
X127941540Y-91571914D01*
X127941540Y-91571914D02*
X128112968Y-91657628D01*
X128112968Y-91657628D02*
X128198683Y-91743342D01*
X128198683Y-91743342D02*
X128284397Y-91914771D01*
X128284397Y-91914771D02*
X128284397Y-92429057D01*
X128284397Y-92429057D02*
X128198683Y-92600485D01*
X128198683Y-92600485D02*
X128112968Y-92686200D01*
X128112968Y-92686200D02*
X127941540Y-92771914D01*
X127941540Y-92771914D02*
X127684397Y-92771914D01*
X130427254Y-92771914D02*
X130427254Y-90971914D01*
X130427254Y-90971914D02*
X131455825Y-92771914D01*
X131455825Y-92771914D02*
X131455825Y-90971914D01*
X133084397Y-92771914D02*
X133084397Y-91829057D01*
X133084397Y-91829057D02*
X132998682Y-91657628D01*
X132998682Y-91657628D02*
X132827254Y-91571914D01*
X132827254Y-91571914D02*
X132484397Y-91571914D01*
X132484397Y-91571914D02*
X132312968Y-91657628D01*
X133084397Y-92686200D02*
X132912968Y-92771914D01*
X132912968Y-92771914D02*
X132484397Y-92771914D01*
X132484397Y-92771914D02*
X132312968Y-92686200D01*
X132312968Y-92686200D02*
X132227254Y-92514771D01*
X132227254Y-92514771D02*
X132227254Y-92343342D01*
X132227254Y-92343342D02*
X132312968Y-92171914D01*
X132312968Y-92171914D02*
X132484397Y-92086200D01*
X132484397Y-92086200D02*
X132912968Y-92086200D01*
X132912968Y-92086200D02*
X133084397Y-92000485D01*
X133941539Y-91571914D02*
X133941539Y-92771914D01*
X133941539Y-91743342D02*
X134027253Y-91657628D01*
X134027253Y-91657628D02*
X134198682Y-91571914D01*
X134198682Y-91571914D02*
X134455825Y-91571914D01*
X134455825Y-91571914D02*
X134627253Y-91657628D01*
X134627253Y-91657628D02*
X134712968Y-91829057D01*
X134712968Y-91829057D02*
X134712968Y-92771914D01*
X135827253Y-92771914D02*
X135655824Y-92686200D01*
X135655824Y-92686200D02*
X135570110Y-92600485D01*
X135570110Y-92600485D02*
X135484396Y-92429057D01*
X135484396Y-92429057D02*
X135484396Y-91914771D01*
X135484396Y-91914771D02*
X135570110Y-91743342D01*
X135570110Y-91743342D02*
X135655824Y-91657628D01*
X135655824Y-91657628D02*
X135827253Y-91571914D01*
X135827253Y-91571914D02*
X136084396Y-91571914D01*
X136084396Y-91571914D02*
X136255824Y-91657628D01*
X136255824Y-91657628D02*
X136341539Y-91743342D01*
X136341539Y-91743342D02*
X136427253Y-91914771D01*
X136427253Y-91914771D02*
X136427253Y-92429057D01*
X136427253Y-92429057D02*
X136341539Y-92600485D01*
X136341539Y-92600485D02*
X136255824Y-92686200D01*
X136255824Y-92686200D02*
X136084396Y-92771914D01*
X136084396Y-92771914D02*
X135827253Y-92771914D01*
X120327255Y-118271914D02*
X120327255Y-116471914D01*
X120327255Y-116471914D02*
X120755826Y-116471914D01*
X120755826Y-116471914D02*
X121012969Y-116557628D01*
X121012969Y-116557628D02*
X121184398Y-116729057D01*
X121184398Y-116729057D02*
X121270112Y-116900485D01*
X121270112Y-116900485D02*
X121355826Y-117243342D01*
X121355826Y-117243342D02*
X121355826Y-117500485D01*
X121355826Y-117500485D02*
X121270112Y-117843342D01*
X121270112Y-117843342D02*
X121184398Y-118014771D01*
X121184398Y-118014771D02*
X121012969Y-118186200D01*
X121012969Y-118186200D02*
X120755826Y-118271914D01*
X120755826Y-118271914D02*
X120327255Y-118271914D01*
X122127255Y-118271914D02*
X122127255Y-117071914D01*
X122127255Y-116471914D02*
X122041541Y-116557628D01*
X122041541Y-116557628D02*
X122127255Y-116643342D01*
X122127255Y-116643342D02*
X122212969Y-116557628D01*
X122212969Y-116557628D02*
X122127255Y-116471914D01*
X122127255Y-116471914D02*
X122127255Y-116643342D01*
X122898684Y-118186200D02*
X123070112Y-118271914D01*
X123070112Y-118271914D02*
X123412969Y-118271914D01*
X123412969Y-118271914D02*
X123584398Y-118186200D01*
X123584398Y-118186200D02*
X123670112Y-118014771D01*
X123670112Y-118014771D02*
X123670112Y-117929057D01*
X123670112Y-117929057D02*
X123584398Y-117757628D01*
X123584398Y-117757628D02*
X123412969Y-117671914D01*
X123412969Y-117671914D02*
X123155827Y-117671914D01*
X123155827Y-117671914D02*
X122984398Y-117586200D01*
X122984398Y-117586200D02*
X122898684Y-117414771D01*
X122898684Y-117414771D02*
X122898684Y-117329057D01*
X122898684Y-117329057D02*
X122984398Y-117157628D01*
X122984398Y-117157628D02*
X123155827Y-117071914D01*
X123155827Y-117071914D02*
X123412969Y-117071914D01*
X123412969Y-117071914D02*
X123584398Y-117157628D01*
X124441541Y-117071914D02*
X124441541Y-118871914D01*
X124441541Y-117157628D02*
X124612970Y-117071914D01*
X124612970Y-117071914D02*
X124955827Y-117071914D01*
X124955827Y-117071914D02*
X125127255Y-117157628D01*
X125127255Y-117157628D02*
X125212970Y-117243342D01*
X125212970Y-117243342D02*
X125298684Y-117414771D01*
X125298684Y-117414771D02*
X125298684Y-117929057D01*
X125298684Y-117929057D02*
X125212970Y-118100485D01*
X125212970Y-118100485D02*
X125127255Y-118186200D01*
X125127255Y-118186200D02*
X124955827Y-118271914D01*
X124955827Y-118271914D02*
X124612970Y-118271914D01*
X124612970Y-118271914D02*
X124441541Y-118186200D01*
X126327255Y-118271914D02*
X126155826Y-118186200D01*
X126155826Y-118186200D02*
X126070112Y-118014771D01*
X126070112Y-118014771D02*
X126070112Y-116471914D01*
X127784398Y-118271914D02*
X127784398Y-117329057D01*
X127784398Y-117329057D02*
X127698683Y-117157628D01*
X127698683Y-117157628D02*
X127527255Y-117071914D01*
X127527255Y-117071914D02*
X127184398Y-117071914D01*
X127184398Y-117071914D02*
X127012969Y-117157628D01*
X127784398Y-118186200D02*
X127612969Y-118271914D01*
X127612969Y-118271914D02*
X127184398Y-118271914D01*
X127184398Y-118271914D02*
X127012969Y-118186200D01*
X127012969Y-118186200D02*
X126927255Y-118014771D01*
X126927255Y-118014771D02*
X126927255Y-117843342D01*
X126927255Y-117843342D02*
X127012969Y-117671914D01*
X127012969Y-117671914D02*
X127184398Y-117586200D01*
X127184398Y-117586200D02*
X127612969Y-117586200D01*
X127612969Y-117586200D02*
X127784398Y-117500485D01*
X128470111Y-117071914D02*
X128898683Y-118271914D01*
X129327254Y-117071914D02*
X128898683Y-118271914D01*
X128898683Y-118271914D02*
X128727254Y-118700485D01*
X128727254Y-118700485D02*
X128641540Y-118786200D01*
X128641540Y-118786200D02*
X128470111Y-118871914D01*
X131384398Y-118271914D02*
X131384398Y-117071914D01*
X131384398Y-117243342D02*
X131470112Y-117157628D01*
X131470112Y-117157628D02*
X131641541Y-117071914D01*
X131641541Y-117071914D02*
X131898684Y-117071914D01*
X131898684Y-117071914D02*
X132070112Y-117157628D01*
X132070112Y-117157628D02*
X132155827Y-117329057D01*
X132155827Y-117329057D02*
X132155827Y-118271914D01*
X132155827Y-117329057D02*
X132241541Y-117157628D01*
X132241541Y-117157628D02*
X132412969Y-117071914D01*
X132412969Y-117071914D02*
X132670112Y-117071914D01*
X132670112Y-117071914D02*
X132841541Y-117157628D01*
X132841541Y-117157628D02*
X132927255Y-117329057D01*
X132927255Y-117329057D02*
X132927255Y-118271914D01*
X134041541Y-118271914D02*
X133870112Y-118186200D01*
X133870112Y-118186200D02*
X133784398Y-118100485D01*
X133784398Y-118100485D02*
X133698684Y-117929057D01*
X133698684Y-117929057D02*
X133698684Y-117414771D01*
X133698684Y-117414771D02*
X133784398Y-117243342D01*
X133784398Y-117243342D02*
X133870112Y-117157628D01*
X133870112Y-117157628D02*
X134041541Y-117071914D01*
X134041541Y-117071914D02*
X134298684Y-117071914D01*
X134298684Y-117071914D02*
X134470112Y-117157628D01*
X134470112Y-117157628D02*
X134555827Y-117243342D01*
X134555827Y-117243342D02*
X134641541Y-117414771D01*
X134641541Y-117414771D02*
X134641541Y-117929057D01*
X134641541Y-117929057D02*
X134555827Y-118100485D01*
X134555827Y-118100485D02*
X134470112Y-118186200D01*
X134470112Y-118186200D02*
X134298684Y-118271914D01*
X134298684Y-118271914D02*
X134041541Y-118271914D01*
X136184398Y-118271914D02*
X136184398Y-116471914D01*
X136184398Y-118186200D02*
X136012969Y-118271914D01*
X136012969Y-118271914D02*
X135670112Y-118271914D01*
X135670112Y-118271914D02*
X135498683Y-118186200D01*
X135498683Y-118186200D02*
X135412969Y-118100485D01*
X135412969Y-118100485D02*
X135327255Y-117929057D01*
X135327255Y-117929057D02*
X135327255Y-117414771D01*
X135327255Y-117414771D02*
X135412969Y-117243342D01*
X135412969Y-117243342D02*
X135498683Y-117157628D01*
X135498683Y-117157628D02*
X135670112Y-117071914D01*
X135670112Y-117071914D02*
X136012969Y-117071914D01*
X136012969Y-117071914D02*
X136184398Y-117157628D01*
X137812969Y-117071914D02*
X137812969Y-118271914D01*
X137041540Y-117071914D02*
X137041540Y-118014771D01*
X137041540Y-118014771D02*
X137127254Y-118186200D01*
X137127254Y-118186200D02*
X137298683Y-118271914D01*
X137298683Y-118271914D02*
X137555826Y-118271914D01*
X137555826Y-118271914D02*
X137727254Y-118186200D01*
X137727254Y-118186200D02*
X137812969Y-118100485D01*
X138927254Y-118271914D02*
X138755825Y-118186200D01*
X138755825Y-118186200D02*
X138670111Y-118014771D01*
X138670111Y-118014771D02*
X138670111Y-116471914D01*
X140298682Y-118186200D02*
X140127254Y-118271914D01*
X140127254Y-118271914D02*
X139784397Y-118271914D01*
X139784397Y-118271914D02*
X139612968Y-118186200D01*
X139612968Y-118186200D02*
X139527254Y-118014771D01*
X139527254Y-118014771D02*
X139527254Y-117329057D01*
X139527254Y-117329057D02*
X139612968Y-117157628D01*
X139612968Y-117157628D02*
X139784397Y-117071914D01*
X139784397Y-117071914D02*
X140127254Y-117071914D01*
X140127254Y-117071914D02*
X140298682Y-117157628D01*
X140298682Y-117157628D02*
X140384397Y-117329057D01*
X140384397Y-117329057D02*
X140384397Y-117500485D01*
X140384397Y-117500485D02*
X139527254Y-117671914D01*
D12*
X143921177Y-70234876D02*
X143730701Y-70139638D01*
X143730701Y-70139638D02*
X143444987Y-70139638D01*
X143444987Y-70139638D02*
X143159272Y-70234876D01*
X143159272Y-70234876D02*
X142968796Y-70425352D01*
X142968796Y-70425352D02*
X142873558Y-70615828D01*
X142873558Y-70615828D02*
X142778320Y-70996780D01*
X142778320Y-70996780D02*
X142778320Y-71282495D01*
X142778320Y-71282495D02*
X142873558Y-71663447D01*
X142873558Y-71663447D02*
X142968796Y-71853923D01*
X142968796Y-71853923D02*
X143159272Y-72044400D01*
X143159272Y-72044400D02*
X143444987Y-72139638D01*
X143444987Y-72139638D02*
X143635463Y-72139638D01*
X143635463Y-72139638D02*
X143921177Y-72044400D01*
X143921177Y-72044400D02*
X144016415Y-71949161D01*
X144016415Y-71949161D02*
X144016415Y-71282495D01*
X144016415Y-71282495D02*
X143635463Y-71282495D01*
X144873558Y-72139638D02*
X144873558Y-70139638D01*
X144873558Y-70139638D02*
X146016415Y-72139638D01*
X146016415Y-72139638D02*
X146016415Y-70139638D01*
X146968796Y-72139638D02*
X146968796Y-70139638D01*
X146968796Y-70139638D02*
X147444986Y-70139638D01*
X147444986Y-70139638D02*
X147730701Y-70234876D01*
X147730701Y-70234876D02*
X147921177Y-70425352D01*
X147921177Y-70425352D02*
X148016415Y-70615828D01*
X148016415Y-70615828D02*
X148111653Y-70996780D01*
X148111653Y-70996780D02*
X148111653Y-71282495D01*
X148111653Y-71282495D02*
X148016415Y-71663447D01*
X148016415Y-71663447D02*
X147921177Y-71853923D01*
X147921177Y-71853923D02*
X147730701Y-72044400D01*
X147730701Y-72044400D02*
X147444986Y-72139638D01*
X147444986Y-72139638D02*
X146968796Y-72139638D01*
X142473558Y-76577733D02*
X143997368Y-76577733D01*
X143235463Y-77339638D02*
X143235463Y-75815828D01*
X145997367Y-77339638D02*
X144854510Y-77339638D01*
X145425938Y-77339638D02*
X145425938Y-75339638D01*
X145425938Y-75339638D02*
X145235462Y-75625352D01*
X145235462Y-75625352D02*
X145044986Y-75815828D01*
X145044986Y-75815828D02*
X144854510Y-75911066D01*
X146759272Y-75530114D02*
X146854510Y-75434876D01*
X146854510Y-75434876D02*
X147044986Y-75339638D01*
X147044986Y-75339638D02*
X147521177Y-75339638D01*
X147521177Y-75339638D02*
X147711653Y-75434876D01*
X147711653Y-75434876D02*
X147806891Y-75530114D01*
X147806891Y-75530114D02*
X147902129Y-75720590D01*
X147902129Y-75720590D02*
X147902129Y-75911066D01*
X147902129Y-75911066D02*
X147806891Y-76196780D01*
X147806891Y-76196780D02*
X146664034Y-77339638D01*
X146664034Y-77339638D02*
X147902129Y-77339638D01*
X148473558Y-75339638D02*
X149140224Y-77339638D01*
X149140224Y-77339638D02*
X149806891Y-75339638D01*
D13*
X120757767Y-109651577D02*
X120684434Y-109798244D01*
X120684434Y-109798244D02*
X120684434Y-110018244D01*
X120684434Y-110018244D02*
X120757767Y-110238244D01*
X120757767Y-110238244D02*
X120904434Y-110384911D01*
X120904434Y-110384911D02*
X121051101Y-110458244D01*
X121051101Y-110458244D02*
X121344434Y-110531577D01*
X121344434Y-110531577D02*
X121564434Y-110531577D01*
X121564434Y-110531577D02*
X121857767Y-110458244D01*
X121857767Y-110458244D02*
X122004434Y-110384911D01*
X122004434Y-110384911D02*
X122151101Y-110238244D01*
X122151101Y-110238244D02*
X122224434Y-110018244D01*
X122224434Y-110018244D02*
X122224434Y-109871577D01*
X122224434Y-109871577D02*
X122151101Y-109651577D01*
X122151101Y-109651577D02*
X122077767Y-109578244D01*
X122077767Y-109578244D02*
X121564434Y-109578244D01*
X121564434Y-109578244D02*
X121564434Y-109871577D01*
X122224434Y-108918244D02*
X120684434Y-108918244D01*
X120684434Y-108918244D02*
X122224434Y-108038244D01*
X122224434Y-108038244D02*
X120684434Y-108038244D01*
X122224434Y-107304911D02*
X120684434Y-107304911D01*
X120684434Y-107304911D02*
X120684434Y-106938244D01*
X120684434Y-106938244D02*
X120757767Y-106718244D01*
X120757767Y-106718244D02*
X120904434Y-106571578D01*
X120904434Y-106571578D02*
X121051101Y-106498244D01*
X121051101Y-106498244D02*
X121344434Y-106424911D01*
X121344434Y-106424911D02*
X121564434Y-106424911D01*
X121564434Y-106424911D02*
X121857767Y-106498244D01*
X121857767Y-106498244D02*
X122004434Y-106571578D01*
X122004434Y-106571578D02*
X122151101Y-106718244D01*
X122151101Y-106718244D02*
X122224434Y-106938244D01*
X122224434Y-106938244D02*
X122224434Y-107304911D01*
X123163748Y-110384911D02*
X124703748Y-109871578D01*
X124703748Y-109871578D02*
X123163748Y-109358244D01*
X124557081Y-107964911D02*
X124630415Y-108038244D01*
X124630415Y-108038244D02*
X124703748Y-108258244D01*
X124703748Y-108258244D02*
X124703748Y-108404911D01*
X124703748Y-108404911D02*
X124630415Y-108624911D01*
X124630415Y-108624911D02*
X124483748Y-108771578D01*
X124483748Y-108771578D02*
X124337081Y-108844911D01*
X124337081Y-108844911D02*
X124043748Y-108918244D01*
X124043748Y-108918244D02*
X123823748Y-108918244D01*
X123823748Y-108918244D02*
X123530415Y-108844911D01*
X123530415Y-108844911D02*
X123383748Y-108771578D01*
X123383748Y-108771578D02*
X123237081Y-108624911D01*
X123237081Y-108624911D02*
X123163748Y-108404911D01*
X123163748Y-108404911D02*
X123163748Y-108258244D01*
X123163748Y-108258244D02*
X123237081Y-108038244D01*
X123237081Y-108038244D02*
X123310415Y-107964911D01*
X124557081Y-106424911D02*
X124630415Y-106498244D01*
X124630415Y-106498244D02*
X124703748Y-106718244D01*
X124703748Y-106718244D02*
X124703748Y-106864911D01*
X124703748Y-106864911D02*
X124630415Y-107084911D01*
X124630415Y-107084911D02*
X124483748Y-107231578D01*
X124483748Y-107231578D02*
X124337081Y-107304911D01*
X124337081Y-107304911D02*
X124043748Y-107378244D01*
X124043748Y-107378244D02*
X123823748Y-107378244D01*
X123823748Y-107378244D02*
X123530415Y-107304911D01*
X123530415Y-107304911D02*
X123383748Y-107231578D01*
X123383748Y-107231578D02*
X123237081Y-107084911D01*
X123237081Y-107084911D02*
X123163748Y-106864911D01*
X123163748Y-106864911D02*
X123163748Y-106718244D01*
X123163748Y-106718244D02*
X123237081Y-106498244D01*
X123237081Y-106498244D02*
X123310415Y-106424911D01*
X127109729Y-110091578D02*
X127183062Y-109871578D01*
X127183062Y-109871578D02*
X127183062Y-109504912D01*
X127183062Y-109504912D02*
X127109729Y-109358245D01*
X127109729Y-109358245D02*
X127036395Y-109284912D01*
X127036395Y-109284912D02*
X126889729Y-109211578D01*
X126889729Y-109211578D02*
X126743062Y-109211578D01*
X126743062Y-109211578D02*
X126596395Y-109284912D01*
X126596395Y-109284912D02*
X126523062Y-109358245D01*
X126523062Y-109358245D02*
X126449729Y-109504912D01*
X126449729Y-109504912D02*
X126376395Y-109798245D01*
X126376395Y-109798245D02*
X126303062Y-109944912D01*
X126303062Y-109944912D02*
X126229729Y-110018245D01*
X126229729Y-110018245D02*
X126083062Y-110091578D01*
X126083062Y-110091578D02*
X125936395Y-110091578D01*
X125936395Y-110091578D02*
X125789729Y-110018245D01*
X125789729Y-110018245D02*
X125716395Y-109944912D01*
X125716395Y-109944912D02*
X125643062Y-109798245D01*
X125643062Y-109798245D02*
X125643062Y-109431578D01*
X125643062Y-109431578D02*
X125716395Y-109211578D01*
X127036395Y-107671578D02*
X127109729Y-107744911D01*
X127109729Y-107744911D02*
X127183062Y-107964911D01*
X127183062Y-107964911D02*
X127183062Y-108111578D01*
X127183062Y-108111578D02*
X127109729Y-108331578D01*
X127109729Y-108331578D02*
X126963062Y-108478245D01*
X126963062Y-108478245D02*
X126816395Y-108551578D01*
X126816395Y-108551578D02*
X126523062Y-108624911D01*
X126523062Y-108624911D02*
X126303062Y-108624911D01*
X126303062Y-108624911D02*
X126009729Y-108551578D01*
X126009729Y-108551578D02*
X125863062Y-108478245D01*
X125863062Y-108478245D02*
X125716395Y-108331578D01*
X125716395Y-108331578D02*
X125643062Y-108111578D01*
X125643062Y-108111578D02*
X125643062Y-107964911D01*
X125643062Y-107964911D02*
X125716395Y-107744911D01*
X125716395Y-107744911D02*
X125789729Y-107671578D01*
X127183062Y-106278245D02*
X127183062Y-107011578D01*
X127183062Y-107011578D02*
X125643062Y-107011578D01*
X129589043Y-110164911D02*
X129662376Y-109944911D01*
X129662376Y-109944911D02*
X129662376Y-109578245D01*
X129662376Y-109578245D02*
X129589043Y-109431578D01*
X129589043Y-109431578D02*
X129515709Y-109358245D01*
X129515709Y-109358245D02*
X129369043Y-109284911D01*
X129369043Y-109284911D02*
X129222376Y-109284911D01*
X129222376Y-109284911D02*
X129075709Y-109358245D01*
X129075709Y-109358245D02*
X129002376Y-109431578D01*
X129002376Y-109431578D02*
X128929043Y-109578245D01*
X128929043Y-109578245D02*
X128855709Y-109871578D01*
X128855709Y-109871578D02*
X128782376Y-110018245D01*
X128782376Y-110018245D02*
X128709043Y-110091578D01*
X128709043Y-110091578D02*
X128562376Y-110164911D01*
X128562376Y-110164911D02*
X128415709Y-110164911D01*
X128415709Y-110164911D02*
X128269043Y-110091578D01*
X128269043Y-110091578D02*
X128195709Y-110018245D01*
X128195709Y-110018245D02*
X128122376Y-109871578D01*
X128122376Y-109871578D02*
X128122376Y-109504911D01*
X128122376Y-109504911D02*
X128195709Y-109284911D01*
X129662376Y-108624911D02*
X128122376Y-108624911D01*
X128122376Y-108624911D02*
X128122376Y-108258244D01*
X128122376Y-108258244D02*
X128195709Y-108038244D01*
X128195709Y-108038244D02*
X128342376Y-107891578D01*
X128342376Y-107891578D02*
X128489043Y-107818244D01*
X128489043Y-107818244D02*
X128782376Y-107744911D01*
X128782376Y-107744911D02*
X129002376Y-107744911D01*
X129002376Y-107744911D02*
X129295709Y-107818244D01*
X129295709Y-107818244D02*
X129442376Y-107891578D01*
X129442376Y-107891578D02*
X129589043Y-108038244D01*
X129589043Y-108038244D02*
X129662376Y-108258244D01*
X129662376Y-108258244D02*
X129662376Y-108624911D01*
X129222376Y-107158244D02*
X129222376Y-106424911D01*
X129662376Y-107304911D02*
X128122376Y-106791578D01*
X128122376Y-106791578D02*
X129662376Y-106278244D01*
X131335023Y-115371577D02*
X131408357Y-115151577D01*
X131408357Y-115151577D02*
X131481690Y-115078243D01*
X131481690Y-115078243D02*
X131628357Y-115004910D01*
X131628357Y-115004910D02*
X131848357Y-115004910D01*
X131848357Y-115004910D02*
X131995023Y-115078243D01*
X131995023Y-115078243D02*
X132068357Y-115151577D01*
X132068357Y-115151577D02*
X132141690Y-115298243D01*
X132141690Y-115298243D02*
X132141690Y-115884910D01*
X132141690Y-115884910D02*
X130601690Y-115884910D01*
X130601690Y-115884910D02*
X130601690Y-115371577D01*
X130601690Y-115371577D02*
X130675023Y-115224910D01*
X130675023Y-115224910D02*
X130748357Y-115151577D01*
X130748357Y-115151577D02*
X130895023Y-115078243D01*
X130895023Y-115078243D02*
X131041690Y-115078243D01*
X131041690Y-115078243D02*
X131188357Y-115151577D01*
X131188357Y-115151577D02*
X131261690Y-115224910D01*
X131261690Y-115224910D02*
X131335023Y-115371577D01*
X131335023Y-115371577D02*
X131335023Y-115884910D01*
X131115023Y-113684910D02*
X132141690Y-113684910D01*
X131115023Y-114344910D02*
X131921690Y-114344910D01*
X131921690Y-114344910D02*
X132068357Y-114271577D01*
X132068357Y-114271577D02*
X132141690Y-114124910D01*
X132141690Y-114124910D02*
X132141690Y-113904910D01*
X132141690Y-113904910D02*
X132068357Y-113758243D01*
X132068357Y-113758243D02*
X131995023Y-113684910D01*
X131115023Y-113171577D02*
X131115023Y-112584910D01*
X130601690Y-112951577D02*
X131921690Y-112951577D01*
X131921690Y-112951577D02*
X132068357Y-112878244D01*
X132068357Y-112878244D02*
X132141690Y-112731577D01*
X132141690Y-112731577D02*
X132141690Y-112584910D01*
X131115023Y-112291577D02*
X131115023Y-111704910D01*
X130601690Y-112071577D02*
X131921690Y-112071577D01*
X131921690Y-112071577D02*
X132068357Y-111998244D01*
X132068357Y-111998244D02*
X132141690Y-111851577D01*
X132141690Y-111851577D02*
X132141690Y-111704910D01*
X132141690Y-110971577D02*
X132068357Y-111118244D01*
X132068357Y-111118244D02*
X131995023Y-111191577D01*
X131995023Y-111191577D02*
X131848357Y-111264910D01*
X131848357Y-111264910D02*
X131408357Y-111264910D01*
X131408357Y-111264910D02*
X131261690Y-111191577D01*
X131261690Y-111191577D02*
X131188357Y-111118244D01*
X131188357Y-111118244D02*
X131115023Y-110971577D01*
X131115023Y-110971577D02*
X131115023Y-110751577D01*
X131115023Y-110751577D02*
X131188357Y-110604910D01*
X131188357Y-110604910D02*
X131261690Y-110531577D01*
X131261690Y-110531577D02*
X131408357Y-110458244D01*
X131408357Y-110458244D02*
X131848357Y-110458244D01*
X131848357Y-110458244D02*
X131995023Y-110531577D01*
X131995023Y-110531577D02*
X132068357Y-110604910D01*
X132068357Y-110604910D02*
X132141690Y-110751577D01*
X132141690Y-110751577D02*
X132141690Y-110971577D01*
X131115023Y-109798244D02*
X132141690Y-109798244D01*
X131261690Y-109798244D02*
X131188357Y-109724911D01*
X131188357Y-109724911D02*
X131115023Y-109578244D01*
X131115023Y-109578244D02*
X131115023Y-109358244D01*
X131115023Y-109358244D02*
X131188357Y-109211577D01*
X131188357Y-109211577D02*
X131335023Y-109138244D01*
X131335023Y-109138244D02*
X132141690Y-109138244D01*
X131115023Y-106571578D02*
X132141690Y-106571578D01*
X130528357Y-106938245D02*
X131628357Y-107304911D01*
X131628357Y-107304911D02*
X131628357Y-106351578D01*
X133814337Y-115371577D02*
X133887671Y-115151577D01*
X133887671Y-115151577D02*
X133961004Y-115078243D01*
X133961004Y-115078243D02*
X134107671Y-115004910D01*
X134107671Y-115004910D02*
X134327671Y-115004910D01*
X134327671Y-115004910D02*
X134474337Y-115078243D01*
X134474337Y-115078243D02*
X134547671Y-115151577D01*
X134547671Y-115151577D02*
X134621004Y-115298243D01*
X134621004Y-115298243D02*
X134621004Y-115884910D01*
X134621004Y-115884910D02*
X133081004Y-115884910D01*
X133081004Y-115884910D02*
X133081004Y-115371577D01*
X133081004Y-115371577D02*
X133154337Y-115224910D01*
X133154337Y-115224910D02*
X133227671Y-115151577D01*
X133227671Y-115151577D02*
X133374337Y-115078243D01*
X133374337Y-115078243D02*
X133521004Y-115078243D01*
X133521004Y-115078243D02*
X133667671Y-115151577D01*
X133667671Y-115151577D02*
X133741004Y-115224910D01*
X133741004Y-115224910D02*
X133814337Y-115371577D01*
X133814337Y-115371577D02*
X133814337Y-115884910D01*
X133594337Y-113684910D02*
X134621004Y-113684910D01*
X133594337Y-114344910D02*
X134401004Y-114344910D01*
X134401004Y-114344910D02*
X134547671Y-114271577D01*
X134547671Y-114271577D02*
X134621004Y-114124910D01*
X134621004Y-114124910D02*
X134621004Y-113904910D01*
X134621004Y-113904910D02*
X134547671Y-113758243D01*
X134547671Y-113758243D02*
X134474337Y-113684910D01*
X133594337Y-113171577D02*
X133594337Y-112584910D01*
X133081004Y-112951577D02*
X134401004Y-112951577D01*
X134401004Y-112951577D02*
X134547671Y-112878244D01*
X134547671Y-112878244D02*
X134621004Y-112731577D01*
X134621004Y-112731577D02*
X134621004Y-112584910D01*
X133594337Y-112291577D02*
X133594337Y-111704910D01*
X133081004Y-112071577D02*
X134401004Y-112071577D01*
X134401004Y-112071577D02*
X134547671Y-111998244D01*
X134547671Y-111998244D02*
X134621004Y-111851577D01*
X134621004Y-111851577D02*
X134621004Y-111704910D01*
X134621004Y-110971577D02*
X134547671Y-111118244D01*
X134547671Y-111118244D02*
X134474337Y-111191577D01*
X134474337Y-111191577D02*
X134327671Y-111264910D01*
X134327671Y-111264910D02*
X133887671Y-111264910D01*
X133887671Y-111264910D02*
X133741004Y-111191577D01*
X133741004Y-111191577D02*
X133667671Y-111118244D01*
X133667671Y-111118244D02*
X133594337Y-110971577D01*
X133594337Y-110971577D02*
X133594337Y-110751577D01*
X133594337Y-110751577D02*
X133667671Y-110604910D01*
X133667671Y-110604910D02*
X133741004Y-110531577D01*
X133741004Y-110531577D02*
X133887671Y-110458244D01*
X133887671Y-110458244D02*
X134327671Y-110458244D01*
X134327671Y-110458244D02*
X134474337Y-110531577D01*
X134474337Y-110531577D02*
X134547671Y-110604910D01*
X134547671Y-110604910D02*
X134621004Y-110751577D01*
X134621004Y-110751577D02*
X134621004Y-110971577D01*
X133594337Y-109798244D02*
X134621004Y-109798244D01*
X133741004Y-109798244D02*
X133667671Y-109724911D01*
X133667671Y-109724911D02*
X133594337Y-109578244D01*
X133594337Y-109578244D02*
X133594337Y-109358244D01*
X133594337Y-109358244D02*
X133667671Y-109211577D01*
X133667671Y-109211577D02*
X133814337Y-109138244D01*
X133814337Y-109138244D02*
X134621004Y-109138244D01*
X133081004Y-107378245D02*
X133081004Y-106424911D01*
X133081004Y-106424911D02*
X133667671Y-106938245D01*
X133667671Y-106938245D02*
X133667671Y-106718245D01*
X133667671Y-106718245D02*
X133741004Y-106571578D01*
X133741004Y-106571578D02*
X133814337Y-106498245D01*
X133814337Y-106498245D02*
X133961004Y-106424911D01*
X133961004Y-106424911D02*
X134327671Y-106424911D01*
X134327671Y-106424911D02*
X134474337Y-106498245D01*
X134474337Y-106498245D02*
X134547671Y-106571578D01*
X134547671Y-106571578D02*
X134621004Y-106718245D01*
X134621004Y-106718245D02*
X134621004Y-107158245D01*
X134621004Y-107158245D02*
X134547671Y-107304911D01*
X134547671Y-107304911D02*
X134474337Y-107378245D01*
X136293651Y-115371577D02*
X136366985Y-115151577D01*
X136366985Y-115151577D02*
X136440318Y-115078243D01*
X136440318Y-115078243D02*
X136586985Y-115004910D01*
X136586985Y-115004910D02*
X136806985Y-115004910D01*
X136806985Y-115004910D02*
X136953651Y-115078243D01*
X136953651Y-115078243D02*
X137026985Y-115151577D01*
X137026985Y-115151577D02*
X137100318Y-115298243D01*
X137100318Y-115298243D02*
X137100318Y-115884910D01*
X137100318Y-115884910D02*
X135560318Y-115884910D01*
X135560318Y-115884910D02*
X135560318Y-115371577D01*
X135560318Y-115371577D02*
X135633651Y-115224910D01*
X135633651Y-115224910D02*
X135706985Y-115151577D01*
X135706985Y-115151577D02*
X135853651Y-115078243D01*
X135853651Y-115078243D02*
X136000318Y-115078243D01*
X136000318Y-115078243D02*
X136146985Y-115151577D01*
X136146985Y-115151577D02*
X136220318Y-115224910D01*
X136220318Y-115224910D02*
X136293651Y-115371577D01*
X136293651Y-115371577D02*
X136293651Y-115884910D01*
X136073651Y-113684910D02*
X137100318Y-113684910D01*
X136073651Y-114344910D02*
X136880318Y-114344910D01*
X136880318Y-114344910D02*
X137026985Y-114271577D01*
X137026985Y-114271577D02*
X137100318Y-114124910D01*
X137100318Y-114124910D02*
X137100318Y-113904910D01*
X137100318Y-113904910D02*
X137026985Y-113758243D01*
X137026985Y-113758243D02*
X136953651Y-113684910D01*
X136073651Y-113171577D02*
X136073651Y-112584910D01*
X135560318Y-112951577D02*
X136880318Y-112951577D01*
X136880318Y-112951577D02*
X137026985Y-112878244D01*
X137026985Y-112878244D02*
X137100318Y-112731577D01*
X137100318Y-112731577D02*
X137100318Y-112584910D01*
X136073651Y-112291577D02*
X136073651Y-111704910D01*
X135560318Y-112071577D02*
X136880318Y-112071577D01*
X136880318Y-112071577D02*
X137026985Y-111998244D01*
X137026985Y-111998244D02*
X137100318Y-111851577D01*
X137100318Y-111851577D02*
X137100318Y-111704910D01*
X137100318Y-110971577D02*
X137026985Y-111118244D01*
X137026985Y-111118244D02*
X136953651Y-111191577D01*
X136953651Y-111191577D02*
X136806985Y-111264910D01*
X136806985Y-111264910D02*
X136366985Y-111264910D01*
X136366985Y-111264910D02*
X136220318Y-111191577D01*
X136220318Y-111191577D02*
X136146985Y-111118244D01*
X136146985Y-111118244D02*
X136073651Y-110971577D01*
X136073651Y-110971577D02*
X136073651Y-110751577D01*
X136073651Y-110751577D02*
X136146985Y-110604910D01*
X136146985Y-110604910D02*
X136220318Y-110531577D01*
X136220318Y-110531577D02*
X136366985Y-110458244D01*
X136366985Y-110458244D02*
X136806985Y-110458244D01*
X136806985Y-110458244D02*
X136953651Y-110531577D01*
X136953651Y-110531577D02*
X137026985Y-110604910D01*
X137026985Y-110604910D02*
X137100318Y-110751577D01*
X137100318Y-110751577D02*
X137100318Y-110971577D01*
X136073651Y-109798244D02*
X137100318Y-109798244D01*
X136220318Y-109798244D02*
X136146985Y-109724911D01*
X136146985Y-109724911D02*
X136073651Y-109578244D01*
X136073651Y-109578244D02*
X136073651Y-109358244D01*
X136073651Y-109358244D02*
X136146985Y-109211577D01*
X136146985Y-109211577D02*
X136293651Y-109138244D01*
X136293651Y-109138244D02*
X137100318Y-109138244D01*
X135706985Y-107304911D02*
X135633651Y-107231578D01*
X135633651Y-107231578D02*
X135560318Y-107084911D01*
X135560318Y-107084911D02*
X135560318Y-106718245D01*
X135560318Y-106718245D02*
X135633651Y-106571578D01*
X135633651Y-106571578D02*
X135706985Y-106498245D01*
X135706985Y-106498245D02*
X135853651Y-106424911D01*
X135853651Y-106424911D02*
X136000318Y-106424911D01*
X136000318Y-106424911D02*
X136220318Y-106498245D01*
X136220318Y-106498245D02*
X137100318Y-107378245D01*
X137100318Y-107378245D02*
X137100318Y-106424911D01*
X138772965Y-115371577D02*
X138846299Y-115151577D01*
X138846299Y-115151577D02*
X138919632Y-115078243D01*
X138919632Y-115078243D02*
X139066299Y-115004910D01*
X139066299Y-115004910D02*
X139286299Y-115004910D01*
X139286299Y-115004910D02*
X139432965Y-115078243D01*
X139432965Y-115078243D02*
X139506299Y-115151577D01*
X139506299Y-115151577D02*
X139579632Y-115298243D01*
X139579632Y-115298243D02*
X139579632Y-115884910D01*
X139579632Y-115884910D02*
X138039632Y-115884910D01*
X138039632Y-115884910D02*
X138039632Y-115371577D01*
X138039632Y-115371577D02*
X138112965Y-115224910D01*
X138112965Y-115224910D02*
X138186299Y-115151577D01*
X138186299Y-115151577D02*
X138332965Y-115078243D01*
X138332965Y-115078243D02*
X138479632Y-115078243D01*
X138479632Y-115078243D02*
X138626299Y-115151577D01*
X138626299Y-115151577D02*
X138699632Y-115224910D01*
X138699632Y-115224910D02*
X138772965Y-115371577D01*
X138772965Y-115371577D02*
X138772965Y-115884910D01*
X138552965Y-113684910D02*
X139579632Y-113684910D01*
X138552965Y-114344910D02*
X139359632Y-114344910D01*
X139359632Y-114344910D02*
X139506299Y-114271577D01*
X139506299Y-114271577D02*
X139579632Y-114124910D01*
X139579632Y-114124910D02*
X139579632Y-113904910D01*
X139579632Y-113904910D02*
X139506299Y-113758243D01*
X139506299Y-113758243D02*
X139432965Y-113684910D01*
X138552965Y-113171577D02*
X138552965Y-112584910D01*
X138039632Y-112951577D02*
X139359632Y-112951577D01*
X139359632Y-112951577D02*
X139506299Y-112878244D01*
X139506299Y-112878244D02*
X139579632Y-112731577D01*
X139579632Y-112731577D02*
X139579632Y-112584910D01*
X138552965Y-112291577D02*
X138552965Y-111704910D01*
X138039632Y-112071577D02*
X139359632Y-112071577D01*
X139359632Y-112071577D02*
X139506299Y-111998244D01*
X139506299Y-111998244D02*
X139579632Y-111851577D01*
X139579632Y-111851577D02*
X139579632Y-111704910D01*
X139579632Y-110971577D02*
X139506299Y-111118244D01*
X139506299Y-111118244D02*
X139432965Y-111191577D01*
X139432965Y-111191577D02*
X139286299Y-111264910D01*
X139286299Y-111264910D02*
X138846299Y-111264910D01*
X138846299Y-111264910D02*
X138699632Y-111191577D01*
X138699632Y-111191577D02*
X138626299Y-111118244D01*
X138626299Y-111118244D02*
X138552965Y-110971577D01*
X138552965Y-110971577D02*
X138552965Y-110751577D01*
X138552965Y-110751577D02*
X138626299Y-110604910D01*
X138626299Y-110604910D02*
X138699632Y-110531577D01*
X138699632Y-110531577D02*
X138846299Y-110458244D01*
X138846299Y-110458244D02*
X139286299Y-110458244D01*
X139286299Y-110458244D02*
X139432965Y-110531577D01*
X139432965Y-110531577D02*
X139506299Y-110604910D01*
X139506299Y-110604910D02*
X139579632Y-110751577D01*
X139579632Y-110751577D02*
X139579632Y-110971577D01*
X138552965Y-109798244D02*
X139579632Y-109798244D01*
X138699632Y-109798244D02*
X138626299Y-109724911D01*
X138626299Y-109724911D02*
X138552965Y-109578244D01*
X138552965Y-109578244D02*
X138552965Y-109358244D01*
X138552965Y-109358244D02*
X138626299Y-109211577D01*
X138626299Y-109211577D02*
X138772965Y-109138244D01*
X138772965Y-109138244D02*
X139579632Y-109138244D01*
X139579632Y-106424911D02*
X139579632Y-107304911D01*
X139579632Y-106864911D02*
X138039632Y-106864911D01*
X138039632Y-106864911D02*
X138259632Y-107011578D01*
X138259632Y-107011578D02*
X138406299Y-107158245D01*
X138406299Y-107158245D02*
X138479632Y-107304911D01*
D11*
X117686128Y-79519641D02*
X117686128Y-80376784D01*
X117686128Y-79948213D02*
X116186128Y-79948213D01*
X116186128Y-79948213D02*
X116400414Y-80091070D01*
X116400414Y-80091070D02*
X116543271Y-80233927D01*
X116543271Y-80233927D02*
X116614700Y-80376784D01*
X116186128Y-78591070D02*
X116186128Y-78448213D01*
X116186128Y-78448213D02*
X116257557Y-78305356D01*
X116257557Y-78305356D02*
X116328985Y-78233928D01*
X116328985Y-78233928D02*
X116471842Y-78162499D01*
X116471842Y-78162499D02*
X116757557Y-78091070D01*
X116757557Y-78091070D02*
X117114700Y-78091070D01*
X117114700Y-78091070D02*
X117400414Y-78162499D01*
X117400414Y-78162499D02*
X117543271Y-78233928D01*
X117543271Y-78233928D02*
X117614700Y-78305356D01*
X117614700Y-78305356D02*
X117686128Y-78448213D01*
X117686128Y-78448213D02*
X117686128Y-78591070D01*
X117686128Y-78591070D02*
X117614700Y-78733928D01*
X117614700Y-78733928D02*
X117543271Y-78805356D01*
X117543271Y-78805356D02*
X117400414Y-78876785D01*
X117400414Y-78876785D02*
X117114700Y-78948213D01*
X117114700Y-78948213D02*
X116757557Y-78948213D01*
X116757557Y-78948213D02*
X116471842Y-78876785D01*
X116471842Y-78876785D02*
X116328985Y-78805356D01*
X116328985Y-78805356D02*
X116257557Y-78733928D01*
X116257557Y-78733928D02*
X116186128Y-78591070D01*
X116186128Y-77162499D02*
X116186128Y-77019642D01*
X116186128Y-77019642D02*
X116257557Y-76876785D01*
X116257557Y-76876785D02*
X116328985Y-76805357D01*
X116328985Y-76805357D02*
X116471842Y-76733928D01*
X116471842Y-76733928D02*
X116757557Y-76662499D01*
X116757557Y-76662499D02*
X117114700Y-76662499D01*
X117114700Y-76662499D02*
X117400414Y-76733928D01*
X117400414Y-76733928D02*
X117543271Y-76805357D01*
X117543271Y-76805357D02*
X117614700Y-76876785D01*
X117614700Y-76876785D02*
X117686128Y-77019642D01*
X117686128Y-77019642D02*
X117686128Y-77162499D01*
X117686128Y-77162499D02*
X117614700Y-77305357D01*
X117614700Y-77305357D02*
X117543271Y-77376785D01*
X117543271Y-77376785D02*
X117400414Y-77448214D01*
X117400414Y-77448214D02*
X117114700Y-77519642D01*
X117114700Y-77519642D02*
X116757557Y-77519642D01*
X116757557Y-77519642D02*
X116471842Y-77448214D01*
X116471842Y-77448214D02*
X116328985Y-77376785D01*
X116328985Y-77376785D02*
X116257557Y-77305357D01*
X116257557Y-77305357D02*
X116186128Y-77162499D01*
X117686128Y-76019643D02*
X116186128Y-76019643D01*
X117114700Y-75876786D02*
X117686128Y-75448214D01*
X116686128Y-75448214D02*
X117257557Y-76019643D01*
X126286128Y-78091070D02*
X126286128Y-78948213D01*
X126286128Y-78519642D02*
X124786128Y-78519642D01*
X124786128Y-78519642D02*
X125000414Y-78662499D01*
X125000414Y-78662499D02*
X125143271Y-78805356D01*
X125143271Y-78805356D02*
X125214700Y-78948213D01*
X126286128Y-77448214D02*
X124786128Y-77448214D01*
X125714700Y-77305357D02*
X126286128Y-76876785D01*
X125286128Y-76876785D02*
X125857557Y-77448214D01*
X106341104Y-92027285D02*
X106341104Y-91551095D01*
X106626819Y-92122523D02*
X105626819Y-91789190D01*
X105626819Y-91789190D02*
X106626819Y-91455857D01*
X106626819Y-90598714D02*
X106626819Y-91170142D01*
X106626819Y-90884428D02*
X105626819Y-90884428D01*
X105626819Y-90884428D02*
X105769676Y-90979666D01*
X105769676Y-90979666D02*
X105864914Y-91074904D01*
X105864914Y-91074904D02*
X105912533Y-91170142D01*
X146266819Y-92574904D02*
X147076342Y-92574904D01*
X147076342Y-92574904D02*
X147171580Y-92527285D01*
X147171580Y-92527285D02*
X147219200Y-92479666D01*
X147219200Y-92479666D02*
X147266819Y-92384428D01*
X147266819Y-92384428D02*
X147266819Y-92193952D01*
X147266819Y-92193952D02*
X147219200Y-92098714D01*
X147219200Y-92098714D02*
X147171580Y-92051095D01*
X147171580Y-92051095D02*
X147076342Y-92003476D01*
X147076342Y-92003476D02*
X146266819Y-92003476D01*
X147219200Y-91574904D02*
X147266819Y-91432047D01*
X147266819Y-91432047D02*
X147266819Y-91193952D01*
X147266819Y-91193952D02*
X147219200Y-91098714D01*
X147219200Y-91098714D02*
X147171580Y-91051095D01*
X147171580Y-91051095D02*
X147076342Y-91003476D01*
X147076342Y-91003476D02*
X146981104Y-91003476D01*
X146981104Y-91003476D02*
X146885866Y-91051095D01*
X146885866Y-91051095D02*
X146838247Y-91098714D01*
X146838247Y-91098714D02*
X146790628Y-91193952D01*
X146790628Y-91193952D02*
X146743009Y-91384428D01*
X146743009Y-91384428D02*
X146695390Y-91479666D01*
X146695390Y-91479666D02*
X146647771Y-91527285D01*
X146647771Y-91527285D02*
X146552533Y-91574904D01*
X146552533Y-91574904D02*
X146457295Y-91574904D01*
X146457295Y-91574904D02*
X146362057Y-91527285D01*
X146362057Y-91527285D02*
X146314438Y-91479666D01*
X146314438Y-91479666D02*
X146266819Y-91384428D01*
X146266819Y-91384428D02*
X146266819Y-91146333D01*
X146266819Y-91146333D02*
X146314438Y-91003476D01*
X146743009Y-90241571D02*
X146790628Y-90098714D01*
X146790628Y-90098714D02*
X146838247Y-90051095D01*
X146838247Y-90051095D02*
X146933485Y-90003476D01*
X146933485Y-90003476D02*
X147076342Y-90003476D01*
X147076342Y-90003476D02*
X147171580Y-90051095D01*
X147171580Y-90051095D02*
X147219200Y-90098714D01*
X147219200Y-90098714D02*
X147266819Y-90193952D01*
X147266819Y-90193952D02*
X147266819Y-90574904D01*
X147266819Y-90574904D02*
X146266819Y-90574904D01*
X146266819Y-90574904D02*
X146266819Y-90241571D01*
X146266819Y-90241571D02*
X146314438Y-90146333D01*
X146314438Y-90146333D02*
X146362057Y-90098714D01*
X146362057Y-90098714D02*
X146457295Y-90051095D01*
X146457295Y-90051095D02*
X146552533Y-90051095D01*
X146552533Y-90051095D02*
X146647771Y-90098714D01*
X146647771Y-90098714D02*
X146695390Y-90146333D01*
X146695390Y-90146333D02*
X146743009Y-90241571D01*
X146743009Y-90241571D02*
X146743009Y-90574904D01*
D14*
%TO.C,J5*%
X141830000Y-73870000D02*
X140500000Y-73870000D01*
X141830000Y-72540000D02*
X141830000Y-73870000D01*
X141830000Y-71270000D02*
X141830000Y-68670000D01*
X141830000Y-71270000D02*
X139170000Y-71270000D01*
X141830000Y-68670000D02*
X139170000Y-68670000D01*
X139170000Y-71270000D02*
X139170000Y-68670000D01*
%TO.C,J4*%
X141830000Y-79120000D02*
X140500000Y-79120000D01*
X141830000Y-77790000D02*
X141830000Y-79120000D01*
X141830000Y-76520000D02*
X141830000Y-73920000D01*
X141830000Y-76520000D02*
X139170000Y-76520000D01*
X141830000Y-73920000D02*
X139170000Y-73920000D01*
X139170000Y-76520000D02*
X139170000Y-73920000D01*
%TO.C,R2*%
X118265000Y-78139564D02*
X118265000Y-77685436D01*
X119735000Y-78139564D02*
X119735000Y-77685436D01*
%TO.C,R1*%
X122765000Y-78139564D02*
X122765000Y-77685436D01*
X124235000Y-78139564D02*
X124235000Y-77685436D01*
%TO.C,Q1*%
X126840000Y-75230000D02*
X126840000Y-79871000D01*
X126840000Y-75230000D02*
X137080000Y-75230000D01*
X126840000Y-76740000D02*
X137080000Y-76740000D01*
X126840000Y-79871000D02*
X137080000Y-79871000D01*
X130110000Y-75230000D02*
X130110000Y-76740000D01*
X133811000Y-75230000D02*
X133811000Y-76740000D01*
X137080000Y-75230000D02*
X137080000Y-79871000D01*
%TO.C,J3*%
X120010000Y-105330000D02*
X120010000Y-104000000D01*
X121340000Y-105330000D02*
X120010000Y-105330000D01*
X122610000Y-105330000D02*
X140450000Y-105330000D01*
X122610000Y-105330000D02*
X122610000Y-102670000D01*
X140450000Y-105330000D02*
X140450000Y-102670000D01*
X122610000Y-102670000D02*
X140450000Y-102670000D01*
%TO.C,J2*%
X118040000Y-70160000D02*
X118040000Y-71760000D01*
X118040000Y-71760000D02*
X119840000Y-71760000D01*
X119310000Y-67290000D02*
X122740000Y-67290000D01*
X119840000Y-71760000D02*
X119840000Y-72700000D01*
X124010000Y-70160000D02*
X124010000Y-71760000D01*
X124010000Y-71760000D02*
X122210000Y-71760000D01*
%TO.C,J1*%
X137350000Y-73250000D02*
X137350000Y-72000000D01*
X137060000Y-72960000D02*
X137060000Y-66990000D01*
X137060000Y-66990000D02*
X129440000Y-66990000D01*
X137050000Y-72950000D02*
X137050000Y-72200000D01*
X137050000Y-72200000D02*
X135250000Y-72200000D01*
X137050000Y-70700000D02*
X136300000Y-70700000D01*
X136300000Y-70700000D02*
X136300000Y-69360000D01*
X136100000Y-73250000D02*
X137350000Y-73250000D01*
X135250000Y-72950000D02*
X137050000Y-72950000D01*
X135250000Y-72200000D02*
X135250000Y-72950000D01*
X133750000Y-72950000D02*
X133750000Y-72200000D01*
X133750000Y-72200000D02*
X132750000Y-72200000D01*
X133250000Y-67750000D02*
X135240000Y-67750000D01*
X132750000Y-72950000D02*
X133750000Y-72950000D01*
X132750000Y-72200000D02*
X132750000Y-72950000D01*
X131250000Y-72950000D02*
X131250000Y-72200000D01*
X131250000Y-72200000D02*
X129450000Y-72200000D01*
X130200000Y-70700000D02*
X130200000Y-67750000D01*
X130200000Y-67750000D02*
X133250000Y-67750000D01*
X129450000Y-72950000D02*
X131250000Y-72950000D01*
X129450000Y-72200000D02*
X129450000Y-72950000D01*
X129450000Y-70700000D02*
X130200000Y-70700000D01*
X129440000Y-72960000D02*
X137060000Y-72960000D01*
X129440000Y-66990000D02*
X129440000Y-72960000D01*
%TO.C,A1*%
X107312000Y-100333000D02*
X109982000Y-100333000D01*
X112522000Y-100333000D02*
X150752000Y-100333000D01*
X150752000Y-100333000D02*
X150752000Y-95253000D01*
X109982000Y-97663000D02*
X109982000Y-100333000D01*
X112522000Y-97663000D02*
X112522000Y-100333000D01*
X112522000Y-97663000D02*
X109982000Y-97663000D01*
X112522000Y-97663000D02*
X148082000Y-97663000D01*
X148082000Y-97663000D02*
X148082000Y-100333000D01*
X142872000Y-95253000D02*
X142872000Y-87373000D01*
X153292000Y-95253000D02*
X142872000Y-95253000D01*
X142872000Y-87373000D02*
X153292000Y-87373000D01*
X153292000Y-87373000D02*
X153292000Y-95253000D01*
X109982000Y-84963000D02*
X148082000Y-84963000D01*
X109982000Y-84963000D02*
X109982000Y-82293000D01*
X148082000Y-84963000D02*
X148082000Y-82293000D01*
X107312000Y-82293000D02*
X107312000Y-100333000D01*
X150752000Y-82293000D02*
X150752000Y-87373000D01*
X150752000Y-82293000D02*
X107312000Y-82293000D01*
%TD*%
M02*
