M48
; DRILL file {KiCad 8.0.5} date 2024-11-28T22:16:41+0100
; FORMAT={-:-/ absolute / inch / decimal}
; #@! TF.CreationDate,2024-11-28T22:16:41+01:00
; #@! TF.GenerationSoftware,Kicad,Pcbnew,8.0.5
; #@! TF.FileFunction,Plated,1,2,PTH
FMAT,2
INCH
; #@! TA.AperFunction,Plated,PTH,ViaDrill
T1C0.0197
; #@! TA.AperFunction,Plated,PTH,ComponentDrill
T2C0.0394
; #@! TA.AperFunction,Plated,PTH,ComponentDrill
T3C0.0433
%
G90
G05
T1
X4.4803Y-3.5906
X4.4882Y-2.9449
X4.9311Y-3.1988
X4.9803Y-3.4646
X4.9803Y-3.75
X5.0787Y-3.4055
X5.0787Y-3.75
X5.2559Y-3.4055
X5.2854Y-2.9921
X5.4331Y-3.061
X5.4331Y-3.4646
T2
X4.38Y-3.295
X4.38Y-3.895
X4.48Y-3.295
X4.48Y-3.895
X4.58Y-3.295
X4.58Y-3.895
X4.68Y-3.295
X4.68Y-3.895
X4.7772Y-4.0945
X4.78Y-3.295
X4.78Y-3.895
X4.8772Y-4.0945
X4.88Y-3.295
X4.88Y-3.895
X4.9772Y-4.0945
X4.98Y-3.295
X4.98Y-3.895
X5.0772Y-4.0945
X5.08Y-3.295
X5.08Y-3.895
X5.1772Y-4.0945
X5.18Y-3.295
X5.18Y-3.895
X5.1969Y-2.7756
X5.2772Y-4.0945
X5.28Y-3.295
X5.28Y-3.895
X5.2953Y-2.7756
X5.3772Y-4.0945
X5.38Y-3.295
X5.38Y-3.895
X5.4772Y-4.0945
X5.48Y-3.295
X5.48Y-3.895
X5.5315Y-2.7559
X5.5315Y-2.8559
X5.5315Y-2.9626
X5.5315Y-3.0626
X5.58Y-3.295
X5.58Y-3.895
X5.68Y-3.295
X5.68Y-3.895
X5.78Y-3.295
X5.78Y-3.895
T3
X5.0953Y-3.0906
X5.1953Y-3.0906
X5.2953Y-3.0906
M30
